%TF.GenerationSoftware,KiCad,Pcbnew,(6.0.4)*%
%TF.CreationDate,2022-03-30T18:51:52+02:00*%
%TF.ProjectId,Pi-pico-AD9854_adapter,50692d70-6963-46f2-9d41-44393835345f,rev?*%
%TF.SameCoordinates,Original*%
%TF.FileFunction,Copper,L2,Bot*%
%TF.FilePolarity,Positive*%
%FSLAX46Y46*%
G04 Gerber Fmt 4.6, Leading zero omitted, Abs format (unit mm)*
G04 Created by KiCad (PCBNEW (6.0.4)) date 2022-03-30 18:51:52*
%MOMM*%
%LPD*%
G01*
G04 APERTURE LIST*
G04 Aperture macros list*
%AMRoundRect*
0 Rectangle with rounded corners*
0 $1 Rounding radius*
0 $2 $3 $4 $5 $6 $7 $8 $9 X,Y pos of 4 corners*
0 Add a 4 corners polygon primitive as box body*
4,1,4,$2,$3,$4,$5,$6,$7,$8,$9,$2,$3,0*
0 Add four circle primitives for the rounded corners*
1,1,$1+$1,$2,$3*
1,1,$1+$1,$4,$5*
1,1,$1+$1,$6,$7*
1,1,$1+$1,$8,$9*
0 Add four rect primitives between the rounded corners*
20,1,$1+$1,$2,$3,$4,$5,0*
20,1,$1+$1,$4,$5,$6,$7,0*
20,1,$1+$1,$6,$7,$8,$9,0*
20,1,$1+$1,$8,$9,$2,$3,0*%
G04 Aperture macros list end*
%TA.AperFunction,ComponentPad*%
%ADD10C,2.000000*%
%TD*%
%TA.AperFunction,ComponentPad*%
%ADD11O,1.050000X2.100000*%
%TD*%
%TA.AperFunction,ComponentPad*%
%ADD12O,1.700000X1.700000*%
%TD*%
%TA.AperFunction,ComponentPad*%
%ADD13R,1.700000X1.700000*%
%TD*%
%TA.AperFunction,ComponentPad*%
%ADD14RoundRect,0.250000X0.600000X0.600000X-0.600000X0.600000X-0.600000X-0.600000X0.600000X-0.600000X0*%
%TD*%
%TA.AperFunction,ComponentPad*%
%ADD15C,1.700000*%
%TD*%
%TA.AperFunction,ComponentPad*%
%ADD16RoundRect,0.249999X1.550001X-0.790001X1.550001X0.790001X-1.550001X0.790001X-1.550001X-0.790001X0*%
%TD*%
%TA.AperFunction,ComponentPad*%
%ADD17O,3.600000X2.080000*%
%TD*%
%TA.AperFunction,ViaPad*%
%ADD18C,0.800000*%
%TD*%
%TA.AperFunction,ViaPad*%
%ADD19C,1.600000*%
%TD*%
%TA.AperFunction,Conductor*%
%ADD20C,0.250000*%
%TD*%
G04 APERTURE END LIST*
D10*
%TO.P,TP2,1,1*%
%TO.N,GND*%
X130175000Y-36830000D03*
%TD*%
%TO.P,TP1,1,1*%
%TO.N,+5V*%
X116840000Y-26035000D03*
%TD*%
D11*
%TO.P,J2,S1,SHIELD*%
%TO.N,Net-(J2-PadS1)*%
X116080000Y-21960000D03*
X107440000Y-17780000D03*
X116080000Y-17780000D03*
X107440000Y-21960000D03*
%TD*%
D12*
%TO.P,U1,1,GPIO0*%
%TO.N,unconnected-(U1-Pad1)*%
X135890000Y-90805000D03*
%TO.P,U1,2,GPIO1*%
%TO.N,unconnected-(U1-Pad2)*%
X135890000Y-88265000D03*
D13*
%TO.P,U1,3,GND*%
%TO.N,unconnected-(U1-Pad3)*%
X135890000Y-85725000D03*
D12*
%TO.P,U1,4,GPIO2*%
%TO.N,FSK{slash}BPSK*%
X135890000Y-83185000D03*
%TO.P,U1,5,GPIO3*%
%TO.N,D7*%
X135890000Y-80645000D03*
%TO.P,U1,6,GPIO4*%
%TO.N,D6*%
X135890000Y-78105000D03*
%TO.P,U1,7,GPIO5*%
%TO.N,D5*%
X135890000Y-75565000D03*
D13*
%TO.P,U1,8,GND*%
%TO.N,unconnected-(U1-Pad8)*%
X135890000Y-73025000D03*
D12*
%TO.P,U1,9,GPIO6*%
%TO.N,D4*%
X135890000Y-70485000D03*
%TO.P,U1,10,GPIO7*%
%TO.N,D3*%
X135890000Y-67945000D03*
%TO.P,U1,11,GPIO8*%
%TO.N,D2*%
X135890000Y-65405000D03*
%TO.P,U1,12,GPIO9*%
%TO.N,D1*%
X135890000Y-62865000D03*
D13*
%TO.P,U1,13,GND*%
%TO.N,unconnected-(U1-Pad13)*%
X135890000Y-60325000D03*
D12*
%TO.P,U1,14,GPIO10*%
%TO.N,A5*%
X135890000Y-57785000D03*
%TO.P,U1,15,GPIO11*%
%TO.N,A3*%
X135890000Y-55245000D03*
%TO.P,U1,16,GPIO12*%
%TO.N,A1*%
X135890000Y-52705000D03*
%TO.P,U1,17,GPIO13*%
%TO.N,I{slash}O UD*%
X135890000Y-50165000D03*
D13*
%TO.P,U1,18,GND*%
%TO.N,unconnected-(U1-Pad18)*%
X135890000Y-47625000D03*
D12*
%TO.P,U1,19,GPIO14*%
%TO.N,RDB*%
X135890000Y-45085000D03*
%TO.P,U1,20,GPIO15*%
%TO.N,OSK*%
X135890000Y-42545000D03*
%TO.P,U1,21,GPIO16*%
%TO.N,MRESET*%
X118110000Y-42545000D03*
%TO.P,U1,22,GPIO17*%
%TO.N,PMODE*%
X118110000Y-45085000D03*
D13*
%TO.P,U1,23,GND*%
%TO.N,unconnected-(U1-Pad23)*%
X118110000Y-47625000D03*
D12*
%TO.P,U1,24,GPIO18*%
%TO.N,WRB*%
X118110000Y-50165000D03*
%TO.P,U1,25,GPIO19*%
%TO.N,A0*%
X118110000Y-52705000D03*
%TO.P,U1,26,GPIO20*%
%TO.N,A2*%
X118110000Y-55245000D03*
%TO.P,U1,27,GPIO21*%
%TO.N,A4*%
X118110000Y-57785000D03*
D13*
%TO.P,U1,28,GND*%
%TO.N,unconnected-(U1-Pad28)*%
X118110000Y-60325000D03*
D12*
%TO.P,U1,29,GPIO22*%
%TO.N,D0*%
X118110000Y-62865000D03*
%TO.P,U1,30,RUN*%
%TO.N,unconnected-(U1-Pad30)*%
X118110000Y-65405000D03*
%TO.P,U1,31,GPIO26_ADC0*%
%TO.N,unconnected-(U1-Pad31)*%
X118110000Y-67945000D03*
%TO.P,U1,32,GPIO27_ADC1*%
%TO.N,unconnected-(U1-Pad32)*%
X118110000Y-70485000D03*
D13*
%TO.P,U1,33,AGND*%
%TO.N,unconnected-(U1-Pad33)*%
X118110000Y-73025000D03*
D12*
%TO.P,U1,34,GPIO28_ADC2*%
%TO.N,unconnected-(U1-Pad34)*%
X118110000Y-75565000D03*
%TO.P,U1,35,ADC_VREF*%
%TO.N,unconnected-(U1-Pad35)*%
X118110000Y-78105000D03*
%TO.P,U1,36,3V3*%
%TO.N,unconnected-(U1-Pad36)*%
X118110000Y-80645000D03*
%TO.P,U1,37,3V3_EN*%
%TO.N,unconnected-(U1-Pad37)*%
X118110000Y-83185000D03*
D13*
%TO.P,U1,38,GND*%
%TO.N,GND*%
X118110000Y-85725000D03*
D12*
%TO.P,U1,39,VSYS*%
%TO.N,Net-(U1-Pad39)*%
X118110000Y-88265000D03*
%TO.P,U1,40,VBUS*%
%TO.N,Net-(U1-Pad40)*%
X118110000Y-90805000D03*
%TO.P,U1,41,SWCLK*%
%TO.N,unconnected-(U1-Pad41)*%
X129540000Y-42775000D03*
D13*
%TO.P,U1,42,GND*%
%TO.N,unconnected-(U1-Pad42)*%
X127000000Y-42775000D03*
D12*
%TO.P,U1,43,SWDIO*%
%TO.N,unconnected-(U1-Pad43)*%
X124460000Y-42775000D03*
%TD*%
D14*
%TO.P,J1,1,Pin_1*%
%TO.N,unconnected-(J1-Pad1)*%
X110490000Y-40640000D03*
D15*
%TO.P,J1,2,Pin_2*%
%TO.N,MRESET*%
X107950000Y-40640000D03*
%TO.P,J1,3,Pin_3*%
%TO.N,unconnected-(J1-Pad3)*%
X110490000Y-43180000D03*
%TO.P,J1,4,Pin_4*%
%TO.N,OSK*%
X107950000Y-43180000D03*
%TO.P,J1,5,Pin_5*%
%TO.N,unconnected-(J1-Pad5)*%
X110490000Y-45720000D03*
%TO.P,J1,6,Pin_6*%
%TO.N,PMODE*%
X107950000Y-45720000D03*
%TO.P,J1,7,Pin_7*%
%TO.N,unconnected-(J1-Pad7)*%
X110490000Y-48260000D03*
%TO.P,J1,8,Pin_8*%
%TO.N,RDB*%
X107950000Y-48260000D03*
%TO.P,J1,9,Pin_9*%
%TO.N,unconnected-(J1-Pad9)*%
X110490000Y-50800000D03*
%TO.P,J1,10,Pin_10*%
%TO.N,WRB*%
X107950000Y-50800000D03*
%TO.P,J1,11,Pin_11*%
%TO.N,unconnected-(J1-Pad11)*%
X110490000Y-53340000D03*
%TO.P,J1,12,Pin_12*%
%TO.N,I{slash}O UD*%
X107950000Y-53340000D03*
%TO.P,J1,13,Pin_13*%
%TO.N,unconnected-(J1-Pad13)*%
X110490000Y-55880000D03*
%TO.P,J1,14,Pin_14*%
%TO.N,A0*%
X107950000Y-55880000D03*
%TO.P,J1,15,Pin_15*%
%TO.N,unconnected-(J1-Pad15)*%
X110490000Y-58420000D03*
%TO.P,J1,16,Pin_16*%
%TO.N,A1*%
X107950000Y-58420000D03*
%TO.P,J1,17,Pin_17*%
%TO.N,unconnected-(J1-Pad17)*%
X110490000Y-60960000D03*
%TO.P,J1,18,Pin_18*%
%TO.N,A2*%
X107950000Y-60960000D03*
%TO.P,J1,19,Pin_19*%
%TO.N,unconnected-(J1-Pad19)*%
X110490000Y-63500000D03*
%TO.P,J1,20,Pin_20*%
%TO.N,A3*%
X107950000Y-63500000D03*
%TO.P,J1,21,Pin_21*%
%TO.N,unconnected-(J1-Pad21)*%
X110490000Y-66040000D03*
%TO.P,J1,22,Pin_22*%
%TO.N,A4*%
X107950000Y-66040000D03*
%TO.P,J1,23,Pin_23*%
%TO.N,unconnected-(J1-Pad23)*%
X110490000Y-68580000D03*
%TO.P,J1,24,Pin_24*%
%TO.N,A5*%
X107950000Y-68580000D03*
%TO.P,J1,25,Pin_25*%
%TO.N,unconnected-(J1-Pad25)*%
X110490000Y-71120000D03*
%TO.P,J1,26,Pin_26*%
%TO.N,D0*%
X107950000Y-71120000D03*
%TO.P,J1,27,Pin_27*%
%TO.N,unconnected-(J1-Pad27)*%
X110490000Y-73660000D03*
%TO.P,J1,28,Pin_28*%
%TO.N,D1*%
X107950000Y-73660000D03*
%TO.P,J1,29,Pin_29*%
%TO.N,unconnected-(J1-Pad29)*%
X110490000Y-76200000D03*
%TO.P,J1,30,Pin_30*%
%TO.N,D2*%
X107950000Y-76200000D03*
%TO.P,J1,31,Pin_31*%
%TO.N,unconnected-(J1-Pad31)*%
X110490000Y-78740000D03*
%TO.P,J1,32,Pin_32*%
%TO.N,D3*%
X107950000Y-78740000D03*
%TO.P,J1,33,Pin_33*%
%TO.N,unconnected-(J1-Pad33)*%
X110490000Y-81280000D03*
%TO.P,J1,34,Pin_34*%
%TO.N,D4*%
X107950000Y-81280000D03*
%TO.P,J1,35,Pin_35*%
%TO.N,unconnected-(J1-Pad35)*%
X110490000Y-83820000D03*
%TO.P,J1,36,Pin_36*%
%TO.N,D5*%
X107950000Y-83820000D03*
%TO.P,J1,37,Pin_37*%
%TO.N,unconnected-(J1-Pad37)*%
X110490000Y-86360000D03*
%TO.P,J1,38,Pin_38*%
%TO.N,D6*%
X107950000Y-86360000D03*
%TO.P,J1,39,Pin_39*%
%TO.N,unconnected-(J1-Pad39)*%
X110490000Y-88900000D03*
%TO.P,J1,40,Pin_40*%
%TO.N,D7*%
X107950000Y-88900000D03*
%TD*%
D16*
%TO.P,J4,1,Pin_1*%
%TO.N,+3V3*%
X128302500Y-30480000D03*
D17*
%TO.P,J4,2,Pin_2*%
%TO.N,GND*%
X128302500Y-25400000D03*
%TD*%
D10*
%TO.P,J3,1,Pin_1*%
%TO.N,FSK{slash}BPSK*%
X137795000Y-37465000D03*
%TD*%
D18*
%TO.N,GND*%
X132600500Y-77380500D03*
X132080000Y-79375000D03*
X121285000Y-45085000D03*
X121285000Y-52705000D03*
X121285000Y-55245000D03*
X121285000Y-60325000D03*
X121285000Y-67945000D03*
X121285000Y-70485000D03*
X121285000Y-73025000D03*
X121285000Y-75565000D03*
X121285000Y-79375000D03*
X121285000Y-83185000D03*
D19*
X107315000Y-37465000D03*
X111760000Y-19642500D03*
X126359018Y-50147351D03*
X140335000Y-93345000D03*
X105410000Y-93345000D03*
X140335000Y-17145000D03*
X105410000Y-17145000D03*
D18*
X115570000Y-24130000D03*
%TD*%
D20*
%TO.N,GND*%
X115570000Y-24130000D02*
X115515489Y-24184511D01*
%TO.N,OSK*%
X134485489Y-43949511D02*
X135890000Y-42545000D01*
X123973501Y-43949511D02*
X134485489Y-43949511D01*
X123838990Y-43815000D02*
X123973501Y-43949511D01*
X113665000Y-41910000D02*
X115570000Y-43815000D01*
X109220000Y-41910000D02*
X113665000Y-41910000D01*
X115570000Y-43815000D02*
X123838990Y-43815000D01*
X107950000Y-43180000D02*
X109220000Y-41910000D01*
%TO.N,A3*%
X134620000Y-56515000D02*
X135890000Y-55245000D01*
X112491207Y-60228793D02*
X116205000Y-56515000D01*
X116205000Y-56515000D02*
X134620000Y-56515000D01*
X112491207Y-61498793D02*
X112491207Y-60228793D01*
X109315489Y-62134511D02*
X111855489Y-62134511D01*
X107950000Y-63500000D02*
X109315489Y-62134511D01*
X111855489Y-62134511D02*
X112491207Y-61498793D01*
%TO.N,A4*%
X116205000Y-57785000D02*
X118110000Y-57785000D01*
X114300000Y-59690000D02*
X116205000Y-57785000D01*
X114300000Y-61595000D02*
X114300000Y-59690000D01*
X111125000Y-64770000D02*
X114300000Y-61595000D01*
X109220000Y-64770000D02*
X111125000Y-64770000D01*
X107950000Y-66040000D02*
X109220000Y-64770000D01*
%TO.N,A2*%
X111125000Y-59690000D02*
X115570000Y-55245000D01*
X109220000Y-59690000D02*
X111125000Y-59690000D01*
X107950000Y-60960000D02*
X109220000Y-59690000D01*
X115570000Y-55245000D02*
X118110000Y-55245000D01*
%TO.N,A1*%
X134620000Y-53975000D02*
X135890000Y-52705000D01*
X115570000Y-53975000D02*
X134620000Y-53975000D01*
X112395000Y-57150000D02*
X115570000Y-53975000D01*
X109220000Y-57150000D02*
X112395000Y-57150000D01*
X107950000Y-58420000D02*
X109220000Y-57150000D01*
%TO.N,A0*%
X113665000Y-54610000D02*
X115570000Y-52705000D01*
X109220000Y-54610000D02*
X113665000Y-54610000D01*
X107950000Y-55880000D02*
X109220000Y-54610000D01*
X115570000Y-52705000D02*
X118110000Y-52705000D01*
%TO.N,I{slash}O UD*%
X114495505Y-51435000D02*
X134620000Y-51435000D01*
X113860505Y-52070000D02*
X114495505Y-51435000D01*
X109220000Y-52070000D02*
X113860505Y-52070000D01*
X107950000Y-53340000D02*
X109220000Y-52070000D01*
X134620000Y-51435000D02*
X135890000Y-50165000D01*
%TO.N,WRB*%
X117475000Y-49530000D02*
X118110000Y-50165000D01*
X109855000Y-49530000D02*
X117475000Y-49530000D01*
X107950000Y-50800000D02*
X107950000Y-51435000D01*
X107950000Y-51435000D02*
X109855000Y-49530000D01*
%TO.N,RDB*%
X134620000Y-46355000D02*
X135890000Y-45085000D01*
X115570000Y-46355000D02*
X134620000Y-46355000D01*
X109220000Y-46990000D02*
X114935000Y-46990000D01*
X114935000Y-46990000D02*
X115570000Y-46355000D01*
X107950000Y-48260000D02*
X109220000Y-46990000D01*
%TO.N,PMODE*%
X114300000Y-45085000D02*
X118110000Y-45085000D01*
X109220000Y-44450000D02*
X113665000Y-44450000D01*
X113665000Y-44450000D02*
X114300000Y-45085000D01*
X107950000Y-45720000D02*
X109220000Y-44450000D01*
%TO.N,A5*%
X132175489Y-61499511D02*
X135890000Y-57785000D01*
X117814479Y-61499511D02*
X132175489Y-61499511D01*
X112099479Y-67214511D02*
X117814479Y-61499511D01*
X109315489Y-67214511D02*
X112099479Y-67214511D01*
X107950000Y-68580000D02*
X109315489Y-67214511D01*
%TO.N,D0*%
X111220489Y-69754511D02*
X118110000Y-62865000D01*
X109315489Y-69754511D02*
X111220489Y-69754511D01*
X107950000Y-71120000D02*
X109315489Y-69754511D01*
%TO.N,MRESET*%
X109220000Y-39370000D02*
X114935000Y-39370000D01*
X114935000Y-39370000D02*
X118110000Y-42545000D01*
X107950000Y-40640000D02*
X109220000Y-39370000D01*
%TO.N,D1*%
X134620000Y-62865000D02*
X135890000Y-62865000D01*
X110976499Y-72485489D02*
X114342477Y-69119511D01*
X109124511Y-72485489D02*
X110976499Y-72485489D01*
X107950000Y-73660000D02*
X109124511Y-72485489D01*
X114342477Y-69119511D02*
X128365489Y-69119511D01*
X128365489Y-69119511D02*
X134620000Y-62865000D01*
%TO.N,D2*%
X117126467Y-71659511D02*
X129635489Y-71659511D01*
X129635489Y-71659511D02*
X135890000Y-65405000D01*
X113760489Y-75025489D02*
X117126467Y-71659511D01*
X109124511Y-75025489D02*
X113760489Y-75025489D01*
X107950000Y-76200000D02*
X109124511Y-75025489D01*
%TO.N,D3*%
X117814479Y-74199511D02*
X129635489Y-74199511D01*
X109124511Y-77565489D02*
X114448501Y-77565489D01*
X114448501Y-77565489D02*
X117814479Y-74199511D01*
X129635489Y-74199511D02*
X135890000Y-67945000D01*
X107950000Y-78740000D02*
X109124511Y-77565489D01*
%TO.N,D4*%
X129635489Y-76739511D02*
X135890000Y-70485000D01*
X117814479Y-76739511D02*
X129635489Y-76739511D01*
X114448501Y-80105489D02*
X117814479Y-76739511D01*
X109124511Y-80105489D02*
X114448501Y-80105489D01*
X107950000Y-81280000D02*
X109124511Y-80105489D01*
%TO.N,D5*%
X116395978Y-82645489D02*
X117126467Y-81915000D01*
X132714282Y-75565000D02*
X135890000Y-75565000D01*
X109124511Y-82645489D02*
X116395978Y-82645489D01*
X107950000Y-83820000D02*
X109124511Y-82645489D01*
X117126467Y-81915000D02*
X126364282Y-81915000D01*
X126364282Y-81915000D02*
X132714282Y-75565000D01*
%TO.N,D6*%
X130810000Y-78105000D02*
X135890000Y-78105000D01*
X124460000Y-84455000D02*
X130810000Y-78105000D01*
X116395978Y-85090000D02*
X117030978Y-84455000D01*
X109220000Y-85090000D02*
X116395978Y-85090000D01*
X117030978Y-84455000D02*
X124460000Y-84455000D01*
X107950000Y-86360000D02*
X109220000Y-85090000D01*
%TO.N,D7*%
X129984686Y-80645000D02*
X135890000Y-80645000D01*
X114935000Y-90170000D02*
X115665489Y-89439511D01*
X114839511Y-90074511D02*
X114935000Y-90170000D01*
X109124511Y-90074511D02*
X114839511Y-90074511D01*
X115665489Y-89439511D02*
X121190175Y-89439511D01*
X121190175Y-89439511D02*
X129984686Y-80645000D01*
X107950000Y-88900000D02*
X109124511Y-90074511D01*
%TD*%
%TA.AperFunction,Conductor*%
%TO.N,GND*%
G36*
X141547121Y-15451002D02*
G01*
X141593614Y-15504658D01*
X141605000Y-15557000D01*
X141605000Y-94298000D01*
X141584998Y-94366121D01*
X141531342Y-94412614D01*
X141479000Y-94424000D01*
X104266000Y-94424000D01*
X104197879Y-94403998D01*
X104151386Y-94350342D01*
X104140000Y-94298000D01*
X104140000Y-88866695D01*
X106587251Y-88866695D01*
X106587548Y-88871848D01*
X106587548Y-88871851D01*
X106595404Y-89008104D01*
X106600110Y-89089715D01*
X106601247Y-89094761D01*
X106601248Y-89094767D01*
X106621119Y-89182939D01*
X106649222Y-89307639D01*
X106696664Y-89424476D01*
X106727742Y-89501011D01*
X106733266Y-89514616D01*
X106762081Y-89561638D01*
X106817153Y-89651507D01*
X106849987Y-89705088D01*
X106996250Y-89873938D01*
X107168126Y-90016632D01*
X107361000Y-90129338D01*
X107569692Y-90209030D01*
X107574760Y-90210061D01*
X107574763Y-90210062D01*
X107645945Y-90224544D01*
X107788597Y-90253567D01*
X107793772Y-90253757D01*
X107793774Y-90253757D01*
X108006673Y-90261564D01*
X108006677Y-90261564D01*
X108011837Y-90261753D01*
X108016957Y-90261097D01*
X108016959Y-90261097D01*
X108228288Y-90234025D01*
X108228289Y-90234025D01*
X108233416Y-90233368D01*
X108238367Y-90231883D01*
X108238370Y-90231882D01*
X108279829Y-90219444D01*
X108350825Y-90219028D01*
X108405131Y-90251035D01*
X108620854Y-90466758D01*
X108628398Y-90475048D01*
X108632511Y-90481529D01*
X108638288Y-90486954D01*
X108682178Y-90528169D01*
X108685020Y-90530924D01*
X108704741Y-90550645D01*
X108707936Y-90553123D01*
X108716958Y-90560829D01*
X108749190Y-90591097D01*
X108756139Y-90594917D01*
X108766943Y-90600857D01*
X108783467Y-90611710D01*
X108799470Y-90624124D01*
X108840054Y-90641687D01*
X108850684Y-90646894D01*
X108889451Y-90668206D01*
X108897128Y-90670177D01*
X108897133Y-90670179D01*
X108909069Y-90673243D01*
X108927777Y-90679648D01*
X108946366Y-90687692D01*
X108954191Y-90688931D01*
X108954193Y-90688932D01*
X108990030Y-90694608D01*
X109001651Y-90697015D01*
X109036800Y-90706039D01*
X109044481Y-90708011D01*
X109064742Y-90708011D01*
X109084451Y-90709562D01*
X109104454Y-90712730D01*
X109112346Y-90711984D01*
X109117573Y-90711490D01*
X109148465Y-90708570D01*
X109160322Y-90708011D01*
X114557821Y-90708011D01*
X114608929Y-90721991D01*
X114609958Y-90719614D01*
X114644323Y-90734485D01*
X114661073Y-90741733D01*
X114661507Y-90741921D01*
X114668642Y-90745278D01*
X114718704Y-90770785D01*
X114726749Y-90772583D01*
X114749294Y-90779909D01*
X114756855Y-90783181D01*
X114802894Y-90790473D01*
X114812326Y-90791967D01*
X114820101Y-90793451D01*
X114842135Y-90798376D01*
X114874909Y-90805702D01*
X114882832Y-90805453D01*
X114882833Y-90805453D01*
X114882894Y-90805451D01*
X114883144Y-90805443D01*
X114906815Y-90806933D01*
X114907111Y-90806980D01*
X114907114Y-90806980D01*
X114914943Y-90808220D01*
X114922835Y-90807474D01*
X114922836Y-90807474D01*
X114970858Y-90802935D01*
X114978755Y-90802438D01*
X115011972Y-90801393D01*
X115034889Y-90800673D01*
X115042798Y-90798375D01*
X115066094Y-90793932D01*
X115066404Y-90793903D01*
X115066407Y-90793902D01*
X115074292Y-90793157D01*
X115127144Y-90774129D01*
X115134673Y-90771683D01*
X115180981Y-90758230D01*
X115180985Y-90758228D01*
X115188593Y-90756018D01*
X115195416Y-90751983D01*
X115195420Y-90751981D01*
X115195688Y-90751823D01*
X115217132Y-90741733D01*
X115217423Y-90741628D01*
X115217431Y-90741624D01*
X115224889Y-90738939D01*
X115271365Y-90707354D01*
X115277996Y-90703145D01*
X115326362Y-90674542D01*
X115332182Y-90668722D01*
X115350453Y-90653606D01*
X115350710Y-90653431D01*
X115357271Y-90648972D01*
X115364768Y-90640469D01*
X115394418Y-90606837D01*
X115399837Y-90601067D01*
X115890988Y-90109916D01*
X115953300Y-90075890D01*
X115980083Y-90073011D01*
X116754576Y-90073011D01*
X116822697Y-90093013D01*
X116869190Y-90146669D01*
X116879294Y-90216943D01*
X116868864Y-90252061D01*
X116868645Y-90252534D01*
X116830688Y-90334305D01*
X116770989Y-90549570D01*
X116747251Y-90771695D01*
X116747548Y-90776848D01*
X116747548Y-90776851D01*
X116753011Y-90871590D01*
X116760110Y-90994715D01*
X116761247Y-90999761D01*
X116761248Y-90999767D01*
X116781119Y-91087939D01*
X116809222Y-91212639D01*
X116849346Y-91311453D01*
X116884602Y-91398278D01*
X116893266Y-91419616D01*
X117009987Y-91610088D01*
X117156250Y-91778938D01*
X117328126Y-91921632D01*
X117521000Y-92034338D01*
X117729692Y-92114030D01*
X117734760Y-92115061D01*
X117734763Y-92115062D01*
X117842017Y-92136883D01*
X117948597Y-92158567D01*
X117953772Y-92158757D01*
X117953774Y-92158757D01*
X118166673Y-92166564D01*
X118166677Y-92166564D01*
X118171837Y-92166753D01*
X118176957Y-92166097D01*
X118176959Y-92166097D01*
X118388288Y-92139025D01*
X118388289Y-92139025D01*
X118393416Y-92138368D01*
X118398366Y-92136883D01*
X118602429Y-92075661D01*
X118602434Y-92075659D01*
X118607384Y-92074174D01*
X118807994Y-91975896D01*
X118989860Y-91846173D01*
X119148096Y-91688489D01*
X119207594Y-91605689D01*
X119275435Y-91511277D01*
X119278453Y-91507077D01*
X119327857Y-91407116D01*
X119375136Y-91311453D01*
X119375137Y-91311451D01*
X119377430Y-91306811D01*
X119442370Y-91093069D01*
X119471529Y-90871590D01*
X119473156Y-90805000D01*
X119459629Y-90640469D01*
X122862095Y-90640469D01*
X122862392Y-90645622D01*
X122862392Y-90645625D01*
X122871724Y-90807474D01*
X122875427Y-90871697D01*
X122876564Y-90876743D01*
X122876565Y-90876749D01*
X122901986Y-90989547D01*
X122926346Y-91097642D01*
X122928288Y-91102424D01*
X122928289Y-91102428D01*
X122973041Y-91212639D01*
X123013484Y-91312237D01*
X123134501Y-91509719D01*
X123286147Y-91684784D01*
X123464349Y-91832730D01*
X123664322Y-91949584D01*
X123880694Y-92032209D01*
X123885760Y-92033240D01*
X123885761Y-92033240D01*
X123891158Y-92034338D01*
X124107656Y-92078385D01*
X124238324Y-92083176D01*
X124333949Y-92086683D01*
X124333953Y-92086683D01*
X124339113Y-92086872D01*
X124344233Y-92086216D01*
X124344235Y-92086216D01*
X124456025Y-92071895D01*
X124568847Y-92057442D01*
X124573795Y-92055957D01*
X124573802Y-92055956D01*
X124785747Y-91992369D01*
X124790690Y-91990886D01*
X124816641Y-91978173D01*
X124994049Y-91891262D01*
X124994052Y-91891260D01*
X124998684Y-91888991D01*
X125187243Y-91754494D01*
X125351303Y-91591005D01*
X125486458Y-91402917D01*
X125533641Y-91307450D01*
X125586784Y-91199922D01*
X125586785Y-91199920D01*
X125589078Y-91195280D01*
X125656408Y-90973671D01*
X125686640Y-90744041D01*
X125686765Y-90738939D01*
X125688245Y-90678365D01*
X125688245Y-90678361D01*
X125688327Y-90675000D01*
X125685488Y-90640469D01*
X128312095Y-90640469D01*
X128312392Y-90645622D01*
X128312392Y-90645625D01*
X128321724Y-90807474D01*
X128325427Y-90871697D01*
X128326564Y-90876743D01*
X128326565Y-90876749D01*
X128351986Y-90989547D01*
X128376346Y-91097642D01*
X128378288Y-91102424D01*
X128378289Y-91102428D01*
X128423041Y-91212639D01*
X128463484Y-91312237D01*
X128584501Y-91509719D01*
X128736147Y-91684784D01*
X128914349Y-91832730D01*
X129114322Y-91949584D01*
X129330694Y-92032209D01*
X129335760Y-92033240D01*
X129335761Y-92033240D01*
X129341158Y-92034338D01*
X129557656Y-92078385D01*
X129688324Y-92083176D01*
X129783949Y-92086683D01*
X129783953Y-92086683D01*
X129789113Y-92086872D01*
X129794233Y-92086216D01*
X129794235Y-92086216D01*
X129906025Y-92071895D01*
X130018847Y-92057442D01*
X130023795Y-92055957D01*
X130023802Y-92055956D01*
X130235747Y-91992369D01*
X130240690Y-91990886D01*
X130266641Y-91978173D01*
X130444049Y-91891262D01*
X130444052Y-91891260D01*
X130448684Y-91888991D01*
X130637243Y-91754494D01*
X130801303Y-91591005D01*
X130936458Y-91402917D01*
X130983641Y-91307450D01*
X131036784Y-91199922D01*
X131036785Y-91199920D01*
X131039078Y-91195280D01*
X131106408Y-90973671D01*
X131136640Y-90744041D01*
X131136765Y-90738939D01*
X131138245Y-90678365D01*
X131138245Y-90678361D01*
X131138327Y-90675000D01*
X131130298Y-90577342D01*
X131119773Y-90449318D01*
X131119772Y-90449312D01*
X131119349Y-90444167D01*
X131073530Y-90261753D01*
X131064184Y-90224544D01*
X131064183Y-90224540D01*
X131062925Y-90219533D01*
X131053483Y-90197817D01*
X130972630Y-90011868D01*
X130972628Y-90011865D01*
X130970570Y-90007131D01*
X130844764Y-89812665D01*
X130688887Y-89641358D01*
X130684836Y-89638159D01*
X130684832Y-89638155D01*
X130511177Y-89501011D01*
X130511172Y-89501008D01*
X130507123Y-89497810D01*
X130502607Y-89495317D01*
X130502604Y-89495315D01*
X130308879Y-89388373D01*
X130308875Y-89388371D01*
X130304355Y-89385876D01*
X130299486Y-89384152D01*
X130299482Y-89384150D01*
X130090903Y-89310288D01*
X130090899Y-89310287D01*
X130086028Y-89308562D01*
X130080935Y-89307655D01*
X130080932Y-89307654D01*
X129863095Y-89268851D01*
X129863089Y-89268850D01*
X129858006Y-89267945D01*
X129785096Y-89267054D01*
X129631581Y-89265179D01*
X129631579Y-89265179D01*
X129626411Y-89265116D01*
X129397464Y-89300150D01*
X129177314Y-89372106D01*
X129172726Y-89374494D01*
X129172722Y-89374496D01*
X129044948Y-89441011D01*
X128971872Y-89479052D01*
X128967739Y-89482155D01*
X128967736Y-89482157D01*
X128790790Y-89615012D01*
X128786655Y-89618117D01*
X128626639Y-89785564D01*
X128623725Y-89789836D01*
X128623724Y-89789837D01*
X128608694Y-89811870D01*
X128496119Y-89976899D01*
X128398602Y-90186981D01*
X128336707Y-90410169D01*
X128312095Y-90640469D01*
X125685488Y-90640469D01*
X125680298Y-90577342D01*
X125669773Y-90449318D01*
X125669772Y-90449312D01*
X125669349Y-90444167D01*
X125623530Y-90261753D01*
X125614184Y-90224544D01*
X125614183Y-90224540D01*
X125612925Y-90219533D01*
X125603483Y-90197817D01*
X125522630Y-90011868D01*
X125522628Y-90011865D01*
X125520570Y-90007131D01*
X125394764Y-89812665D01*
X125238887Y-89641358D01*
X125234836Y-89638159D01*
X125234832Y-89638155D01*
X125061177Y-89501011D01*
X125061172Y-89501008D01*
X125057123Y-89497810D01*
X125052607Y-89495317D01*
X125052604Y-89495315D01*
X124858879Y-89388373D01*
X124858875Y-89388371D01*
X124854355Y-89385876D01*
X124849486Y-89384152D01*
X124849482Y-89384150D01*
X124640903Y-89310288D01*
X124640899Y-89310287D01*
X124636028Y-89308562D01*
X124630935Y-89307655D01*
X124630932Y-89307654D01*
X124413095Y-89268851D01*
X124413089Y-89268850D01*
X124408006Y-89267945D01*
X124335096Y-89267054D01*
X124181581Y-89265179D01*
X124181579Y-89265179D01*
X124176411Y-89265116D01*
X123947464Y-89300150D01*
X123727314Y-89372106D01*
X123722726Y-89374494D01*
X123722722Y-89374496D01*
X123594948Y-89441011D01*
X123521872Y-89479052D01*
X123517739Y-89482155D01*
X123517736Y-89482157D01*
X123340790Y-89615012D01*
X123336655Y-89618117D01*
X123176639Y-89785564D01*
X123173725Y-89789836D01*
X123173724Y-89789837D01*
X123158694Y-89811870D01*
X123046119Y-89976899D01*
X122948602Y-90186981D01*
X122886707Y-90410169D01*
X122862095Y-90640469D01*
X119459629Y-90640469D01*
X119454852Y-90582361D01*
X119400431Y-90365702D01*
X119349797Y-90249252D01*
X119340977Y-90178807D01*
X119371644Y-90114775D01*
X119432060Y-90077487D01*
X119465347Y-90073011D01*
X121111408Y-90073011D01*
X121122591Y-90073538D01*
X121130084Y-90075213D01*
X121138010Y-90074964D01*
X121138011Y-90074964D01*
X121198161Y-90073073D01*
X121202120Y-90073011D01*
X121230031Y-90073011D01*
X121233966Y-90072514D01*
X121234031Y-90072506D01*
X121245868Y-90071573D01*
X121278126Y-90070559D01*
X121282145Y-90070433D01*
X121290064Y-90070184D01*
X121309518Y-90064532D01*
X121328875Y-90060524D01*
X121341105Y-90058979D01*
X121341106Y-90058979D01*
X121348972Y-90057985D01*
X121356343Y-90055066D01*
X121356345Y-90055066D01*
X121390087Y-90041707D01*
X121401317Y-90037862D01*
X121436158Y-90027740D01*
X121436159Y-90027740D01*
X121443768Y-90025529D01*
X121450587Y-90021496D01*
X121450592Y-90021494D01*
X121461203Y-90015218D01*
X121478951Y-90006523D01*
X121497792Y-89999063D01*
X121533562Y-89973075D01*
X121543482Y-89966559D01*
X121574710Y-89948091D01*
X121574713Y-89948089D01*
X121581537Y-89944053D01*
X121595858Y-89929732D01*
X121610892Y-89916891D01*
X121620869Y-89909642D01*
X121627282Y-89904983D01*
X121655473Y-89870906D01*
X121663463Y-89862127D01*
X123280263Y-88245328D01*
X123342575Y-88211302D01*
X123413391Y-88216367D01*
X123470226Y-88258914D01*
X123478474Y-88271418D01*
X123478624Y-88271678D01*
X123480944Y-88276653D01*
X123517066Y-88328240D01*
X123602006Y-88449547D01*
X123607251Y-88457038D01*
X123762962Y-88612749D01*
X123767471Y-88615906D01*
X123767473Y-88615908D01*
X123833412Y-88662079D01*
X123943346Y-88739056D01*
X124142924Y-88832120D01*
X124355629Y-88889115D01*
X124575000Y-88908307D01*
X124794371Y-88889115D01*
X125007076Y-88832120D01*
X125206654Y-88739056D01*
X125316588Y-88662079D01*
X125382527Y-88615908D01*
X125382529Y-88615906D01*
X125387038Y-88612749D01*
X125542749Y-88457038D01*
X125547995Y-88449547D01*
X125665899Y-88281162D01*
X125665904Y-88281154D01*
X125669056Y-88276653D01*
X125671379Y-88271671D01*
X125671382Y-88271666D01*
X125759795Y-88082061D01*
X125762120Y-88077076D01*
X125819115Y-87864371D01*
X125838307Y-87645000D01*
X128161693Y-87645000D01*
X128180885Y-87864371D01*
X128237880Y-88077076D01*
X128240205Y-88082061D01*
X128328618Y-88271666D01*
X128328621Y-88271671D01*
X128330944Y-88276653D01*
X128334096Y-88281154D01*
X128334101Y-88281162D01*
X128452006Y-88449547D01*
X128457251Y-88457038D01*
X128612962Y-88612749D01*
X128617471Y-88615906D01*
X128617473Y-88615908D01*
X128683412Y-88662079D01*
X128793346Y-88739056D01*
X128992924Y-88832120D01*
X129205629Y-88889115D01*
X129425000Y-88908307D01*
X129644371Y-88889115D01*
X129857076Y-88832120D01*
X130056654Y-88739056D01*
X130166588Y-88662079D01*
X130232527Y-88615908D01*
X130232529Y-88615906D01*
X130237038Y-88612749D01*
X130392749Y-88457038D01*
X130397995Y-88449547D01*
X130515899Y-88281162D01*
X130515904Y-88281154D01*
X130519056Y-88276653D01*
X130521379Y-88271671D01*
X130521382Y-88271666D01*
X130609795Y-88082061D01*
X130612120Y-88077076D01*
X130669115Y-87864371D01*
X130688307Y-87645000D01*
X130669115Y-87425629D01*
X130612120Y-87212924D01*
X130545074Y-87069142D01*
X130521382Y-87018334D01*
X130521379Y-87018329D01*
X130519056Y-87013347D01*
X130515562Y-87008357D01*
X130395908Y-86837473D01*
X130395906Y-86837470D01*
X130392749Y-86832962D01*
X130237038Y-86677251D01*
X130056654Y-86550944D01*
X129857076Y-86457880D01*
X129644371Y-86400885D01*
X129425000Y-86381693D01*
X129205629Y-86400885D01*
X128992924Y-86457880D01*
X128908831Y-86497093D01*
X128798334Y-86548618D01*
X128798329Y-86548621D01*
X128793347Y-86550944D01*
X128788843Y-86554098D01*
X128788838Y-86554101D01*
X128617473Y-86674092D01*
X128617470Y-86674094D01*
X128612962Y-86677251D01*
X128457251Y-86832962D01*
X128454094Y-86837470D01*
X128454092Y-86837473D01*
X128334438Y-87008357D01*
X128330944Y-87013347D01*
X128328621Y-87018329D01*
X128328618Y-87018334D01*
X128304926Y-87069142D01*
X128237880Y-87212924D01*
X128180885Y-87425629D01*
X128161693Y-87645000D01*
X125838307Y-87645000D01*
X125819115Y-87425629D01*
X125762120Y-87212924D01*
X125695074Y-87069142D01*
X125671382Y-87018334D01*
X125671379Y-87018329D01*
X125669056Y-87013347D01*
X125665562Y-87008357D01*
X125545908Y-86837473D01*
X125545906Y-86837470D01*
X125542749Y-86832962D01*
X125387038Y-86677251D01*
X125382527Y-86674092D01*
X125211159Y-86554098D01*
X125211155Y-86554096D01*
X125206654Y-86550944D01*
X125201672Y-86548621D01*
X125201421Y-86548476D01*
X125152429Y-86497093D01*
X125138994Y-86427379D01*
X125165381Y-86361469D01*
X125175328Y-86350263D01*
X130210186Y-81315405D01*
X130272498Y-81281379D01*
X130299281Y-81278500D01*
X134614274Y-81278500D01*
X134682395Y-81298502D01*
X134721707Y-81338665D01*
X134726862Y-81347077D01*
X134789987Y-81450088D01*
X134936250Y-81618938D01*
X135108126Y-81761632D01*
X135150594Y-81786448D01*
X135181445Y-81804476D01*
X135230169Y-81856114D01*
X135243240Y-81925897D01*
X135216509Y-81991669D01*
X135176055Y-82025027D01*
X135163607Y-82031507D01*
X135159474Y-82034610D01*
X135159471Y-82034612D01*
X134989100Y-82162530D01*
X134984965Y-82165635D01*
X134830629Y-82327138D01*
X134704743Y-82511680D01*
X134610688Y-82714305D01*
X134550989Y-82929570D01*
X134527251Y-83151695D01*
X134527548Y-83156848D01*
X134527548Y-83156851D01*
X134536181Y-83306580D01*
X134540110Y-83374715D01*
X134541247Y-83379761D01*
X134541248Y-83379767D01*
X134541459Y-83380702D01*
X134589222Y-83592639D01*
X134627461Y-83686811D01*
X134667167Y-83784595D01*
X134673266Y-83799616D01*
X134695970Y-83836665D01*
X134782347Y-83977620D01*
X134789987Y-83990088D01*
X134936250Y-84158938D01*
X134940230Y-84162242D01*
X134944981Y-84166187D01*
X134984616Y-84225090D01*
X134986113Y-84296071D01*
X134948997Y-84356593D01*
X134908725Y-84381112D01*
X134812751Y-84417091D01*
X134793295Y-84424385D01*
X134676739Y-84511739D01*
X134589385Y-84628295D01*
X134538255Y-84764684D01*
X134531500Y-84826866D01*
X134531500Y-86623134D01*
X134538255Y-86685316D01*
X134589385Y-86821705D01*
X134676739Y-86938261D01*
X134793295Y-87025615D01*
X134801704Y-87028767D01*
X134801705Y-87028768D01*
X134910451Y-87069535D01*
X134967216Y-87112176D01*
X134991916Y-87178738D01*
X134976709Y-87248087D01*
X134957316Y-87274568D01*
X134839812Y-87397529D01*
X134830629Y-87407138D01*
X134827715Y-87411410D01*
X134827714Y-87411411D01*
X134818015Y-87425629D01*
X134704743Y-87591680D01*
X134610688Y-87794305D01*
X134550989Y-88009570D01*
X134527251Y-88231695D01*
X134527548Y-88236848D01*
X134527548Y-88236851D01*
X134533011Y-88331590D01*
X134540110Y-88454715D01*
X134541247Y-88459761D01*
X134541248Y-88459767D01*
X134542590Y-88465720D01*
X134589222Y-88672639D01*
X134642209Y-88803132D01*
X134670379Y-88872505D01*
X134673266Y-88879616D01*
X134789987Y-89070088D01*
X134936250Y-89238938D01*
X135108126Y-89381632D01*
X135146586Y-89404106D01*
X135181445Y-89424476D01*
X135230169Y-89476114D01*
X135243240Y-89545897D01*
X135216509Y-89611669D01*
X135176055Y-89645027D01*
X135163607Y-89651507D01*
X135159474Y-89654610D01*
X135159471Y-89654612D01*
X134989100Y-89782530D01*
X134984965Y-89785635D01*
X134966605Y-89804848D01*
X134847263Y-89929732D01*
X134830629Y-89947138D01*
X134827715Y-89951410D01*
X134827714Y-89951411D01*
X134755014Y-90057985D01*
X134704743Y-90131680D01*
X134610688Y-90334305D01*
X134550989Y-90549570D01*
X134527251Y-90771695D01*
X134527548Y-90776848D01*
X134527548Y-90776851D01*
X134533011Y-90871590D01*
X134540110Y-90994715D01*
X134541247Y-90999761D01*
X134541248Y-90999767D01*
X134561119Y-91087939D01*
X134589222Y-91212639D01*
X134629346Y-91311453D01*
X134664602Y-91398278D01*
X134673266Y-91419616D01*
X134789987Y-91610088D01*
X134936250Y-91778938D01*
X135108126Y-91921632D01*
X135301000Y-92034338D01*
X135509692Y-92114030D01*
X135514760Y-92115061D01*
X135514763Y-92115062D01*
X135622017Y-92136883D01*
X135728597Y-92158567D01*
X135733772Y-92158757D01*
X135733774Y-92158757D01*
X135946673Y-92166564D01*
X135946677Y-92166564D01*
X135951837Y-92166753D01*
X135956957Y-92166097D01*
X135956959Y-92166097D01*
X136168288Y-92139025D01*
X136168289Y-92139025D01*
X136173416Y-92138368D01*
X136178366Y-92136883D01*
X136382429Y-92075661D01*
X136382434Y-92075659D01*
X136387384Y-92074174D01*
X136587994Y-91975896D01*
X136769860Y-91846173D01*
X136928096Y-91688489D01*
X136987594Y-91605689D01*
X137055435Y-91511277D01*
X137058453Y-91507077D01*
X137107857Y-91407116D01*
X137155136Y-91311453D01*
X137155137Y-91311451D01*
X137157430Y-91306811D01*
X137222370Y-91093069D01*
X137251529Y-90871590D01*
X137253156Y-90805000D01*
X137234852Y-90582361D01*
X137180431Y-90365702D01*
X137091354Y-90160840D01*
X137035798Y-90074964D01*
X136972822Y-89977617D01*
X136972820Y-89977614D01*
X136970014Y-89973277D01*
X136819670Y-89808051D01*
X136815619Y-89804852D01*
X136815615Y-89804848D01*
X136648414Y-89672800D01*
X136648410Y-89672798D01*
X136644359Y-89669598D01*
X136603053Y-89646796D01*
X136553084Y-89596364D01*
X136538312Y-89526921D01*
X136563428Y-89460516D01*
X136590780Y-89433909D01*
X136658120Y-89385876D01*
X136769860Y-89306173D01*
X136774292Y-89301757D01*
X136924435Y-89152137D01*
X136928096Y-89148489D01*
X136987594Y-89065689D01*
X137055435Y-88971277D01*
X137058453Y-88967077D01*
X137060896Y-88962135D01*
X137155136Y-88771453D01*
X137155137Y-88771451D01*
X137157430Y-88766811D01*
X137222370Y-88553069D01*
X137251529Y-88331590D01*
X137252761Y-88281162D01*
X137253074Y-88268365D01*
X137253074Y-88268361D01*
X137253156Y-88265000D01*
X137234852Y-88042361D01*
X137180431Y-87825702D01*
X137091354Y-87620840D01*
X136970014Y-87433277D01*
X136958223Y-87420319D01*
X136822798Y-87271488D01*
X136791746Y-87207642D01*
X136800141Y-87137143D01*
X136845317Y-87082375D01*
X136871761Y-87068706D01*
X136978297Y-87028767D01*
X136986705Y-87025615D01*
X137103261Y-86938261D01*
X137190615Y-86821705D01*
X137241745Y-86685316D01*
X137248500Y-86623134D01*
X137248500Y-84826866D01*
X137241745Y-84764684D01*
X137190615Y-84628295D01*
X137103261Y-84511739D01*
X136986705Y-84424385D01*
X136973930Y-84419596D01*
X136868203Y-84379960D01*
X136811439Y-84337318D01*
X136786739Y-84270756D01*
X136801947Y-84201408D01*
X136823493Y-84172727D01*
X136924435Y-84072137D01*
X136928096Y-84068489D01*
X136987594Y-83985689D01*
X137055435Y-83891277D01*
X137058453Y-83887077D01*
X137074314Y-83854986D01*
X137155136Y-83691453D01*
X137155137Y-83691451D01*
X137157430Y-83686811D01*
X137222370Y-83473069D01*
X137251529Y-83251590D01*
X137252395Y-83216148D01*
X137253074Y-83188365D01*
X137253074Y-83188361D01*
X137253156Y-83185000D01*
X137234852Y-82962361D01*
X137180431Y-82745702D01*
X137091354Y-82540840D01*
X136970014Y-82353277D01*
X136819670Y-82188051D01*
X136815619Y-82184852D01*
X136815615Y-82184848D01*
X136648414Y-82052800D01*
X136648410Y-82052798D01*
X136644359Y-82049598D01*
X136603053Y-82026796D01*
X136553084Y-81976364D01*
X136538312Y-81906921D01*
X136563428Y-81840516D01*
X136590780Y-81813909D01*
X136655591Y-81767680D01*
X136769860Y-81686173D01*
X136928096Y-81528489D01*
X137058453Y-81347077D01*
X137062611Y-81338665D01*
X137155136Y-81151453D01*
X137155137Y-81151451D01*
X137157430Y-81146811D01*
X137222370Y-80933069D01*
X137251529Y-80711590D01*
X137251611Y-80708240D01*
X137253074Y-80648365D01*
X137253074Y-80648361D01*
X137253156Y-80645000D01*
X137234852Y-80422361D01*
X137180431Y-80205702D01*
X137091354Y-80000840D01*
X137025779Y-79899476D01*
X136972822Y-79817617D01*
X136972820Y-79817614D01*
X136970014Y-79813277D01*
X136819670Y-79648051D01*
X136815619Y-79644852D01*
X136815615Y-79644848D01*
X136648414Y-79512800D01*
X136648410Y-79512798D01*
X136644359Y-79509598D01*
X136603053Y-79486796D01*
X136553084Y-79436364D01*
X136538312Y-79366921D01*
X136563428Y-79300516D01*
X136590780Y-79273909D01*
X136655591Y-79227680D01*
X136769860Y-79146173D01*
X136928096Y-78988489D01*
X137058453Y-78807077D01*
X137062611Y-78798665D01*
X137155136Y-78611453D01*
X137155137Y-78611451D01*
X137157430Y-78606811D01*
X137222370Y-78393069D01*
X137251529Y-78171590D01*
X137251611Y-78168240D01*
X137253074Y-78108365D01*
X137253074Y-78108361D01*
X137253156Y-78105000D01*
X137234852Y-77882361D01*
X137180431Y-77665702D01*
X137091354Y-77460840D01*
X137035798Y-77374964D01*
X136972822Y-77277617D01*
X136972820Y-77277614D01*
X136970014Y-77273277D01*
X136819670Y-77108051D01*
X136815619Y-77104852D01*
X136815615Y-77104848D01*
X136648414Y-76972800D01*
X136648410Y-76972798D01*
X136644359Y-76969598D01*
X136603053Y-76946796D01*
X136553084Y-76896364D01*
X136538312Y-76826921D01*
X136563428Y-76760516D01*
X136590780Y-76733909D01*
X136655591Y-76687680D01*
X136769860Y-76606173D01*
X136928096Y-76448489D01*
X137058453Y-76267077D01*
X137062611Y-76258665D01*
X137155136Y-76071453D01*
X137155137Y-76071451D01*
X137157430Y-76066811D01*
X137222370Y-75853069D01*
X137251529Y-75631590D01*
X137251611Y-75628240D01*
X137253074Y-75568365D01*
X137253074Y-75568361D01*
X137253156Y-75565000D01*
X137234852Y-75342361D01*
X137180431Y-75125702D01*
X137091354Y-74920840D01*
X137035798Y-74834964D01*
X136972822Y-74737617D01*
X136972820Y-74737614D01*
X136970014Y-74733277D01*
X136966532Y-74729450D01*
X136822798Y-74571488D01*
X136791746Y-74507642D01*
X136800141Y-74437143D01*
X136845317Y-74382375D01*
X136871761Y-74368706D01*
X136978297Y-74328767D01*
X136986705Y-74325615D01*
X137103261Y-74238261D01*
X137190615Y-74121705D01*
X137241745Y-73985316D01*
X137248500Y-73923134D01*
X137248500Y-72126866D01*
X137241745Y-72064684D01*
X137190615Y-71928295D01*
X137103261Y-71811739D01*
X136986705Y-71724385D01*
X136974132Y-71719672D01*
X136868203Y-71679960D01*
X136811439Y-71637318D01*
X136786739Y-71570756D01*
X136801947Y-71501408D01*
X136823493Y-71472727D01*
X136924435Y-71372137D01*
X136928096Y-71368489D01*
X137058453Y-71187077D01*
X137060898Y-71182131D01*
X137155136Y-70991453D01*
X137155137Y-70991451D01*
X137157430Y-70986811D01*
X137222370Y-70773069D01*
X137251529Y-70551590D01*
X137253156Y-70485000D01*
X137234852Y-70262361D01*
X137180431Y-70045702D01*
X137091354Y-69840840D01*
X137035798Y-69754964D01*
X136972822Y-69657617D01*
X136972820Y-69657614D01*
X136970014Y-69653277D01*
X136819670Y-69488051D01*
X136815619Y-69484852D01*
X136815615Y-69484848D01*
X136648414Y-69352800D01*
X136648410Y-69352798D01*
X136644359Y-69349598D01*
X136603053Y-69326796D01*
X136553084Y-69276364D01*
X136538312Y-69206921D01*
X136563428Y-69140516D01*
X136590780Y-69113909D01*
X136655591Y-69067680D01*
X136769860Y-68986173D01*
X136928096Y-68828489D01*
X137058453Y-68647077D01*
X137060898Y-68642131D01*
X137155136Y-68451453D01*
X137155137Y-68451451D01*
X137157430Y-68446811D01*
X137222370Y-68233069D01*
X137251529Y-68011590D01*
X137253156Y-67945000D01*
X137234852Y-67722361D01*
X137180431Y-67505702D01*
X137091354Y-67300840D01*
X136970014Y-67113277D01*
X136819670Y-66948051D01*
X136815619Y-66944852D01*
X136815615Y-66944848D01*
X136648414Y-66812800D01*
X136648410Y-66812798D01*
X136644359Y-66809598D01*
X136603053Y-66786796D01*
X136553084Y-66736364D01*
X136538312Y-66666921D01*
X136563428Y-66600516D01*
X136590780Y-66573909D01*
X136655591Y-66527680D01*
X136769860Y-66446173D01*
X136928096Y-66288489D01*
X136987594Y-66205689D01*
X137055435Y-66111277D01*
X137058453Y-66107077D01*
X137091605Y-66040000D01*
X137155136Y-65911453D01*
X137155137Y-65911451D01*
X137157430Y-65906811D01*
X137222370Y-65693069D01*
X137251529Y-65471590D01*
X137253156Y-65405000D01*
X137234852Y-65182361D01*
X137180431Y-64965702D01*
X137091354Y-64760840D01*
X136970014Y-64573277D01*
X136819670Y-64408051D01*
X136815619Y-64404852D01*
X136815615Y-64404848D01*
X136648414Y-64272800D01*
X136648410Y-64272798D01*
X136644359Y-64269598D01*
X136603053Y-64246796D01*
X136553084Y-64196364D01*
X136538312Y-64126921D01*
X136563428Y-64060516D01*
X136590780Y-64033909D01*
X136655591Y-63987680D01*
X136769860Y-63906173D01*
X136928096Y-63748489D01*
X137058453Y-63567077D01*
X137105517Y-63471851D01*
X137155136Y-63371453D01*
X137155137Y-63371451D01*
X137157430Y-63366811D01*
X137222370Y-63153069D01*
X137251529Y-62931590D01*
X137253156Y-62865000D01*
X137234852Y-62642361D01*
X137180431Y-62425702D01*
X137091354Y-62220840D01*
X137035798Y-62134964D01*
X136972822Y-62037617D01*
X136972820Y-62037614D01*
X136970014Y-62033277D01*
X136963901Y-62026559D01*
X136822798Y-61871488D01*
X136791746Y-61807642D01*
X136800141Y-61737143D01*
X136845317Y-61682375D01*
X136871761Y-61668706D01*
X136978297Y-61628767D01*
X136986705Y-61625615D01*
X137103261Y-61538261D01*
X137190615Y-61421705D01*
X137241745Y-61285316D01*
X137248500Y-61223134D01*
X137248500Y-59426866D01*
X137241745Y-59364684D01*
X137190615Y-59228295D01*
X137103261Y-59111739D01*
X136986705Y-59024385D01*
X136974132Y-59019672D01*
X136868203Y-58979960D01*
X136811439Y-58937318D01*
X136786739Y-58870756D01*
X136801947Y-58801408D01*
X136823493Y-58772727D01*
X136924435Y-58672137D01*
X136928096Y-58668489D01*
X137058453Y-58487077D01*
X137062611Y-58478665D01*
X137155136Y-58291453D01*
X137155137Y-58291451D01*
X137157430Y-58286811D01*
X137222370Y-58073069D01*
X137251529Y-57851590D01*
X137253156Y-57785000D01*
X137234852Y-57562361D01*
X137180431Y-57345702D01*
X137091354Y-57140840D01*
X136970014Y-56953277D01*
X136819670Y-56788051D01*
X136815619Y-56784852D01*
X136815615Y-56784848D01*
X136648414Y-56652800D01*
X136648410Y-56652798D01*
X136644359Y-56649598D01*
X136603053Y-56626796D01*
X136553084Y-56576364D01*
X136538312Y-56506921D01*
X136563428Y-56440516D01*
X136590780Y-56413909D01*
X136674949Y-56353872D01*
X136769860Y-56286173D01*
X136928096Y-56128489D01*
X137058453Y-55947077D01*
X137091605Y-55880000D01*
X137155136Y-55751453D01*
X137155137Y-55751451D01*
X137157430Y-55746811D01*
X137222370Y-55533069D01*
X137251529Y-55311590D01*
X137253156Y-55245000D01*
X137234852Y-55022361D01*
X137180431Y-54805702D01*
X137091354Y-54600840D01*
X136970014Y-54413277D01*
X136819670Y-54248051D01*
X136815619Y-54244852D01*
X136815615Y-54244848D01*
X136648414Y-54112800D01*
X136648410Y-54112798D01*
X136644359Y-54109598D01*
X136603053Y-54086796D01*
X136553084Y-54036364D01*
X136538312Y-53966921D01*
X136563428Y-53900516D01*
X136590780Y-53873909D01*
X136674949Y-53813872D01*
X136769860Y-53746173D01*
X136928096Y-53588489D01*
X137058453Y-53407077D01*
X137091605Y-53340000D01*
X137155136Y-53211453D01*
X137155137Y-53211451D01*
X137157430Y-53206811D01*
X137222370Y-52993069D01*
X137251529Y-52771590D01*
X137253156Y-52705000D01*
X137234852Y-52482361D01*
X137180431Y-52265702D01*
X137091354Y-52060840D01*
X136970014Y-51873277D01*
X136819670Y-51708051D01*
X136815619Y-51704852D01*
X136815615Y-51704848D01*
X136648414Y-51572800D01*
X136648410Y-51572798D01*
X136644359Y-51569598D01*
X136603053Y-51546796D01*
X136553084Y-51496364D01*
X136538312Y-51426921D01*
X136563428Y-51360516D01*
X136590780Y-51333909D01*
X136674949Y-51273872D01*
X136769860Y-51206173D01*
X136928096Y-51048489D01*
X136988184Y-50964868D01*
X137055435Y-50871277D01*
X137058453Y-50867077D01*
X137065403Y-50853016D01*
X137155136Y-50671453D01*
X137155137Y-50671451D01*
X137157430Y-50666811D01*
X137222370Y-50453069D01*
X137251529Y-50231590D01*
X137253156Y-50165000D01*
X137234852Y-49942361D01*
X137180431Y-49725702D01*
X137091354Y-49520840D01*
X136970014Y-49333277D01*
X136966532Y-49329450D01*
X136822798Y-49171488D01*
X136791746Y-49107642D01*
X136800141Y-49037143D01*
X136845317Y-48982375D01*
X136871761Y-48968706D01*
X136978297Y-48928767D01*
X136986705Y-48925615D01*
X137103261Y-48838261D01*
X137190615Y-48721705D01*
X137241745Y-48585316D01*
X137248500Y-48523134D01*
X137248500Y-46726866D01*
X137241745Y-46664684D01*
X137190615Y-46528295D01*
X137103261Y-46411739D01*
X136986705Y-46324385D01*
X136973930Y-46319596D01*
X136868203Y-46279960D01*
X136811439Y-46237318D01*
X136786739Y-46170756D01*
X136801947Y-46101408D01*
X136823493Y-46072727D01*
X136924435Y-45972137D01*
X136928096Y-45968489D01*
X137058453Y-45787077D01*
X137074314Y-45754986D01*
X137155136Y-45591453D01*
X137155137Y-45591451D01*
X137157430Y-45586811D01*
X137222370Y-45373069D01*
X137251529Y-45151590D01*
X137253156Y-45085000D01*
X137234852Y-44862361D01*
X137180431Y-44645702D01*
X137091354Y-44440840D01*
X137025779Y-44339476D01*
X136972822Y-44257617D01*
X136972820Y-44257614D01*
X136970014Y-44253277D01*
X136819670Y-44088051D01*
X136815619Y-44084852D01*
X136815615Y-44084848D01*
X136648414Y-43952800D01*
X136648410Y-43952798D01*
X136644359Y-43949598D01*
X136603053Y-43926796D01*
X136553084Y-43876364D01*
X136538312Y-43806921D01*
X136563428Y-43740516D01*
X136590780Y-43713909D01*
X136674949Y-43653872D01*
X136769860Y-43586173D01*
X136928096Y-43428489D01*
X137058453Y-43247077D01*
X137091605Y-43180000D01*
X137155136Y-43051453D01*
X137155137Y-43051451D01*
X137157430Y-43046811D01*
X137222370Y-42833069D01*
X137251529Y-42611590D01*
X137253156Y-42545000D01*
X137234852Y-42322361D01*
X137180431Y-42105702D01*
X137091354Y-41900840D01*
X136970014Y-41713277D01*
X136819670Y-41548051D01*
X136815619Y-41544852D01*
X136815615Y-41544848D01*
X136648414Y-41412800D01*
X136648410Y-41412798D01*
X136644359Y-41409598D01*
X136448789Y-41301638D01*
X136443920Y-41299914D01*
X136443916Y-41299912D01*
X136243087Y-41228795D01*
X136243083Y-41228794D01*
X136238212Y-41227069D01*
X136233119Y-41226162D01*
X136233116Y-41226161D01*
X136023373Y-41188800D01*
X136023367Y-41188799D01*
X136018284Y-41187894D01*
X135944452Y-41186992D01*
X135800081Y-41185228D01*
X135800079Y-41185228D01*
X135794911Y-41185165D01*
X135574091Y-41218955D01*
X135361756Y-41288357D01*
X135300738Y-41320121D01*
X135214062Y-41365242D01*
X135163607Y-41391507D01*
X135159474Y-41394610D01*
X135159471Y-41394612D01*
X134994658Y-41518357D01*
X134984965Y-41525635D01*
X134976840Y-41534137D01*
X134839080Y-41678295D01*
X134830629Y-41687138D01*
X134827715Y-41691410D01*
X134827714Y-41691411D01*
X134783223Y-41756632D01*
X134704743Y-41871680D01*
X134610688Y-42074305D01*
X134550989Y-42289570D01*
X134527251Y-42511695D01*
X134527548Y-42516848D01*
X134527548Y-42516851D01*
X134533011Y-42611590D01*
X134540110Y-42734715D01*
X134541247Y-42739761D01*
X134541248Y-42739767D01*
X134573453Y-42882668D01*
X134568917Y-42953520D01*
X134539631Y-42999464D01*
X134259989Y-43279106D01*
X134197677Y-43313132D01*
X134170894Y-43316011D01*
X130965489Y-43316011D01*
X130897368Y-43296009D01*
X130850875Y-43242353D01*
X130840771Y-43172079D01*
X130844930Y-43153383D01*
X130845396Y-43151851D01*
X130872370Y-43063069D01*
X130901529Y-42841590D01*
X130903156Y-42775000D01*
X130884852Y-42552361D01*
X130830431Y-42335702D01*
X130741354Y-42130840D01*
X130673858Y-42026507D01*
X130622822Y-41947617D01*
X130622820Y-41947614D01*
X130620014Y-41943277D01*
X130469670Y-41778051D01*
X130465619Y-41774852D01*
X130465615Y-41774848D01*
X130298414Y-41642800D01*
X130298410Y-41642798D01*
X130294359Y-41639598D01*
X130098789Y-41531638D01*
X130093920Y-41529914D01*
X130093916Y-41529912D01*
X129893087Y-41458795D01*
X129893083Y-41458794D01*
X129888212Y-41457069D01*
X129883119Y-41456162D01*
X129883116Y-41456161D01*
X129673373Y-41418800D01*
X129673367Y-41418799D01*
X129668284Y-41417894D01*
X129594452Y-41416992D01*
X129450081Y-41415228D01*
X129450079Y-41415228D01*
X129444911Y-41415165D01*
X129224091Y-41448955D01*
X129011756Y-41518357D01*
X128813607Y-41621507D01*
X128809474Y-41624610D01*
X128809471Y-41624612D01*
X128685600Y-41717617D01*
X128634965Y-41755635D01*
X128578537Y-41814684D01*
X128554283Y-41840064D01*
X128492759Y-41875494D01*
X128421846Y-41872037D01*
X128364060Y-41830791D01*
X128345207Y-41797243D01*
X128303767Y-41686703D01*
X128300615Y-41678295D01*
X128213261Y-41561739D01*
X128096705Y-41474385D01*
X127960316Y-41423255D01*
X127898134Y-41416500D01*
X126101866Y-41416500D01*
X126039684Y-41423255D01*
X125903295Y-41474385D01*
X125786739Y-41561739D01*
X125699385Y-41678295D01*
X125696233Y-41686703D01*
X125654919Y-41796907D01*
X125612277Y-41853671D01*
X125545716Y-41878371D01*
X125476367Y-41863163D01*
X125443743Y-41837476D01*
X125393151Y-41781875D01*
X125393142Y-41781866D01*
X125389670Y-41778051D01*
X125385619Y-41774852D01*
X125385615Y-41774848D01*
X125218414Y-41642800D01*
X125218410Y-41642798D01*
X125214359Y-41639598D01*
X125018789Y-41531638D01*
X125013920Y-41529914D01*
X125013916Y-41529912D01*
X124813087Y-41458795D01*
X124813083Y-41458794D01*
X124808212Y-41457069D01*
X124803119Y-41456162D01*
X124803116Y-41456161D01*
X124593373Y-41418800D01*
X124593367Y-41418799D01*
X124588284Y-41417894D01*
X124514452Y-41416992D01*
X124370081Y-41415228D01*
X124370079Y-41415228D01*
X124364911Y-41415165D01*
X124144091Y-41448955D01*
X123931756Y-41518357D01*
X123733607Y-41621507D01*
X123729474Y-41624610D01*
X123729471Y-41624612D01*
X123605600Y-41717617D01*
X123554965Y-41755635D01*
X123515525Y-41796907D01*
X123411665Y-41905590D01*
X123400629Y-41917138D01*
X123274743Y-42101680D01*
X123247377Y-42160635D01*
X123187528Y-42289570D01*
X123180688Y-42304305D01*
X123120989Y-42519570D01*
X123097251Y-42741695D01*
X123097548Y-42746848D01*
X123097548Y-42746851D01*
X123109686Y-42957361D01*
X123110110Y-42964715D01*
X123111248Y-42969762D01*
X123111248Y-42969766D01*
X123124327Y-43027799D01*
X123119791Y-43098650D01*
X123077670Y-43155802D01*
X123011336Y-43181108D01*
X123001410Y-43181500D01*
X119506477Y-43181500D01*
X119438356Y-43161498D01*
X119391863Y-43107842D01*
X119381759Y-43037568D01*
X119385917Y-43018879D01*
X119442370Y-42833069D01*
X119471529Y-42611590D01*
X119473156Y-42545000D01*
X119454852Y-42322361D01*
X119400431Y-42105702D01*
X119311354Y-41900840D01*
X119190014Y-41713277D01*
X119039670Y-41548051D01*
X119035619Y-41544852D01*
X119035615Y-41544848D01*
X118868414Y-41412800D01*
X118868410Y-41412798D01*
X118864359Y-41409598D01*
X118668789Y-41301638D01*
X118663920Y-41299914D01*
X118663916Y-41299912D01*
X118463087Y-41228795D01*
X118463083Y-41228794D01*
X118458212Y-41227069D01*
X118453119Y-41226162D01*
X118453116Y-41226161D01*
X118243373Y-41188800D01*
X118243367Y-41188799D01*
X118238284Y-41187894D01*
X118164452Y-41186992D01*
X118020081Y-41185228D01*
X118020079Y-41185228D01*
X118014911Y-41185165D01*
X117794091Y-41218955D01*
X117781532Y-41223060D01*
X117710568Y-41225210D01*
X117653294Y-41192389D01*
X115438652Y-38977747D01*
X115431112Y-38969461D01*
X115427000Y-38962982D01*
X115377348Y-38916356D01*
X115374507Y-38913602D01*
X115354770Y-38893865D01*
X115351573Y-38891385D01*
X115342551Y-38883680D01*
X115329116Y-38871064D01*
X115310321Y-38853414D01*
X115303375Y-38849595D01*
X115303372Y-38849593D01*
X115292566Y-38843652D01*
X115276047Y-38832801D01*
X115275583Y-38832441D01*
X115260041Y-38820386D01*
X115252772Y-38817241D01*
X115252768Y-38817238D01*
X115219463Y-38802826D01*
X115208813Y-38797609D01*
X115170060Y-38776305D01*
X115150437Y-38771267D01*
X115131734Y-38764863D01*
X115120420Y-38759967D01*
X115120419Y-38759967D01*
X115113145Y-38756819D01*
X115105322Y-38755580D01*
X115105312Y-38755577D01*
X115069476Y-38749901D01*
X115057856Y-38747495D01*
X115022711Y-38738472D01*
X115022710Y-38738472D01*
X115015030Y-38736500D01*
X114994776Y-38736500D01*
X114975065Y-38734949D01*
X114962886Y-38733020D01*
X114955057Y-38731780D01*
X114925786Y-38734547D01*
X114911039Y-38735941D01*
X114899181Y-38736500D01*
X109298767Y-38736500D01*
X109287584Y-38735973D01*
X109280091Y-38734298D01*
X109272165Y-38734547D01*
X109272164Y-38734547D01*
X109212014Y-38736438D01*
X109208055Y-38736500D01*
X109180144Y-38736500D01*
X109176210Y-38736997D01*
X109176209Y-38736997D01*
X109176144Y-38737005D01*
X109164307Y-38737938D01*
X109132490Y-38738938D01*
X109128029Y-38739078D01*
X109120110Y-38739327D01*
X109102454Y-38744456D01*
X109100658Y-38744978D01*
X109081306Y-38748986D01*
X109074235Y-38749880D01*
X109061203Y-38751526D01*
X109053834Y-38754443D01*
X109053832Y-38754444D01*
X109020097Y-38767800D01*
X109008869Y-38771645D01*
X108966407Y-38783982D01*
X108959585Y-38788016D01*
X108959579Y-38788019D01*
X108948968Y-38794294D01*
X108931218Y-38802990D01*
X108919756Y-38807528D01*
X108919751Y-38807531D01*
X108912383Y-38810448D01*
X108894970Y-38823099D01*
X108876625Y-38836427D01*
X108866707Y-38842943D01*
X108855463Y-38849593D01*
X108828637Y-38865458D01*
X108814313Y-38879782D01*
X108799281Y-38892621D01*
X108782893Y-38904528D01*
X108754712Y-38938593D01*
X108746722Y-38947373D01*
X108407345Y-39286750D01*
X108345033Y-39320776D01*
X108296154Y-39321702D01*
X108083373Y-39283800D01*
X108083367Y-39283799D01*
X108078284Y-39282894D01*
X108004452Y-39281992D01*
X107860081Y-39280228D01*
X107860079Y-39280228D01*
X107854911Y-39280165D01*
X107634091Y-39313955D01*
X107421756Y-39383357D01*
X107223607Y-39486507D01*
X107219474Y-39489610D01*
X107219471Y-39489612D01*
X107049100Y-39617530D01*
X107044965Y-39620635D01*
X106890629Y-39782138D01*
X106764743Y-39966680D01*
X106670688Y-40169305D01*
X106610989Y-40384570D01*
X106587251Y-40606695D01*
X106600110Y-40829715D01*
X106601247Y-40834761D01*
X106601248Y-40834767D01*
X106625304Y-40941508D01*
X106649222Y-41047639D01*
X106690989Y-41150500D01*
X106730212Y-41247094D01*
X106733266Y-41254616D01*
X106767982Y-41311267D01*
X106843110Y-41433865D01*
X106849987Y-41445088D01*
X106996250Y-41613938D01*
X107168126Y-41756632D01*
X107237049Y-41796907D01*
X107241445Y-41799476D01*
X107290169Y-41851114D01*
X107303240Y-41920897D01*
X107276509Y-41986669D01*
X107236055Y-42020027D01*
X107223607Y-42026507D01*
X107219474Y-42029610D01*
X107219471Y-42029612D01*
X107049100Y-42157530D01*
X107044965Y-42160635D01*
X107041393Y-42164373D01*
X106907671Y-42304305D01*
X106890629Y-42322138D01*
X106764743Y-42506680D01*
X106670688Y-42709305D01*
X106610989Y-42924570D01*
X106587251Y-43146695D01*
X106587548Y-43151848D01*
X106587548Y-43151851D01*
X106599812Y-43364547D01*
X106600110Y-43369715D01*
X106601247Y-43374761D01*
X106601248Y-43374767D01*
X106621119Y-43462939D01*
X106649222Y-43587639D01*
X106733266Y-43794616D01*
X106767982Y-43851267D01*
X106843110Y-43973865D01*
X106849987Y-43985088D01*
X106996250Y-44153938D01*
X107168126Y-44296632D01*
X107227943Y-44331586D01*
X107241445Y-44339476D01*
X107290169Y-44391114D01*
X107303240Y-44460897D01*
X107276509Y-44526669D01*
X107236055Y-44560027D01*
X107228550Y-44563934D01*
X107223607Y-44566507D01*
X107219477Y-44569608D01*
X107219471Y-44569612D01*
X107106435Y-44654482D01*
X107044965Y-44700635D01*
X106890629Y-44862138D01*
X106764743Y-45046680D01*
X106670688Y-45249305D01*
X106610989Y-45464570D01*
X106587251Y-45686695D01*
X106587548Y-45691848D01*
X106587548Y-45691851D01*
X106595221Y-45824926D01*
X106600110Y-45909715D01*
X106601247Y-45914761D01*
X106601248Y-45914767D01*
X106621119Y-46002939D01*
X106649222Y-46127639D01*
X106681723Y-46207680D01*
X106731299Y-46329771D01*
X106733266Y-46334616D01*
X106849987Y-46525088D01*
X106996250Y-46693938D01*
X107168126Y-46836632D01*
X107238595Y-46877811D01*
X107241445Y-46879476D01*
X107290169Y-46931114D01*
X107303240Y-47000897D01*
X107276509Y-47066669D01*
X107236055Y-47100027D01*
X107223607Y-47106507D01*
X107219474Y-47109610D01*
X107219471Y-47109612D01*
X107212961Y-47114500D01*
X107044965Y-47240635D01*
X106890629Y-47402138D01*
X106764743Y-47586680D01*
X106670688Y-47789305D01*
X106610989Y-48004570D01*
X106587251Y-48226695D01*
X106587548Y-48231848D01*
X106587548Y-48231851D01*
X106593011Y-48326590D01*
X106600110Y-48449715D01*
X106601247Y-48454761D01*
X106601248Y-48454767D01*
X106615886Y-48519717D01*
X106649222Y-48667639D01*
X106733266Y-48874616D01*
X106784942Y-48958944D01*
X106817563Y-49012176D01*
X106849987Y-49065088D01*
X106996250Y-49233938D01*
X107168126Y-49376632D01*
X107238595Y-49417811D01*
X107241445Y-49419476D01*
X107290169Y-49471114D01*
X107303240Y-49540897D01*
X107276509Y-49606669D01*
X107236055Y-49640027D01*
X107223607Y-49646507D01*
X107219474Y-49649610D01*
X107219471Y-49649612D01*
X107049100Y-49777530D01*
X107044965Y-49780635D01*
X106890629Y-49942138D01*
X106764743Y-50126680D01*
X106670688Y-50329305D01*
X106610989Y-50544570D01*
X106587251Y-50766695D01*
X106587548Y-50771848D01*
X106587548Y-50771851D01*
X106593790Y-50880109D01*
X106600110Y-50989715D01*
X106601247Y-50994761D01*
X106601248Y-50994767D01*
X106621119Y-51082939D01*
X106649222Y-51207639D01*
X106733266Y-51414616D01*
X106849987Y-51605088D01*
X106996250Y-51773938D01*
X107168126Y-51916632D01*
X107238595Y-51957811D01*
X107241445Y-51959476D01*
X107290169Y-52011114D01*
X107303240Y-52080897D01*
X107276509Y-52146669D01*
X107236055Y-52180027D01*
X107223607Y-52186507D01*
X107219474Y-52189610D01*
X107219471Y-52189612D01*
X107049100Y-52317530D01*
X107044965Y-52320635D01*
X106890629Y-52482138D01*
X106764743Y-52666680D01*
X106670688Y-52869305D01*
X106610989Y-53084570D01*
X106587251Y-53306695D01*
X106587548Y-53311848D01*
X106587548Y-53311851D01*
X106593011Y-53406590D01*
X106600110Y-53529715D01*
X106601247Y-53534761D01*
X106601248Y-53534767D01*
X106621119Y-53622939D01*
X106649222Y-53747639D01*
X106681723Y-53827680D01*
X106727167Y-53939595D01*
X106733266Y-53954616D01*
X106849987Y-54145088D01*
X106996250Y-54313938D01*
X107168126Y-54456632D01*
X107238595Y-54497811D01*
X107241445Y-54499476D01*
X107290169Y-54551114D01*
X107303240Y-54620897D01*
X107276509Y-54686669D01*
X107236055Y-54720027D01*
X107223607Y-54726507D01*
X107219474Y-54729610D01*
X107219471Y-54729612D01*
X107049100Y-54857530D01*
X107044965Y-54860635D01*
X106890629Y-55022138D01*
X106764743Y-55206680D01*
X106670688Y-55409305D01*
X106610989Y-55624570D01*
X106587251Y-55846695D01*
X106587548Y-55851848D01*
X106587548Y-55851851D01*
X106595221Y-55984924D01*
X106600110Y-56069715D01*
X106601247Y-56074761D01*
X106601248Y-56074767D01*
X106621119Y-56162939D01*
X106649222Y-56287639D01*
X106681723Y-56367680D01*
X106727167Y-56479595D01*
X106733266Y-56494616D01*
X106849987Y-56685088D01*
X106996250Y-56853938D01*
X107168126Y-56996632D01*
X107238595Y-57037811D01*
X107241445Y-57039476D01*
X107290169Y-57091114D01*
X107303240Y-57160897D01*
X107276509Y-57226669D01*
X107236055Y-57260027D01*
X107223607Y-57266507D01*
X107219474Y-57269610D01*
X107219471Y-57269612D01*
X107049100Y-57397530D01*
X107044965Y-57400635D01*
X106890629Y-57562138D01*
X106764743Y-57746680D01*
X106670688Y-57949305D01*
X106610989Y-58164570D01*
X106587251Y-58386695D01*
X106600110Y-58609715D01*
X106601247Y-58614761D01*
X106601248Y-58614767D01*
X106625304Y-58721508D01*
X106649222Y-58827639D01*
X106681723Y-58907680D01*
X106731299Y-59029771D01*
X106733266Y-59034616D01*
X106849987Y-59225088D01*
X106996250Y-59393938D01*
X107168126Y-59536632D01*
X107238595Y-59577811D01*
X107241445Y-59579476D01*
X107290169Y-59631114D01*
X107303240Y-59700897D01*
X107276509Y-59766669D01*
X107236055Y-59800027D01*
X107223607Y-59806507D01*
X107219474Y-59809610D01*
X107219471Y-59809612D01*
X107078443Y-59915499D01*
X107044965Y-59940635D01*
X106890629Y-60102138D01*
X106887715Y-60106410D01*
X106887714Y-60106411D01*
X106848089Y-60164499D01*
X106764743Y-60286680D01*
X106742497Y-60334606D01*
X106677205Y-60475266D01*
X106670688Y-60489305D01*
X106610989Y-60704570D01*
X106587251Y-60926695D01*
X106600110Y-61149715D01*
X106601247Y-61154761D01*
X106601248Y-61154767D01*
X106615886Y-61219717D01*
X106649222Y-61367639D01*
X106681723Y-61447680D01*
X106726999Y-61559181D01*
X106733266Y-61574616D01*
X106766450Y-61628767D01*
X106817563Y-61712176D01*
X106849987Y-61765088D01*
X106996250Y-61933938D01*
X107168126Y-62076632D01*
X107195122Y-62092407D01*
X107241445Y-62119476D01*
X107290169Y-62171114D01*
X107303240Y-62240897D01*
X107276509Y-62306669D01*
X107236055Y-62340027D01*
X107223607Y-62346507D01*
X107219474Y-62349610D01*
X107219471Y-62349612D01*
X107107619Y-62433593D01*
X107044965Y-62480635D01*
X106890629Y-62642138D01*
X106764743Y-62826680D01*
X106727885Y-62906085D01*
X106693029Y-62981176D01*
X106670688Y-63029305D01*
X106610989Y-63244570D01*
X106587251Y-63466695D01*
X106600110Y-63689715D01*
X106601247Y-63694761D01*
X106601248Y-63694767D01*
X106625304Y-63801508D01*
X106649222Y-63907639D01*
X106733266Y-64114616D01*
X106762081Y-64161638D01*
X106817153Y-64251507D01*
X106849987Y-64305088D01*
X106996250Y-64473938D01*
X107168126Y-64616632D01*
X107238595Y-64657811D01*
X107241445Y-64659476D01*
X107290169Y-64711114D01*
X107303240Y-64780897D01*
X107276509Y-64846669D01*
X107236055Y-64880027D01*
X107223607Y-64886507D01*
X107219474Y-64889610D01*
X107219471Y-64889612D01*
X107049100Y-65017530D01*
X107044965Y-65020635D01*
X106890629Y-65182138D01*
X106887715Y-65186410D01*
X106887714Y-65186411D01*
X106809239Y-65301451D01*
X106764743Y-65366680D01*
X106670688Y-65569305D01*
X106610989Y-65784570D01*
X106587251Y-66006695D01*
X106587548Y-66011848D01*
X106587548Y-66011851D01*
X106593011Y-66106590D01*
X106600110Y-66229715D01*
X106601247Y-66234761D01*
X106601248Y-66234767D01*
X106622275Y-66328069D01*
X106649222Y-66447639D01*
X106733266Y-66654616D01*
X106762081Y-66701638D01*
X106817153Y-66791507D01*
X106849987Y-66845088D01*
X106996250Y-67013938D01*
X107168126Y-67156632D01*
X107238595Y-67197811D01*
X107241445Y-67199476D01*
X107290169Y-67251114D01*
X107303240Y-67320897D01*
X107276509Y-67386669D01*
X107236055Y-67420027D01*
X107223607Y-67426507D01*
X107219474Y-67429610D01*
X107219471Y-67429612D01*
X107049100Y-67557530D01*
X107044965Y-67560635D01*
X106890629Y-67722138D01*
X106764743Y-67906680D01*
X106670688Y-68109305D01*
X106610989Y-68324570D01*
X106587251Y-68546695D01*
X106587548Y-68551848D01*
X106587548Y-68551851D01*
X106595911Y-68696895D01*
X106600110Y-68769715D01*
X106601247Y-68774761D01*
X106601248Y-68774767D01*
X106625304Y-68881508D01*
X106649222Y-68987639D01*
X106733266Y-69194616D01*
X106849987Y-69385088D01*
X106996250Y-69553938D01*
X107168126Y-69696632D01*
X107204457Y-69717862D01*
X107241445Y-69739476D01*
X107290169Y-69791114D01*
X107303240Y-69860897D01*
X107276509Y-69926669D01*
X107236055Y-69960027D01*
X107223607Y-69966507D01*
X107219474Y-69969610D01*
X107219471Y-69969612D01*
X107049100Y-70097530D01*
X107044965Y-70100635D01*
X106890629Y-70262138D01*
X106764743Y-70446680D01*
X106670688Y-70649305D01*
X106610989Y-70864570D01*
X106587251Y-71086695D01*
X106587548Y-71091848D01*
X106587548Y-71091851D01*
X106595911Y-71236895D01*
X106600110Y-71309715D01*
X106601247Y-71314761D01*
X106601248Y-71314767D01*
X106625304Y-71421508D01*
X106649222Y-71527639D01*
X106666730Y-71570756D01*
X106731299Y-71729771D01*
X106733266Y-71734616D01*
X106849987Y-71925088D01*
X106996250Y-72093938D01*
X107168126Y-72236632D01*
X107204457Y-72257862D01*
X107241445Y-72279476D01*
X107290169Y-72331114D01*
X107303240Y-72400897D01*
X107276509Y-72466669D01*
X107236055Y-72500027D01*
X107223607Y-72506507D01*
X107219474Y-72509610D01*
X107219471Y-72509612D01*
X107049100Y-72637530D01*
X107044965Y-72640635D01*
X106890629Y-72802138D01*
X106764743Y-72986680D01*
X106670688Y-73189305D01*
X106610989Y-73404570D01*
X106587251Y-73626695D01*
X106587548Y-73631848D01*
X106587548Y-73631851D01*
X106593011Y-73726590D01*
X106600110Y-73849715D01*
X106601247Y-73854761D01*
X106601248Y-73854767D01*
X106615886Y-73919717D01*
X106649222Y-74067639D01*
X106687461Y-74161811D01*
X106722482Y-74248057D01*
X106733266Y-74274616D01*
X106761218Y-74320229D01*
X106817563Y-74412176D01*
X106849987Y-74465088D01*
X106996250Y-74633938D01*
X107168126Y-74776632D01*
X107196813Y-74793395D01*
X107241445Y-74819476D01*
X107290169Y-74871114D01*
X107303240Y-74940897D01*
X107276509Y-75006669D01*
X107236055Y-75040027D01*
X107223607Y-75046507D01*
X107219474Y-75049610D01*
X107219471Y-75049612D01*
X107101519Y-75138173D01*
X107044965Y-75180635D01*
X106890629Y-75342138D01*
X106764743Y-75526680D01*
X106719643Y-75623840D01*
X106703016Y-75659661D01*
X106670688Y-75729305D01*
X106610989Y-75944570D01*
X106587251Y-76166695D01*
X106587548Y-76171848D01*
X106587548Y-76171851D01*
X106593011Y-76266590D01*
X106600110Y-76389715D01*
X106601247Y-76394761D01*
X106601248Y-76394767D01*
X106621119Y-76482939D01*
X106649222Y-76607639D01*
X106687461Y-76701811D01*
X106722482Y-76788057D01*
X106733266Y-76814616D01*
X106762081Y-76861638D01*
X106817153Y-76951507D01*
X106849987Y-77005088D01*
X106996250Y-77173938D01*
X107168126Y-77316632D01*
X107186841Y-77327568D01*
X107241445Y-77359476D01*
X107290169Y-77411114D01*
X107303240Y-77480897D01*
X107276509Y-77546669D01*
X107236055Y-77580027D01*
X107223607Y-77586507D01*
X107219474Y-77589610D01*
X107219471Y-77589612D01*
X107049100Y-77717530D01*
X107044965Y-77720635D01*
X106890629Y-77882138D01*
X106764743Y-78066680D01*
X106719643Y-78163840D01*
X106703016Y-78199661D01*
X106670688Y-78269305D01*
X106610989Y-78484570D01*
X106587251Y-78706695D01*
X106587548Y-78711848D01*
X106587548Y-78711851D01*
X106593011Y-78806590D01*
X106600110Y-78929715D01*
X106601247Y-78934761D01*
X106601248Y-78934767D01*
X106621119Y-79022939D01*
X106649222Y-79147639D01*
X106687461Y-79241811D01*
X106722482Y-79328057D01*
X106733266Y-79354616D01*
X106762081Y-79401638D01*
X106817153Y-79491507D01*
X106849987Y-79545088D01*
X106996250Y-79713938D01*
X107168126Y-79856632D01*
X107186841Y-79867568D01*
X107241445Y-79899476D01*
X107290169Y-79951114D01*
X107303240Y-80020897D01*
X107276509Y-80086669D01*
X107236055Y-80120027D01*
X107223607Y-80126507D01*
X107219474Y-80129610D01*
X107219471Y-80129612D01*
X107049100Y-80257530D01*
X107044965Y-80260635D01*
X106890629Y-80422138D01*
X106764743Y-80606680D01*
X106719643Y-80703840D01*
X106703016Y-80739661D01*
X106670688Y-80809305D01*
X106610989Y-81024570D01*
X106587251Y-81246695D01*
X106587548Y-81251848D01*
X106587548Y-81251851D01*
X106597519Y-81424782D01*
X106600110Y-81469715D01*
X106601247Y-81474761D01*
X106601248Y-81474767D01*
X106621119Y-81562939D01*
X106649222Y-81687639D01*
X106687461Y-81781811D01*
X106722482Y-81868057D01*
X106733266Y-81894616D01*
X106762081Y-81941638D01*
X106817153Y-82031507D01*
X106849987Y-82085088D01*
X106996250Y-82253938D01*
X107168126Y-82396632D01*
X107238595Y-82437811D01*
X107241445Y-82439476D01*
X107290169Y-82491114D01*
X107303240Y-82560897D01*
X107276509Y-82626669D01*
X107236055Y-82660027D01*
X107223607Y-82666507D01*
X107219474Y-82669610D01*
X107219471Y-82669612D01*
X107049100Y-82797530D01*
X107044965Y-82800635D01*
X106890629Y-82962138D01*
X106764743Y-83146680D01*
X106746956Y-83185000D01*
X106703016Y-83279661D01*
X106670688Y-83349305D01*
X106610989Y-83564570D01*
X106587251Y-83786695D01*
X106587548Y-83791848D01*
X106587548Y-83791851D01*
X106593790Y-83900109D01*
X106600110Y-84009715D01*
X106601247Y-84014761D01*
X106601248Y-84014767D01*
X106621119Y-84102939D01*
X106649222Y-84227639D01*
X106681723Y-84307680D01*
X106731299Y-84429771D01*
X106733266Y-84434616D01*
X106849987Y-84625088D01*
X106996250Y-84793938D01*
X107168126Y-84936632D01*
X107238595Y-84977811D01*
X107241445Y-84979476D01*
X107290169Y-85031114D01*
X107303240Y-85100897D01*
X107276509Y-85166669D01*
X107236055Y-85200027D01*
X107223607Y-85206507D01*
X107219474Y-85209610D01*
X107219471Y-85209612D01*
X107049100Y-85337530D01*
X107044965Y-85340635D01*
X106890629Y-85502138D01*
X106764743Y-85686680D01*
X106670688Y-85889305D01*
X106610989Y-86104570D01*
X106587251Y-86326695D01*
X106587548Y-86331848D01*
X106587548Y-86331851D01*
X106593011Y-86426590D01*
X106600110Y-86549715D01*
X106601247Y-86554761D01*
X106601248Y-86554767D01*
X106615875Y-86619669D01*
X106649222Y-86767639D01*
X106733266Y-86974616D01*
X106784019Y-87057438D01*
X106847291Y-87160688D01*
X106849987Y-87165088D01*
X106996250Y-87333938D01*
X107168126Y-87476632D01*
X107238595Y-87517811D01*
X107241445Y-87519476D01*
X107290169Y-87571114D01*
X107303240Y-87640897D01*
X107276509Y-87706669D01*
X107236055Y-87740027D01*
X107223607Y-87746507D01*
X107219474Y-87749610D01*
X107219471Y-87749612D01*
X107059554Y-87869681D01*
X107044965Y-87880635D01*
X106890629Y-88042138D01*
X106764743Y-88226680D01*
X106670688Y-88429305D01*
X106610989Y-88644570D01*
X106587251Y-88866695D01*
X104140000Y-88866695D01*
X104140000Y-38062670D01*
X129307160Y-38062670D01*
X129312887Y-38070320D01*
X129484042Y-38175205D01*
X129492837Y-38179687D01*
X129702988Y-38266734D01*
X129712373Y-38269783D01*
X129933554Y-38322885D01*
X129943301Y-38324428D01*
X130170070Y-38342275D01*
X130179930Y-38342275D01*
X130406699Y-38324428D01*
X130416446Y-38322885D01*
X130637627Y-38269783D01*
X130647012Y-38266734D01*
X130857163Y-38179687D01*
X130865958Y-38175205D01*
X131033445Y-38072568D01*
X131042907Y-38062110D01*
X131039124Y-38053334D01*
X130187812Y-37202022D01*
X130173868Y-37194408D01*
X130172035Y-37194539D01*
X130165420Y-37198790D01*
X129313920Y-38050290D01*
X129307160Y-38062670D01*
X104140000Y-38062670D01*
X104140000Y-36834930D01*
X128662725Y-36834930D01*
X128680572Y-37061699D01*
X128682115Y-37071446D01*
X128735217Y-37292627D01*
X128738266Y-37302012D01*
X128825313Y-37512163D01*
X128829795Y-37520958D01*
X128932432Y-37688445D01*
X128942890Y-37697907D01*
X128951666Y-37694124D01*
X129802978Y-36842812D01*
X129809356Y-36831132D01*
X130539408Y-36831132D01*
X130539539Y-36832965D01*
X130543790Y-36839580D01*
X131395290Y-37691080D01*
X131407670Y-37697840D01*
X131415320Y-37692113D01*
X131520205Y-37520958D01*
X131524687Y-37512163D01*
X131544222Y-37465000D01*
X136281835Y-37465000D01*
X136300465Y-37701711D01*
X136355895Y-37932594D01*
X136357788Y-37937165D01*
X136357789Y-37937167D01*
X136413874Y-38072568D01*
X136446760Y-38151963D01*
X136449346Y-38156183D01*
X136568241Y-38350202D01*
X136568245Y-38350208D01*
X136570824Y-38354416D01*
X136725031Y-38534969D01*
X136905584Y-38689176D01*
X136909792Y-38691755D01*
X136909798Y-38691759D01*
X137098716Y-38807528D01*
X137108037Y-38813240D01*
X137112607Y-38815133D01*
X137112611Y-38815135D01*
X137322833Y-38902211D01*
X137327406Y-38904105D01*
X137407609Y-38923360D01*
X137553476Y-38958380D01*
X137553482Y-38958381D01*
X137558289Y-38959535D01*
X137795000Y-38978165D01*
X138031711Y-38959535D01*
X138036518Y-38958381D01*
X138036524Y-38958380D01*
X138182391Y-38923360D01*
X138262594Y-38904105D01*
X138267167Y-38902211D01*
X138477389Y-38815135D01*
X138477393Y-38815133D01*
X138481963Y-38813240D01*
X138491284Y-38807528D01*
X138680202Y-38691759D01*
X138680208Y-38691755D01*
X138684416Y-38689176D01*
X138864969Y-38534969D01*
X139019176Y-38354416D01*
X139021755Y-38350208D01*
X139021759Y-38350202D01*
X139140654Y-38156183D01*
X139143240Y-38151963D01*
X139176127Y-38072568D01*
X139232211Y-37937167D01*
X139232212Y-37937165D01*
X139234105Y-37932594D01*
X139289535Y-37701711D01*
X139308165Y-37465000D01*
X139289535Y-37228289D01*
X139281433Y-37194539D01*
X139235260Y-37002218D01*
X139234105Y-36997406D01*
X139164295Y-36828868D01*
X139145135Y-36782611D01*
X139145133Y-36782607D01*
X139143240Y-36778037D01*
X139140654Y-36773817D01*
X139021759Y-36579798D01*
X139021755Y-36579792D01*
X139019176Y-36575584D01*
X138864969Y-36395031D01*
X138684416Y-36240824D01*
X138680208Y-36238245D01*
X138680202Y-36238241D01*
X138486183Y-36119346D01*
X138481963Y-36116760D01*
X138477393Y-36114867D01*
X138477389Y-36114865D01*
X138267167Y-36027789D01*
X138267165Y-36027788D01*
X138262594Y-36025895D01*
X138182391Y-36006640D01*
X138036524Y-35971620D01*
X138036518Y-35971619D01*
X138031711Y-35970465D01*
X137795000Y-35951835D01*
X137558289Y-35970465D01*
X137553482Y-35971619D01*
X137553476Y-35971620D01*
X137407609Y-36006640D01*
X137327406Y-36025895D01*
X137322835Y-36027788D01*
X137322833Y-36027789D01*
X137112611Y-36114865D01*
X137112607Y-36114867D01*
X137108037Y-36116760D01*
X137103817Y-36119346D01*
X136909798Y-36238241D01*
X136909792Y-36238245D01*
X136905584Y-36240824D01*
X136725031Y-36395031D01*
X136570824Y-36575584D01*
X136568245Y-36579792D01*
X136568241Y-36579798D01*
X136449346Y-36773817D01*
X136446760Y-36778037D01*
X136444867Y-36782607D01*
X136444865Y-36782611D01*
X136425705Y-36828868D01*
X136355895Y-36997406D01*
X136354740Y-37002218D01*
X136308568Y-37194539D01*
X136300465Y-37228289D01*
X136281835Y-37465000D01*
X131544222Y-37465000D01*
X131611734Y-37302012D01*
X131614783Y-37292627D01*
X131667885Y-37071446D01*
X131669428Y-37061699D01*
X131687275Y-36834930D01*
X131687275Y-36825070D01*
X131669428Y-36598301D01*
X131667885Y-36588554D01*
X131614783Y-36367373D01*
X131611734Y-36357988D01*
X131524687Y-36147837D01*
X131520205Y-36139042D01*
X131417568Y-35971555D01*
X131407110Y-35962093D01*
X131398334Y-35965876D01*
X130547022Y-36817188D01*
X130539408Y-36831132D01*
X129809356Y-36831132D01*
X129810592Y-36828868D01*
X129810461Y-36827035D01*
X129806210Y-36820420D01*
X128954710Y-35968920D01*
X128942330Y-35962160D01*
X128934680Y-35967887D01*
X128829795Y-36139042D01*
X128825313Y-36147837D01*
X128738266Y-36357988D01*
X128735217Y-36367373D01*
X128682115Y-36588554D01*
X128680572Y-36598301D01*
X128662725Y-36825070D01*
X128662725Y-36834930D01*
X104140000Y-36834930D01*
X104140000Y-35597890D01*
X129307093Y-35597890D01*
X129310876Y-35606666D01*
X130162188Y-36457978D01*
X130176132Y-36465592D01*
X130177965Y-36465461D01*
X130184580Y-36461210D01*
X131036080Y-35609710D01*
X131042840Y-35597330D01*
X131037113Y-35589680D01*
X130865958Y-35484795D01*
X130857163Y-35480313D01*
X130647012Y-35393266D01*
X130637627Y-35390217D01*
X130416446Y-35337115D01*
X130406699Y-35335572D01*
X130179930Y-35317725D01*
X130170070Y-35317725D01*
X129943301Y-35335572D01*
X129933554Y-35337115D01*
X129712373Y-35390217D01*
X129702988Y-35393266D01*
X129492837Y-35480313D01*
X129484042Y-35484795D01*
X129316555Y-35587432D01*
X129307093Y-35597890D01*
X104140000Y-35597890D01*
X104140000Y-29639599D01*
X125994000Y-29639599D01*
X125994001Y-31320400D01*
X126004974Y-31426167D01*
X126007158Y-31432713D01*
X126058230Y-31585792D01*
X126060950Y-31593946D01*
X126154021Y-31744349D01*
X126279197Y-31869306D01*
X126429761Y-31962115D01*
X126509504Y-31988564D01*
X126591110Y-32015632D01*
X126591112Y-32015632D01*
X126597638Y-32017797D01*
X126604474Y-32018497D01*
X126604477Y-32018498D01*
X126647530Y-32022909D01*
X126702099Y-32028500D01*
X128290158Y-32028500D01*
X129902900Y-32028499D01*
X130008667Y-32017526D01*
X130167847Y-31964419D01*
X130169502Y-31963867D01*
X130169504Y-31963866D01*
X130176446Y-31961550D01*
X130326849Y-31868479D01*
X130451806Y-31743303D01*
X130544615Y-31592739D01*
X130600297Y-31424862D01*
X130611000Y-31320401D01*
X130610999Y-29639600D01*
X130600026Y-29533833D01*
X130588420Y-29499047D01*
X130546367Y-29372998D01*
X130546366Y-29372996D01*
X130544050Y-29366054D01*
X130450979Y-29215651D01*
X130325803Y-29090694D01*
X130175239Y-28997885D01*
X130014764Y-28944658D01*
X130013890Y-28944368D01*
X130013888Y-28944368D01*
X130007362Y-28942203D01*
X130000526Y-28941503D01*
X130000523Y-28941502D01*
X129957470Y-28937091D01*
X129902901Y-28931500D01*
X128314842Y-28931500D01*
X126702100Y-28931501D01*
X126596333Y-28942474D01*
X126589786Y-28944658D01*
X126589787Y-28944658D01*
X126435498Y-28996133D01*
X126435496Y-28996134D01*
X126428554Y-28998450D01*
X126278151Y-29091521D01*
X126153194Y-29216697D01*
X126060385Y-29367261D01*
X126004703Y-29535138D01*
X125994000Y-29639599D01*
X104140000Y-29639599D01*
X104140000Y-26035000D01*
X115326835Y-26035000D01*
X115345465Y-26271711D01*
X115346619Y-26276518D01*
X115346620Y-26276524D01*
X115368810Y-26368951D01*
X115400895Y-26502594D01*
X115402788Y-26507165D01*
X115402789Y-26507167D01*
X115423518Y-26557210D01*
X115491760Y-26721963D01*
X115494346Y-26726183D01*
X115613241Y-26920202D01*
X115613245Y-26920208D01*
X115615824Y-26924416D01*
X115770031Y-27104969D01*
X115950584Y-27259176D01*
X115954792Y-27261755D01*
X115954798Y-27261759D01*
X116148817Y-27380654D01*
X116153037Y-27383240D01*
X116157607Y-27385133D01*
X116157611Y-27385135D01*
X116367833Y-27472211D01*
X116372406Y-27474105D01*
X116452609Y-27493360D01*
X116598476Y-27528380D01*
X116598482Y-27528381D01*
X116603289Y-27529535D01*
X116840000Y-27548165D01*
X117076711Y-27529535D01*
X117081518Y-27528381D01*
X117081524Y-27528380D01*
X117227391Y-27493360D01*
X117307594Y-27474105D01*
X117312167Y-27472211D01*
X117522389Y-27385135D01*
X117522393Y-27385133D01*
X117526963Y-27383240D01*
X117531183Y-27380654D01*
X117725202Y-27261759D01*
X117725208Y-27261755D01*
X117729416Y-27259176D01*
X117909969Y-27104969D01*
X118064176Y-26924416D01*
X118066755Y-26920208D01*
X118066759Y-26920202D01*
X118185654Y-26726183D01*
X118188240Y-26721963D01*
X118256483Y-26557210D01*
X118277211Y-26507167D01*
X118277212Y-26507165D01*
X118279105Y-26502594D01*
X118311190Y-26368951D01*
X118333380Y-26276524D01*
X118333381Y-26276518D01*
X118334535Y-26271711D01*
X118353165Y-26035000D01*
X118334535Y-25798289D01*
X118312504Y-25706521D01*
X118304003Y-25671114D01*
X126015507Y-25671114D01*
X126018460Y-25696631D01*
X126020419Y-25706521D01*
X126085489Y-25936476D01*
X126089003Y-25945927D01*
X126190006Y-26162528D01*
X126194985Y-26171292D01*
X126329314Y-26368951D01*
X126335638Y-26376815D01*
X126499836Y-26550451D01*
X126507343Y-26557210D01*
X126697188Y-26702357D01*
X126705667Y-26707821D01*
X126916283Y-26820752D01*
X126925529Y-26824792D01*
X127151487Y-26902596D01*
X127161268Y-26905107D01*
X127397834Y-26945969D01*
X127405706Y-26946824D01*
X127430185Y-26947936D01*
X127433018Y-26948000D01*
X128030385Y-26948000D01*
X128045624Y-26943525D01*
X128046829Y-26942135D01*
X128048500Y-26934452D01*
X128048500Y-26929885D01*
X128556500Y-26929885D01*
X128560975Y-26945124D01*
X128562365Y-26946329D01*
X128570048Y-26948000D01*
X129122572Y-26948000D01*
X129127604Y-26947798D01*
X129305759Y-26933464D01*
X129315712Y-26931852D01*
X129547800Y-26874846D01*
X129557370Y-26871663D01*
X129777360Y-26778282D01*
X129786299Y-26773608D01*
X129988524Y-26646261D01*
X129996599Y-26640220D01*
X130175868Y-26482173D01*
X130182871Y-26474921D01*
X130334562Y-26290250D01*
X130340318Y-26281967D01*
X130460531Y-26075421D01*
X130464893Y-26066316D01*
X130550534Y-25843215D01*
X130553385Y-25833526D01*
X130587185Y-25671736D01*
X130586062Y-25657675D01*
X130575954Y-25654000D01*
X128574615Y-25654000D01*
X128559376Y-25658475D01*
X128558171Y-25659865D01*
X128556500Y-25667548D01*
X128556500Y-26929885D01*
X128048500Y-26929885D01*
X128048500Y-25672115D01*
X128044025Y-25656876D01*
X128042635Y-25655671D01*
X128034952Y-25654000D01*
X126031642Y-25654000D01*
X126017556Y-25658136D01*
X126015507Y-25671114D01*
X118304003Y-25671114D01*
X118280260Y-25572218D01*
X118279105Y-25567406D01*
X118188240Y-25348037D01*
X118185654Y-25343817D01*
X118066759Y-25149798D01*
X118066755Y-25149792D01*
X118064176Y-25145584D01*
X118049383Y-25128264D01*
X126017815Y-25128264D01*
X126018938Y-25142325D01*
X126029046Y-25146000D01*
X128030385Y-25146000D01*
X128045624Y-25141525D01*
X128046829Y-25140135D01*
X128048500Y-25132452D01*
X128048500Y-25127885D01*
X128556500Y-25127885D01*
X128560975Y-25143124D01*
X128562365Y-25144329D01*
X128570048Y-25146000D01*
X130573358Y-25146000D01*
X130587444Y-25141864D01*
X130589493Y-25128886D01*
X130586540Y-25103369D01*
X130584581Y-25093479D01*
X130519511Y-24863524D01*
X130515997Y-24854073D01*
X130414994Y-24637472D01*
X130410015Y-24628708D01*
X130275686Y-24431049D01*
X130269362Y-24423185D01*
X130105164Y-24249549D01*
X130097657Y-24242790D01*
X129907812Y-24097643D01*
X129899333Y-24092179D01*
X129688717Y-23979248D01*
X129679471Y-23975208D01*
X129453513Y-23897404D01*
X129443732Y-23894893D01*
X129207166Y-23854031D01*
X129199294Y-23853176D01*
X129174815Y-23852064D01*
X129171982Y-23852000D01*
X128574615Y-23852000D01*
X128559376Y-23856475D01*
X128558171Y-23857865D01*
X128556500Y-23865548D01*
X128556500Y-25127885D01*
X128048500Y-25127885D01*
X128048500Y-23870115D01*
X128044025Y-23854876D01*
X128042635Y-23853671D01*
X128034952Y-23852000D01*
X127482428Y-23852000D01*
X127477396Y-23852202D01*
X127299241Y-23866536D01*
X127289288Y-23868148D01*
X127057200Y-23925154D01*
X127047630Y-23928337D01*
X126827640Y-24021718D01*
X126818701Y-24026392D01*
X126616476Y-24153739D01*
X126608401Y-24159780D01*
X126429132Y-24317827D01*
X126422129Y-24325079D01*
X126270438Y-24509750D01*
X126264682Y-24518033D01*
X126144469Y-24724579D01*
X126140107Y-24733684D01*
X126054466Y-24956785D01*
X126051615Y-24966474D01*
X126017815Y-25128264D01*
X118049383Y-25128264D01*
X117909969Y-24965031D01*
X117729416Y-24810824D01*
X117725208Y-24808245D01*
X117725202Y-24808241D01*
X117531183Y-24689346D01*
X117526963Y-24686760D01*
X117522393Y-24684867D01*
X117522389Y-24684865D01*
X117312167Y-24597789D01*
X117312165Y-24597788D01*
X117307594Y-24595895D01*
X117227391Y-24576640D01*
X117081524Y-24541620D01*
X117081518Y-24541619D01*
X117076711Y-24540465D01*
X116840000Y-24521835D01*
X116603289Y-24540465D01*
X116598482Y-24541619D01*
X116598476Y-24541620D01*
X116452609Y-24576640D01*
X116372406Y-24595895D01*
X116367835Y-24597788D01*
X116367833Y-24597789D01*
X116157611Y-24684865D01*
X116157607Y-24684867D01*
X116153037Y-24686760D01*
X116148817Y-24689346D01*
X115954798Y-24808241D01*
X115954792Y-24808245D01*
X115950584Y-24810824D01*
X115770031Y-24965031D01*
X115615824Y-25145584D01*
X115613245Y-25149792D01*
X115613241Y-25149798D01*
X115494346Y-25343817D01*
X115491760Y-25348037D01*
X115400895Y-25567406D01*
X115399740Y-25572218D01*
X115367497Y-25706521D01*
X115345465Y-25798289D01*
X115326835Y-26035000D01*
X104140000Y-26035000D01*
X104140000Y-22536004D01*
X106406500Y-22536004D01*
X106421277Y-22686713D01*
X106479858Y-22880742D01*
X106575010Y-23059698D01*
X106703110Y-23216763D01*
X106707857Y-23220690D01*
X106707859Y-23220692D01*
X106854528Y-23342027D01*
X106854531Y-23342029D01*
X106859278Y-23345956D01*
X107037565Y-23442356D01*
X107134373Y-23472323D01*
X107225293Y-23500468D01*
X107225296Y-23500469D01*
X107231180Y-23502290D01*
X107237305Y-23502934D01*
X107237306Y-23502934D01*
X107426622Y-23522832D01*
X107426623Y-23522832D01*
X107432750Y-23523476D01*
X107516014Y-23515898D01*
X107628457Y-23505665D01*
X107628460Y-23505664D01*
X107634596Y-23505106D01*
X107640502Y-23503368D01*
X107640506Y-23503367D01*
X107823120Y-23449620D01*
X107823119Y-23449620D01*
X107829029Y-23447881D01*
X107834486Y-23445028D01*
X107834489Y-23445027D01*
X107918837Y-23400931D01*
X108008645Y-23353981D01*
X108166601Y-23226981D01*
X108296881Y-23071719D01*
X108299845Y-23066327D01*
X108299848Y-23066323D01*
X108391556Y-22899506D01*
X108394523Y-22894109D01*
X108455807Y-22700916D01*
X108456739Y-22692615D01*
X108473107Y-22546683D01*
X108473500Y-22543183D01*
X108473500Y-22378341D01*
X108493502Y-22310220D01*
X108547158Y-22263727D01*
X108617432Y-22253623D01*
X108626969Y-22255373D01*
X108745116Y-22281782D01*
X108768693Y-22287052D01*
X108768695Y-22287052D01*
X108773740Y-22288180D01*
X108779463Y-22288500D01*
X108916596Y-22288500D01*
X109055437Y-22273417D01*
X109232223Y-22213922D01*
X109392109Y-22117853D01*
X109527636Y-21989692D01*
X109531471Y-21984049D01*
X109628646Y-21841060D01*
X109628647Y-21841058D01*
X109632480Y-21835418D01*
X109665071Y-21753937D01*
X109699215Y-21668570D01*
X109699216Y-21668568D01*
X109701751Y-21662229D01*
X109732216Y-21478205D01*
X109727521Y-21388615D01*
X109727163Y-21381795D01*
X113787784Y-21381795D01*
X113788141Y-21388611D01*
X113788141Y-21388615D01*
X113792837Y-21478205D01*
X113797547Y-21568067D01*
X113847080Y-21747898D01*
X113934075Y-21912898D01*
X113938480Y-21918111D01*
X113938483Y-21918115D01*
X114050064Y-22050153D01*
X114050068Y-22050157D01*
X114054471Y-22055367D01*
X114059895Y-22059514D01*
X114059896Y-22059515D01*
X114197231Y-22164516D01*
X114197235Y-22164519D01*
X114202652Y-22168660D01*
X114371704Y-22247490D01*
X114553740Y-22288180D01*
X114559463Y-22288500D01*
X114696596Y-22288500D01*
X114835437Y-22273417D01*
X114841901Y-22271242D01*
X114841904Y-22271241D01*
X114865295Y-22263369D01*
X114880312Y-22258315D01*
X114951253Y-22255545D01*
X115012432Y-22291568D01*
X115044423Y-22354949D01*
X115046500Y-22377734D01*
X115046500Y-22536004D01*
X115061277Y-22686713D01*
X115119858Y-22880742D01*
X115215010Y-23059698D01*
X115343110Y-23216763D01*
X115347857Y-23220690D01*
X115347859Y-23220692D01*
X115494528Y-23342027D01*
X115494531Y-23342029D01*
X115499278Y-23345956D01*
X115677565Y-23442356D01*
X115774373Y-23472323D01*
X115865293Y-23500468D01*
X115865296Y-23500469D01*
X115871180Y-23502290D01*
X115877305Y-23502934D01*
X115877306Y-23502934D01*
X116066622Y-23522832D01*
X116066623Y-23522832D01*
X116072750Y-23523476D01*
X116156014Y-23515898D01*
X116268457Y-23505665D01*
X116268460Y-23505664D01*
X116274596Y-23505106D01*
X116280502Y-23503368D01*
X116280506Y-23503367D01*
X116463120Y-23449620D01*
X116463119Y-23449620D01*
X116469029Y-23447881D01*
X116474486Y-23445028D01*
X116474489Y-23445027D01*
X116558837Y-23400931D01*
X116648645Y-23353981D01*
X116806601Y-23226981D01*
X116936881Y-23071719D01*
X116939845Y-23066327D01*
X116939848Y-23066323D01*
X117031556Y-22899506D01*
X117034523Y-22894109D01*
X117095807Y-22700916D01*
X117096739Y-22692615D01*
X117113107Y-22546683D01*
X117113500Y-22543183D01*
X117113500Y-21383996D01*
X117098723Y-21233287D01*
X117040142Y-21039258D01*
X116944990Y-20860302D01*
X116816890Y-20703237D01*
X116810243Y-20697738D01*
X116665472Y-20577973D01*
X116665469Y-20577971D01*
X116660722Y-20574044D01*
X116482435Y-20477644D01*
X116385627Y-20447677D01*
X116294707Y-20419532D01*
X116294704Y-20419531D01*
X116288820Y-20417710D01*
X116282695Y-20417066D01*
X116282694Y-20417066D01*
X116093378Y-20397168D01*
X116093377Y-20397168D01*
X116087250Y-20396524D01*
X116003986Y-20404102D01*
X115891543Y-20414335D01*
X115891540Y-20414336D01*
X115885404Y-20414894D01*
X115879498Y-20416632D01*
X115879494Y-20416633D01*
X115738091Y-20458251D01*
X115690971Y-20472119D01*
X115685514Y-20474972D01*
X115685511Y-20474973D01*
X115601163Y-20519069D01*
X115511355Y-20566019D01*
X115353399Y-20693019D01*
X115340818Y-20708013D01*
X115331585Y-20719016D01*
X115272475Y-20758343D01*
X115201487Y-20759469D01*
X115158539Y-20738124D01*
X115097348Y-20691340D01*
X114928296Y-20612510D01*
X114746260Y-20571820D01*
X114740537Y-20571500D01*
X114603404Y-20571500D01*
X114464563Y-20586583D01*
X114287777Y-20646078D01*
X114127891Y-20742147D01*
X113992364Y-20870308D01*
X113988529Y-20875951D01*
X113943721Y-20941885D01*
X113887520Y-21024582D01*
X113884988Y-21030911D01*
X113884987Y-21030914D01*
X113820785Y-21191430D01*
X113818249Y-21197771D01*
X113811354Y-21239420D01*
X113789188Y-21373317D01*
X113787784Y-21381795D01*
X109727163Y-21381795D01*
X109722810Y-21298746D01*
X109722453Y-21291933D01*
X109672920Y-21112102D01*
X109585925Y-20947102D01*
X109581520Y-20941889D01*
X109581517Y-20941885D01*
X109469936Y-20809847D01*
X109469932Y-20809843D01*
X109465529Y-20804633D01*
X109460104Y-20800485D01*
X109322769Y-20695484D01*
X109322765Y-20695481D01*
X109317348Y-20691340D01*
X109148296Y-20612510D01*
X108966260Y-20571820D01*
X108960537Y-20571500D01*
X108823404Y-20571500D01*
X108684563Y-20586583D01*
X108507777Y-20646078D01*
X108501924Y-20649595D01*
X108347982Y-20742092D01*
X108279289Y-20760032D01*
X108211802Y-20737985D01*
X108185445Y-20713726D01*
X108180786Y-20708014D01*
X108180785Y-20708013D01*
X108176890Y-20703237D01*
X108170243Y-20697738D01*
X108025472Y-20577973D01*
X108025469Y-20577971D01*
X108020722Y-20574044D01*
X107842435Y-20477644D01*
X107745627Y-20447677D01*
X107654707Y-20419532D01*
X107654704Y-20419531D01*
X107648820Y-20417710D01*
X107642695Y-20417066D01*
X107642694Y-20417066D01*
X107453378Y-20397168D01*
X107453377Y-20397168D01*
X107447250Y-20396524D01*
X107363986Y-20404102D01*
X107251543Y-20414335D01*
X107251540Y-20414336D01*
X107245404Y-20414894D01*
X107239498Y-20416632D01*
X107239494Y-20416633D01*
X107098091Y-20458251D01*
X107050971Y-20472119D01*
X107045514Y-20474972D01*
X107045511Y-20474973D01*
X106961163Y-20519069D01*
X106871355Y-20566019D01*
X106713399Y-20693019D01*
X106583119Y-20848281D01*
X106580155Y-20853673D01*
X106580152Y-20853677D01*
X106525470Y-20953144D01*
X106485477Y-21025891D01*
X106424193Y-21219084D01*
X106423507Y-21225201D01*
X106423506Y-21225205D01*
X106421912Y-21239420D01*
X106406500Y-21376817D01*
X106406500Y-22536004D01*
X104140000Y-22536004D01*
X104140000Y-18356004D01*
X106406500Y-18356004D01*
X106421277Y-18506713D01*
X106479858Y-18700742D01*
X106575010Y-18879698D01*
X106703110Y-19036763D01*
X106707857Y-19040690D01*
X106707859Y-19040692D01*
X106854528Y-19162027D01*
X106854531Y-19162029D01*
X106859278Y-19165956D01*
X107037565Y-19262356D01*
X107134372Y-19292323D01*
X107225293Y-19320468D01*
X107225296Y-19320469D01*
X107231180Y-19322290D01*
X107237305Y-19322934D01*
X107237306Y-19322934D01*
X107426622Y-19342832D01*
X107426623Y-19342832D01*
X107432750Y-19343476D01*
X107516014Y-19335898D01*
X107628457Y-19325665D01*
X107628460Y-19325664D01*
X107634596Y-19325106D01*
X107640502Y-19323368D01*
X107640506Y-19323367D01*
X107823120Y-19269620D01*
X107823119Y-19269620D01*
X107829029Y-19267881D01*
X107834486Y-19265028D01*
X107834489Y-19265027D01*
X107918837Y-19220931D01*
X108008645Y-19173981D01*
X108166601Y-19046981D01*
X108296881Y-18891719D01*
X108299845Y-18886327D01*
X108299848Y-18886323D01*
X108391556Y-18719506D01*
X108394523Y-18714109D01*
X108455807Y-18520916D01*
X108456739Y-18512615D01*
X108473107Y-18366683D01*
X108473500Y-18363183D01*
X108473500Y-18356004D01*
X115046500Y-18356004D01*
X115061277Y-18506713D01*
X115119858Y-18700742D01*
X115215010Y-18879698D01*
X115343110Y-19036763D01*
X115347857Y-19040690D01*
X115347859Y-19040692D01*
X115494528Y-19162027D01*
X115494531Y-19162029D01*
X115499278Y-19165956D01*
X115677565Y-19262356D01*
X115774372Y-19292323D01*
X115865293Y-19320468D01*
X115865296Y-19320469D01*
X115871180Y-19322290D01*
X115877305Y-19322934D01*
X115877306Y-19322934D01*
X116066622Y-19342832D01*
X116066623Y-19342832D01*
X116072750Y-19343476D01*
X116156014Y-19335898D01*
X116268457Y-19325665D01*
X116268460Y-19325664D01*
X116274596Y-19325106D01*
X116280502Y-19323368D01*
X116280506Y-19323367D01*
X116463120Y-19269620D01*
X116463119Y-19269620D01*
X116469029Y-19267881D01*
X116474486Y-19265028D01*
X116474489Y-19265027D01*
X116558837Y-19220931D01*
X116648645Y-19173981D01*
X116806601Y-19046981D01*
X116936881Y-18891719D01*
X116939845Y-18886327D01*
X116939848Y-18886323D01*
X117031556Y-18719506D01*
X117034523Y-18714109D01*
X117095807Y-18520916D01*
X117096739Y-18512615D01*
X117113107Y-18366683D01*
X117113500Y-18363183D01*
X117113500Y-17203996D01*
X117098723Y-17053287D01*
X117040142Y-16859258D01*
X116944990Y-16680302D01*
X116816890Y-16523237D01*
X116799874Y-16509160D01*
X116665472Y-16397973D01*
X116665469Y-16397971D01*
X116660722Y-16394044D01*
X116482435Y-16297644D01*
X116385627Y-16267677D01*
X116294707Y-16239532D01*
X116294704Y-16239531D01*
X116288820Y-16237710D01*
X116282695Y-16237066D01*
X116282694Y-16237066D01*
X116093378Y-16217168D01*
X116093377Y-16217168D01*
X116087250Y-16216524D01*
X116003986Y-16224102D01*
X115891543Y-16234335D01*
X115891540Y-16234336D01*
X115885404Y-16234894D01*
X115879498Y-16236632D01*
X115879494Y-16236633D01*
X115738091Y-16278251D01*
X115690971Y-16292119D01*
X115685514Y-16294972D01*
X115685511Y-16294973D01*
X115601163Y-16339069D01*
X115511355Y-16386019D01*
X115353399Y-16513019D01*
X115223119Y-16668281D01*
X115220155Y-16673673D01*
X115220152Y-16673677D01*
X115219136Y-16675526D01*
X115125477Y-16845891D01*
X115064193Y-17039084D01*
X115063507Y-17045201D01*
X115063506Y-17045205D01*
X115061912Y-17059420D01*
X115046500Y-17196817D01*
X115046500Y-18356004D01*
X108473500Y-18356004D01*
X108473500Y-17203996D01*
X108458723Y-17053287D01*
X108400142Y-16859258D01*
X108304990Y-16680302D01*
X108176890Y-16523237D01*
X108159874Y-16509160D01*
X108025472Y-16397973D01*
X108025469Y-16397971D01*
X108020722Y-16394044D01*
X107842435Y-16297644D01*
X107745627Y-16267677D01*
X107654707Y-16239532D01*
X107654704Y-16239531D01*
X107648820Y-16237710D01*
X107642695Y-16237066D01*
X107642694Y-16237066D01*
X107453378Y-16217168D01*
X107453377Y-16217168D01*
X107447250Y-16216524D01*
X107363986Y-16224102D01*
X107251543Y-16234335D01*
X107251540Y-16234336D01*
X107245404Y-16234894D01*
X107239498Y-16236632D01*
X107239494Y-16236633D01*
X107098091Y-16278251D01*
X107050971Y-16292119D01*
X107045514Y-16294972D01*
X107045511Y-16294973D01*
X106961163Y-16339069D01*
X106871355Y-16386019D01*
X106713399Y-16513019D01*
X106583119Y-16668281D01*
X106580155Y-16673673D01*
X106580152Y-16673677D01*
X106579136Y-16675526D01*
X106485477Y-16845891D01*
X106424193Y-17039084D01*
X106423507Y-17045201D01*
X106423506Y-17045205D01*
X106421912Y-17059420D01*
X106406500Y-17196817D01*
X106406500Y-18356004D01*
X104140000Y-18356004D01*
X104140000Y-15557000D01*
X104160002Y-15488879D01*
X104213658Y-15442386D01*
X104266000Y-15431000D01*
X141479000Y-15431000D01*
X141547121Y-15451002D01*
G37*
%TD.AperFunction*%
%TA.AperFunction,Conductor*%
G36*
X124409213Y-85108502D02*
G01*
X124455706Y-85162158D01*
X124465810Y-85232432D01*
X124436316Y-85297012D01*
X124430188Y-85303594D01*
X122676343Y-87057438D01*
X120964675Y-88769106D01*
X120902363Y-88803132D01*
X120875580Y-88806011D01*
X119535489Y-88806011D01*
X119467368Y-88786009D01*
X119420875Y-88732353D01*
X119410771Y-88662079D01*
X119414930Y-88643383D01*
X119424238Y-88612749D01*
X119442370Y-88553069D01*
X119471529Y-88331590D01*
X119472761Y-88281162D01*
X119473074Y-88268365D01*
X119473074Y-88268361D01*
X119473156Y-88265000D01*
X119454852Y-88042361D01*
X119400431Y-87825702D01*
X119311354Y-87620840D01*
X119190014Y-87433277D01*
X119186540Y-87429459D01*
X119186533Y-87429450D01*
X119042435Y-87271088D01*
X119011383Y-87207242D01*
X119019779Y-87136744D01*
X119064956Y-87081976D01*
X119091400Y-87068307D01*
X119198052Y-87028325D01*
X119213649Y-87019786D01*
X119315724Y-86943285D01*
X119328285Y-86930724D01*
X119404786Y-86828649D01*
X119413324Y-86813054D01*
X119458478Y-86692606D01*
X119462105Y-86677351D01*
X119467631Y-86626486D01*
X119468000Y-86619672D01*
X119468000Y-85997115D01*
X119463525Y-85981876D01*
X119462135Y-85980671D01*
X119454452Y-85979000D01*
X116770116Y-85979000D01*
X116754877Y-85983475D01*
X116753672Y-85984865D01*
X116752001Y-85992548D01*
X116752001Y-86619669D01*
X116752371Y-86626490D01*
X116757895Y-86677352D01*
X116761521Y-86692604D01*
X116806676Y-86813054D01*
X116815214Y-86828649D01*
X116891715Y-86930724D01*
X116904276Y-86943285D01*
X117006351Y-87019786D01*
X117021946Y-87028324D01*
X117130827Y-87069142D01*
X117187591Y-87111784D01*
X117212291Y-87178345D01*
X117197083Y-87247694D01*
X117177691Y-87274175D01*
X117056329Y-87401173D01*
X117050629Y-87407138D01*
X117047715Y-87411410D01*
X117047714Y-87411411D01*
X117038015Y-87425629D01*
X116924743Y-87591680D01*
X116830688Y-87794305D01*
X116770989Y-88009570D01*
X116747251Y-88231695D01*
X116747548Y-88236848D01*
X116747548Y-88236851D01*
X116753011Y-88331590D01*
X116760110Y-88454715D01*
X116761247Y-88459762D01*
X116761248Y-88459766D01*
X116762590Y-88465720D01*
X116802897Y-88644570D01*
X116804641Y-88652310D01*
X116800105Y-88723161D01*
X116757984Y-88780313D01*
X116691650Y-88805619D01*
X116681724Y-88806011D01*
X115744252Y-88806011D01*
X115733068Y-88805484D01*
X115725580Y-88803810D01*
X115717657Y-88804059D01*
X115657522Y-88805949D01*
X115653564Y-88806011D01*
X115625633Y-88806011D01*
X115621718Y-88806506D01*
X115621714Y-88806506D01*
X115621656Y-88806514D01*
X115621627Y-88806517D01*
X115609785Y-88807450D01*
X115565599Y-88808838D01*
X115548233Y-88813883D01*
X115546147Y-88814489D01*
X115526795Y-88818497D01*
X115514557Y-88820043D01*
X115514555Y-88820044D01*
X115506692Y-88821037D01*
X115465575Y-88837317D01*
X115454374Y-88841152D01*
X115411895Y-88853493D01*
X115405076Y-88857526D01*
X115405071Y-88857528D01*
X115394460Y-88863804D01*
X115376710Y-88872501D01*
X115357872Y-88879959D01*
X115351456Y-88884620D01*
X115351455Y-88884621D01*
X115322114Y-88905939D01*
X115312190Y-88912458D01*
X115280949Y-88930933D01*
X115280944Y-88930937D01*
X115274126Y-88934969D01*
X115259802Y-88949293D01*
X115244770Y-88962132D01*
X115228382Y-88974039D01*
X115200201Y-89008104D01*
X115192211Y-89016884D01*
X114804989Y-89404106D01*
X114742677Y-89438132D01*
X114715894Y-89441011D01*
X111915489Y-89441011D01*
X111847368Y-89421009D01*
X111800875Y-89367353D01*
X111790771Y-89297079D01*
X111794930Y-89278383D01*
X111798102Y-89267945D01*
X111822370Y-89188069D01*
X111851529Y-88966590D01*
X111851611Y-88963240D01*
X111853074Y-88903365D01*
X111853074Y-88903361D01*
X111853156Y-88900000D01*
X111834852Y-88677361D01*
X111780431Y-88460702D01*
X111691354Y-88255840D01*
X111602458Y-88118428D01*
X111572822Y-88072617D01*
X111572820Y-88072614D01*
X111570014Y-88068277D01*
X111419670Y-87903051D01*
X111415619Y-87899852D01*
X111415615Y-87899848D01*
X111248414Y-87767800D01*
X111248410Y-87767798D01*
X111244359Y-87764598D01*
X111203053Y-87741796D01*
X111153084Y-87691364D01*
X111138312Y-87621921D01*
X111163428Y-87555516D01*
X111190780Y-87528909D01*
X111234603Y-87497650D01*
X111369860Y-87401173D01*
X111528096Y-87243489D01*
X111574907Y-87178345D01*
X111655435Y-87066277D01*
X111658453Y-87062077D01*
X111679136Y-87020229D01*
X111755136Y-86866453D01*
X111755137Y-86866451D01*
X111757430Y-86861811D01*
X111789900Y-86754940D01*
X111820865Y-86653023D01*
X111820865Y-86653021D01*
X111822370Y-86648069D01*
X111851529Y-86426590D01*
X111853156Y-86360000D01*
X111834852Y-86137361D01*
X111780431Y-85920702D01*
X111771318Y-85899743D01*
X111762497Y-85829297D01*
X111793163Y-85765265D01*
X111853579Y-85727977D01*
X111886867Y-85723500D01*
X116317211Y-85723500D01*
X116328394Y-85724027D01*
X116335887Y-85725702D01*
X116343813Y-85725453D01*
X116343814Y-85725453D01*
X116403964Y-85723562D01*
X116407923Y-85723500D01*
X116435834Y-85723500D01*
X116439769Y-85723003D01*
X116439834Y-85722995D01*
X116451671Y-85722062D01*
X116483929Y-85721048D01*
X116487948Y-85720922D01*
X116495867Y-85720673D01*
X116515321Y-85715021D01*
X116534678Y-85711013D01*
X116546908Y-85709468D01*
X116546909Y-85709468D01*
X116554775Y-85708474D01*
X116562146Y-85705555D01*
X116562148Y-85705555D01*
X116595890Y-85692196D01*
X116607120Y-85688351D01*
X116641961Y-85678229D01*
X116641962Y-85678229D01*
X116649571Y-85676018D01*
X116656390Y-85671985D01*
X116656395Y-85671983D01*
X116667006Y-85665707D01*
X116684754Y-85657012D01*
X116703595Y-85649552D01*
X116739365Y-85623564D01*
X116749285Y-85617048D01*
X116780513Y-85598580D01*
X116780516Y-85598578D01*
X116787340Y-85594542D01*
X116801661Y-85580221D01*
X116816695Y-85567380D01*
X116826672Y-85560131D01*
X116833085Y-85555472D01*
X116861276Y-85521395D01*
X116869266Y-85512616D01*
X116873977Y-85507905D01*
X116936289Y-85473879D01*
X116963072Y-85471000D01*
X119449884Y-85471000D01*
X119465123Y-85466525D01*
X119466328Y-85465135D01*
X119467999Y-85457452D01*
X119467999Y-85214500D01*
X119488001Y-85146379D01*
X119541657Y-85099886D01*
X119593999Y-85088500D01*
X124341092Y-85088500D01*
X124409213Y-85108502D01*
G37*
%TD.AperFunction*%
%TA.AperFunction,Conductor*%
G36*
X125234526Y-82568502D02*
G01*
X125281019Y-82622158D01*
X125291123Y-82692432D01*
X125261629Y-82757012D01*
X125255500Y-82763595D01*
X124234500Y-83784595D01*
X124172188Y-83818621D01*
X124145405Y-83821500D01*
X119506477Y-83821500D01*
X119438356Y-83801498D01*
X119391863Y-83747842D01*
X119381759Y-83677568D01*
X119385917Y-83658879D01*
X119442370Y-83473069D01*
X119471529Y-83251590D01*
X119472395Y-83216148D01*
X119473074Y-83188365D01*
X119473074Y-83188361D01*
X119473156Y-83185000D01*
X119454852Y-82962361D01*
X119403272Y-82757012D01*
X119401690Y-82750714D01*
X119401690Y-82750713D01*
X119400431Y-82745702D01*
X119391318Y-82724743D01*
X119382497Y-82654297D01*
X119413163Y-82590265D01*
X119473579Y-82552977D01*
X119506867Y-82548500D01*
X125166405Y-82548500D01*
X125234526Y-82568502D01*
G37*
%TD.AperFunction*%
%TA.AperFunction,Conductor*%
G36*
X129772845Y-77389022D02*
G01*
X129820998Y-77441193D01*
X129833302Y-77511116D01*
X129805849Y-77576590D01*
X129797182Y-77586196D01*
X127948293Y-79435084D01*
X126138782Y-81244595D01*
X126076470Y-81278621D01*
X126049687Y-81281500D01*
X119506477Y-81281500D01*
X119438356Y-81261498D01*
X119391863Y-81207842D01*
X119381759Y-81137568D01*
X119385917Y-81118879D01*
X119442370Y-80933069D01*
X119471529Y-80711590D01*
X119471611Y-80708240D01*
X119473074Y-80648365D01*
X119473074Y-80648361D01*
X119473156Y-80645000D01*
X119454852Y-80422361D01*
X119400431Y-80205702D01*
X119311354Y-80000840D01*
X119245779Y-79899476D01*
X119192822Y-79817617D01*
X119192820Y-79817614D01*
X119190014Y-79813277D01*
X119039670Y-79648051D01*
X119035619Y-79644852D01*
X119035615Y-79644848D01*
X118868414Y-79512800D01*
X118868410Y-79512798D01*
X118864359Y-79509598D01*
X118823053Y-79486796D01*
X118773084Y-79436364D01*
X118758312Y-79366921D01*
X118783428Y-79300516D01*
X118810780Y-79273909D01*
X118875591Y-79227680D01*
X118989860Y-79146173D01*
X119148096Y-78988489D01*
X119278453Y-78807077D01*
X119282611Y-78798665D01*
X119375136Y-78611453D01*
X119375137Y-78611451D01*
X119377430Y-78606811D01*
X119442370Y-78393069D01*
X119471529Y-78171590D01*
X119471611Y-78168240D01*
X119473074Y-78108365D01*
X119473074Y-78108361D01*
X119473156Y-78105000D01*
X119454852Y-77882361D01*
X119400431Y-77665702D01*
X119349797Y-77549252D01*
X119340977Y-77478807D01*
X119371644Y-77414775D01*
X119432060Y-77377487D01*
X119465347Y-77373011D01*
X129556722Y-77373011D01*
X129567905Y-77373538D01*
X129575398Y-77375213D01*
X129583324Y-77374964D01*
X129583325Y-77374964D01*
X129643475Y-77373073D01*
X129647434Y-77373011D01*
X129675345Y-77373011D01*
X129679280Y-77372514D01*
X129679345Y-77372506D01*
X129691192Y-77371573D01*
X129692904Y-77371519D01*
X129704131Y-77371167D01*
X129772845Y-77389022D01*
G37*
%TD.AperFunction*%
%TA.AperFunction,Conductor*%
G36*
X134682395Y-78758502D02*
G01*
X134721707Y-78798665D01*
X134726862Y-78807077D01*
X134789987Y-78910088D01*
X134936250Y-79078938D01*
X135108126Y-79221632D01*
X135150594Y-79246448D01*
X135181445Y-79264476D01*
X135230169Y-79316114D01*
X135243240Y-79385897D01*
X135216509Y-79451669D01*
X135176055Y-79485027D01*
X135163607Y-79491507D01*
X135159474Y-79494610D01*
X135159471Y-79494612D01*
X134989100Y-79622530D01*
X134984965Y-79625635D01*
X134830629Y-79787138D01*
X134827715Y-79791410D01*
X134827714Y-79791411D01*
X134715095Y-79956504D01*
X134660184Y-80001507D01*
X134611007Y-80011500D01*
X130103595Y-80011500D01*
X130035474Y-79991498D01*
X129988981Y-79937842D01*
X129978877Y-79867568D01*
X130008371Y-79802988D01*
X130014500Y-79796405D01*
X131035500Y-78775405D01*
X131097812Y-78741379D01*
X131124595Y-78738500D01*
X134614274Y-78738500D01*
X134682395Y-78758502D01*
G37*
%TD.AperFunction*%
%TA.AperFunction,Conductor*%
G36*
X134682395Y-76218502D02*
G01*
X134721707Y-76258665D01*
X134726862Y-76267077D01*
X134789987Y-76370088D01*
X134936250Y-76538938D01*
X135108126Y-76681632D01*
X135150594Y-76706448D01*
X135181445Y-76724476D01*
X135230169Y-76776114D01*
X135243240Y-76845897D01*
X135216509Y-76911669D01*
X135176055Y-76945027D01*
X135163607Y-76951507D01*
X135159474Y-76954610D01*
X135159471Y-76954612D01*
X134989100Y-77082530D01*
X134984965Y-77085635D01*
X134830629Y-77247138D01*
X134827715Y-77251410D01*
X134827714Y-77251411D01*
X134715095Y-77416504D01*
X134660184Y-77461507D01*
X134611007Y-77471500D01*
X132007877Y-77471500D01*
X131939756Y-77451498D01*
X131893263Y-77397842D01*
X131883159Y-77327568D01*
X131912653Y-77262988D01*
X131918782Y-77256405D01*
X132939782Y-76235405D01*
X133002094Y-76201379D01*
X133028877Y-76198500D01*
X134614274Y-76198500D01*
X134682395Y-76218502D01*
G37*
%TD.AperFunction*%
%TA.AperFunction,Conductor*%
G36*
X134448146Y-70386924D02*
G01*
X134504982Y-70429471D01*
X134529905Y-70497727D01*
X134540110Y-70674715D01*
X134541247Y-70679761D01*
X134541248Y-70679767D01*
X134573453Y-70822668D01*
X134568917Y-70893520D01*
X134539631Y-70939464D01*
X129409989Y-76069106D01*
X129347677Y-76103132D01*
X129320894Y-76106011D01*
X119535489Y-76106011D01*
X119467368Y-76086009D01*
X119420875Y-76032353D01*
X119410771Y-75962079D01*
X119414930Y-75943383D01*
X119440867Y-75858015D01*
X119442370Y-75853069D01*
X119471529Y-75631590D01*
X119471611Y-75628240D01*
X119473074Y-75568365D01*
X119473074Y-75568361D01*
X119473156Y-75565000D01*
X119454852Y-75342361D01*
X119400431Y-75125702D01*
X119349797Y-75009252D01*
X119340977Y-74938807D01*
X119371644Y-74874775D01*
X119432060Y-74837487D01*
X119465347Y-74833011D01*
X129556722Y-74833011D01*
X129567905Y-74833538D01*
X129575398Y-74835213D01*
X129583324Y-74834964D01*
X129583325Y-74834964D01*
X129643475Y-74833073D01*
X129647434Y-74833011D01*
X129675345Y-74833011D01*
X129679280Y-74832514D01*
X129679345Y-74832506D01*
X129691182Y-74831573D01*
X129723440Y-74830559D01*
X129727459Y-74830433D01*
X129735378Y-74830184D01*
X129754832Y-74824532D01*
X129774189Y-74820524D01*
X129786419Y-74818979D01*
X129786420Y-74818979D01*
X129794286Y-74817985D01*
X129801657Y-74815066D01*
X129801659Y-74815066D01*
X129835401Y-74801707D01*
X129846631Y-74797862D01*
X129881472Y-74787740D01*
X129881473Y-74787740D01*
X129889082Y-74785529D01*
X129895901Y-74781496D01*
X129895906Y-74781494D01*
X129906517Y-74775218D01*
X129924265Y-74766523D01*
X129943106Y-74759063D01*
X129978876Y-74733075D01*
X129988796Y-74726559D01*
X130020024Y-74708091D01*
X130020027Y-74708089D01*
X130026851Y-74704053D01*
X130041172Y-74689732D01*
X130056206Y-74676891D01*
X130066183Y-74669642D01*
X130072596Y-74664983D01*
X130100787Y-74630906D01*
X130108777Y-74622127D01*
X134315019Y-70415885D01*
X134377331Y-70381859D01*
X134448146Y-70386924D01*
G37*
%TD.AperFunction*%
%TA.AperFunction,Conductor*%
G36*
X134448146Y-67846924D02*
G01*
X134504982Y-67889471D01*
X134529905Y-67957727D01*
X134540110Y-68134715D01*
X134541247Y-68139761D01*
X134541248Y-68139767D01*
X134573453Y-68282668D01*
X134568917Y-68353520D01*
X134539631Y-68399464D01*
X129409989Y-73529106D01*
X129347677Y-73563132D01*
X129320894Y-73566011D01*
X119594500Y-73566011D01*
X119526379Y-73546009D01*
X119479886Y-73492353D01*
X119468500Y-73440011D01*
X119468500Y-72419011D01*
X119488502Y-72350890D01*
X119542158Y-72304397D01*
X119594500Y-72293011D01*
X129556722Y-72293011D01*
X129567905Y-72293538D01*
X129575398Y-72295213D01*
X129583324Y-72294964D01*
X129583325Y-72294964D01*
X129643475Y-72293073D01*
X129647434Y-72293011D01*
X129675345Y-72293011D01*
X129679280Y-72292514D01*
X129679345Y-72292506D01*
X129691182Y-72291573D01*
X129723440Y-72290559D01*
X129727459Y-72290433D01*
X129735378Y-72290184D01*
X129754832Y-72284532D01*
X129774189Y-72280524D01*
X129786419Y-72278979D01*
X129786420Y-72278979D01*
X129794286Y-72277985D01*
X129801657Y-72275066D01*
X129801659Y-72275066D01*
X129835401Y-72261707D01*
X129846631Y-72257862D01*
X129881472Y-72247740D01*
X129881473Y-72247740D01*
X129889082Y-72245529D01*
X129895901Y-72241496D01*
X129895906Y-72241494D01*
X129906517Y-72235218D01*
X129924265Y-72226523D01*
X129943106Y-72219063D01*
X129978876Y-72193075D01*
X129988796Y-72186559D01*
X130020024Y-72168091D01*
X130020027Y-72168089D01*
X130026851Y-72164053D01*
X130041172Y-72149732D01*
X130056206Y-72136891D01*
X130066183Y-72129642D01*
X130072596Y-72124983D01*
X130100787Y-72090906D01*
X130108777Y-72082127D01*
X134315019Y-67875885D01*
X134377331Y-67841859D01*
X134448146Y-67846924D01*
G37*
%TD.AperFunction*%
%TA.AperFunction,Conductor*%
G36*
X134790656Y-63694414D02*
G01*
X134841860Y-63729972D01*
X134936250Y-63838938D01*
X135108126Y-63981632D01*
X135178595Y-64022811D01*
X135181445Y-64024476D01*
X135230169Y-64076114D01*
X135243240Y-64145897D01*
X135216509Y-64211669D01*
X135176055Y-64245027D01*
X135163607Y-64251507D01*
X135159474Y-64254610D01*
X135159471Y-64254612D01*
X134989100Y-64382530D01*
X134984965Y-64385635D01*
X134830629Y-64547138D01*
X134704743Y-64731680D01*
X134610688Y-64934305D01*
X134550989Y-65149570D01*
X134527251Y-65371695D01*
X134527548Y-65376848D01*
X134527548Y-65376851D01*
X134533011Y-65471590D01*
X134540110Y-65594715D01*
X134541247Y-65599761D01*
X134541248Y-65599767D01*
X134573453Y-65742668D01*
X134568917Y-65813520D01*
X134539631Y-65859464D01*
X129409989Y-70989106D01*
X129347677Y-71023132D01*
X129320894Y-71026011D01*
X119535489Y-71026011D01*
X119467368Y-71006009D01*
X119420875Y-70952353D01*
X119410771Y-70882079D01*
X119414930Y-70863383D01*
X119427301Y-70822668D01*
X119442370Y-70773069D01*
X119471529Y-70551590D01*
X119473156Y-70485000D01*
X119454852Y-70262361D01*
X119400431Y-70045702D01*
X119349797Y-69929252D01*
X119340977Y-69858807D01*
X119371644Y-69794775D01*
X119432060Y-69757487D01*
X119465347Y-69753011D01*
X128286722Y-69753011D01*
X128297905Y-69753538D01*
X128305398Y-69755213D01*
X128313324Y-69754964D01*
X128313325Y-69754964D01*
X128373475Y-69753073D01*
X128377434Y-69753011D01*
X128405345Y-69753011D01*
X128409280Y-69752514D01*
X128409345Y-69752506D01*
X128421182Y-69751573D01*
X128453440Y-69750559D01*
X128457459Y-69750433D01*
X128465378Y-69750184D01*
X128484832Y-69744532D01*
X128504189Y-69740524D01*
X128516419Y-69738979D01*
X128516420Y-69738979D01*
X128524286Y-69737985D01*
X128531657Y-69735066D01*
X128531659Y-69735066D01*
X128565401Y-69721707D01*
X128576631Y-69717862D01*
X128611472Y-69707740D01*
X128611473Y-69707740D01*
X128619082Y-69705529D01*
X128625901Y-69701496D01*
X128625906Y-69701494D01*
X128636517Y-69695218D01*
X128654265Y-69686523D01*
X128673106Y-69679063D01*
X128708876Y-69653075D01*
X128718796Y-69646559D01*
X128750024Y-69628091D01*
X128750027Y-69628089D01*
X128756851Y-69624053D01*
X128771172Y-69609732D01*
X128786206Y-69596891D01*
X128796183Y-69589642D01*
X128802596Y-69584983D01*
X128830787Y-69550906D01*
X128838777Y-69542127D01*
X134657529Y-63723375D01*
X134719841Y-63689349D01*
X134790656Y-63694414D01*
G37*
%TD.AperFunction*%
%TA.AperFunction,Conductor*%
G36*
X134449533Y-60225539D02*
G01*
X134506368Y-60268086D01*
X134531179Y-60334606D01*
X134531500Y-60343595D01*
X134531500Y-61223134D01*
X134538255Y-61285316D01*
X134589385Y-61421705D01*
X134676739Y-61538261D01*
X134793295Y-61625615D01*
X134801704Y-61628767D01*
X134801705Y-61628768D01*
X134910451Y-61669535D01*
X134967216Y-61712176D01*
X134991916Y-61778738D01*
X134976709Y-61848087D01*
X134957316Y-61874568D01*
X134841082Y-61996200D01*
X134830629Y-62007138D01*
X134827715Y-62011410D01*
X134827714Y-62011411D01*
X134715160Y-62176409D01*
X134660249Y-62221412D01*
X134615038Y-62231343D01*
X134612008Y-62231438D01*
X134608055Y-62231500D01*
X134580144Y-62231500D01*
X134576210Y-62231997D01*
X134576209Y-62231997D01*
X134576144Y-62232005D01*
X134564307Y-62232938D01*
X134532490Y-62233938D01*
X134528029Y-62234078D01*
X134520110Y-62234327D01*
X134504689Y-62238807D01*
X134500658Y-62239978D01*
X134481306Y-62243986D01*
X134474235Y-62244880D01*
X134461203Y-62246526D01*
X134453834Y-62249443D01*
X134453832Y-62249444D01*
X134420097Y-62262800D01*
X134408869Y-62266645D01*
X134366407Y-62278982D01*
X134359585Y-62283016D01*
X134359579Y-62283019D01*
X134348968Y-62289294D01*
X134331218Y-62297990D01*
X134319756Y-62302528D01*
X134319751Y-62302531D01*
X134312383Y-62305448D01*
X134305968Y-62310109D01*
X134276625Y-62331427D01*
X134266707Y-62337943D01*
X134256266Y-62344118D01*
X134228637Y-62360458D01*
X134214313Y-62374782D01*
X134199281Y-62387621D01*
X134182893Y-62399528D01*
X134165168Y-62420954D01*
X134154712Y-62433593D01*
X134146722Y-62442373D01*
X128139989Y-68449106D01*
X128077677Y-68483132D01*
X128050894Y-68486011D01*
X119535489Y-68486011D01*
X119467368Y-68466009D01*
X119420875Y-68412353D01*
X119410771Y-68342079D01*
X119414930Y-68323383D01*
X119427301Y-68282668D01*
X119442370Y-68233069D01*
X119471529Y-68011590D01*
X119473156Y-67945000D01*
X119454852Y-67722361D01*
X119400431Y-67505702D01*
X119311354Y-67300840D01*
X119190014Y-67113277D01*
X119039670Y-66948051D01*
X119035619Y-66944852D01*
X119035615Y-66944848D01*
X118868414Y-66812800D01*
X118868410Y-66812798D01*
X118864359Y-66809598D01*
X118823053Y-66786796D01*
X118773084Y-66736364D01*
X118758312Y-66666921D01*
X118783428Y-66600516D01*
X118810780Y-66573909D01*
X118875591Y-66527680D01*
X118989860Y-66446173D01*
X119148096Y-66288489D01*
X119207594Y-66205689D01*
X119275435Y-66111277D01*
X119278453Y-66107077D01*
X119311605Y-66040000D01*
X119375136Y-65911453D01*
X119375137Y-65911451D01*
X119377430Y-65906811D01*
X119442370Y-65693069D01*
X119471529Y-65471590D01*
X119473156Y-65405000D01*
X119454852Y-65182361D01*
X119400431Y-64965702D01*
X119311354Y-64760840D01*
X119190014Y-64573277D01*
X119039670Y-64408051D01*
X119035619Y-64404852D01*
X119035615Y-64404848D01*
X118868414Y-64272800D01*
X118868410Y-64272798D01*
X118864359Y-64269598D01*
X118823053Y-64246796D01*
X118773084Y-64196364D01*
X118758312Y-64126921D01*
X118783428Y-64060516D01*
X118810780Y-64033909D01*
X118875591Y-63987680D01*
X118989860Y-63906173D01*
X119148096Y-63748489D01*
X119278453Y-63567077D01*
X119325517Y-63471851D01*
X119375136Y-63371453D01*
X119375137Y-63371451D01*
X119377430Y-63366811D01*
X119442370Y-63153069D01*
X119471529Y-62931590D01*
X119473156Y-62865000D01*
X119454852Y-62642361D01*
X119400431Y-62425702D01*
X119349797Y-62309252D01*
X119340977Y-62238807D01*
X119371644Y-62174775D01*
X119432060Y-62137487D01*
X119465347Y-62133011D01*
X132096722Y-62133011D01*
X132107905Y-62133538D01*
X132115398Y-62135213D01*
X132123324Y-62134964D01*
X132123325Y-62134964D01*
X132183475Y-62133073D01*
X132187434Y-62133011D01*
X132215345Y-62133011D01*
X132219280Y-62132514D01*
X132219345Y-62132506D01*
X132231182Y-62131573D01*
X132263440Y-62130559D01*
X132267459Y-62130433D01*
X132275378Y-62130184D01*
X132294832Y-62124532D01*
X132314189Y-62120524D01*
X132326419Y-62118979D01*
X132326420Y-62118979D01*
X132334286Y-62117985D01*
X132341657Y-62115066D01*
X132341659Y-62115066D01*
X132375401Y-62101707D01*
X132386631Y-62097862D01*
X132421472Y-62087740D01*
X132421473Y-62087740D01*
X132429082Y-62085529D01*
X132435901Y-62081496D01*
X132435906Y-62081494D01*
X132446517Y-62075218D01*
X132464265Y-62066523D01*
X132483106Y-62059063D01*
X132518876Y-62033075D01*
X132528796Y-62026559D01*
X132560024Y-62008091D01*
X132560027Y-62008089D01*
X132566851Y-62004053D01*
X132581172Y-61989732D01*
X132596206Y-61976891D01*
X132597295Y-61976100D01*
X132612596Y-61964983D01*
X132640787Y-61930906D01*
X132648777Y-61922127D01*
X134316405Y-60254500D01*
X134378717Y-60220474D01*
X134449533Y-60225539D01*
G37*
%TD.AperFunction*%
%TA.AperFunction,Conductor*%
G36*
X134559648Y-57168502D02*
G01*
X134606141Y-57222158D01*
X134616245Y-57292432D01*
X134610745Y-57314182D01*
X134610688Y-57314305D01*
X134550989Y-57529570D01*
X134527251Y-57751695D01*
X134527548Y-57756848D01*
X134527548Y-57756851D01*
X134533011Y-57851590D01*
X134540110Y-57974715D01*
X134541247Y-57979761D01*
X134541248Y-57979767D01*
X134573453Y-58122668D01*
X134568917Y-58193520D01*
X134539631Y-58239464D01*
X131949989Y-60829106D01*
X131887677Y-60863132D01*
X131860894Y-60866011D01*
X119594500Y-60866011D01*
X119526379Y-60846009D01*
X119479886Y-60792353D01*
X119468500Y-60740011D01*
X119468500Y-59426866D01*
X119461745Y-59364684D01*
X119410615Y-59228295D01*
X119323261Y-59111739D01*
X119206705Y-59024385D01*
X119194132Y-59019672D01*
X119088203Y-58979960D01*
X119031439Y-58937318D01*
X119006739Y-58870756D01*
X119021947Y-58801408D01*
X119043493Y-58772727D01*
X119144435Y-58672137D01*
X119148096Y-58668489D01*
X119278453Y-58487077D01*
X119282611Y-58478665D01*
X119375136Y-58291453D01*
X119375137Y-58291451D01*
X119377430Y-58286811D01*
X119442370Y-58073069D01*
X119471529Y-57851590D01*
X119473156Y-57785000D01*
X119454852Y-57562361D01*
X119411390Y-57389330D01*
X119401690Y-57350714D01*
X119401690Y-57350713D01*
X119400431Y-57345702D01*
X119391318Y-57324743D01*
X119382497Y-57254297D01*
X119413163Y-57190265D01*
X119473579Y-57152977D01*
X119506867Y-57148500D01*
X134491527Y-57148500D01*
X134559648Y-57168502D01*
G37*
%TD.AperFunction*%
%TA.AperFunction,Conductor*%
G36*
X134559648Y-54628502D02*
G01*
X134606141Y-54682158D01*
X134616245Y-54752432D01*
X134610745Y-54774182D01*
X134610688Y-54774305D01*
X134550989Y-54989570D01*
X134527251Y-55211695D01*
X134527548Y-55216848D01*
X134527548Y-55216851D01*
X134533011Y-55311590D01*
X134540110Y-55434715D01*
X134541247Y-55439761D01*
X134541248Y-55439767D01*
X134573453Y-55582668D01*
X134568917Y-55653520D01*
X134539631Y-55699464D01*
X134394500Y-55844595D01*
X134332188Y-55878621D01*
X134305405Y-55881500D01*
X119506477Y-55881500D01*
X119438356Y-55861498D01*
X119391863Y-55807842D01*
X119381759Y-55737568D01*
X119385917Y-55718879D01*
X119442370Y-55533069D01*
X119471529Y-55311590D01*
X119473156Y-55245000D01*
X119454852Y-55022361D01*
X119411390Y-54849330D01*
X119401690Y-54810714D01*
X119401690Y-54810713D01*
X119400431Y-54805702D01*
X119391318Y-54784743D01*
X119382497Y-54714297D01*
X119413163Y-54650265D01*
X119473579Y-54612977D01*
X119506867Y-54608500D01*
X134491527Y-54608500D01*
X134559648Y-54628502D01*
G37*
%TD.AperFunction*%
%TA.AperFunction,Conductor*%
G36*
X134559648Y-52088502D02*
G01*
X134606141Y-52142158D01*
X134616245Y-52212432D01*
X134610745Y-52234182D01*
X134610688Y-52234305D01*
X134550989Y-52449570D01*
X134527251Y-52671695D01*
X134527548Y-52676848D01*
X134527548Y-52676851D01*
X134533011Y-52771590D01*
X134540110Y-52894715D01*
X134541247Y-52899761D01*
X134541248Y-52899767D01*
X134573453Y-53042668D01*
X134568917Y-53113520D01*
X134539631Y-53159464D01*
X134394500Y-53304595D01*
X134332188Y-53338621D01*
X134305405Y-53341500D01*
X119506477Y-53341500D01*
X119438356Y-53321498D01*
X119391863Y-53267842D01*
X119381759Y-53197568D01*
X119385917Y-53178879D01*
X119442370Y-52993069D01*
X119471529Y-52771590D01*
X119473156Y-52705000D01*
X119454852Y-52482361D01*
X119404925Y-52283595D01*
X119401690Y-52270714D01*
X119401690Y-52270713D01*
X119400431Y-52265702D01*
X119391318Y-52244743D01*
X119382497Y-52174297D01*
X119413163Y-52110265D01*
X119473579Y-52072977D01*
X119506867Y-52068500D01*
X134491527Y-52068500D01*
X134559648Y-52088502D01*
G37*
%TD.AperFunction*%
%TA.AperFunction,Conductor*%
G36*
X134473621Y-47008502D02*
G01*
X134520114Y-47062158D01*
X134531500Y-47114500D01*
X134531500Y-48523134D01*
X134538255Y-48585316D01*
X134589385Y-48721705D01*
X134676739Y-48838261D01*
X134793295Y-48925615D01*
X134801704Y-48928767D01*
X134801705Y-48928768D01*
X134910451Y-48969535D01*
X134967216Y-49012176D01*
X134991916Y-49078738D01*
X134976709Y-49148087D01*
X134957316Y-49174568D01*
X134839812Y-49297529D01*
X134830629Y-49307138D01*
X134704743Y-49491680D01*
X134610688Y-49694305D01*
X134550989Y-49909570D01*
X134527251Y-50131695D01*
X134527548Y-50136848D01*
X134527548Y-50136851D01*
X134533011Y-50231590D01*
X134540110Y-50354715D01*
X134541247Y-50359761D01*
X134541248Y-50359767D01*
X134573453Y-50502668D01*
X134568917Y-50573520D01*
X134539631Y-50619464D01*
X134394500Y-50764595D01*
X134332188Y-50798621D01*
X134305405Y-50801500D01*
X119506477Y-50801500D01*
X119438356Y-50781498D01*
X119391863Y-50727842D01*
X119381759Y-50657568D01*
X119385917Y-50638879D01*
X119442370Y-50453069D01*
X119471529Y-50231590D01*
X119473156Y-50165000D01*
X119454852Y-49942361D01*
X119400431Y-49725702D01*
X119311354Y-49520840D01*
X119190014Y-49333277D01*
X119186532Y-49329450D01*
X119042798Y-49171488D01*
X119011746Y-49107642D01*
X119020141Y-49037143D01*
X119065317Y-48982375D01*
X119091761Y-48968706D01*
X119198297Y-48928767D01*
X119206705Y-48925615D01*
X119323261Y-48838261D01*
X119410615Y-48721705D01*
X119461745Y-48585316D01*
X119468500Y-48523134D01*
X119468500Y-47114500D01*
X119488502Y-47046379D01*
X119542158Y-46999886D01*
X119594500Y-46988500D01*
X134405500Y-46988500D01*
X134473621Y-47008502D01*
G37*
%TD.AperFunction*%
%TA.AperFunction,Conductor*%
G36*
X123597690Y-44466992D02*
G01*
X123598182Y-44466098D01*
X123603970Y-44469280D01*
X123615933Y-44475857D01*
X123632457Y-44486710D01*
X123648460Y-44499124D01*
X123689044Y-44516687D01*
X123699674Y-44521894D01*
X123738441Y-44543206D01*
X123746118Y-44545177D01*
X123746123Y-44545179D01*
X123758059Y-44548243D01*
X123776767Y-44554648D01*
X123795356Y-44562692D01*
X123803184Y-44563932D01*
X123803191Y-44563934D01*
X123839025Y-44569610D01*
X123850645Y-44572016D01*
X123882460Y-44580184D01*
X123893471Y-44583011D01*
X123913725Y-44583011D01*
X123933435Y-44584562D01*
X123953444Y-44587731D01*
X123961336Y-44586985D01*
X123980081Y-44585213D01*
X123997463Y-44583570D01*
X124009320Y-44583011D01*
X134406722Y-44583011D01*
X134417905Y-44583538D01*
X134425398Y-44585213D01*
X134433324Y-44584964D01*
X134433325Y-44584964D01*
X134449325Y-44584461D01*
X134518040Y-44602313D01*
X134566196Y-44654482D01*
X134578502Y-44724404D01*
X134574700Y-44744071D01*
X134550989Y-44829570D01*
X134527251Y-45051695D01*
X134527548Y-45056848D01*
X134527548Y-45056851D01*
X134533011Y-45151590D01*
X134540110Y-45274715D01*
X134541247Y-45279761D01*
X134541248Y-45279767D01*
X134573453Y-45422668D01*
X134568917Y-45493520D01*
X134539631Y-45539464D01*
X134394500Y-45684595D01*
X134332188Y-45718621D01*
X134305405Y-45721500D01*
X119506477Y-45721500D01*
X119438356Y-45701498D01*
X119391863Y-45647842D01*
X119381759Y-45577568D01*
X119385917Y-45558879D01*
X119442370Y-45373069D01*
X119471529Y-45151590D01*
X119473156Y-45085000D01*
X119454852Y-44862361D01*
X119402636Y-44654482D01*
X119401690Y-44650714D01*
X119401690Y-44650713D01*
X119400431Y-44645702D01*
X119391318Y-44624743D01*
X119382497Y-44554297D01*
X119413163Y-44490265D01*
X119473579Y-44452977D01*
X119506867Y-44448500D01*
X123534711Y-44448500D01*
X123597690Y-44466992D01*
G37*
%TD.AperFunction*%
%TD*%
M02*
