%TF.GenerationSoftware,KiCad,Pcbnew,(6.0.4)*%
%TF.CreationDate,2022-07-27T17:53:15+02:00*%
%TF.ProjectId,Pi-pico-AD9854_adapter,50692d70-6963-46f2-9d41-44393835345f,rev?*%
%TF.SameCoordinates,Original*%
%TF.FileFunction,Soldermask,Top*%
%TF.FilePolarity,Negative*%
%FSLAX46Y46*%
G04 Gerber Fmt 4.6, Leading zero omitted, Abs format (unit mm)*
G04 Created by KiCad (PCBNEW (6.0.4)) date 2022-07-27 17:53:15*
%MOMM*%
%LPD*%
G01*
G04 APERTURE LIST*
G04 Aperture macros list*
%AMRoundRect*
0 Rectangle with rounded corners*
0 $1 Rounding radius*
0 $2 $3 $4 $5 $6 $7 $8 $9 X,Y pos of 4 corners*
0 Add a 4 corners polygon primitive as box body*
4,1,4,$2,$3,$4,$5,$6,$7,$8,$9,$2,$3,0*
0 Add four circle primitives for the rounded corners*
1,1,$1+$1,$2,$3*
1,1,$1+$1,$4,$5*
1,1,$1+$1,$6,$7*
1,1,$1+$1,$8,$9*
0 Add four rect primitives between the rounded corners*
20,1,$1+$1,$2,$3,$4,$5,0*
20,1,$1+$1,$4,$5,$6,$7,0*
20,1,$1+$1,$6,$7,$8,$9,0*
20,1,$1+$1,$8,$9,$2,$3,0*%
G04 Aperture macros list end*
%ADD10C,3.302000*%
%ADD11O,3.048000X1.524000*%
%ADD12C,2.000000*%
%ADD13RoundRect,0.250000X-0.450000X0.262500X-0.450000X-0.262500X0.450000X-0.262500X0.450000X0.262500X0*%
%ADD14RoundRect,0.249999X0.790001X1.550001X-0.790001X1.550001X-0.790001X-1.550001X0.790001X-1.550001X0*%
%ADD15O,2.080000X3.600000*%
%ADD16R,2.259800X2.198599*%
%ADD17R,0.812800X0.889000*%
%ADD18O,1.800000X1.800000*%
%ADD19O,1.500000X1.500000*%
%ADD20R,3.500000X1.700000*%
%ADD21O,1.700000X1.700000*%
%ADD22R,1.700000X1.700000*%
%ADD23R,1.700000X3.500000*%
%ADD24C,0.700000*%
%ADD25R,0.600000X1.450000*%
%ADD26R,0.300000X1.450000*%
%ADD27O,1.050000X2.100000*%
%ADD28RoundRect,0.250000X0.275000X-0.312500X0.275000X0.312500X-0.275000X0.312500X-0.275000X-0.312500X0*%
%ADD29RoundRect,0.250000X0.312500X0.275000X-0.312500X0.275000X-0.312500X-0.275000X0.312500X-0.275000X0*%
%ADD30RoundRect,0.250000X0.600000X0.600000X-0.600000X0.600000X-0.600000X-0.600000X0.600000X-0.600000X0*%
%ADD31C,1.700000*%
G04 APERTURE END LIST*
D10*
%TO.C,U2*%
X136969500Y-34290000D03*
D11*
X121983500Y-31750000D03*
X121983500Y-34290000D03*
X121983500Y-36830000D03*
%TD*%
D12*
%TO.C,TP2*%
X123190000Y-20320000D03*
%TD*%
D13*
%TO.C,R1*%
X110490000Y-25400000D03*
X110490000Y-27225000D03*
%TD*%
D14*
%TO.C,J4*%
X134620000Y-26002500D03*
D15*
X129540000Y-26002500D03*
%TD*%
D16*
%TO.C,D1*%
X116840000Y-26670000D03*
X116840000Y-30759400D03*
%TD*%
D17*
%TO.C,U3*%
X105655001Y-33964999D03*
X107704999Y-33964999D03*
X106680000Y-32075000D03*
%TD*%
D18*
%TO.C,U1*%
X124275000Y-90675000D03*
D19*
X124575000Y-87645000D03*
D18*
X129725000Y-90675000D03*
D19*
X129425000Y-87645000D03*
D20*
X136790000Y-90805000D03*
D21*
X135890000Y-90805000D03*
X135890000Y-88265000D03*
D20*
X136790000Y-88265000D03*
D22*
X135890000Y-85725000D03*
D20*
X136790000Y-85725000D03*
X136790000Y-83185000D03*
D21*
X135890000Y-83185000D03*
X135890000Y-80645000D03*
D20*
X136790000Y-80645000D03*
D21*
X135890000Y-78105000D03*
D20*
X136790000Y-78105000D03*
X136790000Y-75565000D03*
D21*
X135890000Y-75565000D03*
D22*
X135890000Y-73025000D03*
D20*
X136790000Y-73025000D03*
D21*
X135890000Y-70485000D03*
D20*
X136790000Y-70485000D03*
D21*
X135890000Y-67945000D03*
D20*
X136790000Y-67945000D03*
X136790000Y-65405000D03*
D21*
X135890000Y-65405000D03*
X135890000Y-62865000D03*
D20*
X136790000Y-62865000D03*
X136790000Y-60325000D03*
D22*
X135890000Y-60325000D03*
D20*
X136790000Y-57785000D03*
D21*
X135890000Y-57785000D03*
D20*
X136790000Y-55245000D03*
D21*
X135890000Y-55245000D03*
D20*
X136790000Y-52705000D03*
D21*
X135890000Y-52705000D03*
D20*
X136790000Y-50165000D03*
D21*
X135890000Y-50165000D03*
D22*
X135890000Y-47625000D03*
D20*
X136790000Y-47625000D03*
X136790000Y-45085000D03*
D21*
X135890000Y-45085000D03*
D20*
X136790000Y-42545000D03*
D21*
X135890000Y-42545000D03*
X118110000Y-42545000D03*
D20*
X117210000Y-42545000D03*
X117210000Y-45085000D03*
D21*
X118110000Y-45085000D03*
D22*
X118110000Y-47625000D03*
D20*
X117210000Y-47625000D03*
X117210000Y-50165000D03*
D21*
X118110000Y-50165000D03*
X118110000Y-52705000D03*
D20*
X117210000Y-52705000D03*
X117210000Y-55245000D03*
D21*
X118110000Y-55245000D03*
X118110000Y-57785000D03*
D20*
X117210000Y-57785000D03*
D22*
X118110000Y-60325000D03*
D20*
X117210000Y-60325000D03*
D21*
X118110000Y-62865000D03*
D20*
X117210000Y-62865000D03*
X117210000Y-65405000D03*
D21*
X118110000Y-65405000D03*
X118110000Y-67945000D03*
D20*
X117210000Y-67945000D03*
D21*
X118110000Y-70485000D03*
D20*
X117210000Y-70485000D03*
D22*
X118110000Y-73025000D03*
D20*
X117210000Y-73025000D03*
X117210000Y-75565000D03*
D21*
X118110000Y-75565000D03*
D20*
X117210000Y-78105000D03*
D21*
X118110000Y-78105000D03*
X118110000Y-80645000D03*
D20*
X117210000Y-80645000D03*
X117210000Y-83185000D03*
D21*
X118110000Y-83185000D03*
D22*
X118110000Y-85725000D03*
D20*
X117210000Y-85725000D03*
X117210000Y-88265000D03*
D21*
X118110000Y-88265000D03*
X118110000Y-90805000D03*
D20*
X117210000Y-90805000D03*
D21*
X129540000Y-42775000D03*
D23*
X129540000Y-41875000D03*
X127000000Y-41875000D03*
D22*
X127000000Y-42775000D03*
D23*
X124460000Y-41875000D03*
D21*
X124460000Y-42775000D03*
%TD*%
D12*
%TO.C,TP1*%
X118745000Y-20320000D03*
%TD*%
D13*
%TO.C,R3*%
X106680000Y-27027500D03*
X106680000Y-28852500D03*
%TD*%
D24*
%TO.C,J2*%
X108870000Y-21430000D03*
X114650000Y-21430000D03*
D25*
X115010000Y-22875000D03*
X108510000Y-22875000D03*
X114210000Y-22875000D03*
X109310000Y-22875000D03*
D26*
X113010000Y-22875000D03*
X112010000Y-22875000D03*
X111510000Y-22875000D03*
X110510000Y-22875000D03*
X110010000Y-22875000D03*
X111010000Y-22875000D03*
X112510000Y-22875000D03*
X113510000Y-22875000D03*
D27*
X116080000Y-21960000D03*
X107440000Y-21960000D03*
X116080000Y-17780000D03*
X107440000Y-17780000D03*
%TD*%
D28*
%TO.C,C2*%
X123572500Y-25905000D03*
X123572500Y-24130000D03*
%TD*%
D12*
%TO.C,J3*%
X117475000Y-38100000D03*
%TD*%
D29*
%TO.C,C1*%
X117475000Y-34290000D03*
X115700000Y-34290000D03*
%TD*%
D13*
%TO.C,R2*%
X112395000Y-25400000D03*
X112395000Y-27225000D03*
%TD*%
D30*
%TO.C,J1*%
X110490000Y-40640000D03*
D31*
X107950000Y-40640000D03*
X110490000Y-43180000D03*
X107950000Y-43180000D03*
X110490000Y-45720000D03*
X107950000Y-45720000D03*
X110490000Y-48260000D03*
X107950000Y-48260000D03*
X110490000Y-50800000D03*
X107950000Y-50800000D03*
X110490000Y-53340000D03*
X107950000Y-53340000D03*
X110490000Y-55880000D03*
X107950000Y-55880000D03*
X110490000Y-58420000D03*
X107950000Y-58420000D03*
X110490000Y-60960000D03*
X107950000Y-60960000D03*
X110490000Y-63500000D03*
X107950000Y-63500000D03*
X110490000Y-66040000D03*
X107950000Y-66040000D03*
X110490000Y-68580000D03*
X107950000Y-68580000D03*
X110490000Y-71120000D03*
X107950000Y-71120000D03*
X110490000Y-73660000D03*
X107950000Y-73660000D03*
X110490000Y-76200000D03*
X107950000Y-76200000D03*
X110490000Y-78740000D03*
X107950000Y-78740000D03*
X110490000Y-81280000D03*
X107950000Y-81280000D03*
X110490000Y-83820000D03*
X107950000Y-83820000D03*
X110490000Y-86360000D03*
X107950000Y-86360000D03*
X110490000Y-88900000D03*
X107950000Y-88900000D03*
%TD*%
M02*
