%TF.GenerationSoftware,KiCad,Pcbnew,(6.0.4)*%
%TF.CreationDate,2022-07-27T17:53:15+02:00*%
%TF.ProjectId,Pi-pico-AD9854_adapter,50692d70-6963-46f2-9d41-44393835345f,rev?*%
%TF.SameCoordinates,Original*%
%TF.FileFunction,Copper,L1,Top*%
%TF.FilePolarity,Positive*%
%FSLAX46Y46*%
G04 Gerber Fmt 4.6, Leading zero omitted, Abs format (unit mm)*
G04 Created by KiCad (PCBNEW (6.0.4)) date 2022-07-27 17:53:15*
%MOMM*%
%LPD*%
G01*
G04 APERTURE LIST*
G04 Aperture macros list*
%AMRoundRect*
0 Rectangle with rounded corners*
0 $1 Rounding radius*
0 $2 $3 $4 $5 $6 $7 $8 $9 X,Y pos of 4 corners*
0 Add a 4 corners polygon primitive as box body*
4,1,4,$2,$3,$4,$5,$6,$7,$8,$9,$2,$3,0*
0 Add four circle primitives for the rounded corners*
1,1,$1+$1,$2,$3*
1,1,$1+$1,$4,$5*
1,1,$1+$1,$6,$7*
1,1,$1+$1,$8,$9*
0 Add four rect primitives between the rounded corners*
20,1,$1+$1,$2,$3,$4,$5,0*
20,1,$1+$1,$4,$5,$6,$7,0*
20,1,$1+$1,$6,$7,$8,$9,0*
20,1,$1+$1,$8,$9,$2,$3,0*%
G04 Aperture macros list end*
%ADD10C,0.300000*%
%TA.AperFunction,NonConductor*%
%ADD11C,0.300000*%
%TD*%
%TA.AperFunction,NonConductor*%
%ADD12C,0.200000*%
%TD*%
%TA.AperFunction,ComponentPad*%
%ADD13O,3.048000X1.524000*%
%TD*%
%TA.AperFunction,ComponentPad*%
%ADD14C,2.000000*%
%TD*%
%TA.AperFunction,SMDPad,CuDef*%
%ADD15RoundRect,0.250000X-0.450000X0.262500X-0.450000X-0.262500X0.450000X-0.262500X0.450000X0.262500X0*%
%TD*%
%TA.AperFunction,ComponentPad*%
%ADD16RoundRect,0.249999X0.790001X1.550001X-0.790001X1.550001X-0.790001X-1.550001X0.790001X-1.550001X0*%
%TD*%
%TA.AperFunction,ComponentPad*%
%ADD17O,2.080000X3.600000*%
%TD*%
%TA.AperFunction,SMDPad,CuDef*%
%ADD18R,2.259800X2.198599*%
%TD*%
%TA.AperFunction,SMDPad,CuDef*%
%ADD19R,0.812800X0.889000*%
%TD*%
%TA.AperFunction,SMDPad,CuDef*%
%ADD20R,3.500000X1.700000*%
%TD*%
%TA.AperFunction,ComponentPad*%
%ADD21O,1.700000X1.700000*%
%TD*%
%TA.AperFunction,ComponentPad*%
%ADD22R,1.700000X1.700000*%
%TD*%
%TA.AperFunction,SMDPad,CuDef*%
%ADD23R,1.700000X3.500000*%
%TD*%
%TA.AperFunction,SMDPad,CuDef*%
%ADD24R,0.600000X1.450000*%
%TD*%
%TA.AperFunction,SMDPad,CuDef*%
%ADD25R,0.300000X1.450000*%
%TD*%
%TA.AperFunction,ComponentPad*%
%ADD26O,1.050000X2.100000*%
%TD*%
%TA.AperFunction,SMDPad,CuDef*%
%ADD27RoundRect,0.250000X0.275000X-0.312500X0.275000X0.312500X-0.275000X0.312500X-0.275000X-0.312500X0*%
%TD*%
%TA.AperFunction,SMDPad,CuDef*%
%ADD28RoundRect,0.250000X0.312500X0.275000X-0.312500X0.275000X-0.312500X-0.275000X0.312500X-0.275000X0*%
%TD*%
%TA.AperFunction,ComponentPad*%
%ADD29RoundRect,0.250000X0.600000X0.600000X-0.600000X0.600000X-0.600000X-0.600000X0.600000X-0.600000X0*%
%TD*%
%TA.AperFunction,ComponentPad*%
%ADD30C,1.700000*%
%TD*%
%TA.AperFunction,ViaPad*%
%ADD31C,1.600000*%
%TD*%
%TA.AperFunction,ViaPad*%
%ADD32C,0.800000*%
%TD*%
%TA.AperFunction,Conductor*%
%ADD33C,1.000000*%
%TD*%
%TA.AperFunction,Conductor*%
%ADD34C,0.500000*%
%TD*%
%TA.AperFunction,Conductor*%
%ADD35C,0.250000*%
%TD*%
%TA.AperFunction,Conductor*%
%ADD36C,0.300000*%
%TD*%
G04 APERTURE END LIST*
D10*
D11*
X115872500Y5796428D02*
X116801071Y5796428D01*
X116301071Y5225000D01*
X116515357Y5225000D01*
X116658214Y5153571D01*
X116729642Y5082142D01*
X116801071Y4939285D01*
X116801071Y4582142D01*
X116729642Y4439285D01*
X116658214Y4367857D01*
X116515357Y4296428D01*
X116086785Y4296428D01*
X115943928Y4367857D01*
X115872500Y4439285D01*
X117658214Y5153571D02*
X117515357Y5225000D01*
X117443928Y5296428D01*
X117372500Y5439285D01*
X117372500Y5510714D01*
X117443928Y5653571D01*
X117515357Y5725000D01*
X117658214Y5796428D01*
X117943928Y5796428D01*
X118086785Y5725000D01*
X118158214Y5653571D01*
X118229642Y5510714D01*
X118229642Y5439285D01*
X118158214Y5296428D01*
X118086785Y5225000D01*
X117943928Y5153571D01*
X117658214Y5153571D01*
X117515357Y5082142D01*
X117443928Y5010714D01*
X117372500Y4867857D01*
X117372500Y4582142D01*
X117443928Y4439285D01*
X117515357Y4367857D01*
X117658214Y4296428D01*
X117943928Y4296428D01*
X118086785Y4367857D01*
X118158214Y4439285D01*
X118229642Y4582142D01*
X118229642Y4867857D01*
X118158214Y5010714D01*
X118086785Y5082142D01*
X117943928Y5153571D01*
X118872500Y4439285D02*
X118943928Y4367857D01*
X118872500Y4296428D01*
X118801071Y4367857D01*
X118872500Y4439285D01*
X118872500Y4296428D01*
X119443928Y5796428D02*
X120443928Y5796428D01*
X119801071Y4296428D01*
X120872500Y5796428D02*
X121801071Y5796428D01*
X121301071Y5225000D01*
X121515357Y5225000D01*
X121658214Y5153571D01*
X121729642Y5082142D01*
X121801071Y4939285D01*
X121801071Y4582142D01*
X121729642Y4439285D01*
X121658214Y4367857D01*
X121515357Y4296428D01*
X121086785Y4296428D01*
X120943928Y4367857D01*
X120872500Y4439285D01*
X123158214Y5796428D02*
X122443928Y5796428D01*
X122372500Y5082142D01*
X122443928Y5153571D01*
X122586785Y5225000D01*
X122943928Y5225000D01*
X123086785Y5153571D01*
X123158214Y5082142D01*
X123229642Y4939285D01*
X123229642Y4582142D01*
X123158214Y4439285D01*
X123086785Y4367857D01*
X122943928Y4296428D01*
X122586785Y4296428D01*
X122443928Y4367857D01*
X122372500Y4439285D01*
X124158214Y5796428D02*
X124301071Y5796428D01*
X124443928Y5725000D01*
X124515357Y5653571D01*
X124586785Y5510714D01*
X124658214Y5225000D01*
X124658214Y4867857D01*
X124586785Y4582142D01*
X124515357Y4439285D01*
X124443928Y4367857D01*
X124301071Y4296428D01*
X124158214Y4296428D01*
X124015357Y4367857D01*
X123943928Y4439285D01*
X123872500Y4582142D01*
X123801071Y4867857D01*
X123801071Y5225000D01*
X123872500Y5510714D01*
X123943928Y5653571D01*
X124015357Y5725000D01*
X124158214Y5796428D01*
X126443928Y4296428D02*
X126443928Y5296428D01*
X126443928Y5153571D02*
X126515357Y5225000D01*
X126658214Y5296428D01*
X126872500Y5296428D01*
X127015357Y5225000D01*
X127086785Y5082142D01*
X127086785Y4296428D01*
X127086785Y5082142D02*
X127158214Y5225000D01*
X127301071Y5296428D01*
X127515357Y5296428D01*
X127658214Y5225000D01*
X127729642Y5082142D01*
X127729642Y4296428D01*
X128443928Y4296428D02*
X128443928Y5296428D01*
X128443928Y5153571D02*
X128515357Y5225000D01*
X128658214Y5296428D01*
X128872500Y5296428D01*
X129015357Y5225000D01*
X129086785Y5082142D01*
X129086785Y4296428D01*
X129086785Y5082142D02*
X129158214Y5225000D01*
X129301071Y5296428D01*
X129515357Y5296428D01*
X129658214Y5225000D01*
X129729642Y5082142D01*
X129729642Y4296428D01*
D12*
X103505000Y-14422500D02*
X103505000Y3761420D01*
X142240000Y-14422500D02*
X142240000Y3761420D01*
X103505000Y3175000D02*
X142240000Y3175000D01*
X103505000Y3175000D02*
X142240000Y3175000D01*
X103505000Y3175000D02*
X104631504Y2588579D01*
X103505000Y3175000D02*
X104631504Y3761421D01*
X142240000Y3175000D02*
X141113496Y3761421D01*
X142240000Y3175000D02*
X141113496Y2588579D01*
D10*
D11*
X156136428Y-61570357D02*
X156065000Y-61713214D01*
X155993571Y-61784642D01*
X155850714Y-61856071D01*
X155779285Y-61856071D01*
X155636428Y-61784642D01*
X155565000Y-61713214D01*
X155493571Y-61570357D01*
X155493571Y-61284642D01*
X155565000Y-61141785D01*
X155636428Y-61070357D01*
X155779285Y-60998928D01*
X155850714Y-60998928D01*
X155993571Y-61070357D01*
X156065000Y-61141785D01*
X156136428Y-61284642D01*
X156136428Y-61570357D01*
X156207857Y-61713214D01*
X156279285Y-61784642D01*
X156422142Y-61856071D01*
X156707857Y-61856071D01*
X156850714Y-61784642D01*
X156922142Y-61713214D01*
X156993571Y-61570357D01*
X156993571Y-61284642D01*
X156922142Y-61141785D01*
X156850714Y-61070357D01*
X156707857Y-60998928D01*
X156422142Y-60998928D01*
X156279285Y-61070357D01*
X156207857Y-61141785D01*
X156136428Y-61284642D01*
X155493571Y-60070357D02*
X155493571Y-59927500D01*
X155565000Y-59784642D01*
X155636428Y-59713214D01*
X155779285Y-59641785D01*
X156065000Y-59570357D01*
X156422142Y-59570357D01*
X156707857Y-59641785D01*
X156850714Y-59713214D01*
X156922142Y-59784642D01*
X156993571Y-59927500D01*
X156993571Y-60070357D01*
X156922142Y-60213214D01*
X156850714Y-60284642D01*
X156707857Y-60356071D01*
X156422142Y-60427500D01*
X156065000Y-60427500D01*
X155779285Y-60356071D01*
X155636428Y-60284642D01*
X155565000Y-60213214D01*
X155493571Y-60070357D01*
X156850714Y-58927500D02*
X156922142Y-58856071D01*
X156993571Y-58927500D01*
X156922142Y-58998928D01*
X156850714Y-58927500D01*
X156993571Y-58927500D01*
X155493571Y-57927500D02*
X155493571Y-57784642D01*
X155565000Y-57641785D01*
X155636428Y-57570357D01*
X155779285Y-57498928D01*
X156065000Y-57427500D01*
X156422142Y-57427500D01*
X156707857Y-57498928D01*
X156850714Y-57570357D01*
X156922142Y-57641785D01*
X156993571Y-57784642D01*
X156993571Y-57927500D01*
X156922142Y-58070357D01*
X156850714Y-58141785D01*
X156707857Y-58213214D01*
X156422142Y-58284642D01*
X156065000Y-58284642D01*
X155779285Y-58213214D01*
X155636428Y-58141785D01*
X155565000Y-58070357D01*
X155493571Y-57927500D01*
X156993571Y-55998928D02*
X156993571Y-56856071D01*
X156993571Y-56427500D02*
X155493571Y-56427500D01*
X155707857Y-56570357D01*
X155850714Y-56713214D01*
X155922142Y-56856071D01*
X155493571Y-55070357D02*
X155493571Y-54927500D01*
X155565000Y-54784642D01*
X155636428Y-54713214D01*
X155779285Y-54641785D01*
X156065000Y-54570357D01*
X156422142Y-54570357D01*
X156707857Y-54641785D01*
X156850714Y-54713214D01*
X156922142Y-54784642D01*
X156993571Y-54927500D01*
X156993571Y-55070357D01*
X156922142Y-55213214D01*
X156850714Y-55284642D01*
X156707857Y-55356071D01*
X156422142Y-55427500D01*
X156065000Y-55427500D01*
X155779285Y-55356071D01*
X155636428Y-55284642D01*
X155565000Y-55213214D01*
X155493571Y-55070357D01*
X155493571Y-53641785D02*
X155493571Y-53498928D01*
X155565000Y-53356071D01*
X155636428Y-53284642D01*
X155779285Y-53213214D01*
X156065000Y-53141785D01*
X156422142Y-53141785D01*
X156707857Y-53213214D01*
X156850714Y-53284642D01*
X156922142Y-53356071D01*
X156993571Y-53498928D01*
X156993571Y-53641785D01*
X156922142Y-53784642D01*
X156850714Y-53856071D01*
X156707857Y-53927500D01*
X156422142Y-53998928D01*
X156065000Y-53998928D01*
X155779285Y-53927500D01*
X155636428Y-53856071D01*
X155565000Y-53784642D01*
X155493571Y-53641785D01*
X156993571Y-51356071D02*
X155993571Y-51356071D01*
X156136428Y-51356071D02*
X156065000Y-51284642D01*
X155993571Y-51141785D01*
X155993571Y-50927500D01*
X156065000Y-50784642D01*
X156207857Y-50713214D01*
X156993571Y-50713214D01*
X156207857Y-50713214D02*
X156065000Y-50641785D01*
X155993571Y-50498928D01*
X155993571Y-50284642D01*
X156065000Y-50141785D01*
X156207857Y-50070357D01*
X156993571Y-50070357D01*
X156993571Y-49356071D02*
X155993571Y-49356071D01*
X156136428Y-49356071D02*
X156065000Y-49284642D01*
X155993571Y-49141785D01*
X155993571Y-48927500D01*
X156065000Y-48784642D01*
X156207857Y-48713214D01*
X156993571Y-48713214D01*
X156207857Y-48713214D02*
X156065000Y-48641785D01*
X155993571Y-48498928D01*
X155993571Y-48284642D01*
X156065000Y-48141785D01*
X156207857Y-48070357D01*
X156993571Y-48070357D01*
D12*
X142740000Y-14922500D02*
X158701420Y-14922500D01*
X142740000Y-94932500D02*
X158701420Y-94932500D01*
X158115000Y-14922500D02*
X158115000Y-94932500D01*
X158115000Y-14922500D02*
X158115000Y-94932500D01*
X158115000Y-14922500D02*
X157528579Y-16049004D01*
X158115000Y-14922500D02*
X158701421Y-16049004D01*
X158115000Y-94932500D02*
X158701421Y-93805996D01*
X158115000Y-94932500D02*
X157528579Y-93805996D01*
D13*
%TO.P,U2,1,GND*%
%TO.N,GND*%
X121983500Y-31750000D03*
%TO.P,U2,2,VO*%
%TO.N,+3V3*%
X121983500Y-34290000D03*
%TO.P,U2,3,VI*%
%TO.N,+5V*%
X121983500Y-36830000D03*
%TD*%
D14*
%TO.P,TP2,1,1*%
%TO.N,GND*%
X123190000Y-20320000D03*
%TD*%
D15*
%TO.P,R1,1*%
%TO.N,Net-(J2-PadB5)*%
X110490000Y-25400000D03*
%TO.P,R1,2*%
%TO.N,GND*%
X110490000Y-27225000D03*
%TD*%
D16*
%TO.P,J4,1,Pin_1*%
%TO.N,+3V3*%
X134620000Y-26002500D03*
D17*
%TO.P,J4,2,Pin_2*%
%TO.N,GND*%
X129540000Y-26002500D03*
%TD*%
D18*
%TO.P,D1,1,1*%
%TO.N,+5V*%
X116840000Y-26670000D03*
%TO.P,D1,2,2*%
%TO.N,GND*%
X116840000Y-30759400D03*
%TD*%
D19*
%TO.P,U3,1,G*%
%TO.N,Net-(U1-Pad40)*%
X105655001Y-33964999D03*
%TO.P,U3,2,S*%
%TO.N,Net-(U1-Pad39)*%
X107704999Y-33964999D03*
%TO.P,U3,3,D*%
%TO.N,+5V*%
X106680000Y-32075000D03*
%TD*%
D20*
%TO.P,U1,1,GPIO0*%
%TO.N,unconnected-(U1-Pad1)*%
X136790000Y-90805000D03*
D21*
X135890000Y-90805000D03*
%TO.P,U1,2,GPIO1*%
%TO.N,unconnected-(U1-Pad2)*%
X135890000Y-88265000D03*
D20*
X136790000Y-88265000D03*
D22*
%TO.P,U1,3,GND*%
%TO.N,unconnected-(U1-Pad3)*%
X135890000Y-85725000D03*
D20*
X136790000Y-85725000D03*
%TO.P,U1,4,GPIO2*%
%TO.N,FSK{slash}BPSK*%
X136790000Y-83185000D03*
D21*
X135890000Y-83185000D03*
%TO.P,U1,5,GPIO3*%
%TO.N,D7*%
X135890000Y-80645000D03*
D20*
X136790000Y-80645000D03*
D21*
%TO.P,U1,6,GPIO4*%
%TO.N,D6*%
X135890000Y-78105000D03*
D20*
X136790000Y-78105000D03*
%TO.P,U1,7,GPIO5*%
%TO.N,D5*%
X136790000Y-75565000D03*
D21*
X135890000Y-75565000D03*
D22*
%TO.P,U1,8,GND*%
%TO.N,unconnected-(U1-Pad8)*%
X135890000Y-73025000D03*
D20*
X136790000Y-73025000D03*
D21*
%TO.P,U1,9,GPIO6*%
%TO.N,D4*%
X135890000Y-70485000D03*
D20*
X136790000Y-70485000D03*
D21*
%TO.P,U1,10,GPIO7*%
%TO.N,D3*%
X135890000Y-67945000D03*
D20*
X136790000Y-67945000D03*
%TO.P,U1,11,GPIO8*%
%TO.N,D2*%
X136790000Y-65405000D03*
D21*
X135890000Y-65405000D03*
%TO.P,U1,12,GPIO9*%
%TO.N,D1*%
X135890000Y-62865000D03*
D20*
X136790000Y-62865000D03*
%TO.P,U1,13,GND*%
%TO.N,unconnected-(U1-Pad13)*%
X136790000Y-60325000D03*
D22*
X135890000Y-60325000D03*
D20*
%TO.P,U1,14,GPIO10*%
%TO.N,A5*%
X136790000Y-57785000D03*
D21*
X135890000Y-57785000D03*
D20*
%TO.P,U1,15,GPIO11*%
%TO.N,A3*%
X136790000Y-55245000D03*
D21*
X135890000Y-55245000D03*
D20*
%TO.P,U1,16,GPIO12*%
%TO.N,A1*%
X136790000Y-52705000D03*
D21*
X135890000Y-52705000D03*
D20*
%TO.P,U1,17,GPIO13*%
%TO.N,I{slash}O UD*%
X136790000Y-50165000D03*
D21*
X135890000Y-50165000D03*
D22*
%TO.P,U1,18,GND*%
%TO.N,unconnected-(U1-Pad18)*%
X135890000Y-47625000D03*
D20*
X136790000Y-47625000D03*
%TO.P,U1,19,GPIO14*%
%TO.N,RDB*%
X136790000Y-45085000D03*
D21*
X135890000Y-45085000D03*
D20*
%TO.P,U1,20,GPIO15*%
%TO.N,OSK*%
X136790000Y-42545000D03*
D21*
X135890000Y-42545000D03*
%TO.P,U1,21,GPIO16*%
%TO.N,MRESET*%
X118110000Y-42545000D03*
D20*
X117210000Y-42545000D03*
%TO.P,U1,22,GPIO17*%
%TO.N,PMODE*%
X117210000Y-45085000D03*
D21*
X118110000Y-45085000D03*
D22*
%TO.P,U1,23,GND*%
%TO.N,unconnected-(U1-Pad23)*%
X118110000Y-47625000D03*
D20*
X117210000Y-47625000D03*
%TO.P,U1,24,GPIO18*%
%TO.N,WRB*%
X117210000Y-50165000D03*
D21*
X118110000Y-50165000D03*
%TO.P,U1,25,GPIO19*%
%TO.N,A0*%
X118110000Y-52705000D03*
D20*
X117210000Y-52705000D03*
%TO.P,U1,26,GPIO20*%
%TO.N,A2*%
X117210000Y-55245000D03*
D21*
X118110000Y-55245000D03*
%TO.P,U1,27,GPIO21*%
%TO.N,A4*%
X118110000Y-57785000D03*
D20*
X117210000Y-57785000D03*
D22*
%TO.P,U1,28,GND*%
%TO.N,unconnected-(U1-Pad28)*%
X118110000Y-60325000D03*
D20*
X117210000Y-60325000D03*
D21*
%TO.P,U1,29,GPIO22*%
%TO.N,D0*%
X118110000Y-62865000D03*
D20*
X117210000Y-62865000D03*
%TO.P,U1,30,RUN*%
%TO.N,unconnected-(U1-Pad30)*%
X117210000Y-65405000D03*
D21*
X118110000Y-65405000D03*
%TO.P,U1,31,GPIO26_ADC0*%
%TO.N,unconnected-(U1-Pad31)*%
X118110000Y-67945000D03*
D20*
X117210000Y-67945000D03*
D21*
%TO.P,U1,32,GPIO27_ADC1*%
%TO.N,unconnected-(U1-Pad32)*%
X118110000Y-70485000D03*
D20*
X117210000Y-70485000D03*
D22*
%TO.P,U1,33,AGND*%
%TO.N,unconnected-(U1-Pad33)*%
X118110000Y-73025000D03*
D20*
X117210000Y-73025000D03*
%TO.P,U1,34,GPIO28_ADC2*%
%TO.N,unconnected-(U1-Pad34)*%
X117210000Y-75565000D03*
D21*
X118110000Y-75565000D03*
D20*
%TO.P,U1,35,ADC_VREF*%
%TO.N,unconnected-(U1-Pad35)*%
X117210000Y-78105000D03*
D21*
X118110000Y-78105000D03*
%TO.P,U1,36,3V3*%
%TO.N,unconnected-(U1-Pad36)*%
X118110000Y-80645000D03*
D20*
X117210000Y-80645000D03*
%TO.P,U1,37,3V3_EN*%
%TO.N,unconnected-(U1-Pad37)*%
X117210000Y-83185000D03*
D21*
X118110000Y-83185000D03*
D22*
%TO.P,U1,38,GND*%
%TO.N,GND*%
X118110000Y-85725000D03*
D20*
X117210000Y-85725000D03*
%TO.P,U1,39,VSYS*%
%TO.N,Net-(U1-Pad39)*%
X117210000Y-88265000D03*
D21*
X118110000Y-88265000D03*
%TO.P,U1,40,VBUS*%
%TO.N,Net-(U1-Pad40)*%
X118110000Y-90805000D03*
D20*
X117210000Y-90805000D03*
D21*
%TO.P,U1,41,SWCLK*%
%TO.N,unconnected-(U1-Pad41)*%
X129540000Y-42775000D03*
D23*
X129540000Y-41875000D03*
%TO.P,U1,42,GND*%
%TO.N,unconnected-(U1-Pad42)*%
X127000000Y-41875000D03*
D22*
X127000000Y-42775000D03*
D23*
%TO.P,U1,43,SWDIO*%
%TO.N,unconnected-(U1-Pad43)*%
X124460000Y-41875000D03*
D21*
X124460000Y-42775000D03*
%TD*%
D14*
%TO.P,TP1,1,1*%
%TO.N,+5V*%
X118745000Y-20320000D03*
%TD*%
D15*
%TO.P,R3,1*%
%TO.N,Net-(J2-PadS1)*%
X106680000Y-27027500D03*
%TO.P,R3,2*%
%TO.N,GND*%
X106680000Y-28852500D03*
%TD*%
D24*
%TO.P,J2,A1B12,GND*%
%TO.N,GND*%
X115010000Y-22875000D03*
X108510000Y-22875000D03*
%TO.P,J2,A4B9,VBUS*%
%TO.N,+5V*%
X114210000Y-22875000D03*
X109310000Y-22875000D03*
D25*
%TO.P,J2,A5,CC1*%
%TO.N,Net-(J2-PadA5)*%
X113010000Y-22875000D03*
%TO.P,J2,A6,DP1*%
%TO.N,unconnected-(J2-PadA6)*%
X112010000Y-22875000D03*
%TO.P,J2,A7,DN1*%
%TO.N,unconnected-(J2-PadA7)*%
X111510000Y-22875000D03*
%TO.P,J2,A8,SBU1*%
%TO.N,unconnected-(J2-PadA8)*%
X110510000Y-22875000D03*
%TO.P,J2,B5,CC2*%
%TO.N,Net-(J2-PadB5)*%
X110010000Y-22875000D03*
%TO.P,J2,B6,DP2*%
%TO.N,unconnected-(J2-PadB6)*%
X111010000Y-22875000D03*
%TO.P,J2,B7,DN2*%
%TO.N,unconnected-(J2-PadB7)*%
X112510000Y-22875000D03*
%TO.P,J2,B8,SBU2*%
%TO.N,unconnected-(J2-PadB8)*%
X113510000Y-22875000D03*
D26*
%TO.P,J2,S1,SHIELD*%
%TO.N,Net-(J2-PadS1)*%
X116080000Y-21960000D03*
X107440000Y-21960000D03*
X116080000Y-17780000D03*
X107440000Y-17780000D03*
%TD*%
D27*
%TO.P,C2,1*%
%TO.N,+3V3*%
X123572500Y-25905000D03*
%TO.P,C2,2*%
%TO.N,GND*%
X123572500Y-24130000D03*
%TD*%
D14*
%TO.P,J3,1,Pin_1*%
%TO.N,FSK{slash}BPSK*%
X117475000Y-38100000D03*
%TD*%
D28*
%TO.P,C1,1*%
%TO.N,+5V*%
X117475000Y-34290000D03*
%TO.P,C1,2*%
%TO.N,GND*%
X115700000Y-34290000D03*
%TD*%
D15*
%TO.P,R2,1*%
%TO.N,Net-(J2-PadA5)*%
X112395000Y-25400000D03*
%TO.P,R2,2*%
%TO.N,GND*%
X112395000Y-27225000D03*
%TD*%
D29*
%TO.P,J1,1,Pin_1*%
%TO.N,unconnected-(J1-Pad1)*%
X110490000Y-40640000D03*
D30*
%TO.P,J1,2,Pin_2*%
%TO.N,MRESET*%
X107950000Y-40640000D03*
%TO.P,J1,3,Pin_3*%
%TO.N,unconnected-(J1-Pad3)*%
X110490000Y-43180000D03*
%TO.P,J1,4,Pin_4*%
%TO.N,OSK*%
X107950000Y-43180000D03*
%TO.P,J1,5,Pin_5*%
%TO.N,unconnected-(J1-Pad5)*%
X110490000Y-45720000D03*
%TO.P,J1,6,Pin_6*%
%TO.N,PMODE*%
X107950000Y-45720000D03*
%TO.P,J1,7,Pin_7*%
%TO.N,unconnected-(J1-Pad7)*%
X110490000Y-48260000D03*
%TO.P,J1,8,Pin_8*%
%TO.N,RDB*%
X107950000Y-48260000D03*
%TO.P,J1,9,Pin_9*%
%TO.N,unconnected-(J1-Pad9)*%
X110490000Y-50800000D03*
%TO.P,J1,10,Pin_10*%
%TO.N,WRB*%
X107950000Y-50800000D03*
%TO.P,J1,11,Pin_11*%
%TO.N,unconnected-(J1-Pad11)*%
X110490000Y-53340000D03*
%TO.P,J1,12,Pin_12*%
%TO.N,I{slash}O UD*%
X107950000Y-53340000D03*
%TO.P,J1,13,Pin_13*%
%TO.N,unconnected-(J1-Pad13)*%
X110490000Y-55880000D03*
%TO.P,J1,14,Pin_14*%
%TO.N,A0*%
X107950000Y-55880000D03*
%TO.P,J1,15,Pin_15*%
%TO.N,unconnected-(J1-Pad15)*%
X110490000Y-58420000D03*
%TO.P,J1,16,Pin_16*%
%TO.N,A1*%
X107950000Y-58420000D03*
%TO.P,J1,17,Pin_17*%
%TO.N,unconnected-(J1-Pad17)*%
X110490000Y-60960000D03*
%TO.P,J1,18,Pin_18*%
%TO.N,A2*%
X107950000Y-60960000D03*
%TO.P,J1,19,Pin_19*%
%TO.N,unconnected-(J1-Pad19)*%
X110490000Y-63500000D03*
%TO.P,J1,20,Pin_20*%
%TO.N,A3*%
X107950000Y-63500000D03*
%TO.P,J1,21,Pin_21*%
%TO.N,unconnected-(J1-Pad21)*%
X110490000Y-66040000D03*
%TO.P,J1,22,Pin_22*%
%TO.N,A4*%
X107950000Y-66040000D03*
%TO.P,J1,23,Pin_23*%
%TO.N,unconnected-(J1-Pad23)*%
X110490000Y-68580000D03*
%TO.P,J1,24,Pin_24*%
%TO.N,A5*%
X107950000Y-68580000D03*
%TO.P,J1,25,Pin_25*%
%TO.N,unconnected-(J1-Pad25)*%
X110490000Y-71120000D03*
%TO.P,J1,26,Pin_26*%
%TO.N,D0*%
X107950000Y-71120000D03*
%TO.P,J1,27,Pin_27*%
%TO.N,unconnected-(J1-Pad27)*%
X110490000Y-73660000D03*
%TO.P,J1,28,Pin_28*%
%TO.N,D1*%
X107950000Y-73660000D03*
%TO.P,J1,29,Pin_29*%
%TO.N,unconnected-(J1-Pad29)*%
X110490000Y-76200000D03*
%TO.P,J1,30,Pin_30*%
%TO.N,D2*%
X107950000Y-76200000D03*
%TO.P,J1,31,Pin_31*%
%TO.N,unconnected-(J1-Pad31)*%
X110490000Y-78740000D03*
%TO.P,J1,32,Pin_32*%
%TO.N,D3*%
X107950000Y-78740000D03*
%TO.P,J1,33,Pin_33*%
%TO.N,unconnected-(J1-Pad33)*%
X110490000Y-81280000D03*
%TO.P,J1,34,Pin_34*%
%TO.N,D4*%
X107950000Y-81280000D03*
%TO.P,J1,35,Pin_35*%
%TO.N,unconnected-(J1-Pad35)*%
X110490000Y-83820000D03*
%TO.P,J1,36,Pin_36*%
%TO.N,D5*%
X107950000Y-83820000D03*
%TO.P,J1,37,Pin_37*%
%TO.N,unconnected-(J1-Pad37)*%
X110490000Y-86360000D03*
%TO.P,J1,38,Pin_38*%
%TO.N,D6*%
X107950000Y-86360000D03*
%TO.P,J1,39,Pin_39*%
%TO.N,unconnected-(J1-Pad39)*%
X110490000Y-88900000D03*
%TO.P,J1,40,Pin_40*%
%TO.N,D7*%
X107950000Y-88900000D03*
%TD*%
D31*
%TO.N,GND*%
X140335000Y-93345000D03*
D32*
X132080000Y-79375000D03*
D31*
X111760000Y-19642500D03*
D32*
X121285000Y-67945000D03*
D31*
X114300000Y-26670000D03*
D32*
X121285000Y-73025000D03*
D31*
X140335000Y-17145000D03*
D32*
X121285000Y-83185000D03*
X121285000Y-45085000D03*
D31*
X124460000Y-49530000D03*
X107315000Y-37465000D03*
D32*
X121285000Y-55245000D03*
X121285000Y-70485000D03*
D31*
X105410000Y-17145000D03*
D32*
X121285000Y-75565000D03*
X116840000Y-24765000D03*
X121285000Y-60325000D03*
X121285000Y-79375000D03*
X133350000Y-76835000D03*
D31*
X105410000Y-93345000D03*
D32*
X121285000Y-52705000D03*
%TD*%
D33*
%TO.N,+5V*%
X119380000Y-29210000D02*
X119380000Y-33880401D01*
D34*
X108585000Y-28575000D02*
X108585000Y-24765000D01*
X118745000Y-24765000D02*
X118745000Y-20320000D01*
X108585000Y-30480000D02*
X108585000Y-28575000D01*
X108585000Y-28575000D02*
X114935000Y-28575000D01*
D35*
X114210000Y-22875000D02*
X114210000Y-24040000D01*
D33*
X120983500Y-36830000D02*
X121983500Y-36830000D01*
X119380000Y-33880401D02*
X119380000Y-35226500D01*
X119380000Y-29210000D02*
X116840000Y-26670000D01*
D34*
X116840000Y-26670000D02*
X118745000Y-24765000D01*
X114300000Y-24130000D02*
X116840000Y-26670000D01*
X106990000Y-32075000D02*
X108585000Y-30480000D01*
D33*
X119380000Y-35226500D02*
X120983500Y-36830000D01*
X119380000Y-33880401D02*
X118970401Y-34290000D01*
D34*
X114935000Y-28575000D02*
X116840000Y-26670000D01*
X106680000Y-32075000D02*
X106990000Y-32075000D01*
D33*
X118970401Y-34290000D02*
X117475000Y-34290000D01*
D34*
X109310000Y-24040000D02*
X109310000Y-22875000D01*
X108585000Y-24765000D02*
X109310000Y-24040000D01*
D35*
X114210000Y-24040000D02*
X114300000Y-24130000D01*
D36*
%TO.N,GND*%
X106680000Y-28852500D02*
X107729520Y-27802980D01*
D35*
X115010000Y-22875000D02*
X115010000Y-22935000D01*
D36*
X107729520Y-23655480D02*
X108510000Y-22875000D01*
X107729520Y-27802980D02*
X107729520Y-23655480D01*
D35*
X115010000Y-22935000D02*
X116840000Y-24765000D01*
D33*
%TO.N,+3V3*%
X126967500Y-29300000D02*
X123572500Y-25905000D01*
X126967500Y-33655000D02*
X126332500Y-34290000D01*
X126332500Y-34290000D02*
X121983500Y-34290000D01*
X126967500Y-33655000D02*
X134620000Y-26002500D01*
X126967500Y-33655000D02*
X126967500Y-29300000D01*
%TO.N,Net-(U1-Pad39)*%
X115750978Y-88265000D02*
X118110000Y-88265000D01*
X113665000Y-86179022D02*
X115750978Y-88265000D01*
X107704999Y-33964999D02*
X113665000Y-39925000D01*
X113665000Y-39925000D02*
X113665000Y-86179022D01*
%TO.N,Net-(U1-Pad40)*%
X105655001Y-33964999D02*
X104775000Y-34845000D01*
X104775000Y-89535000D02*
X107950000Y-92710000D01*
X107950000Y-92710000D02*
X116205000Y-92710000D01*
X116205000Y-92710000D02*
X118110000Y-90805000D01*
X104775000Y-34845000D02*
X104775000Y-89535000D01*
D36*
%TO.N,FSK{slash}BPSK*%
X133985000Y-83185000D02*
X131330489Y-80530489D01*
X117475000Y-39370000D02*
X117475000Y-38100000D01*
X135890000Y-83185000D02*
X133985000Y-83185000D01*
X131330489Y-80530489D02*
X131330489Y-53225489D01*
X131330489Y-53225489D02*
X117475000Y-39370000D01*
%TO.N,Net-(J2-PadA5)*%
X113010000Y-24785000D02*
X113010000Y-22875000D01*
X112395000Y-25400000D02*
X113010000Y-24785000D01*
D35*
%TO.N,Net-(J2-PadB5)*%
X110010000Y-24920000D02*
X110010000Y-22875000D01*
X110490000Y-25400000D02*
X110010000Y-24920000D01*
D33*
%TO.N,Net-(J2-PadS1)*%
X107440000Y-21960000D02*
X107440000Y-17780000D01*
X106045000Y-22225000D02*
X106045000Y-26392500D01*
X106045000Y-22225000D02*
X107175000Y-22225000D01*
X116080000Y-17780000D02*
X116080000Y-21960000D01*
X107440000Y-17780000D02*
X116080000Y-17780000D01*
X106045000Y-26392500D02*
X106680000Y-27027500D01*
%TD*%
%TA.AperFunction,Conductor*%
%TO.N,GND*%
G36*
X141547121Y-15451002D02*
G01*
X141593614Y-15504658D01*
X141605000Y-15557000D01*
X141605000Y-94298000D01*
X141584998Y-94366121D01*
X141531342Y-94412614D01*
X141479000Y-94424000D01*
X104266000Y-94424000D01*
X104197879Y-94403998D01*
X104151386Y-94350342D01*
X104140000Y-94298000D01*
X104140000Y-90630425D01*
X104160002Y-90562304D01*
X104213658Y-90515811D01*
X104283932Y-90505707D01*
X104348512Y-90535201D01*
X104355095Y-90541330D01*
X107193145Y-93379379D01*
X107202247Y-93389522D01*
X107225968Y-93419025D01*
X107230696Y-93422992D01*
X107264421Y-93451291D01*
X107268069Y-93454472D01*
X107269881Y-93456115D01*
X107272075Y-93458309D01*
X107305349Y-93485642D01*
X107306147Y-93486304D01*
X107377474Y-93546154D01*
X107382144Y-93548722D01*
X107386261Y-93552103D01*
X107406079Y-93562729D01*
X107468086Y-93595977D01*
X107469245Y-93596606D01*
X107545381Y-93638462D01*
X107545389Y-93638465D01*
X107550787Y-93641433D01*
X107555869Y-93643045D01*
X107560563Y-93645562D01*
X107649531Y-93672762D01*
X107650559Y-93673082D01*
X107739306Y-93701235D01*
X107744602Y-93701829D01*
X107749698Y-93703387D01*
X107842257Y-93712790D01*
X107843393Y-93712911D01*
X107877008Y-93716681D01*
X107889730Y-93718108D01*
X107889734Y-93718108D01*
X107893227Y-93718500D01*
X107896754Y-93718500D01*
X107897739Y-93718555D01*
X107903419Y-93719002D01*
X107932825Y-93721989D01*
X107940337Y-93722752D01*
X107940339Y-93722752D01*
X107946462Y-93723374D01*
X107992108Y-93719059D01*
X108003967Y-93718500D01*
X116143157Y-93718500D01*
X116156764Y-93719237D01*
X116188262Y-93722659D01*
X116188267Y-93722659D01*
X116194388Y-93723324D01*
X116220638Y-93721027D01*
X116244388Y-93718950D01*
X116249214Y-93718621D01*
X116251686Y-93718500D01*
X116254769Y-93718500D01*
X116266738Y-93717326D01*
X116297506Y-93714310D01*
X116298819Y-93714188D01*
X116343084Y-93710315D01*
X116391413Y-93706087D01*
X116396532Y-93704600D01*
X116401833Y-93704080D01*
X116490834Y-93677209D01*
X116491967Y-93676874D01*
X116575414Y-93652630D01*
X116575418Y-93652628D01*
X116581336Y-93650909D01*
X116586068Y-93648456D01*
X116591169Y-93646916D01*
X116598173Y-93643192D01*
X116673260Y-93603269D01*
X116674426Y-93602657D01*
X116751453Y-93562729D01*
X116756926Y-93559892D01*
X116761089Y-93556569D01*
X116765796Y-93554066D01*
X116837918Y-93495245D01*
X116838774Y-93494554D01*
X116877973Y-93463262D01*
X116880477Y-93460758D01*
X116881195Y-93460116D01*
X116885528Y-93456415D01*
X116919062Y-93429065D01*
X116948288Y-93393737D01*
X116956277Y-93384958D01*
X118140829Y-92200405D01*
X118203141Y-92166380D01*
X118229924Y-92163500D01*
X119008134Y-92163500D01*
X119070316Y-92156745D01*
X119206705Y-92105615D01*
X119323261Y-92018261D01*
X119410615Y-91901705D01*
X119461745Y-91765316D01*
X119468500Y-91703134D01*
X119468500Y-90902856D01*
X119469578Y-90886409D01*
X119471092Y-90874908D01*
X119471529Y-90871590D01*
X119473156Y-90805000D01*
X119468924Y-90753524D01*
X119468500Y-90743200D01*
X119468500Y-90640469D01*
X122862095Y-90640469D01*
X122862392Y-90645622D01*
X122862392Y-90645625D01*
X122868018Y-90743200D01*
X122875427Y-90871697D01*
X122876564Y-90876743D01*
X122876565Y-90876749D01*
X122908741Y-91019523D01*
X122926346Y-91097642D01*
X122928288Y-91102424D01*
X122928289Y-91102428D01*
X123011540Y-91307450D01*
X123013484Y-91312237D01*
X123134501Y-91509719D01*
X123286147Y-91684784D01*
X123464349Y-91832730D01*
X123664322Y-91949584D01*
X123880694Y-92032209D01*
X123885760Y-92033240D01*
X123885761Y-92033240D01*
X123938846Y-92044040D01*
X124107656Y-92078385D01*
X124238324Y-92083176D01*
X124333949Y-92086683D01*
X124333953Y-92086683D01*
X124339113Y-92086872D01*
X124344233Y-92086216D01*
X124344235Y-92086216D01*
X124417270Y-92076860D01*
X124568847Y-92057442D01*
X124573795Y-92055957D01*
X124573802Y-92055956D01*
X124785747Y-91992369D01*
X124790690Y-91990886D01*
X124871236Y-91951427D01*
X124994049Y-91891262D01*
X124994052Y-91891260D01*
X124998684Y-91888991D01*
X125187243Y-91754494D01*
X125351303Y-91591005D01*
X125362445Y-91575500D01*
X125412875Y-91505318D01*
X125486458Y-91402917D01*
X125533641Y-91307450D01*
X125586784Y-91199922D01*
X125586785Y-91199920D01*
X125589078Y-91195280D01*
X125656408Y-90973671D01*
X125686640Y-90744041D01*
X125688327Y-90675000D01*
X125685488Y-90640469D01*
X128312095Y-90640469D01*
X128312392Y-90645622D01*
X128312392Y-90645625D01*
X128318018Y-90743200D01*
X128325427Y-90871697D01*
X128326564Y-90876743D01*
X128326565Y-90876749D01*
X128358741Y-91019523D01*
X128376346Y-91097642D01*
X128378288Y-91102424D01*
X128378289Y-91102428D01*
X128461540Y-91307450D01*
X128463484Y-91312237D01*
X128584501Y-91509719D01*
X128736147Y-91684784D01*
X128914349Y-91832730D01*
X129114322Y-91949584D01*
X129330694Y-92032209D01*
X129335760Y-92033240D01*
X129335761Y-92033240D01*
X129388846Y-92044040D01*
X129557656Y-92078385D01*
X129688324Y-92083176D01*
X129783949Y-92086683D01*
X129783953Y-92086683D01*
X129789113Y-92086872D01*
X129794233Y-92086216D01*
X129794235Y-92086216D01*
X129867270Y-92076860D01*
X130018847Y-92057442D01*
X130023795Y-92055957D01*
X130023802Y-92055956D01*
X130235747Y-91992369D01*
X130240690Y-91990886D01*
X130321236Y-91951427D01*
X130444049Y-91891262D01*
X130444052Y-91891260D01*
X130448684Y-91888991D01*
X130637243Y-91754494D01*
X130801303Y-91591005D01*
X130812445Y-91575500D01*
X130862875Y-91505318D01*
X130936458Y-91402917D01*
X130983641Y-91307450D01*
X131036784Y-91199922D01*
X131036785Y-91199920D01*
X131039078Y-91195280D01*
X131106408Y-90973671D01*
X131136640Y-90744041D01*
X131138327Y-90675000D01*
X131127337Y-90541330D01*
X131119773Y-90449318D01*
X131119772Y-90449312D01*
X131119349Y-90444167D01*
X131091137Y-90331850D01*
X131064184Y-90224544D01*
X131064183Y-90224540D01*
X131062925Y-90219533D01*
X131057556Y-90207185D01*
X130972630Y-90011868D01*
X130972628Y-90011865D01*
X130970570Y-90007131D01*
X130844764Y-89812665D01*
X130821536Y-89787137D01*
X130795134Y-89758122D01*
X130688887Y-89641358D01*
X130684836Y-89638159D01*
X130684832Y-89638155D01*
X130511177Y-89501011D01*
X130511172Y-89501008D01*
X130507123Y-89497810D01*
X130502607Y-89495317D01*
X130502604Y-89495315D01*
X130308879Y-89388373D01*
X130308875Y-89388371D01*
X130304355Y-89385876D01*
X130299486Y-89384152D01*
X130299482Y-89384150D01*
X130090903Y-89310288D01*
X130090899Y-89310287D01*
X130086028Y-89308562D01*
X130080935Y-89307655D01*
X130080932Y-89307654D01*
X129863095Y-89268851D01*
X129863089Y-89268850D01*
X129858006Y-89267945D01*
X129785096Y-89267054D01*
X129631581Y-89265179D01*
X129631579Y-89265179D01*
X129626411Y-89265116D01*
X129397464Y-89300150D01*
X129177314Y-89372106D01*
X129172726Y-89374494D01*
X129172722Y-89374496D01*
X129009556Y-89459435D01*
X128971872Y-89479052D01*
X128967739Y-89482155D01*
X128967736Y-89482157D01*
X128802424Y-89606277D01*
X128786655Y-89618117D01*
X128626639Y-89785564D01*
X128623725Y-89789836D01*
X128623724Y-89789837D01*
X128608152Y-89812665D01*
X128496119Y-89976899D01*
X128398602Y-90186981D01*
X128336707Y-90410169D01*
X128312095Y-90640469D01*
X125685488Y-90640469D01*
X125677337Y-90541330D01*
X125669773Y-90449318D01*
X125669772Y-90449312D01*
X125669349Y-90444167D01*
X125641137Y-90331850D01*
X125614184Y-90224544D01*
X125614183Y-90224540D01*
X125612925Y-90219533D01*
X125607556Y-90207185D01*
X125522630Y-90011868D01*
X125522628Y-90011865D01*
X125520570Y-90007131D01*
X125394764Y-89812665D01*
X125371536Y-89787137D01*
X125345134Y-89758122D01*
X125238887Y-89641358D01*
X125234836Y-89638159D01*
X125234832Y-89638155D01*
X125061177Y-89501011D01*
X125061172Y-89501008D01*
X125057123Y-89497810D01*
X125052607Y-89495317D01*
X125052604Y-89495315D01*
X124858879Y-89388373D01*
X124858875Y-89388371D01*
X124854355Y-89385876D01*
X124849486Y-89384152D01*
X124849482Y-89384150D01*
X124640903Y-89310288D01*
X124640899Y-89310287D01*
X124636028Y-89308562D01*
X124630935Y-89307655D01*
X124630932Y-89307654D01*
X124413095Y-89268851D01*
X124413089Y-89268850D01*
X124408006Y-89267945D01*
X124335096Y-89267054D01*
X124181581Y-89265179D01*
X124181579Y-89265179D01*
X124176411Y-89265116D01*
X123947464Y-89300150D01*
X123727314Y-89372106D01*
X123722726Y-89374494D01*
X123722722Y-89374496D01*
X123559556Y-89459435D01*
X123521872Y-89479052D01*
X123517739Y-89482155D01*
X123517736Y-89482157D01*
X123352424Y-89606277D01*
X123336655Y-89618117D01*
X123176639Y-89785564D01*
X123173725Y-89789836D01*
X123173724Y-89789837D01*
X123158152Y-89812665D01*
X123046119Y-89976899D01*
X122948602Y-90186981D01*
X122886707Y-90410169D01*
X122862095Y-90640469D01*
X119468500Y-90640469D01*
X119468500Y-89906866D01*
X119461745Y-89844684D01*
X119410615Y-89708295D01*
X119337370Y-89610564D01*
X119312522Y-89544059D01*
X119327575Y-89474676D01*
X119337370Y-89459435D01*
X119390628Y-89388373D01*
X119410615Y-89361705D01*
X119461745Y-89225316D01*
X119468500Y-89163134D01*
X119468500Y-88362856D01*
X119469578Y-88346409D01*
X119471092Y-88334908D01*
X119471529Y-88331590D01*
X119473156Y-88265000D01*
X119468924Y-88213524D01*
X119468500Y-88203200D01*
X119468500Y-87645000D01*
X123311693Y-87645000D01*
X123330885Y-87864371D01*
X123387880Y-88077076D01*
X123390205Y-88082061D01*
X123478618Y-88271666D01*
X123478621Y-88271671D01*
X123480944Y-88276653D01*
X123484100Y-88281160D01*
X123484101Y-88281162D01*
X123591328Y-88434297D01*
X123607251Y-88457038D01*
X123762962Y-88612749D01*
X123943346Y-88739056D01*
X124142924Y-88832120D01*
X124355629Y-88889115D01*
X124575000Y-88908307D01*
X124794371Y-88889115D01*
X125007076Y-88832120D01*
X125206654Y-88739056D01*
X125387038Y-88612749D01*
X125542749Y-88457038D01*
X125558673Y-88434297D01*
X125665899Y-88281162D01*
X125665900Y-88281160D01*
X125669056Y-88276653D01*
X125671379Y-88271671D01*
X125671382Y-88271666D01*
X125759795Y-88082061D01*
X125762120Y-88077076D01*
X125819115Y-87864371D01*
X125838307Y-87645000D01*
X128161693Y-87645000D01*
X128180885Y-87864371D01*
X128237880Y-88077076D01*
X128240205Y-88082061D01*
X128328618Y-88271666D01*
X128328621Y-88271671D01*
X128330944Y-88276653D01*
X128334100Y-88281160D01*
X128334101Y-88281162D01*
X128441328Y-88434297D01*
X128457251Y-88457038D01*
X128612962Y-88612749D01*
X128793346Y-88739056D01*
X128992924Y-88832120D01*
X129205629Y-88889115D01*
X129425000Y-88908307D01*
X129644371Y-88889115D01*
X129857076Y-88832120D01*
X130056654Y-88739056D01*
X130237038Y-88612749D01*
X130392749Y-88457038D01*
X130408673Y-88434297D01*
X130515899Y-88281162D01*
X130515900Y-88281160D01*
X130519056Y-88276653D01*
X130521379Y-88271671D01*
X130521382Y-88271666D01*
X130609795Y-88082061D01*
X130612120Y-88077076D01*
X130669115Y-87864371D01*
X130688307Y-87645000D01*
X130669115Y-87425629D01*
X130612120Y-87212924D01*
X130538630Y-87055324D01*
X130521382Y-87018334D01*
X130521379Y-87018329D01*
X130519056Y-87013347D01*
X130515899Y-87008838D01*
X130395908Y-86837473D01*
X130395906Y-86837470D01*
X130392749Y-86832962D01*
X130237038Y-86677251D01*
X130195904Y-86648448D01*
X130084774Y-86570634D01*
X130056654Y-86550944D01*
X129857076Y-86457880D01*
X129644371Y-86400885D01*
X129425000Y-86381693D01*
X129205629Y-86400885D01*
X128992924Y-86457880D01*
X128899562Y-86501415D01*
X128798334Y-86548618D01*
X128798329Y-86548621D01*
X128793347Y-86550944D01*
X128788840Y-86554100D01*
X128788838Y-86554101D01*
X128617473Y-86674092D01*
X128617470Y-86674094D01*
X128612962Y-86677251D01*
X128457251Y-86832962D01*
X128454094Y-86837470D01*
X128454092Y-86837473D01*
X128334101Y-87008838D01*
X128330944Y-87013347D01*
X128328621Y-87018329D01*
X128328618Y-87018334D01*
X128311370Y-87055324D01*
X128237880Y-87212924D01*
X128180885Y-87425629D01*
X128161693Y-87645000D01*
X125838307Y-87645000D01*
X125819115Y-87425629D01*
X125762120Y-87212924D01*
X125688630Y-87055324D01*
X125671382Y-87018334D01*
X125671379Y-87018329D01*
X125669056Y-87013347D01*
X125665899Y-87008838D01*
X125545908Y-86837473D01*
X125545906Y-86837470D01*
X125542749Y-86832962D01*
X125387038Y-86677251D01*
X125345904Y-86648448D01*
X125234774Y-86570634D01*
X125206654Y-86550944D01*
X125007076Y-86457880D01*
X124794371Y-86400885D01*
X124575000Y-86381693D01*
X124355629Y-86400885D01*
X124142924Y-86457880D01*
X124049562Y-86501415D01*
X123948334Y-86548618D01*
X123948329Y-86548621D01*
X123943347Y-86550944D01*
X123938840Y-86554100D01*
X123938838Y-86554101D01*
X123767473Y-86674092D01*
X123767470Y-86674094D01*
X123762962Y-86677251D01*
X123607251Y-86832962D01*
X123604094Y-86837470D01*
X123604092Y-86837473D01*
X123484101Y-87008838D01*
X123480944Y-87013347D01*
X123478621Y-87018329D01*
X123478618Y-87018334D01*
X123461370Y-87055324D01*
X123387880Y-87212924D01*
X123330885Y-87425629D01*
X123311693Y-87645000D01*
X119468500Y-87645000D01*
X119468500Y-87366866D01*
X119461745Y-87304684D01*
X119410615Y-87168295D01*
X119360422Y-87101323D01*
X119337058Y-87070148D01*
X119312210Y-87003642D01*
X119327263Y-86934259D01*
X119337058Y-86919018D01*
X119404786Y-86828649D01*
X119413324Y-86813054D01*
X119458478Y-86692606D01*
X119462105Y-86677351D01*
X119467631Y-86626486D01*
X119468000Y-86619672D01*
X119468000Y-85997115D01*
X119463525Y-85981876D01*
X119462135Y-85980671D01*
X119454452Y-85979000D01*
X114952001Y-85979000D01*
X114952001Y-85975848D01*
X114909860Y-85975849D01*
X114856259Y-85944047D01*
X114710405Y-85798193D01*
X114676379Y-85735881D01*
X114673500Y-85709098D01*
X114673500Y-84083134D01*
X114951500Y-84083134D01*
X114958255Y-84145316D01*
X115009385Y-84281705D01*
X115014771Y-84288891D01*
X115082942Y-84379852D01*
X115107790Y-84446358D01*
X115092737Y-84515741D01*
X115082942Y-84530982D01*
X115015214Y-84621351D01*
X115006676Y-84636946D01*
X114961522Y-84757394D01*
X114957895Y-84772649D01*
X114952369Y-84823514D01*
X114952000Y-84830328D01*
X114952000Y-85452885D01*
X114956475Y-85468124D01*
X114957865Y-85469329D01*
X114965548Y-85471000D01*
X119449884Y-85471000D01*
X119465123Y-85466525D01*
X119466328Y-85465135D01*
X119467999Y-85457452D01*
X119467999Y-84830331D01*
X119467629Y-84823510D01*
X119462105Y-84772648D01*
X119458479Y-84757396D01*
X119413324Y-84636946D01*
X119404786Y-84621351D01*
X119337058Y-84530982D01*
X119312210Y-84464475D01*
X119327263Y-84395093D01*
X119337058Y-84379852D01*
X119405229Y-84288891D01*
X119410615Y-84281705D01*
X119461745Y-84145316D01*
X119468500Y-84083134D01*
X119468500Y-83282856D01*
X119469578Y-83266409D01*
X119471092Y-83254908D01*
X119471529Y-83251590D01*
X119473156Y-83185000D01*
X119468924Y-83133524D01*
X119468500Y-83123200D01*
X119468500Y-82286866D01*
X119461745Y-82224684D01*
X119410615Y-82088295D01*
X119337370Y-81990564D01*
X119312522Y-81924059D01*
X119327575Y-81854676D01*
X119337370Y-81839435D01*
X119384270Y-81776857D01*
X119410615Y-81741705D01*
X119461745Y-81605316D01*
X119468500Y-81543134D01*
X119468500Y-80742856D01*
X119469578Y-80726409D01*
X119471092Y-80714908D01*
X119471529Y-80711590D01*
X119473156Y-80645000D01*
X119468924Y-80593524D01*
X119468500Y-80583200D01*
X119468500Y-79746866D01*
X119461745Y-79684684D01*
X119410615Y-79548295D01*
X119337370Y-79450564D01*
X119312522Y-79384059D01*
X119327575Y-79314676D01*
X119337370Y-79299435D01*
X119384270Y-79236857D01*
X119410615Y-79201705D01*
X119461745Y-79065316D01*
X119468500Y-79003134D01*
X119468500Y-78202856D01*
X119469578Y-78186409D01*
X119471092Y-78174908D01*
X119471529Y-78171590D01*
X119473156Y-78105000D01*
X119468924Y-78053524D01*
X119468500Y-78043200D01*
X119468500Y-77206866D01*
X119461745Y-77144684D01*
X119410615Y-77008295D01*
X119337370Y-76910564D01*
X119312522Y-76844059D01*
X119327575Y-76774676D01*
X119337370Y-76759435D01*
X119384270Y-76696857D01*
X119410615Y-76661705D01*
X119461745Y-76525316D01*
X119468500Y-76463134D01*
X119468500Y-75662856D01*
X119469578Y-75646409D01*
X119471092Y-75634908D01*
X119471529Y-75631590D01*
X119473156Y-75565000D01*
X119468924Y-75513524D01*
X119468500Y-75503200D01*
X119468500Y-74666866D01*
X119461745Y-74604684D01*
X119410615Y-74468295D01*
X119337370Y-74370564D01*
X119312522Y-74304059D01*
X119327575Y-74234676D01*
X119337370Y-74219435D01*
X119384270Y-74156857D01*
X119410615Y-74121705D01*
X119461745Y-73985316D01*
X119468500Y-73923134D01*
X119468500Y-72126866D01*
X119461745Y-72064684D01*
X119410615Y-71928295D01*
X119337370Y-71830564D01*
X119312522Y-71764059D01*
X119327575Y-71694676D01*
X119337370Y-71679435D01*
X119384270Y-71616857D01*
X119410615Y-71581705D01*
X119461745Y-71445316D01*
X119468500Y-71383134D01*
X119468500Y-70582856D01*
X119469578Y-70566409D01*
X119471092Y-70554908D01*
X119471529Y-70551590D01*
X119473156Y-70485000D01*
X119468924Y-70433524D01*
X119468500Y-70423200D01*
X119468500Y-69586866D01*
X119461745Y-69524684D01*
X119410615Y-69388295D01*
X119337370Y-69290564D01*
X119312522Y-69224059D01*
X119327575Y-69154676D01*
X119337370Y-69139435D01*
X119384270Y-69076857D01*
X119410615Y-69041705D01*
X119461745Y-68905316D01*
X119468500Y-68843134D01*
X119468500Y-68042856D01*
X119469578Y-68026409D01*
X119471092Y-68014908D01*
X119471529Y-68011590D01*
X119473156Y-67945000D01*
X119468924Y-67893524D01*
X119468500Y-67883200D01*
X119468500Y-67046866D01*
X119461745Y-66984684D01*
X119410615Y-66848295D01*
X119337370Y-66750564D01*
X119312522Y-66684059D01*
X119327575Y-66614676D01*
X119337370Y-66599435D01*
X119384270Y-66536857D01*
X119410615Y-66501705D01*
X119461745Y-66365316D01*
X119468500Y-66303134D01*
X119468500Y-65502856D01*
X119469578Y-65486409D01*
X119471092Y-65474908D01*
X119471529Y-65471590D01*
X119473156Y-65405000D01*
X119468924Y-65353524D01*
X119468500Y-65343200D01*
X119468500Y-64506866D01*
X119461745Y-64444684D01*
X119410615Y-64308295D01*
X119337370Y-64210564D01*
X119312522Y-64144059D01*
X119327575Y-64074676D01*
X119337370Y-64059435D01*
X119384270Y-63996857D01*
X119410615Y-63961705D01*
X119461745Y-63825316D01*
X119468500Y-63763134D01*
X119468500Y-62962856D01*
X119469578Y-62946409D01*
X119471092Y-62934908D01*
X119471529Y-62931590D01*
X119473156Y-62865000D01*
X119468924Y-62813524D01*
X119468500Y-62803200D01*
X119468500Y-61966866D01*
X119461745Y-61904684D01*
X119410615Y-61768295D01*
X119337370Y-61670564D01*
X119312522Y-61604059D01*
X119327575Y-61534676D01*
X119337370Y-61519435D01*
X119384270Y-61456857D01*
X119410615Y-61421705D01*
X119461745Y-61285316D01*
X119468500Y-61223134D01*
X119468500Y-59426866D01*
X119461745Y-59364684D01*
X119410615Y-59228295D01*
X119337370Y-59130564D01*
X119312522Y-59064059D01*
X119327575Y-58994676D01*
X119337370Y-58979435D01*
X119384270Y-58916857D01*
X119410615Y-58881705D01*
X119461745Y-58745316D01*
X119468500Y-58683134D01*
X119468500Y-57882856D01*
X119469578Y-57866409D01*
X119471092Y-57854908D01*
X119471529Y-57851590D01*
X119473156Y-57785000D01*
X119468924Y-57733524D01*
X119468500Y-57723200D01*
X119468500Y-56886866D01*
X119461745Y-56824684D01*
X119410615Y-56688295D01*
X119337370Y-56590564D01*
X119312522Y-56524059D01*
X119327575Y-56454676D01*
X119337370Y-56439435D01*
X119384270Y-56376857D01*
X119410615Y-56341705D01*
X119461745Y-56205316D01*
X119468500Y-56143134D01*
X119468500Y-55342856D01*
X119469578Y-55326409D01*
X119471092Y-55314908D01*
X119471529Y-55311590D01*
X119473156Y-55245000D01*
X119468924Y-55193524D01*
X119468500Y-55183200D01*
X119468500Y-54346866D01*
X119461745Y-54284684D01*
X119410615Y-54148295D01*
X119337370Y-54050564D01*
X119312522Y-53984059D01*
X119327575Y-53914676D01*
X119337370Y-53899435D01*
X119384270Y-53836857D01*
X119410615Y-53801705D01*
X119461745Y-53665316D01*
X119468500Y-53603134D01*
X119468500Y-52802856D01*
X119469578Y-52786409D01*
X119471092Y-52774908D01*
X119471529Y-52771590D01*
X119473156Y-52705000D01*
X119468924Y-52653524D01*
X119468500Y-52643200D01*
X119468500Y-51806866D01*
X119461745Y-51744684D01*
X119410615Y-51608295D01*
X119337370Y-51510564D01*
X119312522Y-51444059D01*
X119327575Y-51374676D01*
X119337370Y-51359435D01*
X119384270Y-51296857D01*
X119410615Y-51261705D01*
X119461745Y-51125316D01*
X119468500Y-51063134D01*
X119468500Y-50262856D01*
X119469578Y-50246409D01*
X119471092Y-50234908D01*
X119471529Y-50231590D01*
X119473156Y-50165000D01*
X119468924Y-50113524D01*
X119468500Y-50103200D01*
X119468500Y-49266866D01*
X119461745Y-49204684D01*
X119410615Y-49068295D01*
X119337370Y-48970564D01*
X119312522Y-48904059D01*
X119327575Y-48834676D01*
X119337370Y-48819435D01*
X119384270Y-48756857D01*
X119410615Y-48721705D01*
X119461745Y-48585316D01*
X119468500Y-48523134D01*
X119468500Y-46726866D01*
X119461745Y-46664684D01*
X119410615Y-46528295D01*
X119337370Y-46430564D01*
X119312522Y-46364059D01*
X119327575Y-46294676D01*
X119337370Y-46279435D01*
X119384270Y-46216857D01*
X119410615Y-46181705D01*
X119461745Y-46045316D01*
X119468500Y-45983134D01*
X119468500Y-45182856D01*
X119469578Y-45166409D01*
X119471092Y-45154908D01*
X119471529Y-45151590D01*
X119473156Y-45085000D01*
X119468924Y-45033524D01*
X119468500Y-45023200D01*
X119468500Y-44186866D01*
X119461745Y-44124684D01*
X119410615Y-43988295D01*
X119337370Y-43890564D01*
X119312522Y-43824059D01*
X119327575Y-43754676D01*
X119337370Y-43739435D01*
X119389621Y-43669717D01*
X119410615Y-43641705D01*
X119461745Y-43505316D01*
X119468500Y-43443134D01*
X119468500Y-42642856D01*
X119469578Y-42626409D01*
X119471092Y-42614908D01*
X119471529Y-42611590D01*
X119471833Y-42599163D01*
X119493495Y-42531552D01*
X119548272Y-42486385D01*
X119618772Y-42478003D01*
X119686890Y-42513150D01*
X130635084Y-53461343D01*
X130669110Y-53523655D01*
X130671989Y-53550438D01*
X130671989Y-80448433D01*
X130671430Y-80460289D01*
X130669701Y-80468026D01*
X130669950Y-80475948D01*
X130671927Y-80538858D01*
X130671989Y-80542816D01*
X130671989Y-80571921D01*
X130672545Y-80576321D01*
X130673477Y-80588153D01*
X130674927Y-80634320D01*
X130679008Y-80648365D01*
X130680908Y-80654905D01*
X130684919Y-80674271D01*
X130687607Y-80695553D01*
X130690523Y-80702918D01*
X130690524Y-80702922D01*
X130704615Y-80738510D01*
X130708454Y-80749720D01*
X130721344Y-80794089D01*
X130732264Y-80812554D01*
X130740955Y-80830294D01*
X130748854Y-80850245D01*
X130776005Y-80887615D01*
X130782522Y-80897537D01*
X130801996Y-80930466D01*
X130801999Y-80930470D01*
X130806036Y-80937296D01*
X130821200Y-80952460D01*
X130834040Y-80967493D01*
X130846648Y-80984846D01*
X130882241Y-81014291D01*
X130891021Y-81022281D01*
X133461341Y-83592600D01*
X133469331Y-83601381D01*
X133469339Y-83601390D01*
X133473584Y-83608080D01*
X133479359Y-83613503D01*
X133525274Y-83656620D01*
X133528116Y-83659375D01*
X133548667Y-83679926D01*
X133551801Y-83682357D01*
X133552163Y-83682638D01*
X133561191Y-83690348D01*
X133594867Y-83721972D01*
X133601818Y-83725793D01*
X133601819Y-83725794D01*
X133613655Y-83732301D01*
X133630184Y-83743158D01*
X133640869Y-83751447D01*
X133640871Y-83751448D01*
X133647131Y-83756304D01*
X133689544Y-83774657D01*
X133700181Y-83779868D01*
X133740663Y-83802124D01*
X133748342Y-83804096D01*
X133748343Y-83804096D01*
X133761434Y-83807457D01*
X133780136Y-83813859D01*
X133799823Y-83822379D01*
X133807652Y-83823619D01*
X133845448Y-83829605D01*
X133857074Y-83832013D01*
X133894135Y-83841529D01*
X133894136Y-83841529D01*
X133901812Y-83843500D01*
X133923258Y-83843500D01*
X133942968Y-83845051D01*
X133964151Y-83848406D01*
X134010135Y-83844059D01*
X134021994Y-83843500D01*
X134405500Y-83843500D01*
X134473621Y-83863502D01*
X134520114Y-83917158D01*
X134531500Y-83969500D01*
X134531500Y-84083134D01*
X134538255Y-84145316D01*
X134589385Y-84281705D01*
X134615730Y-84316857D01*
X134662630Y-84379435D01*
X134687478Y-84445941D01*
X134672425Y-84515324D01*
X134662632Y-84530562D01*
X134589385Y-84628295D01*
X134538255Y-84764684D01*
X134531500Y-84826866D01*
X134531500Y-86623134D01*
X134538255Y-86685316D01*
X134589385Y-86821705D01*
X134657998Y-86913255D01*
X134662630Y-86919435D01*
X134687478Y-86985941D01*
X134672425Y-87055324D01*
X134662632Y-87070562D01*
X134589385Y-87168295D01*
X134538255Y-87304684D01*
X134531500Y-87366866D01*
X134531500Y-88185219D01*
X134530787Y-88198607D01*
X134527251Y-88231695D01*
X134527548Y-88236848D01*
X134527548Y-88236851D01*
X134531291Y-88301763D01*
X134531500Y-88309016D01*
X134531500Y-89163134D01*
X134538255Y-89225316D01*
X134589385Y-89361705D01*
X134609372Y-89388373D01*
X134662630Y-89459435D01*
X134687478Y-89525941D01*
X134672425Y-89595324D01*
X134662632Y-89610562D01*
X134589385Y-89708295D01*
X134538255Y-89844684D01*
X134531500Y-89906866D01*
X134531500Y-90725219D01*
X134530787Y-90738607D01*
X134527251Y-90771695D01*
X134527548Y-90776848D01*
X134527548Y-90776851D01*
X134531291Y-90841763D01*
X134531500Y-90849016D01*
X134531500Y-91703134D01*
X134538255Y-91765316D01*
X134589385Y-91901705D01*
X134676739Y-92018261D01*
X134793295Y-92105615D01*
X134929684Y-92156745D01*
X134991866Y-92163500D01*
X135860826Y-92163500D01*
X135865443Y-92163585D01*
X135946673Y-92166564D01*
X135946677Y-92166564D01*
X135951837Y-92166753D01*
X135956957Y-92166097D01*
X135956959Y-92166097D01*
X135969261Y-92164521D01*
X135985271Y-92163500D01*
X138588134Y-92163500D01*
X138650316Y-92156745D01*
X138786705Y-92105615D01*
X138903261Y-92018261D01*
X138990615Y-91901705D01*
X139041745Y-91765316D01*
X139048500Y-91703134D01*
X139048500Y-89906866D01*
X139041745Y-89844684D01*
X138990615Y-89708295D01*
X138917370Y-89610564D01*
X138892522Y-89544059D01*
X138907575Y-89474676D01*
X138917370Y-89459435D01*
X138970628Y-89388373D01*
X138990615Y-89361705D01*
X139041745Y-89225316D01*
X139048500Y-89163134D01*
X139048500Y-87366866D01*
X139041745Y-87304684D01*
X138990615Y-87168295D01*
X138917370Y-87070564D01*
X138892522Y-87004059D01*
X138907575Y-86934676D01*
X138917370Y-86919435D01*
X138922002Y-86913255D01*
X138990615Y-86821705D01*
X139041745Y-86685316D01*
X139048500Y-86623134D01*
X139048500Y-84826866D01*
X139041745Y-84764684D01*
X138990615Y-84628295D01*
X138917370Y-84530564D01*
X138892522Y-84464059D01*
X138907575Y-84394676D01*
X138917370Y-84379435D01*
X138964270Y-84316857D01*
X138990615Y-84281705D01*
X139041745Y-84145316D01*
X139048500Y-84083134D01*
X139048500Y-82286866D01*
X139041745Y-82224684D01*
X138990615Y-82088295D01*
X138917370Y-81990564D01*
X138892522Y-81924059D01*
X138907575Y-81854676D01*
X138917370Y-81839435D01*
X138964270Y-81776857D01*
X138990615Y-81741705D01*
X139041745Y-81605316D01*
X139048500Y-81543134D01*
X139048500Y-79746866D01*
X139041745Y-79684684D01*
X138990615Y-79548295D01*
X138917370Y-79450564D01*
X138892522Y-79384059D01*
X138907575Y-79314676D01*
X138917370Y-79299435D01*
X138964270Y-79236857D01*
X138990615Y-79201705D01*
X139041745Y-79065316D01*
X139048500Y-79003134D01*
X139048500Y-77206866D01*
X139041745Y-77144684D01*
X138990615Y-77008295D01*
X138917370Y-76910564D01*
X138892522Y-76844059D01*
X138907575Y-76774676D01*
X138917370Y-76759435D01*
X138964270Y-76696857D01*
X138990615Y-76661705D01*
X139041745Y-76525316D01*
X139048500Y-76463134D01*
X139048500Y-74666866D01*
X139041745Y-74604684D01*
X138990615Y-74468295D01*
X138917370Y-74370564D01*
X138892522Y-74304059D01*
X138907575Y-74234676D01*
X138917370Y-74219435D01*
X138964270Y-74156857D01*
X138990615Y-74121705D01*
X139041745Y-73985316D01*
X139048500Y-73923134D01*
X139048500Y-72126866D01*
X139041745Y-72064684D01*
X138990615Y-71928295D01*
X138917370Y-71830564D01*
X138892522Y-71764059D01*
X138907575Y-71694676D01*
X138917370Y-71679435D01*
X138964270Y-71616857D01*
X138990615Y-71581705D01*
X139041745Y-71445316D01*
X139048500Y-71383134D01*
X139048500Y-69586866D01*
X139041745Y-69524684D01*
X138990615Y-69388295D01*
X138917370Y-69290564D01*
X138892522Y-69224059D01*
X138907575Y-69154676D01*
X138917370Y-69139435D01*
X138964270Y-69076857D01*
X138990615Y-69041705D01*
X139041745Y-68905316D01*
X139048500Y-68843134D01*
X139048500Y-67046866D01*
X139041745Y-66984684D01*
X138990615Y-66848295D01*
X138917370Y-66750564D01*
X138892522Y-66684059D01*
X138907575Y-66614676D01*
X138917370Y-66599435D01*
X138964270Y-66536857D01*
X138990615Y-66501705D01*
X139041745Y-66365316D01*
X139048500Y-66303134D01*
X139048500Y-64506866D01*
X139041745Y-64444684D01*
X138990615Y-64308295D01*
X138917370Y-64210564D01*
X138892522Y-64144059D01*
X138907575Y-64074676D01*
X138917370Y-64059435D01*
X138964270Y-63996857D01*
X138990615Y-63961705D01*
X139041745Y-63825316D01*
X139048500Y-63763134D01*
X139048500Y-61966866D01*
X139041745Y-61904684D01*
X138990615Y-61768295D01*
X138917370Y-61670564D01*
X138892522Y-61604059D01*
X138907575Y-61534676D01*
X138917370Y-61519435D01*
X138964270Y-61456857D01*
X138990615Y-61421705D01*
X139041745Y-61285316D01*
X139048500Y-61223134D01*
X139048500Y-59426866D01*
X139041745Y-59364684D01*
X138990615Y-59228295D01*
X138917370Y-59130564D01*
X138892522Y-59064059D01*
X138907575Y-58994676D01*
X138917370Y-58979435D01*
X138964270Y-58916857D01*
X138990615Y-58881705D01*
X139041745Y-58745316D01*
X139048500Y-58683134D01*
X139048500Y-56886866D01*
X139041745Y-56824684D01*
X138990615Y-56688295D01*
X138917370Y-56590564D01*
X138892522Y-56524059D01*
X138907575Y-56454676D01*
X138917370Y-56439435D01*
X138964270Y-56376857D01*
X138990615Y-56341705D01*
X139041745Y-56205316D01*
X139048500Y-56143134D01*
X139048500Y-54346866D01*
X139041745Y-54284684D01*
X138990615Y-54148295D01*
X138917370Y-54050564D01*
X138892522Y-53984059D01*
X138907575Y-53914676D01*
X138917370Y-53899435D01*
X138964270Y-53836857D01*
X138990615Y-53801705D01*
X139041745Y-53665316D01*
X139048500Y-53603134D01*
X139048500Y-51806866D01*
X139041745Y-51744684D01*
X138990615Y-51608295D01*
X138917370Y-51510564D01*
X138892522Y-51444059D01*
X138907575Y-51374676D01*
X138917370Y-51359435D01*
X138964270Y-51296857D01*
X138990615Y-51261705D01*
X139041745Y-51125316D01*
X139048500Y-51063134D01*
X139048500Y-49266866D01*
X139041745Y-49204684D01*
X138990615Y-49068295D01*
X138917370Y-48970564D01*
X138892522Y-48904059D01*
X138907575Y-48834676D01*
X138917370Y-48819435D01*
X138964270Y-48756857D01*
X138990615Y-48721705D01*
X139041745Y-48585316D01*
X139048500Y-48523134D01*
X139048500Y-46726866D01*
X139041745Y-46664684D01*
X138990615Y-46528295D01*
X138917370Y-46430564D01*
X138892522Y-46364059D01*
X138907575Y-46294676D01*
X138917370Y-46279435D01*
X138964270Y-46216857D01*
X138990615Y-46181705D01*
X139041745Y-46045316D01*
X139048500Y-45983134D01*
X139048500Y-44186866D01*
X139041745Y-44124684D01*
X138990615Y-43988295D01*
X138917370Y-43890564D01*
X138892522Y-43824059D01*
X138907575Y-43754676D01*
X138917370Y-43739435D01*
X138969621Y-43669717D01*
X138990615Y-43641705D01*
X139041745Y-43505316D01*
X139048500Y-43443134D01*
X139048500Y-41646866D01*
X139041745Y-41584684D01*
X138990615Y-41448295D01*
X138903261Y-41331739D01*
X138786705Y-41244385D01*
X138650316Y-41193255D01*
X138588134Y-41186500D01*
X135904985Y-41186500D01*
X135903446Y-41186491D01*
X135800081Y-41185228D01*
X135800079Y-41185228D01*
X135794911Y-41185165D01*
X135789797Y-41185948D01*
X135786289Y-41186193D01*
X135777496Y-41186500D01*
X134991866Y-41186500D01*
X134929684Y-41193255D01*
X134793295Y-41244385D01*
X134676739Y-41331739D01*
X134589385Y-41448295D01*
X134538255Y-41584684D01*
X134531500Y-41646866D01*
X134531500Y-42465219D01*
X134530787Y-42478607D01*
X134527251Y-42511695D01*
X134527548Y-42516848D01*
X134527548Y-42516851D01*
X134531291Y-42581763D01*
X134531500Y-42589016D01*
X134531500Y-43443134D01*
X134538255Y-43505316D01*
X134589385Y-43641705D01*
X134610379Y-43669717D01*
X134662630Y-43739435D01*
X134687478Y-43805941D01*
X134672425Y-43875324D01*
X134662632Y-43890562D01*
X134589385Y-43988295D01*
X134538255Y-44124684D01*
X134531500Y-44186866D01*
X134531500Y-45005219D01*
X134530787Y-45018607D01*
X134527251Y-45051695D01*
X134527548Y-45056848D01*
X134527548Y-45056851D01*
X134531291Y-45121763D01*
X134531500Y-45129016D01*
X134531500Y-45983134D01*
X134538255Y-46045316D01*
X134589385Y-46181705D01*
X134615730Y-46216857D01*
X134662630Y-46279435D01*
X134687478Y-46345941D01*
X134672425Y-46415324D01*
X134662632Y-46430562D01*
X134589385Y-46528295D01*
X134538255Y-46664684D01*
X134531500Y-46726866D01*
X134531500Y-48523134D01*
X134538255Y-48585316D01*
X134589385Y-48721705D01*
X134615730Y-48756857D01*
X134662630Y-48819435D01*
X134687478Y-48885941D01*
X134672425Y-48955324D01*
X134662632Y-48970562D01*
X134589385Y-49068295D01*
X134538255Y-49204684D01*
X134531500Y-49266866D01*
X134531500Y-50085219D01*
X134530787Y-50098607D01*
X134527251Y-50131695D01*
X134527548Y-50136848D01*
X134527548Y-50136851D01*
X134531291Y-50201763D01*
X134531500Y-50209016D01*
X134531500Y-51063134D01*
X134538255Y-51125316D01*
X134589385Y-51261705D01*
X134615730Y-51296857D01*
X134662630Y-51359435D01*
X134687478Y-51425941D01*
X134672425Y-51495324D01*
X134662632Y-51510562D01*
X134589385Y-51608295D01*
X134538255Y-51744684D01*
X134531500Y-51806866D01*
X134531500Y-52625219D01*
X134530787Y-52638607D01*
X134527251Y-52671695D01*
X134527548Y-52676848D01*
X134527548Y-52676851D01*
X134531291Y-52741763D01*
X134531500Y-52749016D01*
X134531500Y-53603134D01*
X134538255Y-53665316D01*
X134589385Y-53801705D01*
X134615730Y-53836857D01*
X134662630Y-53899435D01*
X134687478Y-53965941D01*
X134672425Y-54035324D01*
X134662632Y-54050562D01*
X134589385Y-54148295D01*
X134538255Y-54284684D01*
X134531500Y-54346866D01*
X134531500Y-55165219D01*
X134530787Y-55178607D01*
X134527251Y-55211695D01*
X134527548Y-55216848D01*
X134527548Y-55216851D01*
X134531291Y-55281763D01*
X134531500Y-55289016D01*
X134531500Y-56143134D01*
X134538255Y-56205316D01*
X134589385Y-56341705D01*
X134615730Y-56376857D01*
X134662630Y-56439435D01*
X134687478Y-56505941D01*
X134672425Y-56575324D01*
X134662632Y-56590562D01*
X134589385Y-56688295D01*
X134538255Y-56824684D01*
X134531500Y-56886866D01*
X134531500Y-57705219D01*
X134530787Y-57718607D01*
X134527251Y-57751695D01*
X134527548Y-57756848D01*
X134527548Y-57756851D01*
X134531291Y-57821763D01*
X134531500Y-57829016D01*
X134531500Y-58683134D01*
X134538255Y-58745316D01*
X134589385Y-58881705D01*
X134615730Y-58916857D01*
X134662630Y-58979435D01*
X134687478Y-59045941D01*
X134672425Y-59115324D01*
X134662632Y-59130562D01*
X134589385Y-59228295D01*
X134538255Y-59364684D01*
X134531500Y-59426866D01*
X134531500Y-61223134D01*
X134538255Y-61285316D01*
X134589385Y-61421705D01*
X134615730Y-61456857D01*
X134662630Y-61519435D01*
X134687478Y-61585941D01*
X134672425Y-61655324D01*
X134662632Y-61670562D01*
X134589385Y-61768295D01*
X134538255Y-61904684D01*
X134531500Y-61966866D01*
X134531500Y-62785219D01*
X134530787Y-62798607D01*
X134527251Y-62831695D01*
X134527548Y-62836848D01*
X134527548Y-62836851D01*
X134531291Y-62901763D01*
X134531500Y-62909016D01*
X134531500Y-63763134D01*
X134538255Y-63825316D01*
X134589385Y-63961705D01*
X134615730Y-63996857D01*
X134662630Y-64059435D01*
X134687478Y-64125941D01*
X134672425Y-64195324D01*
X134662632Y-64210562D01*
X134589385Y-64308295D01*
X134538255Y-64444684D01*
X134531500Y-64506866D01*
X134531500Y-65325219D01*
X134530787Y-65338607D01*
X134527251Y-65371695D01*
X134527548Y-65376848D01*
X134527548Y-65376851D01*
X134531291Y-65441763D01*
X134531500Y-65449016D01*
X134531500Y-66303134D01*
X134538255Y-66365316D01*
X134589385Y-66501705D01*
X134615730Y-66536857D01*
X134662630Y-66599435D01*
X134687478Y-66665941D01*
X134672425Y-66735324D01*
X134662632Y-66750562D01*
X134589385Y-66848295D01*
X134538255Y-66984684D01*
X134531500Y-67046866D01*
X134531500Y-67865219D01*
X134530787Y-67878607D01*
X134527251Y-67911695D01*
X134527548Y-67916848D01*
X134527548Y-67916851D01*
X134531291Y-67981763D01*
X134531500Y-67989016D01*
X134531500Y-68843134D01*
X134538255Y-68905316D01*
X134589385Y-69041705D01*
X134615730Y-69076857D01*
X134662630Y-69139435D01*
X134687478Y-69205941D01*
X134672425Y-69275324D01*
X134662632Y-69290562D01*
X134589385Y-69388295D01*
X134538255Y-69524684D01*
X134531500Y-69586866D01*
X134531500Y-70405219D01*
X134530787Y-70418607D01*
X134527251Y-70451695D01*
X134527548Y-70456848D01*
X134527548Y-70456851D01*
X134531291Y-70521763D01*
X134531500Y-70529016D01*
X134531500Y-71383134D01*
X134538255Y-71445316D01*
X134589385Y-71581705D01*
X134615730Y-71616857D01*
X134662630Y-71679435D01*
X134687478Y-71745941D01*
X134672425Y-71815324D01*
X134662632Y-71830562D01*
X134589385Y-71928295D01*
X134538255Y-72064684D01*
X134531500Y-72126866D01*
X134531500Y-73923134D01*
X134538255Y-73985316D01*
X134589385Y-74121705D01*
X134615730Y-74156857D01*
X134662630Y-74219435D01*
X134687478Y-74285941D01*
X134672425Y-74355324D01*
X134662632Y-74370562D01*
X134589385Y-74468295D01*
X134538255Y-74604684D01*
X134531500Y-74666866D01*
X134531500Y-75485219D01*
X134530787Y-75498607D01*
X134527251Y-75531695D01*
X134527548Y-75536848D01*
X134527548Y-75536851D01*
X134531291Y-75601763D01*
X134531500Y-75609016D01*
X134531500Y-76463134D01*
X134538255Y-76525316D01*
X134589385Y-76661705D01*
X134615730Y-76696857D01*
X134662630Y-76759435D01*
X134687478Y-76825941D01*
X134672425Y-76895324D01*
X134662632Y-76910562D01*
X134589385Y-77008295D01*
X134538255Y-77144684D01*
X134531500Y-77206866D01*
X134531500Y-78025219D01*
X134530787Y-78038607D01*
X134527251Y-78071695D01*
X134527548Y-78076848D01*
X134527548Y-78076851D01*
X134531291Y-78141763D01*
X134531500Y-78149016D01*
X134531500Y-79003134D01*
X134538255Y-79065316D01*
X134589385Y-79201705D01*
X134615730Y-79236857D01*
X134662630Y-79299435D01*
X134687478Y-79365941D01*
X134672425Y-79435324D01*
X134662632Y-79450562D01*
X134589385Y-79548295D01*
X134538255Y-79684684D01*
X134531500Y-79746866D01*
X134531500Y-80565219D01*
X134530787Y-80578607D01*
X134527251Y-80611695D01*
X134527548Y-80616848D01*
X134527548Y-80616851D01*
X134531291Y-80681763D01*
X134531500Y-80689016D01*
X134531500Y-81543134D01*
X134538255Y-81605316D01*
X134589385Y-81741705D01*
X134615730Y-81776857D01*
X134662630Y-81839435D01*
X134687478Y-81905941D01*
X134672425Y-81975324D01*
X134662632Y-81990562D01*
X134589385Y-82088295D01*
X134538255Y-82224684D01*
X134531500Y-82286866D01*
X134531500Y-82400500D01*
X134511498Y-82468621D01*
X134457842Y-82515114D01*
X134405500Y-82526500D01*
X134309949Y-82526500D01*
X134241828Y-82506498D01*
X134220854Y-82489595D01*
X132025894Y-80294634D01*
X131991868Y-80232322D01*
X131988989Y-80205539D01*
X131988989Y-53307545D01*
X131989548Y-53295689D01*
X131989548Y-53295686D01*
X131991277Y-53287952D01*
X131989051Y-53217120D01*
X131988989Y-53213162D01*
X131988989Y-53184057D01*
X131988433Y-53179657D01*
X131987501Y-53167819D01*
X131986300Y-53129583D01*
X131986051Y-53121658D01*
X131980069Y-53101068D01*
X131976059Y-53081705D01*
X131974364Y-53068285D01*
X131974364Y-53068284D01*
X131973371Y-53060425D01*
X131970455Y-53053060D01*
X131970454Y-53053056D01*
X131956365Y-53017471D01*
X131952520Y-53006242D01*
X131941845Y-52969499D01*
X131939634Y-52961888D01*
X131928719Y-52943432D01*
X131920020Y-52925676D01*
X131919671Y-52924796D01*
X131912124Y-52905733D01*
X131893219Y-52879713D01*
X131884969Y-52868357D01*
X131878454Y-52858438D01*
X131858981Y-52825512D01*
X131858978Y-52825508D01*
X131854941Y-52818682D01*
X131839784Y-52803525D01*
X131826943Y-52788492D01*
X131818987Y-52777542D01*
X131814330Y-52771132D01*
X131778730Y-52741681D01*
X131769951Y-52733692D01*
X123371243Y-44334983D01*
X123337217Y-44272671D01*
X123342282Y-44201856D01*
X123384829Y-44145020D01*
X123451349Y-44120209D01*
X123489486Y-44123306D01*
X123492287Y-44123972D01*
X123499684Y-44126745D01*
X123561866Y-44133500D01*
X124430826Y-44133500D01*
X124435443Y-44133585D01*
X124516673Y-44136564D01*
X124516677Y-44136564D01*
X124521837Y-44136753D01*
X124526957Y-44136097D01*
X124526959Y-44136097D01*
X124539261Y-44134521D01*
X124555271Y-44133500D01*
X125358134Y-44133500D01*
X125420316Y-44126745D01*
X125556705Y-44075615D01*
X125654436Y-44002370D01*
X125720941Y-43977522D01*
X125790324Y-43992575D01*
X125805562Y-44002368D01*
X125903295Y-44075615D01*
X126039684Y-44126745D01*
X126101866Y-44133500D01*
X127898134Y-44133500D01*
X127960316Y-44126745D01*
X128096705Y-44075615D01*
X128194436Y-44002370D01*
X128260941Y-43977522D01*
X128330324Y-43992575D01*
X128345562Y-44002368D01*
X128443295Y-44075615D01*
X128579684Y-44126745D01*
X128641866Y-44133500D01*
X129510826Y-44133500D01*
X129515443Y-44133585D01*
X129596673Y-44136564D01*
X129596677Y-44136564D01*
X129601837Y-44136753D01*
X129606957Y-44136097D01*
X129606959Y-44136097D01*
X129619261Y-44134521D01*
X129635271Y-44133500D01*
X130438134Y-44133500D01*
X130500316Y-44126745D01*
X130636705Y-44075615D01*
X130753261Y-43988261D01*
X130840615Y-43871705D01*
X130891745Y-43735316D01*
X130898500Y-43673134D01*
X130898500Y-42872856D01*
X130899578Y-42856409D01*
X130901092Y-42844908D01*
X130901529Y-42841590D01*
X130903156Y-42775000D01*
X130898924Y-42723524D01*
X130898500Y-42713200D01*
X130898500Y-40076866D01*
X130891745Y-40014684D01*
X130840615Y-39878295D01*
X130753261Y-39761739D01*
X130636705Y-39674385D01*
X130500316Y-39623255D01*
X130438134Y-39616500D01*
X128641866Y-39616500D01*
X128579684Y-39623255D01*
X128443295Y-39674385D01*
X128357631Y-39738587D01*
X128345565Y-39747630D01*
X128279059Y-39772478D01*
X128209676Y-39757425D01*
X128194435Y-39747630D01*
X128182369Y-39738587D01*
X128096705Y-39674385D01*
X127960316Y-39623255D01*
X127898134Y-39616500D01*
X126101866Y-39616500D01*
X126039684Y-39623255D01*
X125903295Y-39674385D01*
X125817631Y-39738587D01*
X125805565Y-39747630D01*
X125739059Y-39772478D01*
X125669676Y-39757425D01*
X125654435Y-39747630D01*
X125642369Y-39738587D01*
X125556705Y-39674385D01*
X125420316Y-39623255D01*
X125358134Y-39616500D01*
X123561866Y-39616500D01*
X123499684Y-39623255D01*
X123363295Y-39674385D01*
X123246739Y-39761739D01*
X123159385Y-39878295D01*
X123108255Y-40014684D01*
X123101500Y-40076866D01*
X123101500Y-42695219D01*
X123100787Y-42708607D01*
X123097251Y-42741695D01*
X123097548Y-42746848D01*
X123097548Y-42746851D01*
X123101291Y-42811763D01*
X123101500Y-42819016D01*
X123101500Y-43673134D01*
X123108255Y-43735316D01*
X123111028Y-43742713D01*
X123111694Y-43745514D01*
X123107993Y-43816414D01*
X123066548Y-43874058D01*
X123000518Y-43900145D01*
X122930866Y-43886391D01*
X122900017Y-43863757D01*
X118458652Y-39422392D01*
X118424626Y-39360080D01*
X118429691Y-39289265D01*
X118465916Y-39237487D01*
X118544969Y-39169969D01*
X118555561Y-39157568D01*
X118608780Y-39095256D01*
X118699176Y-38989416D01*
X118701755Y-38985208D01*
X118701759Y-38985202D01*
X118820654Y-38791183D01*
X118823240Y-38786963D01*
X118914105Y-38567594D01*
X118969535Y-38336711D01*
X118988165Y-38100000D01*
X118969535Y-37863289D01*
X118966120Y-37849062D01*
X118915260Y-37637218D01*
X118914105Y-37632406D01*
X118836290Y-37444542D01*
X118825135Y-37417611D01*
X118825133Y-37417607D01*
X118823240Y-37413037D01*
X118754302Y-37300541D01*
X118701759Y-37214798D01*
X118701755Y-37214792D01*
X118699176Y-37210584D01*
X118544969Y-37030031D01*
X118364416Y-36875824D01*
X118360208Y-36873245D01*
X118360202Y-36873241D01*
X118166183Y-36754346D01*
X118161963Y-36751760D01*
X118157393Y-36749867D01*
X118157389Y-36749865D01*
X117947167Y-36662789D01*
X117947165Y-36662788D01*
X117942594Y-36660895D01*
X117862391Y-36641640D01*
X117716524Y-36606620D01*
X117716518Y-36606619D01*
X117711711Y-36605465D01*
X117475000Y-36586835D01*
X117238289Y-36605465D01*
X117233482Y-36606619D01*
X117233476Y-36606620D01*
X117087609Y-36641640D01*
X117007406Y-36660895D01*
X117002835Y-36662788D01*
X117002833Y-36662789D01*
X116792611Y-36749865D01*
X116792607Y-36749867D01*
X116788037Y-36751760D01*
X116783817Y-36754346D01*
X116589798Y-36873241D01*
X116589792Y-36873245D01*
X116585584Y-36875824D01*
X116405031Y-37030031D01*
X116250824Y-37210584D01*
X116248245Y-37214792D01*
X116248241Y-37214798D01*
X116195698Y-37300541D01*
X116126760Y-37413037D01*
X116124867Y-37417607D01*
X116124865Y-37417611D01*
X116113710Y-37444542D01*
X116035895Y-37632406D01*
X116034740Y-37637218D01*
X115983881Y-37849062D01*
X115980465Y-37863289D01*
X115961835Y-38100000D01*
X115980465Y-38336711D01*
X116035895Y-38567594D01*
X116126760Y-38786963D01*
X116129346Y-38791183D01*
X116248241Y-38985202D01*
X116248245Y-38985208D01*
X116250824Y-38989416D01*
X116341220Y-39095256D01*
X116394440Y-39157568D01*
X116405031Y-39169969D01*
X116585584Y-39324176D01*
X116701014Y-39394912D01*
X116772339Y-39438620D01*
X116819970Y-39491268D01*
X116828390Y-39519716D01*
X116829152Y-39519520D01*
X116831125Y-39527206D01*
X116832118Y-39535064D01*
X116835034Y-39542429D01*
X116835035Y-39542433D01*
X116849126Y-39578021D01*
X116852965Y-39589231D01*
X116865855Y-39633600D01*
X116876775Y-39652065D01*
X116885466Y-39669805D01*
X116893365Y-39689756D01*
X116913929Y-39718060D01*
X116920516Y-39727126D01*
X116927033Y-39737048D01*
X116946507Y-39769977D01*
X116946510Y-39769981D01*
X116950547Y-39776807D01*
X116965711Y-39791971D01*
X116978551Y-39807004D01*
X116991159Y-39824357D01*
X117022270Y-39850094D01*
X117026752Y-39853802D01*
X117035532Y-39861792D01*
X118144292Y-40970552D01*
X118178318Y-41032864D01*
X118173253Y-41103679D01*
X118130706Y-41160515D01*
X118064186Y-41185326D01*
X118053659Y-41185638D01*
X118020081Y-41185228D01*
X118020079Y-41185228D01*
X118014911Y-41185165D01*
X118009797Y-41185948D01*
X118006289Y-41186193D01*
X117997496Y-41186500D01*
X115411866Y-41186500D01*
X115349684Y-41193255D01*
X115213295Y-41244385D01*
X115096739Y-41331739D01*
X115009385Y-41448295D01*
X114958255Y-41584684D01*
X114951500Y-41646866D01*
X114951500Y-43443134D01*
X114958255Y-43505316D01*
X115009385Y-43641705D01*
X115030379Y-43669717D01*
X115082630Y-43739435D01*
X115107478Y-43805941D01*
X115092425Y-43875324D01*
X115082632Y-43890562D01*
X115009385Y-43988295D01*
X114958255Y-44124684D01*
X114951500Y-44186866D01*
X114951500Y-45983134D01*
X114958255Y-46045316D01*
X115009385Y-46181705D01*
X115035730Y-46216857D01*
X115082630Y-46279435D01*
X115107478Y-46345941D01*
X115092425Y-46415324D01*
X115082632Y-46430562D01*
X115009385Y-46528295D01*
X114958255Y-46664684D01*
X114951500Y-46726866D01*
X114951500Y-48523134D01*
X114958255Y-48585316D01*
X115009385Y-48721705D01*
X115035730Y-48756857D01*
X115082630Y-48819435D01*
X115107478Y-48885941D01*
X115092425Y-48955324D01*
X115082632Y-48970562D01*
X115009385Y-49068295D01*
X114958255Y-49204684D01*
X114951500Y-49266866D01*
X114951500Y-51063134D01*
X114958255Y-51125316D01*
X115009385Y-51261705D01*
X115035730Y-51296857D01*
X115082630Y-51359435D01*
X115107478Y-51425941D01*
X115092425Y-51495324D01*
X115082632Y-51510562D01*
X115009385Y-51608295D01*
X114958255Y-51744684D01*
X114951500Y-51806866D01*
X114951500Y-53603134D01*
X114958255Y-53665316D01*
X115009385Y-53801705D01*
X115035730Y-53836857D01*
X115082630Y-53899435D01*
X115107478Y-53965941D01*
X115092425Y-54035324D01*
X115082632Y-54050562D01*
X115009385Y-54148295D01*
X114958255Y-54284684D01*
X114951500Y-54346866D01*
X114951500Y-56143134D01*
X114958255Y-56205316D01*
X115009385Y-56341705D01*
X115035730Y-56376857D01*
X115082630Y-56439435D01*
X115107478Y-56505941D01*
X115092425Y-56575324D01*
X115082632Y-56590562D01*
X115009385Y-56688295D01*
X114958255Y-56824684D01*
X114951500Y-56886866D01*
X114951500Y-58683134D01*
X114958255Y-58745316D01*
X115009385Y-58881705D01*
X115035730Y-58916857D01*
X115082630Y-58979435D01*
X115107478Y-59045941D01*
X115092425Y-59115324D01*
X115082632Y-59130562D01*
X115009385Y-59228295D01*
X114958255Y-59364684D01*
X114951500Y-59426866D01*
X114951500Y-61223134D01*
X114958255Y-61285316D01*
X115009385Y-61421705D01*
X115035730Y-61456857D01*
X115082630Y-61519435D01*
X115107478Y-61585941D01*
X115092425Y-61655324D01*
X115082632Y-61670562D01*
X115009385Y-61768295D01*
X114958255Y-61904684D01*
X114951500Y-61966866D01*
X114951500Y-63763134D01*
X114958255Y-63825316D01*
X115009385Y-63961705D01*
X115035730Y-63996857D01*
X115082630Y-64059435D01*
X115107478Y-64125941D01*
X115092425Y-64195324D01*
X115082632Y-64210562D01*
X115009385Y-64308295D01*
X114958255Y-64444684D01*
X114951500Y-64506866D01*
X114951500Y-66303134D01*
X114958255Y-66365316D01*
X115009385Y-66501705D01*
X115035730Y-66536857D01*
X115082630Y-66599435D01*
X115107478Y-66665941D01*
X115092425Y-66735324D01*
X115082632Y-66750562D01*
X115009385Y-66848295D01*
X114958255Y-66984684D01*
X114951500Y-67046866D01*
X114951500Y-68843134D01*
X114958255Y-68905316D01*
X115009385Y-69041705D01*
X115035730Y-69076857D01*
X115082630Y-69139435D01*
X115107478Y-69205941D01*
X115092425Y-69275324D01*
X115082632Y-69290562D01*
X115009385Y-69388295D01*
X114958255Y-69524684D01*
X114951500Y-69586866D01*
X114951500Y-71383134D01*
X114958255Y-71445316D01*
X115009385Y-71581705D01*
X115035730Y-71616857D01*
X115082630Y-71679435D01*
X115107478Y-71745941D01*
X115092425Y-71815324D01*
X115082632Y-71830562D01*
X115009385Y-71928295D01*
X114958255Y-72064684D01*
X114951500Y-72126866D01*
X114951500Y-73923134D01*
X114958255Y-73985316D01*
X115009385Y-74121705D01*
X115035730Y-74156857D01*
X115082630Y-74219435D01*
X115107478Y-74285941D01*
X115092425Y-74355324D01*
X115082632Y-74370562D01*
X115009385Y-74468295D01*
X114958255Y-74604684D01*
X114951500Y-74666866D01*
X114951500Y-76463134D01*
X114958255Y-76525316D01*
X115009385Y-76661705D01*
X115035730Y-76696857D01*
X115082630Y-76759435D01*
X115107478Y-76825941D01*
X115092425Y-76895324D01*
X115082632Y-76910562D01*
X115009385Y-77008295D01*
X114958255Y-77144684D01*
X114951500Y-77206866D01*
X114951500Y-79003134D01*
X114958255Y-79065316D01*
X115009385Y-79201705D01*
X115035730Y-79236857D01*
X115082630Y-79299435D01*
X115107478Y-79365941D01*
X115092425Y-79435324D01*
X115082632Y-79450562D01*
X115009385Y-79548295D01*
X114958255Y-79684684D01*
X114951500Y-79746866D01*
X114951500Y-81543134D01*
X114958255Y-81605316D01*
X115009385Y-81741705D01*
X115035730Y-81776857D01*
X115082630Y-81839435D01*
X115107478Y-81905941D01*
X115092425Y-81975324D01*
X115082632Y-81990562D01*
X115009385Y-82088295D01*
X114958255Y-82224684D01*
X114951500Y-82286866D01*
X114951500Y-84083134D01*
X114673500Y-84083134D01*
X114673500Y-39986842D01*
X114674237Y-39973235D01*
X114677659Y-39941737D01*
X114677659Y-39941732D01*
X114678324Y-39935611D01*
X114676749Y-39917611D01*
X114673950Y-39885609D01*
X114673621Y-39880784D01*
X114673500Y-39878313D01*
X114673500Y-39875231D01*
X114669309Y-39832489D01*
X114669187Y-39831174D01*
X114664570Y-39778401D01*
X114661087Y-39738587D01*
X114659600Y-39733468D01*
X114659080Y-39728167D01*
X114632218Y-39639194D01*
X114631862Y-39637994D01*
X114605909Y-39548663D01*
X114603455Y-39543929D01*
X114601916Y-39538831D01*
X114599021Y-39533386D01*
X114558316Y-39456831D01*
X114557702Y-39455663D01*
X114517726Y-39378541D01*
X114517725Y-39378540D01*
X114514892Y-39373074D01*
X114511569Y-39368911D01*
X114509066Y-39364204D01*
X114450245Y-39292082D01*
X114449554Y-39291226D01*
X114418262Y-39252027D01*
X114415758Y-39249523D01*
X114415116Y-39248805D01*
X114411415Y-39244472D01*
X114384065Y-39210938D01*
X114348737Y-39181712D01*
X114339958Y-39173723D01*
X109778329Y-34612095D01*
X114629501Y-34612095D01*
X114629838Y-34618614D01*
X114639757Y-34714206D01*
X114642649Y-34727600D01*
X114694088Y-34881784D01*
X114700261Y-34894962D01*
X114785563Y-35032807D01*
X114794599Y-35044208D01*
X114909329Y-35158739D01*
X114920740Y-35167751D01*
X115058743Y-35252816D01*
X115071924Y-35258963D01*
X115226210Y-35310138D01*
X115239586Y-35313005D01*
X115333938Y-35322672D01*
X115340354Y-35323000D01*
X115427885Y-35323000D01*
X115443124Y-35318525D01*
X115444329Y-35317135D01*
X115446000Y-35309452D01*
X115446000Y-34562115D01*
X115441525Y-34546876D01*
X115440135Y-34545671D01*
X115432452Y-34544000D01*
X114647616Y-34544000D01*
X114632377Y-34548475D01*
X114631172Y-34549865D01*
X114629501Y-34557548D01*
X114629501Y-34612095D01*
X109778329Y-34612095D01*
X109184119Y-34017885D01*
X114629500Y-34017885D01*
X114633975Y-34033124D01*
X114635365Y-34034329D01*
X114643048Y-34036000D01*
X115427885Y-34036000D01*
X115443124Y-34031525D01*
X115444329Y-34030135D01*
X115446000Y-34022452D01*
X115446000Y-33275116D01*
X115441525Y-33259877D01*
X115440135Y-33258672D01*
X115432452Y-33257001D01*
X115340405Y-33257001D01*
X115333886Y-33257338D01*
X115238294Y-33267257D01*
X115224900Y-33270149D01*
X115070716Y-33321588D01*
X115057538Y-33327761D01*
X114919693Y-33413063D01*
X114908292Y-33422099D01*
X114793761Y-33536829D01*
X114784749Y-33548240D01*
X114699684Y-33686243D01*
X114693537Y-33699424D01*
X114642362Y-33853710D01*
X114639495Y-33867086D01*
X114629828Y-33961438D01*
X114629500Y-33967855D01*
X114629500Y-34017885D01*
X109184119Y-34017885D01*
X108648503Y-33482269D01*
X108615015Y-33422319D01*
X108613997Y-33418039D01*
X108613144Y-33410183D01*
X108562014Y-33273794D01*
X108474660Y-33157238D01*
X108358104Y-33069884D01*
X108221715Y-33018754D01*
X108159533Y-33011999D01*
X108056229Y-33011999D01*
X108019390Y-33006493D01*
X107911199Y-32973415D01*
X107911197Y-32973415D01*
X107905301Y-32971612D01*
X107847448Y-32965735D01*
X107714665Y-32952247D01*
X107714660Y-32952247D01*
X107708537Y-32951625D01*
X107655486Y-32956640D01*
X107585786Y-32943138D01*
X107534450Y-32894096D01*
X107517777Y-32825085D01*
X107532781Y-32771854D01*
X107537015Y-32766205D01*
X107588145Y-32629816D01*
X107593137Y-32583863D01*
X107620379Y-32518301D01*
X107629305Y-32508376D01*
X108234313Y-31903368D01*
X115202101Y-31903368D01*
X115202471Y-31910189D01*
X115207995Y-31961051D01*
X115211621Y-31976303D01*
X115256776Y-32096753D01*
X115265314Y-32112348D01*
X115341815Y-32214423D01*
X115354376Y-32226984D01*
X115456451Y-32303485D01*
X115472046Y-32312023D01*
X115592494Y-32357177D01*
X115607749Y-32360804D01*
X115658614Y-32366330D01*
X115665428Y-32366699D01*
X116567885Y-32366699D01*
X116583124Y-32362224D01*
X116584329Y-32360834D01*
X116586000Y-32353151D01*
X116586000Y-31031515D01*
X116581525Y-31016276D01*
X116580135Y-31015071D01*
X116572452Y-31013400D01*
X115220216Y-31013400D01*
X115204977Y-31017875D01*
X115203772Y-31019265D01*
X115202101Y-31026948D01*
X115202101Y-31903368D01*
X108234313Y-31903368D01*
X109073911Y-31063770D01*
X109088323Y-31051384D01*
X109099918Y-31042851D01*
X109099923Y-31042846D01*
X109105818Y-31038508D01*
X109110557Y-31032930D01*
X109110560Y-31032927D01*
X109140035Y-30998232D01*
X109146965Y-30990716D01*
X109152661Y-30985020D01*
X109154924Y-30982159D01*
X109154929Y-30982154D01*
X109170285Y-30962744D01*
X109173074Y-30959342D01*
X109215596Y-30909291D01*
X109215597Y-30909290D01*
X109220333Y-30903715D01*
X109223661Y-30897198D01*
X109227027Y-30892150D01*
X109230190Y-30887028D01*
X109234735Y-30881284D01*
X109265664Y-30815105D01*
X109267563Y-30811221D01*
X109300769Y-30746192D01*
X109302510Y-30739077D01*
X109304613Y-30733422D01*
X109306522Y-30727683D01*
X109309622Y-30721050D01*
X109324491Y-30649565D01*
X109325461Y-30645282D01*
X109332422Y-30616834D01*
X109342808Y-30574390D01*
X109343500Y-30563236D01*
X109343535Y-30563238D01*
X109343775Y-30559266D01*
X109344152Y-30555045D01*
X109345641Y-30547885D01*
X109343546Y-30470458D01*
X109343500Y-30467050D01*
X109343500Y-29459500D01*
X109363502Y-29391379D01*
X109417158Y-29344886D01*
X109469500Y-29333500D01*
X114867930Y-29333500D01*
X114886880Y-29334933D01*
X114901115Y-29337099D01*
X114901119Y-29337099D01*
X114908349Y-29338199D01*
X114915641Y-29337606D01*
X114915644Y-29337606D01*
X114961018Y-29333915D01*
X114971233Y-29333500D01*
X114979293Y-29333500D01*
X114992583Y-29331951D01*
X115007507Y-29330211D01*
X115011882Y-29329778D01*
X115077339Y-29324454D01*
X115077342Y-29324453D01*
X115084637Y-29323860D01*
X115089529Y-29322275D01*
X115159357Y-29328464D01*
X115215462Y-29371970D01*
X115239139Y-29438902D01*
X115231307Y-29489983D01*
X115211622Y-29542492D01*
X115207995Y-29557750D01*
X115202469Y-29608615D01*
X115202100Y-29615429D01*
X115202100Y-30487285D01*
X115206575Y-30502524D01*
X115207965Y-30503729D01*
X115215648Y-30505400D01*
X116567885Y-30505400D01*
X116583124Y-30500925D01*
X116584329Y-30499535D01*
X116586000Y-30491852D01*
X116586000Y-29170217D01*
X116581525Y-29154978D01*
X116580135Y-29153773D01*
X116572452Y-29152102D01*
X115734769Y-29152102D01*
X115666648Y-29132100D01*
X115620155Y-29078444D01*
X115610051Y-29008170D01*
X115639545Y-28943590D01*
X115645674Y-28937007D01*
X116267977Y-28314704D01*
X116330289Y-28280678D01*
X116357072Y-28277799D01*
X116969374Y-28277799D01*
X117037495Y-28297801D01*
X117058469Y-28314704D01*
X117680771Y-28937006D01*
X117714797Y-28999318D01*
X117709732Y-29070133D01*
X117667185Y-29126969D01*
X117600665Y-29151780D01*
X117591676Y-29152101D01*
X117112115Y-29152101D01*
X117096876Y-29156576D01*
X117095671Y-29157966D01*
X117094000Y-29165649D01*
X117094000Y-32348583D01*
X117098475Y-32363822D01*
X117099865Y-32365027D01*
X117107548Y-32366698D01*
X118014569Y-32366698D01*
X118021390Y-32366328D01*
X118072252Y-32360804D01*
X118087506Y-32357177D01*
X118201271Y-32314529D01*
X118272078Y-32309346D01*
X118334447Y-32343267D01*
X118368576Y-32405522D01*
X118371500Y-32432511D01*
X118371500Y-33155500D01*
X118351498Y-33223621D01*
X118297842Y-33270114D01*
X118245500Y-33281500D01*
X118005816Y-33281500D01*
X117966149Y-33275093D01*
X117948889Y-33269368D01*
X117948887Y-33269368D01*
X117942361Y-33267203D01*
X117935525Y-33266503D01*
X117935522Y-33266502D01*
X117892469Y-33262091D01*
X117837900Y-33256500D01*
X117112100Y-33256500D01*
X117108854Y-33256837D01*
X117108850Y-33256837D01*
X117013192Y-33266762D01*
X117013188Y-33266763D01*
X117006334Y-33267474D01*
X116999798Y-33269655D01*
X116999796Y-33269655D01*
X116886910Y-33307317D01*
X116838554Y-33323450D01*
X116688152Y-33416522D01*
X116682979Y-33421704D01*
X116676233Y-33428462D01*
X116613951Y-33462542D01*
X116543130Y-33457539D01*
X116498042Y-33428619D01*
X116490672Y-33421262D01*
X116479260Y-33412249D01*
X116341257Y-33327184D01*
X116328076Y-33321037D01*
X116173790Y-33269862D01*
X116160414Y-33266995D01*
X116066062Y-33257328D01*
X116059645Y-33257000D01*
X115972115Y-33257000D01*
X115956876Y-33261475D01*
X115955671Y-33262865D01*
X115954000Y-33270548D01*
X115954000Y-35304884D01*
X115958475Y-35320123D01*
X115959865Y-35321328D01*
X115967548Y-35322999D01*
X116059595Y-35322999D01*
X116066114Y-35322662D01*
X116161706Y-35312743D01*
X116175100Y-35309851D01*
X116329284Y-35258412D01*
X116342462Y-35252239D01*
X116480308Y-35166936D01*
X116491704Y-35157904D01*
X116498060Y-35151537D01*
X116560343Y-35117458D01*
X116631163Y-35122461D01*
X116676249Y-35151380D01*
X116682785Y-35157904D01*
X116689197Y-35164305D01*
X116695427Y-35168145D01*
X116695428Y-35168146D01*
X116832788Y-35252816D01*
X116839762Y-35257115D01*
X116897793Y-35276363D01*
X117001111Y-35310632D01*
X117001113Y-35310632D01*
X117007639Y-35312797D01*
X117014475Y-35313497D01*
X117014478Y-35313498D01*
X117057531Y-35317909D01*
X117112100Y-35323500D01*
X117837900Y-35323500D01*
X117841146Y-35323163D01*
X117841150Y-35323163D01*
X117936808Y-35313238D01*
X117936812Y-35313237D01*
X117943666Y-35312526D01*
X117950202Y-35310345D01*
X117950204Y-35310345D01*
X117966296Y-35304976D01*
X118006172Y-35298500D01*
X118258505Y-35298500D01*
X118326626Y-35318502D01*
X118373119Y-35372158D01*
X118382354Y-35401315D01*
X118383376Y-35406774D01*
X118383913Y-35412913D01*
X118385400Y-35418032D01*
X118385920Y-35423333D01*
X118412791Y-35512334D01*
X118413126Y-35513467D01*
X118428102Y-35565011D01*
X118439091Y-35602836D01*
X118441544Y-35607568D01*
X118443084Y-35612669D01*
X118445978Y-35618112D01*
X118486731Y-35694760D01*
X118487343Y-35695926D01*
X118516299Y-35751787D01*
X118530108Y-35778426D01*
X118533431Y-35782589D01*
X118535934Y-35787296D01*
X118594755Y-35859418D01*
X118595446Y-35860274D01*
X118626738Y-35899473D01*
X118629242Y-35901977D01*
X118629884Y-35902695D01*
X118633585Y-35907028D01*
X118660935Y-35940562D01*
X118665682Y-35944489D01*
X118665684Y-35944491D01*
X118696262Y-35969787D01*
X118705042Y-35977777D01*
X120027806Y-37300541D01*
X120050677Y-37331845D01*
X120144446Y-37513519D01*
X120282509Y-37693447D01*
X120373350Y-37776106D01*
X120446105Y-37842308D01*
X120446108Y-37842310D01*
X120450252Y-37846081D01*
X120455003Y-37849062D01*
X120455004Y-37849062D01*
X120637618Y-37963616D01*
X120637622Y-37963618D01*
X120642374Y-37966599D01*
X120852801Y-38051190D01*
X121074882Y-38097181D01*
X121079493Y-38097447D01*
X121079494Y-38097447D01*
X121130621Y-38100395D01*
X121130625Y-38100395D01*
X121132444Y-38100500D01*
X122803035Y-38100500D01*
X122805822Y-38100251D01*
X122805828Y-38100251D01*
X122876006Y-38093987D01*
X122971395Y-38085474D01*
X123190151Y-38025630D01*
X123195209Y-38023218D01*
X123195213Y-38023216D01*
X123389784Y-37930410D01*
X123389785Y-37930409D01*
X123394851Y-37927993D01*
X123399413Y-37924715D01*
X123574466Y-37798926D01*
X123574468Y-37798924D01*
X123579026Y-37795649D01*
X123682375Y-37689002D01*
X123732952Y-37636811D01*
X123732954Y-37636808D01*
X123736855Y-37632783D01*
X123820345Y-37508536D01*
X123860221Y-37449195D01*
X123860224Y-37449190D01*
X123863347Y-37444542D01*
X123879030Y-37408817D01*
X123952250Y-37242017D01*
X123954507Y-37236876D01*
X124003264Y-37033787D01*
X124006140Y-37021808D01*
X124006141Y-37021802D01*
X124007450Y-37016349D01*
X124020506Y-36789931D01*
X123993259Y-36564781D01*
X123926573Y-36348013D01*
X123822554Y-36146481D01*
X123684491Y-35966553D01*
X123593650Y-35883894D01*
X123520895Y-35817692D01*
X123520892Y-35817690D01*
X123516748Y-35813919D01*
X123475267Y-35787898D01*
X123329382Y-35696384D01*
X123329378Y-35696382D01*
X123324626Y-35693401D01*
X123281594Y-35676102D01*
X123225851Y-35632136D01*
X123202726Y-35565011D01*
X123219563Y-35496040D01*
X123274348Y-35445470D01*
X123389784Y-35390410D01*
X123389785Y-35390409D01*
X123394851Y-35387993D01*
X123484602Y-35323500D01*
X123486442Y-35322178D01*
X123559968Y-35298500D01*
X126270657Y-35298500D01*
X126284264Y-35299237D01*
X126315762Y-35302659D01*
X126315767Y-35302659D01*
X126321888Y-35303324D01*
X126348138Y-35301027D01*
X126371888Y-35298950D01*
X126376714Y-35298621D01*
X126379186Y-35298500D01*
X126382269Y-35298500D01*
X126394238Y-35297326D01*
X126425006Y-35294310D01*
X126426319Y-35294188D01*
X126470584Y-35290315D01*
X126518913Y-35286087D01*
X126524032Y-35284600D01*
X126529333Y-35284080D01*
X126618334Y-35257209D01*
X126619467Y-35256874D01*
X126702914Y-35232630D01*
X126702918Y-35232628D01*
X126708836Y-35230909D01*
X126713568Y-35228456D01*
X126718669Y-35226916D01*
X126724112Y-35224022D01*
X126800760Y-35183269D01*
X126801926Y-35182657D01*
X126878953Y-35142729D01*
X126884426Y-35139892D01*
X126888589Y-35136569D01*
X126893296Y-35134066D01*
X126965418Y-35075245D01*
X126966274Y-35074554D01*
X127005473Y-35043262D01*
X127007977Y-35040758D01*
X127008695Y-35040116D01*
X127013028Y-35036415D01*
X127046562Y-35009065D01*
X127075783Y-34973742D01*
X127083774Y-34964960D01*
X127622822Y-34425913D01*
X134809225Y-34425913D01*
X134809784Y-34430157D01*
X134809784Y-34430161D01*
X134821984Y-34522824D01*
X134847658Y-34717838D01*
X134848791Y-34721978D01*
X134848791Y-34721980D01*
X134894468Y-34888946D01*
X134925354Y-35001847D01*
X135040875Y-35272683D01*
X135100410Y-35372158D01*
X135184982Y-35513467D01*
X135192085Y-35525336D01*
X135376184Y-35755129D01*
X135379286Y-35758073D01*
X135379290Y-35758077D01*
X135473583Y-35847557D01*
X135589766Y-35957811D01*
X135828880Y-36129632D01*
X136089100Y-36267411D01*
X136093123Y-36268883D01*
X136093127Y-36268885D01*
X136324004Y-36353374D01*
X136365611Y-36368600D01*
X136653297Y-36431325D01*
X136682839Y-36433650D01*
X136881773Y-36449307D01*
X136881782Y-36449307D01*
X136884230Y-36449500D01*
X137043516Y-36449500D01*
X137045652Y-36449354D01*
X137045663Y-36449354D01*
X137258986Y-36434811D01*
X137258992Y-36434810D01*
X137263263Y-36434519D01*
X137267458Y-36433650D01*
X137267460Y-36433650D01*
X137407426Y-36404664D01*
X137551589Y-36374810D01*
X137829145Y-36276522D01*
X138090793Y-36141475D01*
X138331693Y-35972168D01*
X138497929Y-35817692D01*
X138544243Y-35774655D01*
X138544246Y-35774652D01*
X138547386Y-35771734D01*
X138558565Y-35758077D01*
X138676910Y-35613487D01*
X138733882Y-35543881D01*
X138871994Y-35318502D01*
X138885484Y-35296488D01*
X138885484Y-35296487D01*
X138887728Y-35292826D01*
X138891793Y-35283567D01*
X138962513Y-35122461D01*
X139006080Y-35023214D01*
X139086745Y-34740034D01*
X139128233Y-34448527D01*
X139129707Y-34167075D01*
X139129753Y-34158373D01*
X139129753Y-34158366D01*
X139129775Y-34154087D01*
X139127364Y-34135769D01*
X139112263Y-34021070D01*
X139091342Y-33862162D01*
X139084143Y-33835845D01*
X139014780Y-33582298D01*
X139014780Y-33582297D01*
X139013646Y-33578153D01*
X138898125Y-33307317D01*
X138791018Y-33128354D01*
X138749119Y-33058346D01*
X138749116Y-33058342D01*
X138746915Y-33054664D01*
X138562816Y-32824871D01*
X138559714Y-32821927D01*
X138559710Y-32821923D01*
X138357271Y-32629816D01*
X138349234Y-32622189D01*
X138110120Y-32450368D01*
X137849900Y-32312589D01*
X137845877Y-32311117D01*
X137845873Y-32311115D01*
X137577420Y-32212875D01*
X137577418Y-32212874D01*
X137573389Y-32211400D01*
X137285703Y-32148675D01*
X137241410Y-32145189D01*
X137057227Y-32130693D01*
X137057218Y-32130693D01*
X137054770Y-32130500D01*
X136895484Y-32130500D01*
X136893348Y-32130646D01*
X136893337Y-32130646D01*
X136680014Y-32145189D01*
X136680008Y-32145190D01*
X136675737Y-32145481D01*
X136671542Y-32146350D01*
X136671540Y-32146350D01*
X136531574Y-32175335D01*
X136387411Y-32205190D01*
X136109855Y-32303478D01*
X135848207Y-32438525D01*
X135607307Y-32607832D01*
X135575687Y-32637215D01*
X135432050Y-32770691D01*
X135391614Y-32808266D01*
X135388900Y-32811581D01*
X135388897Y-32811585D01*
X135357478Y-32849972D01*
X135205118Y-33036119D01*
X135134528Y-33151312D01*
X135066169Y-33262865D01*
X135051272Y-33287174D01*
X134932920Y-33556786D01*
X134852255Y-33839966D01*
X134810767Y-34131473D01*
X134809954Y-34286624D01*
X134809299Y-34411846D01*
X134809225Y-34425913D01*
X127622822Y-34425913D01*
X127636889Y-34411846D01*
X127647032Y-34402745D01*
X127671718Y-34382897D01*
X127676525Y-34379032D01*
X127708567Y-34340846D01*
X127715993Y-34332742D01*
X133700829Y-28347905D01*
X133763141Y-28313879D01*
X133789924Y-28311000D01*
X135056399Y-28310999D01*
X135460400Y-28310999D01*
X135566167Y-28300026D01*
X135612461Y-28284581D01*
X135727002Y-28246367D01*
X135727004Y-28246366D01*
X135733946Y-28244050D01*
X135884349Y-28150979D01*
X135912040Y-28123240D01*
X135997333Y-28037797D01*
X136009306Y-28025803D01*
X136093445Y-27889305D01*
X136098275Y-27881469D01*
X136098276Y-27881467D01*
X136102115Y-27875239D01*
X136139242Y-27763303D01*
X136155632Y-27713890D01*
X136155632Y-27713888D01*
X136157797Y-27707362D01*
X136168500Y-27602901D01*
X136168499Y-24402100D01*
X136157526Y-24296333D01*
X136127836Y-24207343D01*
X136103867Y-24135498D01*
X136103866Y-24135496D01*
X136101550Y-24128554D01*
X136008479Y-23978151D01*
X136000753Y-23970438D01*
X135925167Y-23894985D01*
X135883303Y-23853194D01*
X135773465Y-23785489D01*
X135738969Y-23764225D01*
X135738967Y-23764224D01*
X135732739Y-23760385D01*
X135612245Y-23720419D01*
X135571390Y-23706868D01*
X135571388Y-23706868D01*
X135564862Y-23704703D01*
X135558026Y-23704003D01*
X135558023Y-23704002D01*
X135514970Y-23699591D01*
X135460401Y-23694000D01*
X134626481Y-23694000D01*
X133779600Y-23694001D01*
X133673833Y-23704974D01*
X133667286Y-23707158D01*
X133667287Y-23707158D01*
X133512998Y-23758633D01*
X133512996Y-23758634D01*
X133506054Y-23760950D01*
X133355651Y-23854021D01*
X133350478Y-23859203D01*
X133333710Y-23876000D01*
X133230694Y-23979197D01*
X133195903Y-24035638D01*
X133143517Y-24120625D01*
X133137885Y-24129761D01*
X133124886Y-24168951D01*
X133086178Y-24285655D01*
X133082203Y-24297638D01*
X133081503Y-24304474D01*
X133081502Y-24304477D01*
X133081100Y-24308401D01*
X133071500Y-24402099D01*
X133071501Y-25262324D01*
X133071501Y-26072575D01*
X133051499Y-26140696D01*
X133034596Y-26161670D01*
X128191095Y-31005171D01*
X128128783Y-31039197D01*
X128057968Y-31034132D01*
X128001132Y-30991585D01*
X127976321Y-30925065D01*
X127976000Y-30916076D01*
X127976000Y-29361843D01*
X127976737Y-29348236D01*
X127980159Y-29316738D01*
X127980159Y-29316733D01*
X127980824Y-29310612D01*
X127976450Y-29260612D01*
X127976121Y-29255786D01*
X127976000Y-29253314D01*
X127976000Y-29250231D01*
X127973096Y-29220611D01*
X127971810Y-29207494D01*
X127971688Y-29206181D01*
X127967668Y-29160231D01*
X127963587Y-29113587D01*
X127962100Y-29108468D01*
X127961580Y-29103167D01*
X127934709Y-29014166D01*
X127934374Y-29013033D01*
X127910130Y-28929586D01*
X127910128Y-28929582D01*
X127908409Y-28923664D01*
X127905956Y-28918932D01*
X127904416Y-28913831D01*
X127862467Y-28834934D01*
X127860769Y-28831740D01*
X127860157Y-28830574D01*
X127820229Y-28753547D01*
X127817392Y-28748074D01*
X127814069Y-28743911D01*
X127811566Y-28739204D01*
X127752745Y-28667082D01*
X127752054Y-28666226D01*
X127720762Y-28627027D01*
X127718258Y-28624523D01*
X127717616Y-28623805D01*
X127713915Y-28619472D01*
X127686565Y-28585938D01*
X127674647Y-28576078D01*
X127651238Y-28556713D01*
X127642458Y-28548723D01*
X125916306Y-26822572D01*
X127992000Y-26822572D01*
X127992202Y-26827604D01*
X128006536Y-27005759D01*
X128008148Y-27015712D01*
X128065154Y-27247800D01*
X128068337Y-27257370D01*
X128161718Y-27477360D01*
X128166392Y-27486299D01*
X128293739Y-27688524D01*
X128299780Y-27696599D01*
X128457827Y-27875868D01*
X128465079Y-27882871D01*
X128649750Y-28034562D01*
X128658033Y-28040318D01*
X128864579Y-28160531D01*
X128873684Y-28164893D01*
X129096785Y-28250534D01*
X129106474Y-28253385D01*
X129268264Y-28287185D01*
X129282325Y-28286062D01*
X129286000Y-28275954D01*
X129286000Y-28273358D01*
X129794000Y-28273358D01*
X129798136Y-28287444D01*
X129811114Y-28289493D01*
X129836631Y-28286540D01*
X129846521Y-28284581D01*
X130076476Y-28219511D01*
X130085927Y-28215997D01*
X130302528Y-28114994D01*
X130311292Y-28110015D01*
X130508951Y-27975686D01*
X130516815Y-27969362D01*
X130690451Y-27805164D01*
X130697210Y-27797657D01*
X130842357Y-27607812D01*
X130847821Y-27599333D01*
X130960752Y-27388717D01*
X130964792Y-27379471D01*
X131042596Y-27153513D01*
X131045107Y-27143732D01*
X131085969Y-26907166D01*
X131086824Y-26899294D01*
X131087936Y-26874815D01*
X131088000Y-26871982D01*
X131088000Y-26274615D01*
X131083525Y-26259376D01*
X131082135Y-26258171D01*
X131074452Y-26256500D01*
X129812115Y-26256500D01*
X129796876Y-26260975D01*
X129795671Y-26262365D01*
X129794000Y-26270048D01*
X129794000Y-28273358D01*
X129286000Y-28273358D01*
X129286000Y-26274615D01*
X129281525Y-26259376D01*
X129280135Y-26258171D01*
X129272452Y-26256500D01*
X128010115Y-26256500D01*
X127994876Y-26260975D01*
X127993671Y-26262365D01*
X127992000Y-26270048D01*
X127992000Y-26822572D01*
X125916306Y-26822572D01*
X124824119Y-25730385D01*
X127992000Y-25730385D01*
X127996475Y-25745624D01*
X127997865Y-25746829D01*
X128005548Y-25748500D01*
X129267885Y-25748500D01*
X129283124Y-25744025D01*
X129284329Y-25742635D01*
X129286000Y-25734952D01*
X129286000Y-25730385D01*
X129794000Y-25730385D01*
X129798475Y-25745624D01*
X129799865Y-25746829D01*
X129807548Y-25748500D01*
X131069885Y-25748500D01*
X131085124Y-25744025D01*
X131086329Y-25742635D01*
X131088000Y-25734952D01*
X131088000Y-25182428D01*
X131087798Y-25177396D01*
X131073464Y-24999241D01*
X131071852Y-24989288D01*
X131014846Y-24757200D01*
X131011663Y-24747630D01*
X130918282Y-24527640D01*
X130913608Y-24518701D01*
X130786261Y-24316476D01*
X130780220Y-24308401D01*
X130622173Y-24129132D01*
X130614921Y-24122129D01*
X130430250Y-23970438D01*
X130421967Y-23964682D01*
X130215421Y-23844469D01*
X130206316Y-23840107D01*
X129983215Y-23754466D01*
X129973526Y-23751615D01*
X129811736Y-23717815D01*
X129797675Y-23718938D01*
X129794000Y-23729046D01*
X129794000Y-25730385D01*
X129286000Y-25730385D01*
X129286000Y-23731642D01*
X129281864Y-23717556D01*
X129268886Y-23715507D01*
X129243369Y-23718460D01*
X129233479Y-23720419D01*
X129003524Y-23785489D01*
X128994073Y-23789003D01*
X128777472Y-23890006D01*
X128768708Y-23894985D01*
X128571049Y-24029314D01*
X128563185Y-24035638D01*
X128389549Y-24199836D01*
X128382790Y-24207343D01*
X128237643Y-24397188D01*
X128232179Y-24405667D01*
X128119248Y-24616283D01*
X128115208Y-24625529D01*
X128037404Y-24851487D01*
X128034893Y-24861268D01*
X127994031Y-25097834D01*
X127993176Y-25105706D01*
X127992064Y-25130185D01*
X127992000Y-25133018D01*
X127992000Y-25730385D01*
X124824119Y-25730385D01*
X124634164Y-25540430D01*
X124600138Y-25478118D01*
X124597932Y-25464340D01*
X124595737Y-25443190D01*
X124595026Y-25436334D01*
X124539050Y-25268554D01*
X124445978Y-25118152D01*
X124434038Y-25106233D01*
X124399958Y-25043951D01*
X124404961Y-24973130D01*
X124433881Y-24928042D01*
X124441238Y-24920672D01*
X124450251Y-24909260D01*
X124535316Y-24771257D01*
X124541463Y-24758076D01*
X124592638Y-24603790D01*
X124595505Y-24590414D01*
X124605172Y-24496062D01*
X124605500Y-24489646D01*
X124605500Y-24402115D01*
X124601025Y-24386876D01*
X124599635Y-24385671D01*
X124591952Y-24384000D01*
X122557616Y-24384000D01*
X122542377Y-24388475D01*
X122541172Y-24389865D01*
X122539501Y-24397548D01*
X122539501Y-24489595D01*
X122539838Y-24496114D01*
X122549757Y-24591706D01*
X122552649Y-24605100D01*
X122604088Y-24759284D01*
X122610261Y-24772462D01*
X122695564Y-24910308D01*
X122704596Y-24921704D01*
X122710963Y-24928060D01*
X122745042Y-24990343D01*
X122740039Y-25061163D01*
X122711120Y-25106249D01*
X122698195Y-25119197D01*
X122694355Y-25125427D01*
X122694354Y-25125428D01*
X122618949Y-25247758D01*
X122605385Y-25269762D01*
X122549703Y-25437639D01*
X122549003Y-25444475D01*
X122549002Y-25444478D01*
X122544591Y-25487531D01*
X122539000Y-25542100D01*
X122539000Y-26267900D01*
X122539337Y-26271146D01*
X122539337Y-26271150D01*
X122547939Y-26354050D01*
X122549974Y-26373666D01*
X122552155Y-26380202D01*
X122552155Y-26380204D01*
X122586548Y-26483292D01*
X122605950Y-26541446D01*
X122699022Y-26691848D01*
X122824197Y-26816805D01*
X122830427Y-26820645D01*
X122830428Y-26820646D01*
X122930232Y-26882166D01*
X122974762Y-26909615D01*
X123142639Y-26965297D01*
X123149475Y-26965997D01*
X123149478Y-26965998D01*
X123159669Y-26967042D01*
X123169288Y-26968027D01*
X123235014Y-26994867D01*
X123245541Y-27004276D01*
X125922095Y-29680829D01*
X125956121Y-29743141D01*
X125959000Y-29769924D01*
X125959000Y-33155500D01*
X125938998Y-33223621D01*
X125885342Y-33270114D01*
X125833000Y-33281500D01*
X123565081Y-33281500D01*
X123498125Y-33262237D01*
X123496911Y-33261475D01*
X123408808Y-33206208D01*
X123329382Y-33156384D01*
X123329378Y-33156382D01*
X123324626Y-33153401D01*
X123280963Y-33135849D01*
X123225221Y-33091884D01*
X123202096Y-33024759D01*
X123218933Y-32955788D01*
X123273717Y-32905217D01*
X123389541Y-32849972D01*
X123399148Y-32844290D01*
X123574144Y-32718541D01*
X123582600Y-32711242D01*
X123732556Y-32556500D01*
X123739598Y-32547803D01*
X123859776Y-32368960D01*
X123865165Y-32359157D01*
X123951774Y-32161857D01*
X123955340Y-32151262D01*
X123986466Y-32021615D01*
X123985761Y-32007530D01*
X123976882Y-32004000D01*
X121855500Y-32004000D01*
X121787379Y-31983998D01*
X121740886Y-31930342D01*
X121729500Y-31878000D01*
X121729500Y-31477885D01*
X122237500Y-31477885D01*
X122241975Y-31493124D01*
X122243365Y-31494329D01*
X122251048Y-31496000D01*
X123975998Y-31496000D01*
X123989980Y-31491894D01*
X123991570Y-31481648D01*
X123991119Y-31479525D01*
X123927757Y-31273565D01*
X123923536Y-31263220D01*
X123824702Y-31071733D01*
X123818717Y-31062302D01*
X123687532Y-30891337D01*
X123679979Y-30883124D01*
X123520590Y-30738091D01*
X123511690Y-30731336D01*
X123329157Y-30616834D01*
X123319187Y-30611753D01*
X123119260Y-30531383D01*
X123108560Y-30528152D01*
X122896584Y-30484255D01*
X122887447Y-30483052D01*
X122836340Y-30480105D01*
X122832694Y-30480000D01*
X122255615Y-30480000D01*
X122240376Y-30484475D01*
X122239171Y-30485865D01*
X122237500Y-30493548D01*
X122237500Y-31477885D01*
X121729500Y-31477885D01*
X121729500Y-30498115D01*
X121725025Y-30482876D01*
X121723635Y-30481671D01*
X121715952Y-30480000D01*
X121166789Y-30480000D01*
X121161194Y-30480249D01*
X121001288Y-30494521D01*
X120990274Y-30496503D01*
X120782435Y-30553361D01*
X120771962Y-30557255D01*
X120572404Y-30652439D01*
X120571754Y-30651075D01*
X120509835Y-30666792D01*
X120442502Y-30644281D01*
X120398027Y-30588941D01*
X120388500Y-30540878D01*
X120388500Y-29271840D01*
X120389237Y-29258232D01*
X120392659Y-29226736D01*
X120392659Y-29226732D01*
X120393324Y-29220611D01*
X120388950Y-29170609D01*
X120388621Y-29165784D01*
X120388500Y-29163313D01*
X120388500Y-29160231D01*
X120386297Y-29137763D01*
X120384309Y-29117489D01*
X120384187Y-29116174D01*
X120376623Y-29029719D01*
X120376087Y-29023587D01*
X120374600Y-29018468D01*
X120374080Y-29013167D01*
X120347199Y-28924133D01*
X120346864Y-28923000D01*
X120322627Y-28839578D01*
X120322625Y-28839574D01*
X120320908Y-28833663D01*
X120318457Y-28828934D01*
X120316916Y-28823831D01*
X120273230Y-28741669D01*
X120272683Y-28740627D01*
X120232728Y-28663545D01*
X120232727Y-28663544D01*
X120229892Y-28658074D01*
X120226569Y-28653911D01*
X120224066Y-28649204D01*
X120182713Y-28598500D01*
X120165263Y-28577105D01*
X120164500Y-28576160D01*
X120133261Y-28537027D01*
X120130770Y-28534536D01*
X120130120Y-28533809D01*
X120126408Y-28529463D01*
X120102955Y-28500708D01*
X120099065Y-28495938D01*
X120094323Y-28492015D01*
X120094321Y-28492013D01*
X120063727Y-28466703D01*
X120054947Y-28458713D01*
X118515305Y-26919071D01*
X118481279Y-26856759D01*
X118478400Y-26829976D01*
X118478400Y-26156470D01*
X118498402Y-26088349D01*
X118515305Y-26067375D01*
X119233907Y-25348773D01*
X119248319Y-25336387D01*
X119259917Y-25327851D01*
X119259919Y-25327850D01*
X119265818Y-25323508D01*
X119270557Y-25317930D01*
X119270560Y-25317927D01*
X119300041Y-25283225D01*
X119306971Y-25275709D01*
X119312660Y-25270020D01*
X119314918Y-25267166D01*
X119314927Y-25267156D01*
X119330274Y-25247758D01*
X119333062Y-25244358D01*
X119375595Y-25194293D01*
X119375598Y-25194289D01*
X119380333Y-25188715D01*
X119383660Y-25182200D01*
X119387019Y-25177163D01*
X119390192Y-25172025D01*
X119394734Y-25166284D01*
X119425655Y-25100125D01*
X119427561Y-25096225D01*
X119460769Y-25031192D01*
X119462508Y-25024083D01*
X119464604Y-25018449D01*
X119466523Y-25012679D01*
X119469622Y-25006050D01*
X119472890Y-24990343D01*
X119484490Y-24934571D01*
X119485461Y-24930282D01*
X119487560Y-24921704D01*
X119502808Y-24859390D01*
X119503500Y-24848236D01*
X119503535Y-24848238D01*
X119503775Y-24844266D01*
X119504152Y-24840045D01*
X119505641Y-24832885D01*
X119503546Y-24755458D01*
X119503500Y-24752050D01*
X119503500Y-23857885D01*
X122539500Y-23857885D01*
X122543975Y-23873124D01*
X122545365Y-23874329D01*
X122553048Y-23876000D01*
X123300385Y-23876000D01*
X123315624Y-23871525D01*
X123316829Y-23870135D01*
X123318500Y-23862452D01*
X123318500Y-23857885D01*
X123826500Y-23857885D01*
X123830975Y-23873124D01*
X123832365Y-23874329D01*
X123840048Y-23876000D01*
X124587384Y-23876000D01*
X124602623Y-23871525D01*
X124603828Y-23870135D01*
X124605499Y-23862452D01*
X124605499Y-23770405D01*
X124605162Y-23763886D01*
X124595243Y-23668294D01*
X124592351Y-23654900D01*
X124540912Y-23500716D01*
X124534739Y-23487538D01*
X124449437Y-23349693D01*
X124440401Y-23338292D01*
X124325671Y-23223761D01*
X124314260Y-23214749D01*
X124176257Y-23129684D01*
X124163076Y-23123537D01*
X124008790Y-23072362D01*
X123995414Y-23069495D01*
X123901062Y-23059828D01*
X123894645Y-23059500D01*
X123844615Y-23059500D01*
X123829376Y-23063975D01*
X123828171Y-23065365D01*
X123826500Y-23073048D01*
X123826500Y-23857885D01*
X123318500Y-23857885D01*
X123318500Y-23077616D01*
X123314025Y-23062377D01*
X123312635Y-23061172D01*
X123304952Y-23059501D01*
X123250405Y-23059501D01*
X123243886Y-23059838D01*
X123148294Y-23069757D01*
X123134900Y-23072649D01*
X122980716Y-23124088D01*
X122967538Y-23130261D01*
X122829693Y-23215563D01*
X122818292Y-23224599D01*
X122703761Y-23339329D01*
X122694749Y-23350740D01*
X122609684Y-23488743D01*
X122603537Y-23501924D01*
X122552362Y-23656210D01*
X122549495Y-23669586D01*
X122539828Y-23763938D01*
X122539500Y-23770355D01*
X122539500Y-23857885D01*
X119503500Y-23857885D01*
X119503500Y-21694965D01*
X119523502Y-21626844D01*
X119563664Y-21587533D01*
X119620555Y-21552670D01*
X122322160Y-21552670D01*
X122327887Y-21560320D01*
X122499042Y-21665205D01*
X122507837Y-21669687D01*
X122717988Y-21756734D01*
X122727373Y-21759783D01*
X122948554Y-21812885D01*
X122958301Y-21814428D01*
X123185070Y-21832275D01*
X123194930Y-21832275D01*
X123421699Y-21814428D01*
X123431446Y-21812885D01*
X123652627Y-21759783D01*
X123662012Y-21756734D01*
X123872163Y-21669687D01*
X123880958Y-21665205D01*
X124048445Y-21562568D01*
X124057907Y-21552110D01*
X124054124Y-21543334D01*
X123202812Y-20692022D01*
X123188868Y-20684408D01*
X123187035Y-20684539D01*
X123180420Y-20688790D01*
X122328920Y-21540290D01*
X122322160Y-21552670D01*
X119620555Y-21552670D01*
X119634416Y-21544176D01*
X119814969Y-21389969D01*
X119969176Y-21209416D01*
X119971755Y-21205208D01*
X119971759Y-21205202D01*
X120090654Y-21011183D01*
X120093240Y-21006963D01*
X120095229Y-21002163D01*
X120182211Y-20792167D01*
X120182212Y-20792165D01*
X120184105Y-20787594D01*
X120207050Y-20692022D01*
X120238380Y-20561524D01*
X120238381Y-20561518D01*
X120239535Y-20556711D01*
X120257777Y-20324930D01*
X121677725Y-20324930D01*
X121695572Y-20551699D01*
X121697115Y-20561446D01*
X121750217Y-20782627D01*
X121753266Y-20792012D01*
X121840313Y-21002163D01*
X121844795Y-21010958D01*
X121947432Y-21178445D01*
X121957890Y-21187907D01*
X121966666Y-21184124D01*
X122817978Y-20332812D01*
X122824356Y-20321132D01*
X123554408Y-20321132D01*
X123554539Y-20322965D01*
X123558790Y-20329580D01*
X124410290Y-21181080D01*
X124422670Y-21187840D01*
X124430320Y-21182113D01*
X124535205Y-21010958D01*
X124539687Y-21002163D01*
X124626734Y-20792012D01*
X124629783Y-20782627D01*
X124682885Y-20561446D01*
X124684428Y-20551699D01*
X124702275Y-20324930D01*
X124702275Y-20315070D01*
X124684428Y-20088301D01*
X124682885Y-20078554D01*
X124629783Y-19857373D01*
X124626734Y-19847988D01*
X124539687Y-19637837D01*
X124535205Y-19629042D01*
X124432568Y-19461555D01*
X124422110Y-19452093D01*
X124413334Y-19455876D01*
X123562022Y-20307188D01*
X123554408Y-20321132D01*
X122824356Y-20321132D01*
X122825592Y-20318868D01*
X122825461Y-20317035D01*
X122821210Y-20310420D01*
X121969710Y-19458920D01*
X121957330Y-19452160D01*
X121949680Y-19457887D01*
X121844795Y-19629042D01*
X121840313Y-19637837D01*
X121753266Y-19847988D01*
X121750217Y-19857373D01*
X121697115Y-20078554D01*
X121695572Y-20088301D01*
X121677725Y-20315070D01*
X121677725Y-20324930D01*
X120257777Y-20324930D01*
X120258165Y-20320000D01*
X120239535Y-20083289D01*
X120184105Y-19852406D01*
X120159091Y-19792016D01*
X120095135Y-19637611D01*
X120095133Y-19637607D01*
X120093240Y-19633037D01*
X120090654Y-19628817D01*
X119971759Y-19434798D01*
X119971755Y-19434792D01*
X119969176Y-19430584D01*
X119814969Y-19250031D01*
X119634416Y-19095824D01*
X119630208Y-19093245D01*
X119630202Y-19093241D01*
X119621470Y-19087890D01*
X122322093Y-19087890D01*
X122325876Y-19096666D01*
X123177188Y-19947978D01*
X123191132Y-19955592D01*
X123192965Y-19955461D01*
X123199580Y-19951210D01*
X124051080Y-19099710D01*
X124057840Y-19087330D01*
X124052113Y-19079680D01*
X123880958Y-18974795D01*
X123872163Y-18970313D01*
X123662012Y-18883266D01*
X123652627Y-18880217D01*
X123431446Y-18827115D01*
X123421699Y-18825572D01*
X123194930Y-18807725D01*
X123185070Y-18807725D01*
X122958301Y-18825572D01*
X122948554Y-18827115D01*
X122727373Y-18880217D01*
X122717988Y-18883266D01*
X122507837Y-18970313D01*
X122499042Y-18974795D01*
X122331555Y-19077432D01*
X122322093Y-19087890D01*
X119621470Y-19087890D01*
X119436183Y-18974346D01*
X119431963Y-18971760D01*
X119427393Y-18969867D01*
X119427389Y-18969865D01*
X119217167Y-18882789D01*
X119217165Y-18882788D01*
X119212594Y-18880895D01*
X119132391Y-18861640D01*
X118986524Y-18826620D01*
X118986518Y-18826619D01*
X118981711Y-18825465D01*
X118745000Y-18806835D01*
X118508289Y-18825465D01*
X118503482Y-18826619D01*
X118503476Y-18826620D01*
X118357609Y-18861640D01*
X118277406Y-18880895D01*
X118272835Y-18882788D01*
X118272833Y-18882789D01*
X118062611Y-18969865D01*
X118062607Y-18969867D01*
X118058037Y-18971760D01*
X118053817Y-18974346D01*
X117859798Y-19093241D01*
X117859792Y-19093245D01*
X117855584Y-19095824D01*
X117675031Y-19250031D01*
X117520824Y-19430584D01*
X117518245Y-19434792D01*
X117518241Y-19434798D01*
X117399346Y-19628817D01*
X117396760Y-19633037D01*
X117394867Y-19637607D01*
X117394865Y-19637611D01*
X117330909Y-19792016D01*
X117286361Y-19847297D01*
X117218997Y-19869718D01*
X117150206Y-19852160D01*
X117101828Y-19800198D01*
X117088500Y-19743798D01*
X117088500Y-18563456D01*
X117093224Y-18532934D01*
X117092663Y-18532815D01*
X117093944Y-18526788D01*
X117095807Y-18520916D01*
X117096739Y-18512612D01*
X117113107Y-18366683D01*
X117113500Y-18363183D01*
X117113500Y-17203996D01*
X117098723Y-17053287D01*
X117040142Y-16859258D01*
X116944990Y-16680302D01*
X116941093Y-16675523D01*
X116820785Y-16528013D01*
X116816890Y-16523237D01*
X116799874Y-16509160D01*
X116665472Y-16397973D01*
X116665469Y-16397971D01*
X116660722Y-16394044D01*
X116482435Y-16297644D01*
X116385627Y-16267677D01*
X116294707Y-16239532D01*
X116294704Y-16239531D01*
X116288820Y-16237710D01*
X116282695Y-16237066D01*
X116282694Y-16237066D01*
X116093378Y-16217168D01*
X116093377Y-16217168D01*
X116087250Y-16216524D01*
X116003986Y-16224102D01*
X115891543Y-16234335D01*
X115891540Y-16234336D01*
X115885404Y-16234894D01*
X115879498Y-16236632D01*
X115879494Y-16236633D01*
X115738091Y-16278251D01*
X115690971Y-16292119D01*
X115685514Y-16294972D01*
X115685511Y-16294973D01*
X115601163Y-16339069D01*
X115511355Y-16386019D01*
X115353399Y-16513019D01*
X115223119Y-16668281D01*
X115220153Y-16673677D01*
X115220150Y-16673681D01*
X115202271Y-16706202D01*
X115151926Y-16756260D01*
X115091857Y-16771500D01*
X108429189Y-16771500D01*
X108361068Y-16751498D01*
X108317939Y-16704655D01*
X108304990Y-16680302D01*
X108176890Y-16523237D01*
X108159874Y-16509160D01*
X108025472Y-16397973D01*
X108025469Y-16397971D01*
X108020722Y-16394044D01*
X107842435Y-16297644D01*
X107745627Y-16267677D01*
X107654707Y-16239532D01*
X107654704Y-16239531D01*
X107648820Y-16237710D01*
X107642695Y-16237066D01*
X107642694Y-16237066D01*
X107453378Y-16217168D01*
X107453377Y-16217168D01*
X107447250Y-16216524D01*
X107363986Y-16224102D01*
X107251543Y-16234335D01*
X107251540Y-16234336D01*
X107245404Y-16234894D01*
X107239498Y-16236632D01*
X107239494Y-16236633D01*
X107098091Y-16278251D01*
X107050971Y-16292119D01*
X107045514Y-16294972D01*
X107045511Y-16294973D01*
X106961163Y-16339069D01*
X106871355Y-16386019D01*
X106713399Y-16513019D01*
X106583119Y-16668281D01*
X106580155Y-16673673D01*
X106580152Y-16673677D01*
X106537370Y-16751498D01*
X106485477Y-16845891D01*
X106424193Y-17039084D01*
X106423507Y-17045201D01*
X106423506Y-17045205D01*
X106421912Y-17059420D01*
X106406500Y-17196817D01*
X106406500Y-18356004D01*
X106421277Y-18506713D01*
X106423058Y-18512612D01*
X106426122Y-18522759D01*
X106431500Y-18559178D01*
X106431500Y-21090500D01*
X106411498Y-21158621D01*
X106357842Y-21205114D01*
X106305500Y-21216500D01*
X106104873Y-21216500D01*
X106091703Y-21215810D01*
X106058204Y-21212289D01*
X106058202Y-21212289D01*
X106052075Y-21211645D01*
X106001827Y-21216218D01*
X105997793Y-21216500D01*
X105995231Y-21216500D01*
X105992173Y-21216800D01*
X105992169Y-21216800D01*
X105950404Y-21220895D01*
X105949529Y-21220977D01*
X105927830Y-21222952D01*
X105855112Y-21229570D01*
X105851703Y-21230573D01*
X105848167Y-21230920D01*
X105757279Y-21258361D01*
X105756610Y-21258561D01*
X105665381Y-21285410D01*
X105662228Y-21287058D01*
X105658831Y-21288084D01*
X105574899Y-21332711D01*
X105574319Y-21333016D01*
X105490110Y-21377040D01*
X105487342Y-21379265D01*
X105484204Y-21380934D01*
X105479426Y-21384831D01*
X105410628Y-21440941D01*
X105409944Y-21441494D01*
X105340782Y-21497102D01*
X105340776Y-21497108D01*
X105335975Y-21500968D01*
X105333692Y-21503689D01*
X105330938Y-21505935D01*
X105271339Y-21577979D01*
X105270441Y-21579064D01*
X105269935Y-21579671D01*
X105240999Y-21614156D01*
X105213327Y-21647134D01*
X105208846Y-21652474D01*
X105207134Y-21655589D01*
X105204870Y-21658325D01*
X105201939Y-21663746D01*
X105159700Y-21741865D01*
X105159298Y-21742603D01*
X105113567Y-21825787D01*
X105112494Y-21829170D01*
X105110802Y-21832299D01*
X105108978Y-21838192D01*
X105082725Y-21923002D01*
X105082468Y-21923822D01*
X105053765Y-22014306D01*
X105053369Y-22017837D01*
X105052318Y-22021232D01*
X105051674Y-22027363D01*
X105042396Y-22115638D01*
X105042311Y-22116421D01*
X105036500Y-22168227D01*
X105036500Y-22170800D01*
X105036180Y-22174776D01*
X105032959Y-22205427D01*
X105031645Y-22217925D01*
X105032204Y-22224065D01*
X105035981Y-22265570D01*
X105036500Y-22276990D01*
X105036500Y-26330657D01*
X105035763Y-26344264D01*
X105034639Y-26354615D01*
X105031676Y-26381888D01*
X105032213Y-26388023D01*
X105036050Y-26431888D01*
X105036379Y-26436714D01*
X105036500Y-26439186D01*
X105036500Y-26442269D01*
X105036801Y-26445337D01*
X105040690Y-26485006D01*
X105040812Y-26486319D01*
X105048913Y-26578913D01*
X105050400Y-26584032D01*
X105050920Y-26589333D01*
X105077791Y-26678334D01*
X105078126Y-26679467D01*
X105104091Y-26768836D01*
X105106544Y-26773568D01*
X105108084Y-26778669D01*
X105110978Y-26784112D01*
X105151731Y-26860760D01*
X105152343Y-26861926D01*
X105177063Y-26909615D01*
X105195108Y-26944426D01*
X105198431Y-26948589D01*
X105200934Y-26953296D01*
X105259755Y-27025418D01*
X105260446Y-27026274D01*
X105291738Y-27065473D01*
X105294242Y-27067977D01*
X105294884Y-27068695D01*
X105298585Y-27073028D01*
X105325935Y-27106562D01*
X105361258Y-27135783D01*
X105370040Y-27143774D01*
X105434596Y-27208331D01*
X105468621Y-27270644D01*
X105471500Y-27297426D01*
X105471500Y-27340400D01*
X105482474Y-27446166D01*
X105538450Y-27613946D01*
X105631522Y-27764348D01*
X105636704Y-27769521D01*
X105718463Y-27851138D01*
X105752542Y-27913421D01*
X105747539Y-27984241D01*
X105718618Y-28029329D01*
X105636261Y-28111829D01*
X105627249Y-28123240D01*
X105542184Y-28261243D01*
X105536037Y-28274424D01*
X105484862Y-28428710D01*
X105481995Y-28442086D01*
X105472328Y-28536438D01*
X105472000Y-28542855D01*
X105472000Y-28580385D01*
X105476475Y-28595624D01*
X105477865Y-28596829D01*
X105485548Y-28598500D01*
X106808000Y-28598500D01*
X106876121Y-28618502D01*
X106922614Y-28672158D01*
X106934000Y-28724500D01*
X106934000Y-29854884D01*
X106938475Y-29870123D01*
X106939865Y-29871328D01*
X106947548Y-29872999D01*
X107177095Y-29872999D01*
X107183614Y-29872662D01*
X107279206Y-29862743D01*
X107292600Y-29859851D01*
X107446784Y-29808412D01*
X107459962Y-29802239D01*
X107597807Y-29716937D01*
X107609207Y-29707902D01*
X107611325Y-29705780D01*
X107613131Y-29704792D01*
X107614945Y-29703354D01*
X107615191Y-29703664D01*
X107673607Y-29671699D01*
X107744427Y-29676701D01*
X107801301Y-29719197D01*
X107826171Y-29785695D01*
X107826500Y-29794796D01*
X107826500Y-30113629D01*
X107806498Y-30181750D01*
X107789595Y-30202725D01*
X106907223Y-31085096D01*
X106844911Y-31119121D01*
X106818128Y-31122000D01*
X106225466Y-31122000D01*
X106163284Y-31128755D01*
X106026895Y-31179885D01*
X105910339Y-31267239D01*
X105822985Y-31383795D01*
X105771855Y-31520184D01*
X105765100Y-31582366D01*
X105765100Y-32567634D01*
X105771855Y-32629816D01*
X105774629Y-32637215D01*
X105805117Y-32718541D01*
X105822985Y-32766205D01*
X105826744Y-32771221D01*
X105841623Y-32839247D01*
X105816887Y-32905795D01*
X105760100Y-32948406D01*
X105702328Y-32955663D01*
X105671739Y-32952340D01*
X105671733Y-32952340D01*
X105665612Y-32951675D01*
X105468588Y-32968912D01*
X105360786Y-33000231D01*
X105337502Y-33006996D01*
X105302349Y-33011999D01*
X105200467Y-33011999D01*
X105138285Y-33018754D01*
X105001896Y-33069884D01*
X104885340Y-33157238D01*
X104797986Y-33273794D01*
X104746856Y-33410183D01*
X104746003Y-33418033D01*
X104744984Y-33422319D01*
X104711498Y-33482267D01*
X104422129Y-33771637D01*
X104355096Y-33838670D01*
X104292783Y-33872695D01*
X104221968Y-33867631D01*
X104165132Y-33825084D01*
X104140321Y-33758564D01*
X104140000Y-33749575D01*
X104140000Y-29162095D01*
X105472001Y-29162095D01*
X105472338Y-29168614D01*
X105482257Y-29264206D01*
X105485149Y-29277600D01*
X105536588Y-29431784D01*
X105542761Y-29444962D01*
X105628063Y-29582807D01*
X105637099Y-29594208D01*
X105751829Y-29708739D01*
X105763240Y-29717751D01*
X105901243Y-29802816D01*
X105914424Y-29808963D01*
X106068710Y-29860138D01*
X106082086Y-29863005D01*
X106176438Y-29872672D01*
X106182854Y-29873000D01*
X106407885Y-29873000D01*
X106423124Y-29868525D01*
X106424329Y-29867135D01*
X106426000Y-29859452D01*
X106426000Y-29124615D01*
X106421525Y-29109376D01*
X106420135Y-29108171D01*
X106412452Y-29106500D01*
X105490116Y-29106500D01*
X105474877Y-29110975D01*
X105473672Y-29112365D01*
X105472001Y-29120048D01*
X105472001Y-29162095D01*
X104140000Y-29162095D01*
X104140000Y-15557000D01*
X104160002Y-15488879D01*
X104213658Y-15442386D01*
X104266000Y-15431000D01*
X141479000Y-15431000D01*
X141547121Y-15451002D01*
G37*
%TD.AperFunction*%
%TA.AperFunction,Conductor*%
G36*
X106740570Y-34456567D02*
G01*
X106790688Y-34506853D01*
X106797982Y-34522824D01*
X106847984Y-34656204D01*
X106935338Y-34772760D01*
X107051894Y-34860114D01*
X107188283Y-34911244D01*
X107196140Y-34912098D01*
X107200419Y-34913115D01*
X107260368Y-34946603D01*
X109941895Y-37628129D01*
X111409022Y-39095256D01*
X111443048Y-39157568D01*
X111437983Y-39228383D01*
X111395436Y-39285219D01*
X111328916Y-39310030D01*
X111280261Y-39303944D01*
X111251392Y-39294369D01*
X111251390Y-39294369D01*
X111244861Y-39292203D01*
X111238025Y-39291503D01*
X111238022Y-39291502D01*
X111194969Y-39287091D01*
X111140400Y-39281500D01*
X109839600Y-39281500D01*
X109836354Y-39281837D01*
X109836350Y-39281837D01*
X109740692Y-39291762D01*
X109740688Y-39291763D01*
X109733834Y-39292474D01*
X109727298Y-39294655D01*
X109727296Y-39294655D01*
X109595194Y-39338728D01*
X109566054Y-39348450D01*
X109415652Y-39441522D01*
X109410479Y-39446704D01*
X109353338Y-39503945D01*
X109290695Y-39566697D01*
X109286855Y-39572927D01*
X109286854Y-39572928D01*
X109241272Y-39646876D01*
X109197885Y-39717262D01*
X109195579Y-39724213D01*
X109193561Y-39728542D01*
X109146644Y-39781828D01*
X109078367Y-39801290D01*
X109010407Y-39780749D01*
X108986172Y-39760094D01*
X108883152Y-39646876D01*
X108883142Y-39646867D01*
X108879670Y-39643051D01*
X108875619Y-39639852D01*
X108875615Y-39639848D01*
X108708414Y-39507800D01*
X108708410Y-39507798D01*
X108704359Y-39504598D01*
X108508789Y-39396638D01*
X108503920Y-39394914D01*
X108503916Y-39394912D01*
X108303087Y-39323795D01*
X108303083Y-39323794D01*
X108298212Y-39322069D01*
X108293119Y-39321162D01*
X108293116Y-39321161D01*
X108083373Y-39283800D01*
X108083367Y-39283799D01*
X108078284Y-39282894D01*
X108004452Y-39281992D01*
X107860081Y-39280228D01*
X107860079Y-39280228D01*
X107854911Y-39280165D01*
X107634091Y-39313955D01*
X107421756Y-39383357D01*
X107223607Y-39486507D01*
X107219474Y-39489610D01*
X107219471Y-39489612D01*
X107049100Y-39617530D01*
X107044965Y-39620635D01*
X107006780Y-39660593D01*
X106936464Y-39734175D01*
X106890629Y-39782138D01*
X106887715Y-39786410D01*
X106887714Y-39786411D01*
X106841743Y-39853802D01*
X106764743Y-39966680D01*
X106670688Y-40169305D01*
X106610989Y-40384570D01*
X106587251Y-40606695D01*
X106600110Y-40829715D01*
X106601247Y-40834761D01*
X106601248Y-40834767D01*
X106625304Y-40941508D01*
X106649222Y-41047639D01*
X106705257Y-41185638D01*
X106731299Y-41249771D01*
X106733266Y-41254616D01*
X106757154Y-41293598D01*
X106820008Y-41396166D01*
X106849987Y-41445088D01*
X106996250Y-41613938D01*
X107168126Y-41756632D01*
X107238595Y-41797811D01*
X107241445Y-41799476D01*
X107290169Y-41851114D01*
X107303240Y-41920897D01*
X107276509Y-41986669D01*
X107236055Y-42020027D01*
X107223607Y-42026507D01*
X107219474Y-42029610D01*
X107219471Y-42029612D01*
X107049100Y-42157530D01*
X107044965Y-42160635D01*
X106890629Y-42322138D01*
X106764743Y-42506680D01*
X106749003Y-42540590D01*
X106674109Y-42701936D01*
X106670688Y-42709305D01*
X106610989Y-42924570D01*
X106587251Y-43146695D01*
X106587548Y-43151848D01*
X106587548Y-43151851D01*
X106593011Y-43246590D01*
X106600110Y-43369715D01*
X106601247Y-43374761D01*
X106601248Y-43374767D01*
X106615886Y-43439717D01*
X106649222Y-43587639D01*
X106733266Y-43794616D01*
X106775354Y-43863297D01*
X106847291Y-43980688D01*
X106849987Y-43985088D01*
X106996250Y-44153938D01*
X107168126Y-44296632D01*
X107233756Y-44334983D01*
X107241445Y-44339476D01*
X107290169Y-44391114D01*
X107303240Y-44460897D01*
X107276509Y-44526669D01*
X107236055Y-44560027D01*
X107223607Y-44566507D01*
X107219474Y-44569610D01*
X107219471Y-44569612D01*
X107195247Y-44587800D01*
X107044965Y-44700635D01*
X106890629Y-44862138D01*
X106764743Y-45046680D01*
X106670688Y-45249305D01*
X106610989Y-45464570D01*
X106587251Y-45686695D01*
X106587548Y-45691848D01*
X106587548Y-45691851D01*
X106593011Y-45786590D01*
X106600110Y-45909715D01*
X106601247Y-45914761D01*
X106601248Y-45914767D01*
X106615886Y-45979717D01*
X106649222Y-46127639D01*
X106733266Y-46334616D01*
X106780527Y-46411739D01*
X106847291Y-46520688D01*
X106849987Y-46525088D01*
X106996250Y-46693938D01*
X107168126Y-46836632D01*
X107238595Y-46877811D01*
X107241445Y-46879476D01*
X107290169Y-46931114D01*
X107303240Y-47000897D01*
X107276509Y-47066669D01*
X107236055Y-47100027D01*
X107223607Y-47106507D01*
X107219474Y-47109610D01*
X107219471Y-47109612D01*
X107195247Y-47127800D01*
X107044965Y-47240635D01*
X106890629Y-47402138D01*
X106764743Y-47586680D01*
X106670688Y-47789305D01*
X106610989Y-48004570D01*
X106587251Y-48226695D01*
X106587548Y-48231848D01*
X106587548Y-48231851D01*
X106593011Y-48326590D01*
X106600110Y-48449715D01*
X106601247Y-48454761D01*
X106601248Y-48454767D01*
X106615886Y-48519717D01*
X106649222Y-48667639D01*
X106733266Y-48874616D01*
X106780527Y-48951739D01*
X106847291Y-49060688D01*
X106849987Y-49065088D01*
X106996250Y-49233938D01*
X107168126Y-49376632D01*
X107238595Y-49417811D01*
X107241445Y-49419476D01*
X107290169Y-49471114D01*
X107303240Y-49540897D01*
X107276509Y-49606669D01*
X107236055Y-49640027D01*
X107223607Y-49646507D01*
X107219474Y-49649610D01*
X107219471Y-49649612D01*
X107195247Y-49667800D01*
X107044965Y-49780635D01*
X106890629Y-49942138D01*
X106764743Y-50126680D01*
X106670688Y-50329305D01*
X106610989Y-50544570D01*
X106587251Y-50766695D01*
X106587548Y-50771848D01*
X106587548Y-50771851D01*
X106593011Y-50866590D01*
X106600110Y-50989715D01*
X106601247Y-50994761D01*
X106601248Y-50994767D01*
X106615886Y-51059717D01*
X106649222Y-51207639D01*
X106733266Y-51414616D01*
X106780527Y-51491739D01*
X106847291Y-51600688D01*
X106849987Y-51605088D01*
X106996250Y-51773938D01*
X107168126Y-51916632D01*
X107238595Y-51957811D01*
X107241445Y-51959476D01*
X107290169Y-52011114D01*
X107303240Y-52080897D01*
X107276509Y-52146669D01*
X107236055Y-52180027D01*
X107223607Y-52186507D01*
X107219474Y-52189610D01*
X107219471Y-52189612D01*
X107195247Y-52207800D01*
X107044965Y-52320635D01*
X106890629Y-52482138D01*
X106764743Y-52666680D01*
X106670688Y-52869305D01*
X106610989Y-53084570D01*
X106587251Y-53306695D01*
X106587548Y-53311848D01*
X106587548Y-53311851D01*
X106593011Y-53406590D01*
X106600110Y-53529715D01*
X106601247Y-53534761D01*
X106601248Y-53534767D01*
X106604780Y-53550438D01*
X106649222Y-53747639D01*
X106733266Y-53954616D01*
X106780527Y-54031739D01*
X106847291Y-54140688D01*
X106849987Y-54145088D01*
X106996250Y-54313938D01*
X107168126Y-54456632D01*
X107238595Y-54497811D01*
X107241445Y-54499476D01*
X107290169Y-54551114D01*
X107303240Y-54620897D01*
X107276509Y-54686669D01*
X107236055Y-54720027D01*
X107223607Y-54726507D01*
X107219474Y-54729610D01*
X107219471Y-54729612D01*
X107195247Y-54747800D01*
X107044965Y-54860635D01*
X106890629Y-55022138D01*
X106764743Y-55206680D01*
X106670688Y-55409305D01*
X106610989Y-55624570D01*
X106587251Y-55846695D01*
X106587548Y-55851848D01*
X106587548Y-55851851D01*
X106593011Y-55946590D01*
X106600110Y-56069715D01*
X106601247Y-56074761D01*
X106601248Y-56074767D01*
X106615886Y-56139717D01*
X106649222Y-56287639D01*
X106733266Y-56494616D01*
X106780527Y-56571739D01*
X106847291Y-56680688D01*
X106849987Y-56685088D01*
X106996250Y-56853938D01*
X107168126Y-56996632D01*
X107238595Y-57037811D01*
X107241445Y-57039476D01*
X107290169Y-57091114D01*
X107303240Y-57160897D01*
X107276509Y-57226669D01*
X107236055Y-57260027D01*
X107223607Y-57266507D01*
X107219474Y-57269610D01*
X107219471Y-57269612D01*
X107195247Y-57287800D01*
X107044965Y-57400635D01*
X106890629Y-57562138D01*
X106764743Y-57746680D01*
X106670688Y-57949305D01*
X106610989Y-58164570D01*
X106587251Y-58386695D01*
X106587548Y-58391848D01*
X106587548Y-58391851D01*
X106593011Y-58486590D01*
X106600110Y-58609715D01*
X106601247Y-58614761D01*
X106601248Y-58614767D01*
X106615886Y-58679717D01*
X106649222Y-58827639D01*
X106733266Y-59034616D01*
X106780527Y-59111739D01*
X106847291Y-59220688D01*
X106849987Y-59225088D01*
X106996250Y-59393938D01*
X107168126Y-59536632D01*
X107238595Y-59577811D01*
X107241445Y-59579476D01*
X107290169Y-59631114D01*
X107303240Y-59700897D01*
X107276509Y-59766669D01*
X107236055Y-59800027D01*
X107223607Y-59806507D01*
X107219474Y-59809610D01*
X107219471Y-59809612D01*
X107195247Y-59827800D01*
X107044965Y-59940635D01*
X106890629Y-60102138D01*
X106764743Y-60286680D01*
X106670688Y-60489305D01*
X106610989Y-60704570D01*
X106587251Y-60926695D01*
X106587548Y-60931848D01*
X106587548Y-60931851D01*
X106593011Y-61026590D01*
X106600110Y-61149715D01*
X106601247Y-61154761D01*
X106601248Y-61154767D01*
X106615886Y-61219717D01*
X106649222Y-61367639D01*
X106733266Y-61574616D01*
X106780527Y-61651739D01*
X106847291Y-61760688D01*
X106849987Y-61765088D01*
X106996250Y-61933938D01*
X107168126Y-62076632D01*
X107238595Y-62117811D01*
X107241445Y-62119476D01*
X107290169Y-62171114D01*
X107303240Y-62240897D01*
X107276509Y-62306669D01*
X107236055Y-62340027D01*
X107223607Y-62346507D01*
X107219474Y-62349610D01*
X107219471Y-62349612D01*
X107195247Y-62367800D01*
X107044965Y-62480635D01*
X106890629Y-62642138D01*
X106764743Y-62826680D01*
X106670688Y-63029305D01*
X106610989Y-63244570D01*
X106587251Y-63466695D01*
X106587548Y-63471848D01*
X106587548Y-63471851D01*
X106593011Y-63566590D01*
X106600110Y-63689715D01*
X106601247Y-63694761D01*
X106601248Y-63694767D01*
X106615886Y-63759717D01*
X106649222Y-63907639D01*
X106733266Y-64114616D01*
X106780527Y-64191739D01*
X106847291Y-64300688D01*
X106849987Y-64305088D01*
X106996250Y-64473938D01*
X107168126Y-64616632D01*
X107238595Y-64657811D01*
X107241445Y-64659476D01*
X107290169Y-64711114D01*
X107303240Y-64780897D01*
X107276509Y-64846669D01*
X107236055Y-64880027D01*
X107223607Y-64886507D01*
X107219474Y-64889610D01*
X107219471Y-64889612D01*
X107195247Y-64907800D01*
X107044965Y-65020635D01*
X106890629Y-65182138D01*
X106764743Y-65366680D01*
X106670688Y-65569305D01*
X106610989Y-65784570D01*
X106587251Y-66006695D01*
X106587548Y-66011848D01*
X106587548Y-66011851D01*
X106593011Y-66106590D01*
X106600110Y-66229715D01*
X106601247Y-66234761D01*
X106601248Y-66234767D01*
X106615886Y-66299717D01*
X106649222Y-66447639D01*
X106733266Y-66654616D01*
X106780527Y-66731739D01*
X106847291Y-66840688D01*
X106849987Y-66845088D01*
X106996250Y-67013938D01*
X107168126Y-67156632D01*
X107238595Y-67197811D01*
X107241445Y-67199476D01*
X107290169Y-67251114D01*
X107303240Y-67320897D01*
X107276509Y-67386669D01*
X107236055Y-67420027D01*
X107223607Y-67426507D01*
X107219474Y-67429610D01*
X107219471Y-67429612D01*
X107195247Y-67447800D01*
X107044965Y-67560635D01*
X106890629Y-67722138D01*
X106764743Y-67906680D01*
X106670688Y-68109305D01*
X106610989Y-68324570D01*
X106587251Y-68546695D01*
X106587548Y-68551848D01*
X106587548Y-68551851D01*
X106593011Y-68646590D01*
X106600110Y-68769715D01*
X106601247Y-68774761D01*
X106601248Y-68774767D01*
X106615886Y-68839717D01*
X106649222Y-68987639D01*
X106733266Y-69194616D01*
X106780527Y-69271739D01*
X106847291Y-69380688D01*
X106849987Y-69385088D01*
X106996250Y-69553938D01*
X107168126Y-69696632D01*
X107238595Y-69737811D01*
X107241445Y-69739476D01*
X107290169Y-69791114D01*
X107303240Y-69860897D01*
X107276509Y-69926669D01*
X107236055Y-69960027D01*
X107223607Y-69966507D01*
X107219474Y-69969610D01*
X107219471Y-69969612D01*
X107195247Y-69987800D01*
X107044965Y-70100635D01*
X106890629Y-70262138D01*
X106764743Y-70446680D01*
X106670688Y-70649305D01*
X106610989Y-70864570D01*
X106587251Y-71086695D01*
X106587548Y-71091848D01*
X106587548Y-71091851D01*
X106593011Y-71186590D01*
X106600110Y-71309715D01*
X106601247Y-71314761D01*
X106601248Y-71314767D01*
X106615886Y-71379717D01*
X106649222Y-71527639D01*
X106733266Y-71734616D01*
X106780527Y-71811739D01*
X106847291Y-71920688D01*
X106849987Y-71925088D01*
X106996250Y-72093938D01*
X107168126Y-72236632D01*
X107238595Y-72277811D01*
X107241445Y-72279476D01*
X107290169Y-72331114D01*
X107303240Y-72400897D01*
X107276509Y-72466669D01*
X107236055Y-72500027D01*
X107223607Y-72506507D01*
X107219474Y-72509610D01*
X107219471Y-72509612D01*
X107195247Y-72527800D01*
X107044965Y-72640635D01*
X106890629Y-72802138D01*
X106764743Y-72986680D01*
X106670688Y-73189305D01*
X106610989Y-73404570D01*
X106587251Y-73626695D01*
X106587548Y-73631848D01*
X106587548Y-73631851D01*
X106593011Y-73726590D01*
X106600110Y-73849715D01*
X106601247Y-73854761D01*
X106601248Y-73854767D01*
X106615886Y-73919717D01*
X106649222Y-74067639D01*
X106733266Y-74274616D01*
X106780527Y-74351739D01*
X106847291Y-74460688D01*
X106849987Y-74465088D01*
X106996250Y-74633938D01*
X107168126Y-74776632D01*
X107238595Y-74817811D01*
X107241445Y-74819476D01*
X107290169Y-74871114D01*
X107303240Y-74940897D01*
X107276509Y-75006669D01*
X107236055Y-75040027D01*
X107223607Y-75046507D01*
X107219474Y-75049610D01*
X107219471Y-75049612D01*
X107195247Y-75067800D01*
X107044965Y-75180635D01*
X106890629Y-75342138D01*
X106764743Y-75526680D01*
X106670688Y-75729305D01*
X106610989Y-75944570D01*
X106587251Y-76166695D01*
X106587548Y-76171848D01*
X106587548Y-76171851D01*
X106593011Y-76266590D01*
X106600110Y-76389715D01*
X106601247Y-76394761D01*
X106601248Y-76394767D01*
X106615886Y-76459717D01*
X106649222Y-76607639D01*
X106733266Y-76814616D01*
X106780527Y-76891739D01*
X106847291Y-77000688D01*
X106849987Y-77005088D01*
X106996250Y-77173938D01*
X107168126Y-77316632D01*
X107238595Y-77357811D01*
X107241445Y-77359476D01*
X107290169Y-77411114D01*
X107303240Y-77480897D01*
X107276509Y-77546669D01*
X107236055Y-77580027D01*
X107223607Y-77586507D01*
X107219474Y-77589610D01*
X107219471Y-77589612D01*
X107195247Y-77607800D01*
X107044965Y-77720635D01*
X106890629Y-77882138D01*
X106764743Y-78066680D01*
X106670688Y-78269305D01*
X106610989Y-78484570D01*
X106587251Y-78706695D01*
X106587548Y-78711848D01*
X106587548Y-78711851D01*
X106593011Y-78806590D01*
X106600110Y-78929715D01*
X106601247Y-78934761D01*
X106601248Y-78934767D01*
X106615886Y-78999717D01*
X106649222Y-79147639D01*
X106733266Y-79354616D01*
X106780527Y-79431739D01*
X106847291Y-79540688D01*
X106849987Y-79545088D01*
X106996250Y-79713938D01*
X107168126Y-79856632D01*
X107238595Y-79897811D01*
X107241445Y-79899476D01*
X107290169Y-79951114D01*
X107303240Y-80020897D01*
X107276509Y-80086669D01*
X107236055Y-80120027D01*
X107223607Y-80126507D01*
X107219474Y-80129610D01*
X107219471Y-80129612D01*
X107195247Y-80147800D01*
X107044965Y-80260635D01*
X106890629Y-80422138D01*
X106764743Y-80606680D01*
X106748379Y-80641934D01*
X106681282Y-80786483D01*
X106670688Y-80809305D01*
X106610989Y-81024570D01*
X106587251Y-81246695D01*
X106587548Y-81251848D01*
X106587548Y-81251851D01*
X106593011Y-81346590D01*
X106600110Y-81469715D01*
X106601247Y-81474761D01*
X106601248Y-81474767D01*
X106615886Y-81539717D01*
X106649222Y-81687639D01*
X106733266Y-81894616D01*
X106780527Y-81971739D01*
X106847291Y-82080688D01*
X106849987Y-82085088D01*
X106996250Y-82253938D01*
X107168126Y-82396632D01*
X107238595Y-82437811D01*
X107241445Y-82439476D01*
X107290169Y-82491114D01*
X107303240Y-82560897D01*
X107276509Y-82626669D01*
X107236055Y-82660027D01*
X107223607Y-82666507D01*
X107219474Y-82669610D01*
X107219471Y-82669612D01*
X107195247Y-82687800D01*
X107044965Y-82800635D01*
X106890629Y-82962138D01*
X106764743Y-83146680D01*
X106670688Y-83349305D01*
X106610989Y-83564570D01*
X106587251Y-83786695D01*
X106587548Y-83791848D01*
X106587548Y-83791851D01*
X106593011Y-83886590D01*
X106600110Y-84009715D01*
X106601247Y-84014761D01*
X106601248Y-84014767D01*
X106615886Y-84079717D01*
X106649222Y-84227639D01*
X106733266Y-84434616D01*
X106780527Y-84511739D01*
X106847291Y-84620688D01*
X106849987Y-84625088D01*
X106996250Y-84793938D01*
X107168126Y-84936632D01*
X107238595Y-84977811D01*
X107241445Y-84979476D01*
X107290169Y-85031114D01*
X107303240Y-85100897D01*
X107276509Y-85166669D01*
X107236055Y-85200027D01*
X107223607Y-85206507D01*
X107219474Y-85209610D01*
X107219471Y-85209612D01*
X107195247Y-85227800D01*
X107044965Y-85340635D01*
X107041393Y-85344373D01*
X106923134Y-85468124D01*
X106890629Y-85502138D01*
X106764743Y-85686680D01*
X106670688Y-85889305D01*
X106610989Y-86104570D01*
X106587251Y-86326695D01*
X106587548Y-86331848D01*
X106587548Y-86331851D01*
X106593011Y-86426590D01*
X106600110Y-86549715D01*
X106601247Y-86554761D01*
X106601248Y-86554767D01*
X106603782Y-86566009D01*
X106649222Y-86767639D01*
X106686552Y-86859572D01*
X106729112Y-86964385D01*
X106733266Y-86974616D01*
X106780527Y-87051739D01*
X106847291Y-87160688D01*
X106849987Y-87165088D01*
X106996250Y-87333938D01*
X107168126Y-87476632D01*
X107238595Y-87517811D01*
X107241445Y-87519476D01*
X107290169Y-87571114D01*
X107303240Y-87640897D01*
X107276509Y-87706669D01*
X107236055Y-87740027D01*
X107223607Y-87746507D01*
X107219474Y-87749610D01*
X107219471Y-87749612D01*
X107059554Y-87869681D01*
X107044965Y-87880635D01*
X106890629Y-88042138D01*
X106764743Y-88226680D01*
X106670688Y-88429305D01*
X106610989Y-88644570D01*
X106587251Y-88866695D01*
X106587548Y-88871848D01*
X106587548Y-88871851D01*
X106593011Y-88966590D01*
X106600110Y-89089715D01*
X106601247Y-89094761D01*
X106601248Y-89094767D01*
X106606319Y-89117266D01*
X106649222Y-89307639D01*
X106687461Y-89401811D01*
X106727742Y-89501011D01*
X106733266Y-89514616D01*
X106780527Y-89591739D01*
X106847291Y-89700688D01*
X106849987Y-89705088D01*
X106996250Y-89873938D01*
X107168126Y-90016632D01*
X107361000Y-90129338D01*
X107569692Y-90209030D01*
X107574760Y-90210061D01*
X107574763Y-90210062D01*
X107645945Y-90224544D01*
X107788597Y-90253567D01*
X107793772Y-90253757D01*
X107793774Y-90253757D01*
X108006673Y-90261564D01*
X108006677Y-90261564D01*
X108011837Y-90261753D01*
X108016957Y-90261097D01*
X108016959Y-90261097D01*
X108228288Y-90234025D01*
X108228289Y-90234025D01*
X108233416Y-90233368D01*
X108262828Y-90224544D01*
X108442429Y-90170661D01*
X108442434Y-90170659D01*
X108447384Y-90169174D01*
X108647994Y-90070896D01*
X108829860Y-89941173D01*
X108988096Y-89783489D01*
X109047594Y-89700689D01*
X109118453Y-89602077D01*
X109119776Y-89603028D01*
X109166645Y-89559857D01*
X109236580Y-89547625D01*
X109302026Y-89575144D01*
X109329875Y-89606994D01*
X109336691Y-89618117D01*
X109389987Y-89705088D01*
X109536250Y-89873938D01*
X109708126Y-90016632D01*
X109901000Y-90129338D01*
X110109692Y-90209030D01*
X110114760Y-90210061D01*
X110114763Y-90210062D01*
X110185945Y-90224544D01*
X110328597Y-90253567D01*
X110333772Y-90253757D01*
X110333774Y-90253757D01*
X110546673Y-90261564D01*
X110546677Y-90261564D01*
X110551837Y-90261753D01*
X110556957Y-90261097D01*
X110556959Y-90261097D01*
X110768288Y-90234025D01*
X110768289Y-90234025D01*
X110773416Y-90233368D01*
X110802828Y-90224544D01*
X110982429Y-90170661D01*
X110982434Y-90170659D01*
X110987384Y-90169174D01*
X111187994Y-90070896D01*
X111369860Y-89941173D01*
X111528096Y-89783489D01*
X111587594Y-89700689D01*
X111655435Y-89606277D01*
X111658453Y-89602077D01*
X111663563Y-89591739D01*
X111755136Y-89406453D01*
X111755137Y-89406451D01*
X111757430Y-89401811D01*
X111789900Y-89294940D01*
X111820865Y-89193023D01*
X111820865Y-89193021D01*
X111822370Y-89188069D01*
X111851529Y-88966590D01*
X111853156Y-88900000D01*
X111834852Y-88677361D01*
X111780431Y-88460702D01*
X111691354Y-88255840D01*
X111645667Y-88185219D01*
X111572822Y-88072617D01*
X111572820Y-88072614D01*
X111570014Y-88068277D01*
X111419670Y-87903051D01*
X111415619Y-87899852D01*
X111415615Y-87899848D01*
X111248414Y-87767800D01*
X111248410Y-87767798D01*
X111244359Y-87764598D01*
X111203053Y-87741796D01*
X111153084Y-87691364D01*
X111138312Y-87621921D01*
X111163428Y-87555516D01*
X111190780Y-87528909D01*
X111234603Y-87497650D01*
X111369860Y-87401173D01*
X111528096Y-87243489D01*
X111587594Y-87160689D01*
X111655435Y-87066277D01*
X111658453Y-87062077D01*
X111663563Y-87051739D01*
X111755136Y-86866453D01*
X111755137Y-86866451D01*
X111757430Y-86861811D01*
X111797189Y-86730948D01*
X111820865Y-86653023D01*
X111820865Y-86653021D01*
X111822370Y-86648069D01*
X111851529Y-86426590D01*
X111852626Y-86381693D01*
X111853074Y-86363365D01*
X111853074Y-86363361D01*
X111853156Y-86360000D01*
X111834852Y-86137361D01*
X111780431Y-85920702D01*
X111691354Y-85715840D01*
X111570014Y-85528277D01*
X111419670Y-85363051D01*
X111415619Y-85359852D01*
X111415615Y-85359848D01*
X111248414Y-85227800D01*
X111248410Y-85227798D01*
X111244359Y-85224598D01*
X111203053Y-85201796D01*
X111153084Y-85151364D01*
X111138312Y-85081921D01*
X111163428Y-85015516D01*
X111190780Y-84988909D01*
X111234603Y-84957650D01*
X111369860Y-84861173D01*
X111528096Y-84703489D01*
X111587594Y-84620689D01*
X111655435Y-84526277D01*
X111658453Y-84522077D01*
X111661585Y-84515741D01*
X111755136Y-84326453D01*
X111755137Y-84326451D01*
X111757430Y-84321811D01*
X111789900Y-84214940D01*
X111820865Y-84113023D01*
X111820865Y-84113021D01*
X111822370Y-84108069D01*
X111851529Y-83886590D01*
X111852630Y-83841529D01*
X111853074Y-83823365D01*
X111853074Y-83823361D01*
X111853156Y-83820000D01*
X111834852Y-83597361D01*
X111780431Y-83380702D01*
X111691354Y-83175840D01*
X111570014Y-82988277D01*
X111419670Y-82823051D01*
X111415619Y-82819852D01*
X111415615Y-82819848D01*
X111248414Y-82687800D01*
X111248410Y-82687798D01*
X111244359Y-82684598D01*
X111203053Y-82661796D01*
X111153084Y-82611364D01*
X111138312Y-82541921D01*
X111163428Y-82475516D01*
X111190780Y-82448909D01*
X111258647Y-82400500D01*
X111369860Y-82321173D01*
X111528096Y-82163489D01*
X111587594Y-82080689D01*
X111655435Y-81986277D01*
X111658453Y-81982077D01*
X111663563Y-81971739D01*
X111755136Y-81786453D01*
X111755137Y-81786451D01*
X111757430Y-81781811D01*
X111789900Y-81674940D01*
X111820865Y-81573023D01*
X111820865Y-81573021D01*
X111822370Y-81568069D01*
X111851529Y-81346590D01*
X111853156Y-81280000D01*
X111834852Y-81057361D01*
X111780431Y-80840702D01*
X111691354Y-80635840D01*
X111577785Y-80460289D01*
X111572822Y-80452617D01*
X111572820Y-80452614D01*
X111570014Y-80448277D01*
X111419670Y-80283051D01*
X111415619Y-80279852D01*
X111415615Y-80279848D01*
X111248414Y-80147800D01*
X111248410Y-80147798D01*
X111244359Y-80144598D01*
X111203053Y-80121796D01*
X111153084Y-80071364D01*
X111138312Y-80001921D01*
X111163428Y-79935516D01*
X111190780Y-79908909D01*
X111234603Y-79877650D01*
X111369860Y-79781173D01*
X111528096Y-79623489D01*
X111587594Y-79540689D01*
X111655435Y-79446277D01*
X111658453Y-79442077D01*
X111663563Y-79431739D01*
X111755136Y-79246453D01*
X111755137Y-79246451D01*
X111757430Y-79241811D01*
X111789900Y-79134940D01*
X111820865Y-79033023D01*
X111820865Y-79033021D01*
X111822370Y-79028069D01*
X111851529Y-78806590D01*
X111853156Y-78740000D01*
X111834852Y-78517361D01*
X111780431Y-78300702D01*
X111691354Y-78095840D01*
X111570014Y-77908277D01*
X111419670Y-77743051D01*
X111415619Y-77739852D01*
X111415615Y-77739848D01*
X111248414Y-77607800D01*
X111248410Y-77607798D01*
X111244359Y-77604598D01*
X111203053Y-77581796D01*
X111153084Y-77531364D01*
X111138312Y-77461921D01*
X111163428Y-77395516D01*
X111190780Y-77368909D01*
X111234603Y-77337650D01*
X111369860Y-77241173D01*
X111528096Y-77083489D01*
X111587594Y-77000689D01*
X111655435Y-76906277D01*
X111658453Y-76902077D01*
X111663563Y-76891739D01*
X111755136Y-76706453D01*
X111755137Y-76706451D01*
X111757430Y-76701811D01*
X111789900Y-76594940D01*
X111820865Y-76493023D01*
X111820865Y-76493021D01*
X111822370Y-76488069D01*
X111851529Y-76266590D01*
X111853156Y-76200000D01*
X111834852Y-75977361D01*
X111780431Y-75760702D01*
X111691354Y-75555840D01*
X111570014Y-75368277D01*
X111419670Y-75203051D01*
X111415619Y-75199852D01*
X111415615Y-75199848D01*
X111248414Y-75067800D01*
X111248410Y-75067798D01*
X111244359Y-75064598D01*
X111203053Y-75041796D01*
X111153084Y-74991364D01*
X111138312Y-74921921D01*
X111163428Y-74855516D01*
X111190780Y-74828909D01*
X111234603Y-74797650D01*
X111369860Y-74701173D01*
X111528096Y-74543489D01*
X111587594Y-74460689D01*
X111655435Y-74366277D01*
X111658453Y-74362077D01*
X111663563Y-74351739D01*
X111755136Y-74166453D01*
X111755137Y-74166451D01*
X111757430Y-74161811D01*
X111789900Y-74054940D01*
X111820865Y-73953023D01*
X111820865Y-73953021D01*
X111822370Y-73948069D01*
X111851529Y-73726590D01*
X111853156Y-73660000D01*
X111834852Y-73437361D01*
X111780431Y-73220702D01*
X111691354Y-73015840D01*
X111570014Y-72828277D01*
X111419670Y-72663051D01*
X111415619Y-72659852D01*
X111415615Y-72659848D01*
X111248414Y-72527800D01*
X111248410Y-72527798D01*
X111244359Y-72524598D01*
X111203053Y-72501796D01*
X111153084Y-72451364D01*
X111138312Y-72381921D01*
X111163428Y-72315516D01*
X111190780Y-72288909D01*
X111234603Y-72257650D01*
X111369860Y-72161173D01*
X111528096Y-72003489D01*
X111587594Y-71920689D01*
X111655435Y-71826277D01*
X111658453Y-71822077D01*
X111663563Y-71811739D01*
X111755136Y-71626453D01*
X111755137Y-71626451D01*
X111757430Y-71621811D01*
X111789900Y-71514940D01*
X111820865Y-71413023D01*
X111820865Y-71413021D01*
X111822370Y-71408069D01*
X111851529Y-71186590D01*
X111853156Y-71120000D01*
X111834852Y-70897361D01*
X111780431Y-70680702D01*
X111691354Y-70475840D01*
X111570014Y-70288277D01*
X111419670Y-70123051D01*
X111415619Y-70119852D01*
X111415615Y-70119848D01*
X111248414Y-69987800D01*
X111248410Y-69987798D01*
X111244359Y-69984598D01*
X111203053Y-69961796D01*
X111153084Y-69911364D01*
X111138312Y-69841921D01*
X111163428Y-69775516D01*
X111190780Y-69748909D01*
X111234603Y-69717650D01*
X111369860Y-69621173D01*
X111528096Y-69463489D01*
X111587594Y-69380689D01*
X111655435Y-69286277D01*
X111658453Y-69282077D01*
X111663563Y-69271739D01*
X111755136Y-69086453D01*
X111755137Y-69086451D01*
X111757430Y-69081811D01*
X111789900Y-68974940D01*
X111820865Y-68873023D01*
X111820865Y-68873021D01*
X111822370Y-68868069D01*
X111851529Y-68646590D01*
X111853156Y-68580000D01*
X111834852Y-68357361D01*
X111780431Y-68140702D01*
X111691354Y-67935840D01*
X111570014Y-67748277D01*
X111419670Y-67583051D01*
X111415619Y-67579852D01*
X111415615Y-67579848D01*
X111248414Y-67447800D01*
X111248410Y-67447798D01*
X111244359Y-67444598D01*
X111203053Y-67421796D01*
X111153084Y-67371364D01*
X111138312Y-67301921D01*
X111163428Y-67235516D01*
X111190780Y-67208909D01*
X111234603Y-67177650D01*
X111369860Y-67081173D01*
X111528096Y-66923489D01*
X111587594Y-66840689D01*
X111655435Y-66746277D01*
X111658453Y-66742077D01*
X111663563Y-66731739D01*
X111755136Y-66546453D01*
X111755137Y-66546451D01*
X111757430Y-66541811D01*
X111789900Y-66434940D01*
X111820865Y-66333023D01*
X111820865Y-66333021D01*
X111822370Y-66328069D01*
X111851529Y-66106590D01*
X111853156Y-66040000D01*
X111834852Y-65817361D01*
X111780431Y-65600702D01*
X111691354Y-65395840D01*
X111570014Y-65208277D01*
X111419670Y-65043051D01*
X111415619Y-65039852D01*
X111415615Y-65039848D01*
X111248414Y-64907800D01*
X111248410Y-64907798D01*
X111244359Y-64904598D01*
X111203053Y-64881796D01*
X111153084Y-64831364D01*
X111138312Y-64761921D01*
X111163428Y-64695516D01*
X111190780Y-64668909D01*
X111234603Y-64637650D01*
X111369860Y-64541173D01*
X111528096Y-64383489D01*
X111587594Y-64300689D01*
X111655435Y-64206277D01*
X111658453Y-64202077D01*
X111663563Y-64191739D01*
X111755136Y-64006453D01*
X111755137Y-64006451D01*
X111757430Y-64001811D01*
X111789900Y-63894940D01*
X111820865Y-63793023D01*
X111820865Y-63793021D01*
X111822370Y-63788069D01*
X111851529Y-63566590D01*
X111853156Y-63500000D01*
X111834852Y-63277361D01*
X111780431Y-63060702D01*
X111691354Y-62855840D01*
X111570014Y-62668277D01*
X111419670Y-62503051D01*
X111415619Y-62499852D01*
X111415615Y-62499848D01*
X111248414Y-62367800D01*
X111248410Y-62367798D01*
X111244359Y-62364598D01*
X111203053Y-62341796D01*
X111153084Y-62291364D01*
X111138312Y-62221921D01*
X111163428Y-62155516D01*
X111190780Y-62128909D01*
X111234603Y-62097650D01*
X111369860Y-62001173D01*
X111528096Y-61843489D01*
X111587594Y-61760689D01*
X111655435Y-61666277D01*
X111658453Y-61662077D01*
X111663563Y-61651739D01*
X111755136Y-61466453D01*
X111755137Y-61466451D01*
X111757430Y-61461811D01*
X111789900Y-61354940D01*
X111820865Y-61253023D01*
X111820865Y-61253021D01*
X111822370Y-61248069D01*
X111851529Y-61026590D01*
X111853156Y-60960000D01*
X111834852Y-60737361D01*
X111780431Y-60520702D01*
X111691354Y-60315840D01*
X111570014Y-60128277D01*
X111419670Y-59963051D01*
X111415619Y-59959852D01*
X111415615Y-59959848D01*
X111248414Y-59827800D01*
X111248410Y-59827798D01*
X111244359Y-59824598D01*
X111203053Y-59801796D01*
X111153084Y-59751364D01*
X111138312Y-59681921D01*
X111163428Y-59615516D01*
X111190780Y-59588909D01*
X111234603Y-59557650D01*
X111369860Y-59461173D01*
X111528096Y-59303489D01*
X111587594Y-59220689D01*
X111655435Y-59126277D01*
X111658453Y-59122077D01*
X111663563Y-59111739D01*
X111755136Y-58926453D01*
X111755137Y-58926451D01*
X111757430Y-58921811D01*
X111789900Y-58814940D01*
X111820865Y-58713023D01*
X111820865Y-58713021D01*
X111822370Y-58708069D01*
X111851529Y-58486590D01*
X111853156Y-58420000D01*
X111834852Y-58197361D01*
X111780431Y-57980702D01*
X111691354Y-57775840D01*
X111570014Y-57588277D01*
X111419670Y-57423051D01*
X111415619Y-57419852D01*
X111415615Y-57419848D01*
X111248414Y-57287800D01*
X111248410Y-57287798D01*
X111244359Y-57284598D01*
X111203053Y-57261796D01*
X111153084Y-57211364D01*
X111138312Y-57141921D01*
X111163428Y-57075516D01*
X111190780Y-57048909D01*
X111234603Y-57017650D01*
X111369860Y-56921173D01*
X111528096Y-56763489D01*
X111587594Y-56680689D01*
X111655435Y-56586277D01*
X111658453Y-56582077D01*
X111663563Y-56571739D01*
X111755136Y-56386453D01*
X111755137Y-56386451D01*
X111757430Y-56381811D01*
X111789900Y-56274940D01*
X111820865Y-56173023D01*
X111820865Y-56173021D01*
X111822370Y-56168069D01*
X111851529Y-55946590D01*
X111853156Y-55880000D01*
X111834852Y-55657361D01*
X111780431Y-55440702D01*
X111691354Y-55235840D01*
X111570014Y-55048277D01*
X111419670Y-54883051D01*
X111415619Y-54879852D01*
X111415615Y-54879848D01*
X111248414Y-54747800D01*
X111248410Y-54747798D01*
X111244359Y-54744598D01*
X111203053Y-54721796D01*
X111153084Y-54671364D01*
X111138312Y-54601921D01*
X111163428Y-54535516D01*
X111190780Y-54508909D01*
X111234603Y-54477650D01*
X111369860Y-54381173D01*
X111528096Y-54223489D01*
X111587594Y-54140689D01*
X111655435Y-54046277D01*
X111658453Y-54042077D01*
X111663563Y-54031739D01*
X111755136Y-53846453D01*
X111755137Y-53846451D01*
X111757430Y-53841811D01*
X111789900Y-53734940D01*
X111820865Y-53633023D01*
X111820865Y-53633021D01*
X111822370Y-53628069D01*
X111851529Y-53406590D01*
X111853156Y-53340000D01*
X111834852Y-53117361D01*
X111780431Y-52900702D01*
X111691354Y-52695840D01*
X111570014Y-52508277D01*
X111419670Y-52343051D01*
X111415619Y-52339852D01*
X111415615Y-52339848D01*
X111248414Y-52207800D01*
X111248410Y-52207798D01*
X111244359Y-52204598D01*
X111203053Y-52181796D01*
X111153084Y-52131364D01*
X111138312Y-52061921D01*
X111163428Y-51995516D01*
X111190780Y-51968909D01*
X111234603Y-51937650D01*
X111369860Y-51841173D01*
X111528096Y-51683489D01*
X111587594Y-51600689D01*
X111655435Y-51506277D01*
X111658453Y-51502077D01*
X111663563Y-51491739D01*
X111755136Y-51306453D01*
X111755137Y-51306451D01*
X111757430Y-51301811D01*
X111789900Y-51194940D01*
X111820865Y-51093023D01*
X111820865Y-51093021D01*
X111822370Y-51088069D01*
X111851529Y-50866590D01*
X111853156Y-50800000D01*
X111834852Y-50577361D01*
X111780431Y-50360702D01*
X111691354Y-50155840D01*
X111570014Y-49968277D01*
X111419670Y-49803051D01*
X111415619Y-49799852D01*
X111415615Y-49799848D01*
X111248414Y-49667800D01*
X111248410Y-49667798D01*
X111244359Y-49664598D01*
X111203053Y-49641796D01*
X111153084Y-49591364D01*
X111138312Y-49521921D01*
X111163428Y-49455516D01*
X111190780Y-49428909D01*
X111234603Y-49397650D01*
X111369860Y-49301173D01*
X111528096Y-49143489D01*
X111587594Y-49060689D01*
X111655435Y-48966277D01*
X111658453Y-48962077D01*
X111663563Y-48951739D01*
X111755136Y-48766453D01*
X111755137Y-48766451D01*
X111757430Y-48761811D01*
X111789900Y-48654940D01*
X111820865Y-48553023D01*
X111820865Y-48553021D01*
X111822370Y-48548069D01*
X111851529Y-48326590D01*
X111853156Y-48260000D01*
X111834852Y-48037361D01*
X111780431Y-47820702D01*
X111691354Y-47615840D01*
X111570014Y-47428277D01*
X111419670Y-47263051D01*
X111415619Y-47259852D01*
X111415615Y-47259848D01*
X111248414Y-47127800D01*
X111248410Y-47127798D01*
X111244359Y-47124598D01*
X111203053Y-47101796D01*
X111153084Y-47051364D01*
X111138312Y-46981921D01*
X111163428Y-46915516D01*
X111190780Y-46888909D01*
X111234603Y-46857650D01*
X111369860Y-46761173D01*
X111528096Y-46603489D01*
X111587594Y-46520689D01*
X111655435Y-46426277D01*
X111658453Y-46422077D01*
X111663563Y-46411739D01*
X111755136Y-46226453D01*
X111755137Y-46226451D01*
X111757430Y-46221811D01*
X111789900Y-46114940D01*
X111820865Y-46013023D01*
X111820865Y-46013021D01*
X111822370Y-46008069D01*
X111851529Y-45786590D01*
X111853156Y-45720000D01*
X111834852Y-45497361D01*
X111780431Y-45280702D01*
X111691354Y-45075840D01*
X111570014Y-44888277D01*
X111419670Y-44723051D01*
X111415619Y-44719852D01*
X111415615Y-44719848D01*
X111248414Y-44587800D01*
X111248410Y-44587798D01*
X111244359Y-44584598D01*
X111203053Y-44561796D01*
X111153084Y-44511364D01*
X111138312Y-44441921D01*
X111163428Y-44375516D01*
X111190780Y-44348909D01*
X111234603Y-44317650D01*
X111369860Y-44221173D01*
X111528096Y-44063489D01*
X111582153Y-43988261D01*
X111655435Y-43886277D01*
X111658453Y-43882077D01*
X111663563Y-43871739D01*
X111755136Y-43686453D01*
X111755137Y-43686451D01*
X111757430Y-43681811D01*
X111789900Y-43574940D01*
X111820865Y-43473023D01*
X111820865Y-43473021D01*
X111822370Y-43468069D01*
X111851529Y-43246590D01*
X111853156Y-43180000D01*
X111834852Y-42957361D01*
X111780431Y-42740702D01*
X111691354Y-42535840D01*
X111570014Y-42348277D01*
X111419670Y-42183051D01*
X111377006Y-42149357D01*
X111335944Y-42091441D01*
X111332712Y-42020518D01*
X111368337Y-41959107D01*
X111401647Y-41936376D01*
X111407007Y-41933865D01*
X111413946Y-41931550D01*
X111564348Y-41838478D01*
X111689305Y-41713303D01*
X111730258Y-41646866D01*
X111778275Y-41568968D01*
X111778276Y-41568966D01*
X111782115Y-41562738D01*
X111837797Y-41394861D01*
X111848500Y-41290400D01*
X111848500Y-39989600D01*
X111843534Y-39941737D01*
X111838238Y-39890692D01*
X111838237Y-39890688D01*
X111837526Y-39883834D01*
X111833281Y-39871109D01*
X111826270Y-39850094D01*
X111823685Y-39779144D01*
X111859868Y-39718060D01*
X111923332Y-39686235D01*
X111993928Y-39693774D01*
X112034888Y-39721122D01*
X112619595Y-40305829D01*
X112653621Y-40368141D01*
X112656500Y-40394924D01*
X112656500Y-86117179D01*
X112655763Y-86130786D01*
X112651676Y-86168410D01*
X112652213Y-86174545D01*
X112656050Y-86218410D01*
X112656379Y-86223236D01*
X112656500Y-86225708D01*
X112656500Y-86228791D01*
X112656801Y-86231859D01*
X112660690Y-86271528D01*
X112660812Y-86272841D01*
X112668913Y-86365435D01*
X112670400Y-86370554D01*
X112670920Y-86375855D01*
X112697791Y-86464856D01*
X112698126Y-86465989D01*
X112722133Y-86548618D01*
X112724091Y-86555358D01*
X112726544Y-86560090D01*
X112728084Y-86565191D01*
X112730978Y-86570634D01*
X112771731Y-86647282D01*
X112772343Y-86648448D01*
X112812271Y-86725475D01*
X112815108Y-86730948D01*
X112818431Y-86735111D01*
X112820934Y-86739818D01*
X112879755Y-86811940D01*
X112880446Y-86812796D01*
X112911738Y-86851995D01*
X112914242Y-86854499D01*
X112914884Y-86855217D01*
X112918585Y-86859550D01*
X112945935Y-86893084D01*
X112950682Y-86897011D01*
X112950684Y-86897013D01*
X112981262Y-86922309D01*
X112990042Y-86930299D01*
X113966614Y-87906870D01*
X114914595Y-88854851D01*
X114948620Y-88917163D01*
X114951500Y-88943946D01*
X114951500Y-89163134D01*
X114958255Y-89225316D01*
X115009385Y-89361705D01*
X115029372Y-89388373D01*
X115082630Y-89459435D01*
X115107478Y-89525941D01*
X115092425Y-89595324D01*
X115082632Y-89610562D01*
X115009385Y-89708295D01*
X114958255Y-89844684D01*
X114951500Y-89906866D01*
X114951500Y-91575500D01*
X114931498Y-91643621D01*
X114877842Y-91690114D01*
X114825500Y-91701500D01*
X108419925Y-91701500D01*
X108351804Y-91681498D01*
X108330830Y-91664595D01*
X105820405Y-89154171D01*
X105786380Y-89091859D01*
X105783500Y-89065076D01*
X105783500Y-35314926D01*
X105803502Y-35246805D01*
X105820404Y-35225831D01*
X106099631Y-34946603D01*
X106159581Y-34913115D01*
X106163860Y-34912098D01*
X106171717Y-34911244D01*
X106308106Y-34860114D01*
X106424662Y-34772760D01*
X106512016Y-34656204D01*
X106562018Y-34522824D01*
X106604660Y-34466060D01*
X106671221Y-34441360D01*
X106740570Y-34456567D01*
G37*
%TD.AperFunction*%
%TA.AperFunction,Conductor*%
G36*
X113882789Y-24785470D02*
G01*
X115164695Y-26067376D01*
X115198721Y-26129688D01*
X115201600Y-26156471D01*
X115201600Y-27183529D01*
X115181598Y-27251650D01*
X115164695Y-27272624D01*
X114657724Y-27779595D01*
X114595412Y-27813621D01*
X114568629Y-27816500D01*
X113709053Y-27816500D01*
X113640932Y-27796498D01*
X113594439Y-27742842D01*
X113584335Y-27672568D01*
X113589462Y-27650827D01*
X113590138Y-27648790D01*
X113593005Y-27635414D01*
X113602672Y-27541062D01*
X113603000Y-27534646D01*
X113603000Y-27497115D01*
X113598525Y-27481876D01*
X113597135Y-27480671D01*
X113589452Y-27479000D01*
X110362000Y-27479000D01*
X110293879Y-27458998D01*
X110247386Y-27405342D01*
X110236000Y-27353000D01*
X110236000Y-27097000D01*
X110256002Y-27028879D01*
X110309658Y-26982386D01*
X110362000Y-26971000D01*
X113584884Y-26971000D01*
X113600123Y-26966525D01*
X113601328Y-26965135D01*
X113602999Y-26957452D01*
X113602999Y-26915405D01*
X113602662Y-26908886D01*
X113592743Y-26813294D01*
X113589851Y-26799900D01*
X113538412Y-26645716D01*
X113532239Y-26632538D01*
X113446937Y-26494693D01*
X113437901Y-26483292D01*
X113356538Y-26402070D01*
X113322459Y-26339787D01*
X113327462Y-26268967D01*
X113356383Y-26223880D01*
X113439130Y-26140988D01*
X113439134Y-26140983D01*
X113444305Y-26135803D01*
X113473556Y-26088349D01*
X113533275Y-25991468D01*
X113533276Y-25991466D01*
X113537115Y-25985238D01*
X113592797Y-25817361D01*
X113603500Y-25712900D01*
X113603500Y-25104661D01*
X113619085Y-25043960D01*
X113623306Y-25036281D01*
X113627124Y-25029337D01*
X113632457Y-25008566D01*
X113638859Y-24989864D01*
X113647379Y-24970177D01*
X113653698Y-24930282D01*
X113654605Y-24924552D01*
X113657013Y-24912926D01*
X113666529Y-24875865D01*
X113666529Y-24875864D01*
X113668500Y-24868188D01*
X113668500Y-24860261D01*
X113668688Y-24858773D01*
X113697069Y-24793697D01*
X113756129Y-24754295D01*
X113827115Y-24753078D01*
X113882789Y-24785470D01*
G37*
%TD.AperFunction*%
%TA.AperFunction,Conductor*%
G36*
X107216759Y-23497826D02*
G01*
X107225293Y-23500468D01*
X107225296Y-23500469D01*
X107231180Y-23502290D01*
X107237305Y-23502934D01*
X107237306Y-23502934D01*
X107426622Y-23522832D01*
X107426623Y-23522832D01*
X107432750Y-23523476D01*
X107564581Y-23511478D01*
X107634234Y-23525223D01*
X107685399Y-23574444D01*
X107702001Y-23636959D01*
X107702001Y-23644669D01*
X107702371Y-23651490D01*
X107707895Y-23702352D01*
X107711521Y-23717604D01*
X107756676Y-23838054D01*
X107765214Y-23853649D01*
X107841715Y-23955724D01*
X107854276Y-23968285D01*
X107956351Y-24044786D01*
X107971944Y-24053323D01*
X107972059Y-24053366D01*
X107972157Y-24053439D01*
X107979818Y-24057634D01*
X107979213Y-24058740D01*
X108028824Y-24096007D01*
X108053525Y-24162568D01*
X108038318Y-24231917D01*
X108021940Y-24255131D01*
X108019928Y-24257391D01*
X108017340Y-24259979D01*
X108015074Y-24262843D01*
X108015067Y-24262851D01*
X107999719Y-24282251D01*
X107996928Y-24285655D01*
X107954409Y-24335703D01*
X107949667Y-24341285D01*
X107946339Y-24347801D01*
X107942972Y-24352850D01*
X107939805Y-24357979D01*
X107935266Y-24363716D01*
X107904345Y-24429875D01*
X107902442Y-24433769D01*
X107869231Y-24498808D01*
X107867492Y-24505916D01*
X107865393Y-24511559D01*
X107863476Y-24517322D01*
X107860378Y-24523950D01*
X107846554Y-24590414D01*
X107845514Y-24595412D01*
X107844544Y-24599696D01*
X107827192Y-24670610D01*
X107826500Y-24681764D01*
X107826464Y-24681762D01*
X107826225Y-24685755D01*
X107825851Y-24689947D01*
X107824360Y-24697115D01*
X107824558Y-24704432D01*
X107826454Y-24774521D01*
X107826500Y-24777928D01*
X107826500Y-26084687D01*
X107806498Y-26152808D01*
X107752842Y-26199301D01*
X107682568Y-26209405D01*
X107617988Y-26179911D01*
X107611481Y-26173859D01*
X107608483Y-26170866D01*
X107603303Y-26165695D01*
X107588339Y-26156471D01*
X107458968Y-26076725D01*
X107458966Y-26076724D01*
X107452738Y-26072885D01*
X107372995Y-26046436D01*
X107291389Y-26019368D01*
X107291387Y-26019368D01*
X107284861Y-26017203D01*
X107278025Y-26016503D01*
X107278022Y-26016502D01*
X107234969Y-26012091D01*
X107180400Y-26006500D01*
X107177181Y-26006500D01*
X107173972Y-26006336D01*
X107174045Y-26004898D01*
X107111379Y-25986498D01*
X107064886Y-25932842D01*
X107053500Y-25880500D01*
X107053500Y-23618191D01*
X107073502Y-23550070D01*
X107127158Y-23503577D01*
X107197432Y-23493473D01*
X107216759Y-23497826D01*
G37*
%TD.AperFunction*%
%TA.AperFunction,Conductor*%
G36*
X117297012Y-20800978D02*
G01*
X117330909Y-20847984D01*
X117394772Y-21002163D01*
X117396760Y-21006963D01*
X117399346Y-21011183D01*
X117518241Y-21205202D01*
X117518245Y-21205208D01*
X117520824Y-21209416D01*
X117675031Y-21389969D01*
X117855584Y-21544176D01*
X117926336Y-21587533D01*
X117973967Y-21640181D01*
X117986500Y-21694965D01*
X117986500Y-24398629D01*
X117966498Y-24466750D01*
X117949595Y-24487724D01*
X117412023Y-25025296D01*
X117349711Y-25059322D01*
X117322928Y-25062201D01*
X116357072Y-25062201D01*
X116288951Y-25042199D01*
X116267977Y-25025296D01*
X115503111Y-24260430D01*
X115469085Y-24198118D01*
X115474150Y-24127303D01*
X115516697Y-24070467D01*
X115547980Y-24053352D01*
X115548053Y-24053325D01*
X115563649Y-24044786D01*
X115665724Y-23968285D01*
X115678285Y-23955724D01*
X115754786Y-23853649D01*
X115763324Y-23838054D01*
X115808478Y-23717606D01*
X115812105Y-23702351D01*
X115817631Y-23651486D01*
X115818000Y-23644672D01*
X115818000Y-23636638D01*
X115838002Y-23568517D01*
X115891658Y-23522024D01*
X115957171Y-23511328D01*
X116010102Y-23516891D01*
X116066622Y-23522832D01*
X116066623Y-23522832D01*
X116072750Y-23523476D01*
X116156014Y-23515898D01*
X116268457Y-23505665D01*
X116268460Y-23505664D01*
X116274596Y-23505106D01*
X116280502Y-23503368D01*
X116280506Y-23503367D01*
X116463120Y-23449620D01*
X116463119Y-23449620D01*
X116469029Y-23447881D01*
X116474486Y-23445028D01*
X116474489Y-23445027D01*
X116558837Y-23400931D01*
X116648645Y-23353981D01*
X116806601Y-23226981D01*
X116936881Y-23071719D01*
X116939845Y-23066327D01*
X116939848Y-23066323D01*
X117031556Y-22899506D01*
X117034523Y-22894109D01*
X117095807Y-22700916D01*
X117097401Y-22686713D01*
X117113107Y-22546683D01*
X117113500Y-22543183D01*
X117113500Y-21383996D01*
X117113082Y-21379727D01*
X117104379Y-21290972D01*
X117098723Y-21233287D01*
X117093878Y-21217238D01*
X117088500Y-21180822D01*
X117088500Y-20896202D01*
X117108502Y-20828081D01*
X117162158Y-20781588D01*
X117232432Y-20771484D01*
X117297012Y-20800978D01*
G37*
%TD.AperFunction*%
%TA.AperFunction,Conductor*%
G36*
X115013621Y-18808502D02*
G01*
X115060114Y-18862158D01*
X115071500Y-18914500D01*
X115071500Y-20487247D01*
X115051498Y-20555368D01*
X114997842Y-20601861D01*
X114927568Y-20611965D01*
X114918022Y-20610213D01*
X114746260Y-20571820D01*
X114740537Y-20571500D01*
X114603404Y-20571500D01*
X114464563Y-20586583D01*
X114287777Y-20646078D01*
X114127891Y-20742147D01*
X113992364Y-20870308D01*
X113988529Y-20875951D01*
X113943721Y-20941885D01*
X113887520Y-21024582D01*
X113884988Y-21030911D01*
X113884987Y-21030914D01*
X113833908Y-21158621D01*
X113818249Y-21197771D01*
X113803411Y-21287398D01*
X113789044Y-21374186D01*
X113787784Y-21381795D01*
X113788141Y-21388611D01*
X113788141Y-21388616D01*
X113794446Y-21508905D01*
X113778037Y-21577979D01*
X113726888Y-21627217D01*
X113668619Y-21641500D01*
X113311866Y-21641500D01*
X113308471Y-21641869D01*
X113308467Y-21641869D01*
X113282469Y-21644693D01*
X113273606Y-21645656D01*
X113246394Y-21645656D01*
X113237531Y-21644693D01*
X113211533Y-21641869D01*
X113211529Y-21641869D01*
X113208134Y-21641500D01*
X112811866Y-21641500D01*
X112808471Y-21641869D01*
X112808467Y-21641869D01*
X112782469Y-21644693D01*
X112773606Y-21645656D01*
X112746394Y-21645656D01*
X112737531Y-21644693D01*
X112711533Y-21641869D01*
X112711529Y-21641869D01*
X112708134Y-21641500D01*
X112311866Y-21641500D01*
X112308471Y-21641869D01*
X112308467Y-21641869D01*
X112282469Y-21644693D01*
X112273606Y-21645656D01*
X112246394Y-21645656D01*
X112237531Y-21644693D01*
X112211533Y-21641869D01*
X112211529Y-21641869D01*
X112208134Y-21641500D01*
X111811866Y-21641500D01*
X111808471Y-21641869D01*
X111808467Y-21641869D01*
X111782469Y-21644693D01*
X111773606Y-21645656D01*
X111746394Y-21645656D01*
X111737531Y-21644693D01*
X111711533Y-21641869D01*
X111711529Y-21641869D01*
X111708134Y-21641500D01*
X111311866Y-21641500D01*
X111308471Y-21641869D01*
X111308467Y-21641869D01*
X111282469Y-21644693D01*
X111273606Y-21645656D01*
X111246394Y-21645656D01*
X111237531Y-21644693D01*
X111211533Y-21641869D01*
X111211529Y-21641869D01*
X111208134Y-21641500D01*
X110811866Y-21641500D01*
X110808471Y-21641869D01*
X110808467Y-21641869D01*
X110782469Y-21644693D01*
X110773606Y-21645656D01*
X110746394Y-21645656D01*
X110737531Y-21644693D01*
X110711533Y-21641869D01*
X110711529Y-21641869D01*
X110708134Y-21641500D01*
X110311866Y-21641500D01*
X110308471Y-21641869D01*
X110308467Y-21641869D01*
X110282469Y-21644693D01*
X110273606Y-21645656D01*
X110246394Y-21645656D01*
X110237531Y-21644693D01*
X110211533Y-21641869D01*
X110211529Y-21641869D01*
X110208134Y-21641500D01*
X109853757Y-21641500D01*
X109785636Y-21621498D01*
X109739143Y-21567842D01*
X109729449Y-21494923D01*
X109731100Y-21484946D01*
X109732216Y-21478205D01*
X109727760Y-21393177D01*
X109722810Y-21298746D01*
X109722453Y-21291933D01*
X109672920Y-21112102D01*
X109585925Y-20947102D01*
X109581520Y-20941889D01*
X109581517Y-20941885D01*
X109469936Y-20809847D01*
X109469932Y-20809843D01*
X109465529Y-20804633D01*
X109460104Y-20800485D01*
X109322769Y-20695484D01*
X109322765Y-20695481D01*
X109317348Y-20691340D01*
X109148296Y-20612510D01*
X108966260Y-20571820D01*
X108960537Y-20571500D01*
X108823404Y-20571500D01*
X108684563Y-20586583D01*
X108639165Y-20601861D01*
X108614689Y-20610098D01*
X108543746Y-20612868D01*
X108482568Y-20576844D01*
X108450577Y-20513463D01*
X108448500Y-20490679D01*
X108448500Y-18914500D01*
X108468502Y-18846379D01*
X108522158Y-18799886D01*
X108574500Y-18788500D01*
X114945500Y-18788500D01*
X115013621Y-18808502D01*
G37*
%TD.AperFunction*%
%TD*%
M02*
