M48
; DRILL file {KiCad (6.0.4)} date Wed Mar 30 18:52:39 2022
; FORMAT={-:-/ absolute / metric / decimal}
; #@! TF.CreationDate,2022-03-30T18:52:39+02:00
; #@! TF.GenerationSoftware,Kicad,Pcbnew,(6.0.4)
; #@! TF.FileFunction,Plated,1,2,PTH
FMAT,2
METRIC
; #@! TA.AperFunction,Plated,PTH,ViaDrill
T1C0.400
; #@! TA.AperFunction,Plated,PTH,ComponentDrill
T2C0.650
; #@! TA.AperFunction,Plated,PTH,ViaDrill
T3C0.800
; #@! TA.AperFunction,Plated,PTH,ComponentDrill
T4C1.000
; #@! TA.AperFunction,Plated,PTH,ComponentDrill
T5C1.020
; #@! TA.AperFunction,Plated,PTH,ComponentDrill
T6C1.400
%
G90
G05
T1
X115.57Y-24.13
X121.285Y-45.085
X121.285Y-52.705
X121.285Y-55.245
X121.285Y-60.325
X121.285Y-67.945
X121.285Y-70.485
X121.285Y-73.025
X121.285Y-75.565
X121.285Y-79.375
X121.285Y-83.185
X132.08Y-79.375
X132.6Y-77.38
T3
X105.41Y-17.145
X105.41Y-93.345
X107.315Y-37.465
X111.76Y-19.642
X126.359Y-50.147
X140.335Y-17.145
X140.335Y-93.345
T4
X107.95Y-40.64
X107.95Y-43.18
X107.95Y-45.72
X107.95Y-48.26
X107.95Y-50.8
X107.95Y-53.34
X107.95Y-55.88
X107.95Y-58.42
X107.95Y-60.96
X107.95Y-63.5
X107.95Y-66.04
X107.95Y-68.58
X107.95Y-71.12
X107.95Y-73.66
X107.95Y-76.2
X107.95Y-78.74
X107.95Y-81.28
X107.95Y-83.82
X107.95Y-86.36
X107.95Y-88.9
X110.49Y-40.64
X110.49Y-43.18
X110.49Y-45.72
X110.49Y-48.26
X110.49Y-50.8
X110.49Y-53.34
X110.49Y-55.88
X110.49Y-58.42
X110.49Y-60.96
X110.49Y-63.5
X110.49Y-66.04
X110.49Y-68.58
X110.49Y-71.12
X110.49Y-73.66
X110.49Y-76.2
X110.49Y-78.74
X110.49Y-81.28
X110.49Y-83.82
X110.49Y-86.36
X110.49Y-88.9
X116.84Y-26.035
X130.175Y-36.83
X137.795Y-37.465
T5
X118.11Y-42.545
X118.11Y-45.085
X118.11Y-47.625
X118.11Y-50.165
X118.11Y-52.705
X118.11Y-55.245
X118.11Y-57.785
X118.11Y-60.325
X118.11Y-62.865
X118.11Y-65.405
X118.11Y-67.945
X118.11Y-70.485
X118.11Y-73.025
X118.11Y-75.565
X118.11Y-78.105
X118.11Y-80.645
X118.11Y-83.185
X118.11Y-85.725
X118.11Y-88.265
X118.11Y-90.805
X124.46Y-42.775
X127.0Y-42.775
X129.54Y-42.775
X135.89Y-42.545
X135.89Y-45.085
X135.89Y-47.625
X135.89Y-50.165
X135.89Y-52.705
X135.89Y-55.245
X135.89Y-57.785
X135.89Y-60.325
X135.89Y-62.865
X135.89Y-65.405
X135.89Y-67.945
X135.89Y-70.485
X135.89Y-73.025
X135.89Y-75.565
X135.89Y-78.105
X135.89Y-80.645
X135.89Y-83.185
X135.89Y-85.725
X135.89Y-88.265
X135.89Y-90.805
T6
X128.302Y-25.4
X128.302Y-30.48
T2
X107.44Y-18.08G85X107.44Y-17.48
G05
X107.44Y-22.51G85X107.44Y-21.41
G05
X116.08Y-18.08G85X116.08Y-17.48
G05
X116.08Y-22.51G85X116.08Y-21.41
G05
T0
M30
