%FSLAX45Y45*%
G04 Gerber Fmt 4.5, Leading zero omitted, Abs format (unit mm)*
G04 Created by KiCad (PCBNEW (6.0.4)) date 2022-03-30 16:46:37*
%MOMM*%
%LPD*%
G01*
G04 APERTURE LIST*
%TA.AperFunction,Profile*%
%ADD10C,0.200000*%
%TD*%
%ADD11C,0.200000*%
%ADD12C,0.040000*%
%ADD13C,0.065000*%
%ADD14C,0.080000*%
%ADD15C,0.100000*%
%ADD16C,0.102000*%
%ADD17C,0.140000*%
G04 APERTURE END LIST*
D10*
X10350500Y-1492250D02*
X14224000Y-1492250D01*
X14224000Y-1492250D02*
X14224000Y-9493250D01*
X14224000Y-9493250D02*
X10350500Y-9493250D01*
X10350500Y-9493250D02*
X10350500Y-1492250D01*
D11*
D12*
X11537000Y-2393000D02*
X11577000Y-2433000D01*
X11577000Y-2393000D02*
X11537000Y-2433000D01*
X12108500Y-4488500D02*
X12148500Y-4528500D01*
X12148500Y-4488500D02*
X12108500Y-4528500D01*
X12108500Y-5250500D02*
X12148500Y-5290500D01*
X12148500Y-5250500D02*
X12108500Y-5290500D01*
X12108500Y-5504500D02*
X12148500Y-5544500D01*
X12148500Y-5504500D02*
X12108500Y-5544500D01*
X12108500Y-6012500D02*
X12148500Y-6052500D01*
X12148500Y-6012500D02*
X12108500Y-6052500D01*
X12108500Y-6774500D02*
X12148500Y-6814500D01*
X12148500Y-6774500D02*
X12108500Y-6814500D01*
X12108500Y-7028500D02*
X12148500Y-7068500D01*
X12148500Y-7028500D02*
X12108500Y-7068500D01*
X12108500Y-7282500D02*
X12148500Y-7322500D01*
X12148500Y-7282500D02*
X12108500Y-7322500D01*
X12108500Y-7536500D02*
X12148500Y-7576500D01*
X12148500Y-7536500D02*
X12108500Y-7576500D01*
X12108500Y-7917500D02*
X12148500Y-7957500D01*
X12148500Y-7917500D02*
X12108500Y-7957500D01*
X12108500Y-8298500D02*
X12148500Y-8338500D01*
X12148500Y-8298500D02*
X12108500Y-8338500D01*
X13188000Y-7917500D02*
X13228000Y-7957500D01*
X13228000Y-7917500D02*
X13188000Y-7957500D01*
X13240050Y-7718050D02*
X13280050Y-7758050D01*
X13280050Y-7718050D02*
X13240050Y-7758050D01*
D13*
X10776500Y-1778000D02*
G75*
G03*
X10776500Y-1778000I-32500J0D01*
G01*
D11*
X10766500Y-1808000D02*
X10766500Y-1748000D01*
X10721500Y-1808000D02*
X10721500Y-1748000D01*
X10766500Y-1748000D02*
G75*
G03*
X10721500Y-1748000I-22500J0D01*
G01*
X10721500Y-1808000D02*
G75*
G03*
X10766500Y-1808000I22500J0D01*
G01*
D13*
X10776500Y-2196000D02*
G75*
G03*
X10776500Y-2196000I-32500J0D01*
G01*
D11*
X10766500Y-2251000D02*
X10766500Y-2141000D01*
X10721500Y-2251000D02*
X10721500Y-2141000D01*
X10766500Y-2141000D02*
G75*
G03*
X10721500Y-2141000I-22500J0D01*
G01*
X10721500Y-2251000D02*
G75*
G03*
X10766500Y-2251000I22500J0D01*
G01*
D13*
X11640500Y-1778000D02*
G75*
G03*
X11640500Y-1778000I-32500J0D01*
G01*
D11*
X11630500Y-1808000D02*
X11630500Y-1748000D01*
X11585500Y-1808000D02*
X11585500Y-1748000D01*
X11630500Y-1748000D02*
G75*
G03*
X11585500Y-1748000I-22500J0D01*
G01*
X11585500Y-1808000D02*
G75*
G03*
X11630500Y-1808000I22500J0D01*
G01*
D13*
X11640500Y-2196000D02*
G75*
G03*
X11640500Y-2196000I-32500J0D01*
G01*
D11*
X11630500Y-2251000D02*
X11630500Y-2141000D01*
X11585500Y-2251000D02*
X11585500Y-2141000D01*
X11630500Y-2141000D02*
G75*
G03*
X11585500Y-2141000I-22500J0D01*
G01*
X11585500Y-2251000D02*
G75*
G03*
X11630500Y-2251000I22500J0D01*
G01*
D14*
X10541000Y-1674500D02*
X10541000Y-1754500D01*
X10501000Y-1714500D02*
X10581000Y-1714500D01*
X10541000Y-9294500D02*
X10541000Y-9374500D01*
X10501000Y-9334500D02*
X10581000Y-9334500D01*
X10731500Y-3706500D02*
X10731500Y-3786500D01*
X10691500Y-3746500D02*
X10771500Y-3746500D01*
X11176000Y-1924250D02*
X11176000Y-2004250D01*
X11136000Y-1964250D02*
X11216000Y-1964250D01*
X12635902Y-4974735D02*
X12635902Y-5054735D01*
X12595902Y-5014735D02*
X12675902Y-5014735D01*
X14033500Y-1674500D02*
X14033500Y-1754500D01*
X13993500Y-1714500D02*
X14073500Y-1714500D01*
X14033500Y-9294500D02*
X14033500Y-9374500D01*
X13993500Y-9334500D02*
X14073500Y-9334500D01*
D15*
X10830356Y-4099356D02*
X10830356Y-4028644D01*
X10759644Y-4028644D01*
X10759644Y-4099356D01*
X10830356Y-4099356D01*
X10830356Y-4353356D02*
X10830356Y-4282644D01*
X10759644Y-4282644D01*
X10759644Y-4353356D01*
X10830356Y-4353356D01*
X10830356Y-4607356D02*
X10830356Y-4536644D01*
X10759644Y-4536644D01*
X10759644Y-4607356D01*
X10830356Y-4607356D01*
X10830356Y-4861356D02*
X10830356Y-4790644D01*
X10759644Y-4790644D01*
X10759644Y-4861356D01*
X10830356Y-4861356D01*
X10830356Y-5115356D02*
X10830356Y-5044644D01*
X10759644Y-5044644D01*
X10759644Y-5115356D01*
X10830356Y-5115356D01*
X10830356Y-5369356D02*
X10830356Y-5298644D01*
X10759644Y-5298644D01*
X10759644Y-5369356D01*
X10830356Y-5369356D01*
X10830356Y-5623356D02*
X10830356Y-5552644D01*
X10759644Y-5552644D01*
X10759644Y-5623356D01*
X10830356Y-5623356D01*
X10830356Y-5877356D02*
X10830356Y-5806644D01*
X10759644Y-5806644D01*
X10759644Y-5877356D01*
X10830356Y-5877356D01*
X10830356Y-6131356D02*
X10830356Y-6060644D01*
X10759644Y-6060644D01*
X10759644Y-6131356D01*
X10830356Y-6131356D01*
X10830356Y-6385356D02*
X10830356Y-6314644D01*
X10759644Y-6314644D01*
X10759644Y-6385356D01*
X10830356Y-6385356D01*
X10830356Y-6639356D02*
X10830356Y-6568644D01*
X10759644Y-6568644D01*
X10759644Y-6639356D01*
X10830356Y-6639356D01*
X10830356Y-6893356D02*
X10830356Y-6822644D01*
X10759644Y-6822644D01*
X10759644Y-6893356D01*
X10830356Y-6893356D01*
X10830356Y-7147356D02*
X10830356Y-7076644D01*
X10759644Y-7076644D01*
X10759644Y-7147356D01*
X10830356Y-7147356D01*
X10830356Y-7401356D02*
X10830356Y-7330644D01*
X10759644Y-7330644D01*
X10759644Y-7401356D01*
X10830356Y-7401356D01*
X10830356Y-7655356D02*
X10830356Y-7584644D01*
X10759644Y-7584644D01*
X10759644Y-7655356D01*
X10830356Y-7655356D01*
X10830356Y-7909356D02*
X10830356Y-7838644D01*
X10759644Y-7838644D01*
X10759644Y-7909356D01*
X10830356Y-7909356D01*
X10830356Y-8163356D02*
X10830356Y-8092644D01*
X10759644Y-8092644D01*
X10759644Y-8163356D01*
X10830356Y-8163356D01*
X10830356Y-8417356D02*
X10830356Y-8346644D01*
X10759644Y-8346644D01*
X10759644Y-8417356D01*
X10830356Y-8417356D01*
X10830356Y-8671356D02*
X10830356Y-8600644D01*
X10759644Y-8600644D01*
X10759644Y-8671356D01*
X10830356Y-8671356D01*
X10830356Y-8925356D02*
X10830356Y-8854644D01*
X10759644Y-8854644D01*
X10759644Y-8925356D01*
X10830356Y-8925356D01*
X11084356Y-4099356D02*
X11084356Y-4028644D01*
X11013644Y-4028644D01*
X11013644Y-4099356D01*
X11084356Y-4099356D01*
X11084356Y-4353356D02*
X11084356Y-4282644D01*
X11013644Y-4282644D01*
X11013644Y-4353356D01*
X11084356Y-4353356D01*
X11084356Y-4607356D02*
X11084356Y-4536644D01*
X11013644Y-4536644D01*
X11013644Y-4607356D01*
X11084356Y-4607356D01*
X11084356Y-4861356D02*
X11084356Y-4790644D01*
X11013644Y-4790644D01*
X11013644Y-4861356D01*
X11084356Y-4861356D01*
X11084356Y-5115356D02*
X11084356Y-5044644D01*
X11013644Y-5044644D01*
X11013644Y-5115356D01*
X11084356Y-5115356D01*
X11084356Y-5369356D02*
X11084356Y-5298644D01*
X11013644Y-5298644D01*
X11013644Y-5369356D01*
X11084356Y-5369356D01*
X11084356Y-5623356D02*
X11084356Y-5552644D01*
X11013644Y-5552644D01*
X11013644Y-5623356D01*
X11084356Y-5623356D01*
X11084356Y-5877356D02*
X11084356Y-5806644D01*
X11013644Y-5806644D01*
X11013644Y-5877356D01*
X11084356Y-5877356D01*
X11084356Y-6131356D02*
X11084356Y-6060644D01*
X11013644Y-6060644D01*
X11013644Y-6131356D01*
X11084356Y-6131356D01*
X11084356Y-6385356D02*
X11084356Y-6314644D01*
X11013644Y-6314644D01*
X11013644Y-6385356D01*
X11084356Y-6385356D01*
X11084356Y-6639356D02*
X11084356Y-6568644D01*
X11013644Y-6568644D01*
X11013644Y-6639356D01*
X11084356Y-6639356D01*
X11084356Y-6893356D02*
X11084356Y-6822644D01*
X11013644Y-6822644D01*
X11013644Y-6893356D01*
X11084356Y-6893356D01*
X11084356Y-7147356D02*
X11084356Y-7076644D01*
X11013644Y-7076644D01*
X11013644Y-7147356D01*
X11084356Y-7147356D01*
X11084356Y-7401356D02*
X11084356Y-7330644D01*
X11013644Y-7330644D01*
X11013644Y-7401356D01*
X11084356Y-7401356D01*
X11084356Y-7655356D02*
X11084356Y-7584644D01*
X11013644Y-7584644D01*
X11013644Y-7655356D01*
X11084356Y-7655356D01*
X11084356Y-7909356D02*
X11084356Y-7838644D01*
X11013644Y-7838644D01*
X11013644Y-7909356D01*
X11084356Y-7909356D01*
X11084356Y-8163356D02*
X11084356Y-8092644D01*
X11013644Y-8092644D01*
X11013644Y-8163356D01*
X11084356Y-8163356D01*
X11084356Y-8417356D02*
X11084356Y-8346644D01*
X11013644Y-8346644D01*
X11013644Y-8417356D01*
X11084356Y-8417356D01*
X11084356Y-8671356D02*
X11084356Y-8600644D01*
X11013644Y-8600644D01*
X11013644Y-8671356D01*
X11084356Y-8671356D01*
X11084356Y-8925356D02*
X11084356Y-8854644D01*
X11013644Y-8854644D01*
X11013644Y-8925356D01*
X11084356Y-8925356D01*
X11719356Y-2638856D02*
X11719356Y-2568144D01*
X11648644Y-2568144D01*
X11648644Y-2638856D01*
X11719356Y-2638856D01*
X13052856Y-3718356D02*
X13052856Y-3647644D01*
X12982144Y-3647644D01*
X12982144Y-3718356D01*
X13052856Y-3718356D01*
X13814856Y-3781856D02*
X13814856Y-3711144D01*
X13744144Y-3711144D01*
X13744144Y-3781856D01*
X13814856Y-3781856D01*
D16*
X11811000Y-4305500D02*
X11862000Y-4254500D01*
X11811000Y-4203500D01*
X11760000Y-4254500D01*
X11811000Y-4305500D01*
X11811000Y-4559500D02*
X11862000Y-4508500D01*
X11811000Y-4457500D01*
X11760000Y-4508500D01*
X11811000Y-4559500D01*
X11811000Y-4813500D02*
X11862000Y-4762500D01*
X11811000Y-4711500D01*
X11760000Y-4762500D01*
X11811000Y-4813500D01*
X11811000Y-5067500D02*
X11862000Y-5016500D01*
X11811000Y-4965500D01*
X11760000Y-5016500D01*
X11811000Y-5067500D01*
X11811000Y-5321500D02*
X11862000Y-5270500D01*
X11811000Y-5219500D01*
X11760000Y-5270500D01*
X11811000Y-5321500D01*
X11811000Y-5575500D02*
X11862000Y-5524500D01*
X11811000Y-5473500D01*
X11760000Y-5524500D01*
X11811000Y-5575500D01*
X11811000Y-5829500D02*
X11862000Y-5778500D01*
X11811000Y-5727500D01*
X11760000Y-5778500D01*
X11811000Y-5829500D01*
X11811000Y-6083500D02*
X11862000Y-6032500D01*
X11811000Y-5981500D01*
X11760000Y-6032500D01*
X11811000Y-6083500D01*
X11811000Y-6337500D02*
X11862000Y-6286500D01*
X11811000Y-6235500D01*
X11760000Y-6286500D01*
X11811000Y-6337500D01*
X11811000Y-6591500D02*
X11862000Y-6540500D01*
X11811000Y-6489500D01*
X11760000Y-6540500D01*
X11811000Y-6591500D01*
X11811000Y-6845500D02*
X11862000Y-6794500D01*
X11811000Y-6743500D01*
X11760000Y-6794500D01*
X11811000Y-6845500D01*
X11811000Y-7099500D02*
X11862000Y-7048500D01*
X11811000Y-6997500D01*
X11760000Y-7048500D01*
X11811000Y-7099500D01*
X11811000Y-7353500D02*
X11862000Y-7302500D01*
X11811000Y-7251500D01*
X11760000Y-7302500D01*
X11811000Y-7353500D01*
X11811000Y-7607500D02*
X11862000Y-7556500D01*
X11811000Y-7505500D01*
X11760000Y-7556500D01*
X11811000Y-7607500D01*
X11811000Y-7861500D02*
X11862000Y-7810500D01*
X11811000Y-7759500D01*
X11760000Y-7810500D01*
X11811000Y-7861500D01*
X11811000Y-8115500D02*
X11862000Y-8064500D01*
X11811000Y-8013500D01*
X11760000Y-8064500D01*
X11811000Y-8115500D01*
X11811000Y-8369500D02*
X11862000Y-8318500D01*
X11811000Y-8267500D01*
X11760000Y-8318500D01*
X11811000Y-8369500D01*
X11811000Y-8623500D02*
X11862000Y-8572500D01*
X11811000Y-8521500D01*
X11760000Y-8572500D01*
X11811000Y-8623500D01*
X11811000Y-8877500D02*
X11862000Y-8826500D01*
X11811000Y-8775500D01*
X11760000Y-8826500D01*
X11811000Y-8877500D01*
X11811000Y-9131500D02*
X11862000Y-9080500D01*
X11811000Y-9029500D01*
X11760000Y-9080500D01*
X11811000Y-9131500D01*
X12446000Y-4328500D02*
X12497000Y-4277500D01*
X12446000Y-4226500D01*
X12395000Y-4277500D01*
X12446000Y-4328500D01*
X12700000Y-4328500D02*
X12751000Y-4277500D01*
X12700000Y-4226500D01*
X12649000Y-4277500D01*
X12700000Y-4328500D01*
X12954000Y-4328500D02*
X13005000Y-4277500D01*
X12954000Y-4226500D01*
X12903000Y-4277500D01*
X12954000Y-4328500D01*
X13589000Y-4305500D02*
X13640000Y-4254500D01*
X13589000Y-4203500D01*
X13538000Y-4254500D01*
X13589000Y-4305500D01*
X13589000Y-4559500D02*
X13640000Y-4508500D01*
X13589000Y-4457500D01*
X13538000Y-4508500D01*
X13589000Y-4559500D01*
X13589000Y-4813500D02*
X13640000Y-4762500D01*
X13589000Y-4711500D01*
X13538000Y-4762500D01*
X13589000Y-4813500D01*
X13589000Y-5067500D02*
X13640000Y-5016500D01*
X13589000Y-4965500D01*
X13538000Y-5016500D01*
X13589000Y-5067500D01*
X13589000Y-5321500D02*
X13640000Y-5270500D01*
X13589000Y-5219500D01*
X13538000Y-5270500D01*
X13589000Y-5321500D01*
X13589000Y-5575500D02*
X13640000Y-5524500D01*
X13589000Y-5473500D01*
X13538000Y-5524500D01*
X13589000Y-5575500D01*
X13589000Y-5829500D02*
X13640000Y-5778500D01*
X13589000Y-5727500D01*
X13538000Y-5778500D01*
X13589000Y-5829500D01*
X13589000Y-6083500D02*
X13640000Y-6032500D01*
X13589000Y-5981500D01*
X13538000Y-6032500D01*
X13589000Y-6083500D01*
X13589000Y-6337500D02*
X13640000Y-6286500D01*
X13589000Y-6235500D01*
X13538000Y-6286500D01*
X13589000Y-6337500D01*
X13589000Y-6591500D02*
X13640000Y-6540500D01*
X13589000Y-6489500D01*
X13538000Y-6540500D01*
X13589000Y-6591500D01*
X13589000Y-6845500D02*
X13640000Y-6794500D01*
X13589000Y-6743500D01*
X13538000Y-6794500D01*
X13589000Y-6845500D01*
X13589000Y-7099500D02*
X13640000Y-7048500D01*
X13589000Y-6997500D01*
X13538000Y-7048500D01*
X13589000Y-7099500D01*
X13589000Y-7353500D02*
X13640000Y-7302500D01*
X13589000Y-7251500D01*
X13538000Y-7302500D01*
X13589000Y-7353500D01*
X13589000Y-7607500D02*
X13640000Y-7556500D01*
X13589000Y-7505500D01*
X13538000Y-7556500D01*
X13589000Y-7607500D01*
X13589000Y-7861500D02*
X13640000Y-7810500D01*
X13589000Y-7759500D01*
X13538000Y-7810500D01*
X13589000Y-7861500D01*
X13589000Y-8115500D02*
X13640000Y-8064500D01*
X13589000Y-8013500D01*
X13538000Y-8064500D01*
X13589000Y-8115500D01*
X13589000Y-8369500D02*
X13640000Y-8318500D01*
X13589000Y-8267500D01*
X13538000Y-8318500D01*
X13589000Y-8369500D01*
X13589000Y-8623500D02*
X13640000Y-8572500D01*
X13589000Y-8521500D01*
X13538000Y-8572500D01*
X13589000Y-8623500D01*
X13589000Y-8877500D02*
X13640000Y-8826500D01*
X13589000Y-8775500D01*
X13538000Y-8826500D01*
X13589000Y-8877500D01*
X13589000Y-9131500D02*
X13640000Y-9080500D01*
X13589000Y-9029500D01*
X13538000Y-9080500D01*
X13589000Y-9131500D01*
D17*
X12760250Y-2470000D02*
X12900250Y-2610000D01*
X12900250Y-2470000D02*
X12760250Y-2610000D01*
X12900250Y-2540000D02*
G75*
G03*
X12900250Y-2540000I-70000J0D01*
G01*
X12760250Y-2978000D02*
X12900250Y-3118000D01*
X12900250Y-2978000D02*
X12760250Y-3118000D01*
X12900250Y-3048000D02*
G75*
G03*
X12900250Y-3048000I-70000J0D01*
G01*
D11*
X10598119Y-9813726D02*
X10598119Y-9613726D01*
X10645738Y-9613726D01*
X10674310Y-9623250D01*
X10693357Y-9642298D01*
X10702881Y-9661345D01*
X10712405Y-9699440D01*
X10712405Y-9728012D01*
X10702881Y-9766107D01*
X10693357Y-9785155D01*
X10674310Y-9804202D01*
X10645738Y-9813726D01*
X10598119Y-9813726D01*
X10798119Y-9813726D02*
X10798119Y-9680393D01*
X10798119Y-9718488D02*
X10807643Y-9699440D01*
X10817167Y-9689917D01*
X10836214Y-9680393D01*
X10855262Y-9680393D01*
X10921929Y-9813726D02*
X10921929Y-9680393D01*
X10921929Y-9613726D02*
X10912405Y-9623250D01*
X10921929Y-9632774D01*
X10931452Y-9623250D01*
X10921929Y-9613726D01*
X10921929Y-9632774D01*
X11045738Y-9813726D02*
X11026690Y-9804202D01*
X11017167Y-9785155D01*
X11017167Y-9613726D01*
X11150500Y-9813726D02*
X11131452Y-9804202D01*
X11121929Y-9785155D01*
X11121929Y-9613726D01*
X11379071Y-9813726D02*
X11379071Y-9613726D01*
X11445738Y-9756583D01*
X11512405Y-9613726D01*
X11512405Y-9813726D01*
X11693357Y-9813726D02*
X11693357Y-9708964D01*
X11683833Y-9689917D01*
X11664786Y-9680393D01*
X11626690Y-9680393D01*
X11607643Y-9689917D01*
X11693357Y-9804202D02*
X11674309Y-9813726D01*
X11626690Y-9813726D01*
X11607643Y-9804202D01*
X11598119Y-9785155D01*
X11598119Y-9766107D01*
X11607643Y-9747060D01*
X11626690Y-9737536D01*
X11674309Y-9737536D01*
X11693357Y-9728012D01*
X11788595Y-9680393D02*
X11788595Y-9880393D01*
X11788595Y-9689917D02*
X11807643Y-9680393D01*
X11845738Y-9680393D01*
X11864786Y-9689917D01*
X11874309Y-9699440D01*
X11883833Y-9718488D01*
X11883833Y-9775631D01*
X11874309Y-9794679D01*
X11864786Y-9804202D01*
X11845738Y-9813726D01*
X11807643Y-9813726D01*
X11788595Y-9804202D01*
X11969548Y-9794679D02*
X11979071Y-9804202D01*
X11969548Y-9813726D01*
X11960024Y-9804202D01*
X11969548Y-9794679D01*
X11969548Y-9813726D01*
X11969548Y-9689917D02*
X11979071Y-9699440D01*
X11969548Y-9708964D01*
X11960024Y-9699440D01*
X11969548Y-9689917D01*
X11969548Y-9708964D01*
D12*
X10300500Y-10123250D02*
X10340500Y-10163250D01*
X10340500Y-10123250D02*
X10300500Y-10163250D01*
D11*
X10636214Y-10033726D02*
X10655262Y-10033726D01*
X10674310Y-10043250D01*
X10683833Y-10052774D01*
X10693357Y-10071821D01*
X10702881Y-10109917D01*
X10702881Y-10157536D01*
X10693357Y-10195631D01*
X10683833Y-10214679D01*
X10674310Y-10224202D01*
X10655262Y-10233726D01*
X10636214Y-10233726D01*
X10617167Y-10224202D01*
X10607643Y-10214679D01*
X10598119Y-10195631D01*
X10588595Y-10157536D01*
X10588595Y-10109917D01*
X10598119Y-10071821D01*
X10607643Y-10052774D01*
X10617167Y-10043250D01*
X10636214Y-10033726D01*
X10788595Y-10214679D02*
X10798119Y-10224202D01*
X10788595Y-10233726D01*
X10779071Y-10224202D01*
X10788595Y-10214679D01*
X10788595Y-10233726D01*
X10969548Y-10100393D02*
X10969548Y-10233726D01*
X10921929Y-10024202D02*
X10874310Y-10167060D01*
X10998119Y-10167060D01*
X11112405Y-10033726D02*
X11131452Y-10033726D01*
X11150500Y-10043250D01*
X11160024Y-10052774D01*
X11169548Y-10071821D01*
X11179071Y-10109917D01*
X11179071Y-10157536D01*
X11169548Y-10195631D01*
X11160024Y-10214679D01*
X11150500Y-10224202D01*
X11131452Y-10233726D01*
X11112405Y-10233726D01*
X11093357Y-10224202D01*
X11083833Y-10214679D01*
X11074310Y-10195631D01*
X11064786Y-10157536D01*
X11064786Y-10109917D01*
X11074310Y-10071821D01*
X11083833Y-10052774D01*
X11093357Y-10043250D01*
X11112405Y-10033726D01*
X11302881Y-10033726D02*
X11321928Y-10033726D01*
X11340976Y-10043250D01*
X11350500Y-10052774D01*
X11360024Y-10071821D01*
X11369548Y-10109917D01*
X11369548Y-10157536D01*
X11360024Y-10195631D01*
X11350500Y-10214679D01*
X11340976Y-10224202D01*
X11321928Y-10233726D01*
X11302881Y-10233726D01*
X11283833Y-10224202D01*
X11274309Y-10214679D01*
X11264786Y-10195631D01*
X11255262Y-10157536D01*
X11255262Y-10109917D01*
X11264786Y-10071821D01*
X11274309Y-10052774D01*
X11283833Y-10043250D01*
X11302881Y-10033726D01*
X11455262Y-10233726D02*
X11455262Y-10100393D01*
X11455262Y-10119440D02*
X11464786Y-10109917D01*
X11483833Y-10100393D01*
X11512405Y-10100393D01*
X11531452Y-10109917D01*
X11540976Y-10128964D01*
X11540976Y-10233726D01*
X11540976Y-10128964D02*
X11550500Y-10109917D01*
X11569548Y-10100393D01*
X11598119Y-10100393D01*
X11617167Y-10109917D01*
X11626690Y-10128964D01*
X11626690Y-10233726D01*
X11721928Y-10233726D02*
X11721928Y-10100393D01*
X11721928Y-10119440D02*
X11731452Y-10109917D01*
X11750500Y-10100393D01*
X11779071Y-10100393D01*
X11798119Y-10109917D01*
X11807643Y-10128964D01*
X11807643Y-10233726D01*
X11807643Y-10128964D02*
X11817167Y-10109917D01*
X11836214Y-10100393D01*
X11864786Y-10100393D01*
X11883833Y-10109917D01*
X11893357Y-10128964D01*
X11893357Y-10233726D01*
X12283833Y-10024202D02*
X12112405Y-10281345D01*
X12540976Y-10033726D02*
X12560024Y-10033726D01*
X12579071Y-10043250D01*
X12588595Y-10052774D01*
X12598119Y-10071821D01*
X12607643Y-10109917D01*
X12607643Y-10157536D01*
X12598119Y-10195631D01*
X12588595Y-10214679D01*
X12579071Y-10224202D01*
X12560024Y-10233726D01*
X12540976Y-10233726D01*
X12521928Y-10224202D01*
X12512405Y-10214679D01*
X12502881Y-10195631D01*
X12493357Y-10157536D01*
X12493357Y-10109917D01*
X12502881Y-10071821D01*
X12512405Y-10052774D01*
X12521928Y-10043250D01*
X12540976Y-10033726D01*
X12693357Y-10214679D02*
X12702881Y-10224202D01*
X12693357Y-10233726D01*
X12683833Y-10224202D01*
X12693357Y-10214679D01*
X12693357Y-10233726D01*
X12826690Y-10033726D02*
X12845738Y-10033726D01*
X12864786Y-10043250D01*
X12874309Y-10052774D01*
X12883833Y-10071821D01*
X12893357Y-10109917D01*
X12893357Y-10157536D01*
X12883833Y-10195631D01*
X12874309Y-10214679D01*
X12864786Y-10224202D01*
X12845738Y-10233726D01*
X12826690Y-10233726D01*
X12807643Y-10224202D01*
X12798119Y-10214679D01*
X12788595Y-10195631D01*
X12779071Y-10157536D01*
X12779071Y-10109917D01*
X12788595Y-10071821D01*
X12798119Y-10052774D01*
X12807643Y-10043250D01*
X12826690Y-10033726D01*
X13083833Y-10233726D02*
X12969548Y-10233726D01*
X13026690Y-10233726D02*
X13026690Y-10033726D01*
X13007643Y-10062298D01*
X12988595Y-10081345D01*
X12969548Y-10090869D01*
X13264786Y-10033726D02*
X13169548Y-10033726D01*
X13160024Y-10128964D01*
X13169548Y-10119440D01*
X13188595Y-10109917D01*
X13236214Y-10109917D01*
X13255262Y-10119440D01*
X13264786Y-10128964D01*
X13274309Y-10148012D01*
X13274309Y-10195631D01*
X13264786Y-10214679D01*
X13255262Y-10224202D01*
X13236214Y-10233726D01*
X13188595Y-10233726D01*
X13169548Y-10224202D01*
X13160024Y-10214679D01*
X13340976Y-10033726D02*
X13474309Y-10033726D01*
X13388595Y-10233726D01*
X13540976Y-10033726D02*
X13540976Y-10071821D01*
X13617167Y-10033726D02*
X13617167Y-10071821D01*
X13912405Y-10309917D02*
X13902881Y-10300393D01*
X13883833Y-10271821D01*
X13874309Y-10252774D01*
X13864786Y-10224202D01*
X13855262Y-10176583D01*
X13855262Y-10138488D01*
X13864786Y-10090869D01*
X13874309Y-10062298D01*
X13883833Y-10043250D01*
X13902881Y-10014679D01*
X13912405Y-10005155D01*
X14093357Y-10233726D02*
X13979071Y-10233726D01*
X14036214Y-10233726D02*
X14036214Y-10033726D01*
X14017167Y-10062298D01*
X13998119Y-10081345D01*
X13979071Y-10090869D01*
X14160024Y-10033726D02*
X14283833Y-10033726D01*
X14217167Y-10109917D01*
X14245738Y-10109917D01*
X14264786Y-10119440D01*
X14274309Y-10128964D01*
X14283833Y-10148012D01*
X14283833Y-10195631D01*
X14274309Y-10214679D01*
X14264786Y-10224202D01*
X14245738Y-10233726D01*
X14188595Y-10233726D01*
X14169548Y-10224202D01*
X14160024Y-10214679D01*
X14521928Y-10233726D02*
X14521928Y-10033726D01*
X14607643Y-10233726D02*
X14607643Y-10128964D01*
X14598119Y-10109917D01*
X14579071Y-10100393D01*
X14550500Y-10100393D01*
X14531452Y-10109917D01*
X14521928Y-10119440D01*
X14731452Y-10233726D02*
X14712405Y-10224202D01*
X14702881Y-10214679D01*
X14693357Y-10195631D01*
X14693357Y-10138488D01*
X14702881Y-10119440D01*
X14712405Y-10109917D01*
X14731452Y-10100393D01*
X14760024Y-10100393D01*
X14779071Y-10109917D01*
X14788595Y-10119440D01*
X14798119Y-10138488D01*
X14798119Y-10195631D01*
X14788595Y-10214679D01*
X14779071Y-10224202D01*
X14760024Y-10233726D01*
X14731452Y-10233726D01*
X14912405Y-10233726D02*
X14893357Y-10224202D01*
X14883833Y-10205155D01*
X14883833Y-10033726D01*
X15064786Y-10224202D02*
X15045738Y-10233726D01*
X15007643Y-10233726D01*
X14988595Y-10224202D01*
X14979071Y-10205155D01*
X14979071Y-10128964D01*
X14988595Y-10109917D01*
X15007643Y-10100393D01*
X15045738Y-10100393D01*
X15064786Y-10109917D01*
X15074309Y-10128964D01*
X15074309Y-10148012D01*
X14979071Y-10167060D01*
X15150500Y-10224202D02*
X15169548Y-10233726D01*
X15207643Y-10233726D01*
X15226690Y-10224202D01*
X15236214Y-10205155D01*
X15236214Y-10195631D01*
X15226690Y-10176583D01*
X15207643Y-10167060D01*
X15179071Y-10167060D01*
X15160024Y-10157536D01*
X15150500Y-10138488D01*
X15150500Y-10128964D01*
X15160024Y-10109917D01*
X15179071Y-10100393D01*
X15207643Y-10100393D01*
X15226690Y-10109917D01*
X15302881Y-10309917D02*
X15312405Y-10300393D01*
X15331452Y-10271821D01*
X15340976Y-10252774D01*
X15350500Y-10224202D01*
X15360024Y-10176583D01*
X15360024Y-10138488D01*
X15350500Y-10090869D01*
X15340976Y-10062298D01*
X15331452Y-10043250D01*
X15312405Y-10014679D01*
X15302881Y-10005155D01*
D13*
X10340500Y-10407250D02*
G75*
G03*
X10340500Y-10407250I-32500J0D01*
G01*
D11*
X10636214Y-10297726D02*
X10655262Y-10297726D01*
X10674310Y-10307250D01*
X10683833Y-10316774D01*
X10693357Y-10335821D01*
X10702881Y-10373917D01*
X10702881Y-10421536D01*
X10693357Y-10459631D01*
X10683833Y-10478679D01*
X10674310Y-10488202D01*
X10655262Y-10497726D01*
X10636214Y-10497726D01*
X10617167Y-10488202D01*
X10607643Y-10478679D01*
X10598119Y-10459631D01*
X10588595Y-10421536D01*
X10588595Y-10373917D01*
X10598119Y-10335821D01*
X10607643Y-10316774D01*
X10617167Y-10307250D01*
X10636214Y-10297726D01*
X10788595Y-10478679D02*
X10798119Y-10488202D01*
X10788595Y-10497726D01*
X10779071Y-10488202D01*
X10788595Y-10478679D01*
X10788595Y-10497726D01*
X10969548Y-10297726D02*
X10931452Y-10297726D01*
X10912405Y-10307250D01*
X10902881Y-10316774D01*
X10883833Y-10345345D01*
X10874310Y-10383440D01*
X10874310Y-10459631D01*
X10883833Y-10478679D01*
X10893357Y-10488202D01*
X10912405Y-10497726D01*
X10950500Y-10497726D01*
X10969548Y-10488202D01*
X10979071Y-10478679D01*
X10988595Y-10459631D01*
X10988595Y-10412012D01*
X10979071Y-10392964D01*
X10969548Y-10383440D01*
X10950500Y-10373917D01*
X10912405Y-10373917D01*
X10893357Y-10383440D01*
X10883833Y-10392964D01*
X10874310Y-10412012D01*
X11169548Y-10297726D02*
X11074310Y-10297726D01*
X11064786Y-10392964D01*
X11074310Y-10383440D01*
X11093357Y-10373917D01*
X11140976Y-10373917D01*
X11160024Y-10383440D01*
X11169548Y-10392964D01*
X11179071Y-10412012D01*
X11179071Y-10459631D01*
X11169548Y-10478679D01*
X11160024Y-10488202D01*
X11140976Y-10497726D01*
X11093357Y-10497726D01*
X11074310Y-10488202D01*
X11064786Y-10478679D01*
X11302881Y-10297726D02*
X11321928Y-10297726D01*
X11340976Y-10307250D01*
X11350500Y-10316774D01*
X11360024Y-10335821D01*
X11369548Y-10373917D01*
X11369548Y-10421536D01*
X11360024Y-10459631D01*
X11350500Y-10478679D01*
X11340976Y-10488202D01*
X11321928Y-10497726D01*
X11302881Y-10497726D01*
X11283833Y-10488202D01*
X11274309Y-10478679D01*
X11264786Y-10459631D01*
X11255262Y-10421536D01*
X11255262Y-10373917D01*
X11264786Y-10335821D01*
X11274309Y-10316774D01*
X11283833Y-10307250D01*
X11302881Y-10297726D01*
X11455262Y-10497726D02*
X11455262Y-10364393D01*
X11455262Y-10383440D02*
X11464786Y-10373917D01*
X11483833Y-10364393D01*
X11512405Y-10364393D01*
X11531452Y-10373917D01*
X11540976Y-10392964D01*
X11540976Y-10497726D01*
X11540976Y-10392964D02*
X11550500Y-10373917D01*
X11569548Y-10364393D01*
X11598119Y-10364393D01*
X11617167Y-10373917D01*
X11626690Y-10392964D01*
X11626690Y-10497726D01*
X11721928Y-10497726D02*
X11721928Y-10364393D01*
X11721928Y-10383440D02*
X11731452Y-10373917D01*
X11750500Y-10364393D01*
X11779071Y-10364393D01*
X11798119Y-10373917D01*
X11807643Y-10392964D01*
X11807643Y-10497726D01*
X11807643Y-10392964D02*
X11817167Y-10373917D01*
X11836214Y-10364393D01*
X11864786Y-10364393D01*
X11883833Y-10373917D01*
X11893357Y-10392964D01*
X11893357Y-10497726D01*
X12283833Y-10288202D02*
X12112405Y-10545345D01*
X12540976Y-10297726D02*
X12560024Y-10297726D01*
X12579071Y-10307250D01*
X12588595Y-10316774D01*
X12598119Y-10335821D01*
X12607643Y-10373917D01*
X12607643Y-10421536D01*
X12598119Y-10459631D01*
X12588595Y-10478679D01*
X12579071Y-10488202D01*
X12560024Y-10497726D01*
X12540976Y-10497726D01*
X12521928Y-10488202D01*
X12512405Y-10478679D01*
X12502881Y-10459631D01*
X12493357Y-10421536D01*
X12493357Y-10373917D01*
X12502881Y-10335821D01*
X12512405Y-10316774D01*
X12521928Y-10307250D01*
X12540976Y-10297726D01*
X12693357Y-10478679D02*
X12702881Y-10488202D01*
X12693357Y-10497726D01*
X12683833Y-10488202D01*
X12693357Y-10478679D01*
X12693357Y-10497726D01*
X12826690Y-10297726D02*
X12845738Y-10297726D01*
X12864786Y-10307250D01*
X12874309Y-10316774D01*
X12883833Y-10335821D01*
X12893357Y-10373917D01*
X12893357Y-10421536D01*
X12883833Y-10459631D01*
X12874309Y-10478679D01*
X12864786Y-10488202D01*
X12845738Y-10497726D01*
X12826690Y-10497726D01*
X12807643Y-10488202D01*
X12798119Y-10478679D01*
X12788595Y-10459631D01*
X12779071Y-10421536D01*
X12779071Y-10373917D01*
X12788595Y-10335821D01*
X12798119Y-10316774D01*
X12807643Y-10307250D01*
X12826690Y-10297726D01*
X12969548Y-10316774D02*
X12979071Y-10307250D01*
X12998119Y-10297726D01*
X13045738Y-10297726D01*
X13064786Y-10307250D01*
X13074309Y-10316774D01*
X13083833Y-10335821D01*
X13083833Y-10354869D01*
X13074309Y-10383440D01*
X12960024Y-10497726D01*
X13083833Y-10497726D01*
X13264786Y-10297726D02*
X13169548Y-10297726D01*
X13160024Y-10392964D01*
X13169548Y-10383440D01*
X13188595Y-10373917D01*
X13236214Y-10373917D01*
X13255262Y-10383440D01*
X13264786Y-10392964D01*
X13274309Y-10412012D01*
X13274309Y-10459631D01*
X13264786Y-10478679D01*
X13255262Y-10488202D01*
X13236214Y-10497726D01*
X13188595Y-10497726D01*
X13169548Y-10488202D01*
X13160024Y-10478679D01*
X13445738Y-10297726D02*
X13407643Y-10297726D01*
X13388595Y-10307250D01*
X13379071Y-10316774D01*
X13360024Y-10345345D01*
X13350500Y-10383440D01*
X13350500Y-10459631D01*
X13360024Y-10478679D01*
X13369548Y-10488202D01*
X13388595Y-10497726D01*
X13426690Y-10497726D01*
X13445738Y-10488202D01*
X13455262Y-10478679D01*
X13464786Y-10459631D01*
X13464786Y-10412012D01*
X13455262Y-10392964D01*
X13445738Y-10383440D01*
X13426690Y-10373917D01*
X13388595Y-10373917D01*
X13369548Y-10383440D01*
X13360024Y-10392964D01*
X13350500Y-10412012D01*
X13540976Y-10297726D02*
X13540976Y-10335821D01*
X13617167Y-10297726D02*
X13617167Y-10335821D01*
X13912405Y-10573917D02*
X13902881Y-10564393D01*
X13883833Y-10535821D01*
X13874309Y-10516774D01*
X13864786Y-10488202D01*
X13855262Y-10440583D01*
X13855262Y-10402488D01*
X13864786Y-10354869D01*
X13874309Y-10326298D01*
X13883833Y-10307250D01*
X13902881Y-10278679D01*
X13912405Y-10269155D01*
X14026690Y-10297726D02*
X14045738Y-10297726D01*
X14064786Y-10307250D01*
X14074309Y-10316774D01*
X14083833Y-10335821D01*
X14093357Y-10373917D01*
X14093357Y-10421536D01*
X14083833Y-10459631D01*
X14074309Y-10478679D01*
X14064786Y-10488202D01*
X14045738Y-10497726D01*
X14026690Y-10497726D01*
X14007643Y-10488202D01*
X13998119Y-10478679D01*
X13988595Y-10459631D01*
X13979071Y-10421536D01*
X13979071Y-10373917D01*
X13988595Y-10335821D01*
X13998119Y-10316774D01*
X14007643Y-10307250D01*
X14026690Y-10297726D01*
X14331452Y-10497726D02*
X14331452Y-10297726D01*
X14417167Y-10497726D02*
X14417167Y-10392964D01*
X14407643Y-10373917D01*
X14388595Y-10364393D01*
X14360024Y-10364393D01*
X14340976Y-10373917D01*
X14331452Y-10383440D01*
X14540976Y-10497726D02*
X14521928Y-10488202D01*
X14512405Y-10478679D01*
X14502881Y-10459631D01*
X14502881Y-10402488D01*
X14512405Y-10383440D01*
X14521928Y-10373917D01*
X14540976Y-10364393D01*
X14569548Y-10364393D01*
X14588595Y-10373917D01*
X14598119Y-10383440D01*
X14607643Y-10402488D01*
X14607643Y-10459631D01*
X14598119Y-10478679D01*
X14588595Y-10488202D01*
X14569548Y-10497726D01*
X14540976Y-10497726D01*
X14721928Y-10497726D02*
X14702881Y-10488202D01*
X14693357Y-10469155D01*
X14693357Y-10297726D01*
X14874309Y-10488202D02*
X14855262Y-10497726D01*
X14817167Y-10497726D01*
X14798119Y-10488202D01*
X14788595Y-10469155D01*
X14788595Y-10392964D01*
X14798119Y-10373917D01*
X14817167Y-10364393D01*
X14855262Y-10364393D01*
X14874309Y-10373917D01*
X14883833Y-10392964D01*
X14883833Y-10412012D01*
X14788595Y-10431060D01*
X14960024Y-10488202D02*
X14979071Y-10497726D01*
X15017167Y-10497726D01*
X15036214Y-10488202D01*
X15045738Y-10469155D01*
X15045738Y-10459631D01*
X15036214Y-10440583D01*
X15017167Y-10431060D01*
X14988595Y-10431060D01*
X14969548Y-10421536D01*
X14960024Y-10402488D01*
X14960024Y-10392964D01*
X14969548Y-10373917D01*
X14988595Y-10364393D01*
X15017167Y-10364393D01*
X15036214Y-10373917D01*
X15283833Y-10421536D02*
X15436214Y-10421536D01*
X15360024Y-10497726D02*
X15360024Y-10345345D01*
X15769548Y-10364393D02*
X15769548Y-10497726D01*
X15721928Y-10288202D02*
X15674309Y-10431060D01*
X15798119Y-10431060D01*
X16017167Y-10488202D02*
X16036214Y-10497726D01*
X16074309Y-10497726D01*
X16093357Y-10488202D01*
X16102881Y-10469155D01*
X16102881Y-10459631D01*
X16093357Y-10440583D01*
X16074309Y-10431060D01*
X16045738Y-10431060D01*
X16026690Y-10421536D01*
X16017167Y-10402488D01*
X16017167Y-10392964D01*
X16026690Y-10373917D01*
X16045738Y-10364393D01*
X16074309Y-10364393D01*
X16093357Y-10373917D01*
X16217167Y-10497726D02*
X16198119Y-10488202D01*
X16188595Y-10469155D01*
X16188595Y-10297726D01*
X16321928Y-10497726D02*
X16302881Y-10488202D01*
X16293357Y-10478679D01*
X16283833Y-10459631D01*
X16283833Y-10402488D01*
X16293357Y-10383440D01*
X16302881Y-10373917D01*
X16321928Y-10364393D01*
X16350500Y-10364393D01*
X16369548Y-10373917D01*
X16379071Y-10383440D01*
X16388595Y-10402488D01*
X16388595Y-10459631D01*
X16379071Y-10478679D01*
X16369548Y-10488202D01*
X16350500Y-10497726D01*
X16321928Y-10497726D01*
X16445738Y-10364393D02*
X16521928Y-10364393D01*
X16474309Y-10297726D02*
X16474309Y-10469155D01*
X16483833Y-10488202D01*
X16502881Y-10497726D01*
X16521928Y-10497726D01*
X16579071Y-10488202D02*
X16598119Y-10497726D01*
X16636214Y-10497726D01*
X16655262Y-10488202D01*
X16664786Y-10469155D01*
X16664786Y-10459631D01*
X16655262Y-10440583D01*
X16636214Y-10431060D01*
X16607643Y-10431060D01*
X16588595Y-10421536D01*
X16579071Y-10402488D01*
X16579071Y-10392964D01*
X16588595Y-10373917D01*
X16607643Y-10364393D01*
X16636214Y-10364393D01*
X16655262Y-10373917D01*
X16731452Y-10573917D02*
X16740976Y-10564393D01*
X16760024Y-10535821D01*
X16769548Y-10516774D01*
X16779071Y-10488202D01*
X16788595Y-10440583D01*
X16788595Y-10402488D01*
X16779071Y-10354869D01*
X16769548Y-10326298D01*
X16760024Y-10307250D01*
X16740976Y-10278679D01*
X16731452Y-10269155D01*
D14*
X10300500Y-10631250D02*
X10300500Y-10711250D01*
X10260500Y-10671250D02*
X10340500Y-10671250D01*
D11*
X10636214Y-10561726D02*
X10655262Y-10561726D01*
X10674310Y-10571250D01*
X10683833Y-10580774D01*
X10693357Y-10599821D01*
X10702881Y-10637917D01*
X10702881Y-10685536D01*
X10693357Y-10723631D01*
X10683833Y-10742679D01*
X10674310Y-10752202D01*
X10655262Y-10761726D01*
X10636214Y-10761726D01*
X10617167Y-10752202D01*
X10607643Y-10742679D01*
X10598119Y-10723631D01*
X10588595Y-10685536D01*
X10588595Y-10637917D01*
X10598119Y-10599821D01*
X10607643Y-10580774D01*
X10617167Y-10571250D01*
X10636214Y-10561726D01*
X10788595Y-10742679D02*
X10798119Y-10752202D01*
X10788595Y-10761726D01*
X10779071Y-10752202D01*
X10788595Y-10742679D01*
X10788595Y-10761726D01*
X10912405Y-10647440D02*
X10893357Y-10637917D01*
X10883833Y-10628393D01*
X10874310Y-10609345D01*
X10874310Y-10599821D01*
X10883833Y-10580774D01*
X10893357Y-10571250D01*
X10912405Y-10561726D01*
X10950500Y-10561726D01*
X10969548Y-10571250D01*
X10979071Y-10580774D01*
X10988595Y-10599821D01*
X10988595Y-10609345D01*
X10979071Y-10628393D01*
X10969548Y-10637917D01*
X10950500Y-10647440D01*
X10912405Y-10647440D01*
X10893357Y-10656964D01*
X10883833Y-10666488D01*
X10874310Y-10685536D01*
X10874310Y-10723631D01*
X10883833Y-10742679D01*
X10893357Y-10752202D01*
X10912405Y-10761726D01*
X10950500Y-10761726D01*
X10969548Y-10752202D01*
X10979071Y-10742679D01*
X10988595Y-10723631D01*
X10988595Y-10685536D01*
X10979071Y-10666488D01*
X10969548Y-10656964D01*
X10950500Y-10647440D01*
X11112405Y-10561726D02*
X11131452Y-10561726D01*
X11150500Y-10571250D01*
X11160024Y-10580774D01*
X11169548Y-10599821D01*
X11179071Y-10637917D01*
X11179071Y-10685536D01*
X11169548Y-10723631D01*
X11160024Y-10742679D01*
X11150500Y-10752202D01*
X11131452Y-10761726D01*
X11112405Y-10761726D01*
X11093357Y-10752202D01*
X11083833Y-10742679D01*
X11074310Y-10723631D01*
X11064786Y-10685536D01*
X11064786Y-10637917D01*
X11074310Y-10599821D01*
X11083833Y-10580774D01*
X11093357Y-10571250D01*
X11112405Y-10561726D01*
X11302881Y-10561726D02*
X11321928Y-10561726D01*
X11340976Y-10571250D01*
X11350500Y-10580774D01*
X11360024Y-10599821D01*
X11369548Y-10637917D01*
X11369548Y-10685536D01*
X11360024Y-10723631D01*
X11350500Y-10742679D01*
X11340976Y-10752202D01*
X11321928Y-10761726D01*
X11302881Y-10761726D01*
X11283833Y-10752202D01*
X11274309Y-10742679D01*
X11264786Y-10723631D01*
X11255262Y-10685536D01*
X11255262Y-10637917D01*
X11264786Y-10599821D01*
X11274309Y-10580774D01*
X11283833Y-10571250D01*
X11302881Y-10561726D01*
X11455262Y-10761726D02*
X11455262Y-10628393D01*
X11455262Y-10647440D02*
X11464786Y-10637917D01*
X11483833Y-10628393D01*
X11512405Y-10628393D01*
X11531452Y-10637917D01*
X11540976Y-10656964D01*
X11540976Y-10761726D01*
X11540976Y-10656964D02*
X11550500Y-10637917D01*
X11569548Y-10628393D01*
X11598119Y-10628393D01*
X11617167Y-10637917D01*
X11626690Y-10656964D01*
X11626690Y-10761726D01*
X11721928Y-10761726D02*
X11721928Y-10628393D01*
X11721928Y-10647440D02*
X11731452Y-10637917D01*
X11750500Y-10628393D01*
X11779071Y-10628393D01*
X11798119Y-10637917D01*
X11807643Y-10656964D01*
X11807643Y-10761726D01*
X11807643Y-10656964D02*
X11817167Y-10637917D01*
X11836214Y-10628393D01*
X11864786Y-10628393D01*
X11883833Y-10637917D01*
X11893357Y-10656964D01*
X11893357Y-10761726D01*
X12283833Y-10552202D02*
X12112405Y-10809345D01*
X12540976Y-10561726D02*
X12560024Y-10561726D01*
X12579071Y-10571250D01*
X12588595Y-10580774D01*
X12598119Y-10599821D01*
X12607643Y-10637917D01*
X12607643Y-10685536D01*
X12598119Y-10723631D01*
X12588595Y-10742679D01*
X12579071Y-10752202D01*
X12560024Y-10761726D01*
X12540976Y-10761726D01*
X12521928Y-10752202D01*
X12512405Y-10742679D01*
X12502881Y-10723631D01*
X12493357Y-10685536D01*
X12493357Y-10637917D01*
X12502881Y-10599821D01*
X12512405Y-10580774D01*
X12521928Y-10571250D01*
X12540976Y-10561726D01*
X12693357Y-10742679D02*
X12702881Y-10752202D01*
X12693357Y-10761726D01*
X12683833Y-10752202D01*
X12693357Y-10742679D01*
X12693357Y-10761726D01*
X12826690Y-10561726D02*
X12845738Y-10561726D01*
X12864786Y-10571250D01*
X12874309Y-10580774D01*
X12883833Y-10599821D01*
X12893357Y-10637917D01*
X12893357Y-10685536D01*
X12883833Y-10723631D01*
X12874309Y-10742679D01*
X12864786Y-10752202D01*
X12845738Y-10761726D01*
X12826690Y-10761726D01*
X12807643Y-10752202D01*
X12798119Y-10742679D01*
X12788595Y-10723631D01*
X12779071Y-10685536D01*
X12779071Y-10637917D01*
X12788595Y-10599821D01*
X12798119Y-10580774D01*
X12807643Y-10571250D01*
X12826690Y-10561726D01*
X12960024Y-10561726D02*
X13083833Y-10561726D01*
X13017167Y-10637917D01*
X13045738Y-10637917D01*
X13064786Y-10647440D01*
X13074309Y-10656964D01*
X13083833Y-10676012D01*
X13083833Y-10723631D01*
X13074309Y-10742679D01*
X13064786Y-10752202D01*
X13045738Y-10761726D01*
X12988595Y-10761726D01*
X12969548Y-10752202D01*
X12960024Y-10742679D01*
X13274309Y-10761726D02*
X13160024Y-10761726D01*
X13217167Y-10761726D02*
X13217167Y-10561726D01*
X13198119Y-10590298D01*
X13179071Y-10609345D01*
X13160024Y-10618869D01*
X13455262Y-10561726D02*
X13360024Y-10561726D01*
X13350500Y-10656964D01*
X13360024Y-10647440D01*
X13379071Y-10637917D01*
X13426690Y-10637917D01*
X13445738Y-10647440D01*
X13455262Y-10656964D01*
X13464786Y-10676012D01*
X13464786Y-10723631D01*
X13455262Y-10742679D01*
X13445738Y-10752202D01*
X13426690Y-10761726D01*
X13379071Y-10761726D01*
X13360024Y-10752202D01*
X13350500Y-10742679D01*
X13540976Y-10561726D02*
X13540976Y-10599821D01*
X13617167Y-10561726D02*
X13617167Y-10599821D01*
X13912405Y-10837917D02*
X13902881Y-10828393D01*
X13883833Y-10799821D01*
X13874309Y-10780774D01*
X13864786Y-10752202D01*
X13855262Y-10704583D01*
X13855262Y-10666488D01*
X13864786Y-10618869D01*
X13874309Y-10590298D01*
X13883833Y-10571250D01*
X13902881Y-10542679D01*
X13912405Y-10533155D01*
X13969548Y-10561726D02*
X14102881Y-10561726D01*
X14017167Y-10761726D01*
X14331452Y-10761726D02*
X14331452Y-10561726D01*
X14417167Y-10761726D02*
X14417167Y-10656964D01*
X14407643Y-10637917D01*
X14388595Y-10628393D01*
X14360024Y-10628393D01*
X14340976Y-10637917D01*
X14331452Y-10647440D01*
X14540976Y-10761726D02*
X14521928Y-10752202D01*
X14512405Y-10742679D01*
X14502881Y-10723631D01*
X14502881Y-10666488D01*
X14512405Y-10647440D01*
X14521928Y-10637917D01*
X14540976Y-10628393D01*
X14569548Y-10628393D01*
X14588595Y-10637917D01*
X14598119Y-10647440D01*
X14607643Y-10666488D01*
X14607643Y-10723631D01*
X14598119Y-10742679D01*
X14588595Y-10752202D01*
X14569548Y-10761726D01*
X14540976Y-10761726D01*
X14721928Y-10761726D02*
X14702881Y-10752202D01*
X14693357Y-10733155D01*
X14693357Y-10561726D01*
X14874309Y-10752202D02*
X14855262Y-10761726D01*
X14817167Y-10761726D01*
X14798119Y-10752202D01*
X14788595Y-10733155D01*
X14788595Y-10656964D01*
X14798119Y-10637917D01*
X14817167Y-10628393D01*
X14855262Y-10628393D01*
X14874309Y-10637917D01*
X14883833Y-10656964D01*
X14883833Y-10676012D01*
X14788595Y-10695060D01*
X14960024Y-10752202D02*
X14979071Y-10761726D01*
X15017167Y-10761726D01*
X15036214Y-10752202D01*
X15045738Y-10733155D01*
X15045738Y-10723631D01*
X15036214Y-10704583D01*
X15017167Y-10695060D01*
X14988595Y-10695060D01*
X14969548Y-10685536D01*
X14960024Y-10666488D01*
X14960024Y-10656964D01*
X14969548Y-10637917D01*
X14988595Y-10628393D01*
X15017167Y-10628393D01*
X15036214Y-10637917D01*
X15112405Y-10837917D02*
X15121928Y-10828393D01*
X15140976Y-10799821D01*
X15150500Y-10780774D01*
X15160024Y-10752202D01*
X15169548Y-10704583D01*
X15169548Y-10666488D01*
X15160024Y-10618869D01*
X15150500Y-10590298D01*
X15140976Y-10571250D01*
X15121928Y-10542679D01*
X15112405Y-10533155D01*
D15*
X10325856Y-10970606D02*
X10325856Y-10899894D01*
X10255144Y-10899894D01*
X10255144Y-10970606D01*
X10325856Y-10970606D01*
D11*
X10702881Y-11025726D02*
X10588595Y-11025726D01*
X10645738Y-11025726D02*
X10645738Y-10825726D01*
X10626690Y-10854298D01*
X10607643Y-10873345D01*
X10588595Y-10882869D01*
X10788595Y-11006679D02*
X10798119Y-11016202D01*
X10788595Y-11025726D01*
X10779071Y-11016202D01*
X10788595Y-11006679D01*
X10788595Y-11025726D01*
X10921929Y-10825726D02*
X10940976Y-10825726D01*
X10960024Y-10835250D01*
X10969548Y-10844774D01*
X10979071Y-10863821D01*
X10988595Y-10901917D01*
X10988595Y-10949536D01*
X10979071Y-10987631D01*
X10969548Y-11006679D01*
X10960024Y-11016202D01*
X10940976Y-11025726D01*
X10921929Y-11025726D01*
X10902881Y-11016202D01*
X10893357Y-11006679D01*
X10883833Y-10987631D01*
X10874310Y-10949536D01*
X10874310Y-10901917D01*
X10883833Y-10863821D01*
X10893357Y-10844774D01*
X10902881Y-10835250D01*
X10921929Y-10825726D01*
X11112405Y-10825726D02*
X11131452Y-10825726D01*
X11150500Y-10835250D01*
X11160024Y-10844774D01*
X11169548Y-10863821D01*
X11179071Y-10901917D01*
X11179071Y-10949536D01*
X11169548Y-10987631D01*
X11160024Y-11006679D01*
X11150500Y-11016202D01*
X11131452Y-11025726D01*
X11112405Y-11025726D01*
X11093357Y-11016202D01*
X11083833Y-11006679D01*
X11074310Y-10987631D01*
X11064786Y-10949536D01*
X11064786Y-10901917D01*
X11074310Y-10863821D01*
X11083833Y-10844774D01*
X11093357Y-10835250D01*
X11112405Y-10825726D01*
X11302881Y-10825726D02*
X11321928Y-10825726D01*
X11340976Y-10835250D01*
X11350500Y-10844774D01*
X11360024Y-10863821D01*
X11369548Y-10901917D01*
X11369548Y-10949536D01*
X11360024Y-10987631D01*
X11350500Y-11006679D01*
X11340976Y-11016202D01*
X11321928Y-11025726D01*
X11302881Y-11025726D01*
X11283833Y-11016202D01*
X11274309Y-11006679D01*
X11264786Y-10987631D01*
X11255262Y-10949536D01*
X11255262Y-10901917D01*
X11264786Y-10863821D01*
X11274309Y-10844774D01*
X11283833Y-10835250D01*
X11302881Y-10825726D01*
X11455262Y-11025726D02*
X11455262Y-10892393D01*
X11455262Y-10911440D02*
X11464786Y-10901917D01*
X11483833Y-10892393D01*
X11512405Y-10892393D01*
X11531452Y-10901917D01*
X11540976Y-10920964D01*
X11540976Y-11025726D01*
X11540976Y-10920964D02*
X11550500Y-10901917D01*
X11569548Y-10892393D01*
X11598119Y-10892393D01*
X11617167Y-10901917D01*
X11626690Y-10920964D01*
X11626690Y-11025726D01*
X11721928Y-11025726D02*
X11721928Y-10892393D01*
X11721928Y-10911440D02*
X11731452Y-10901917D01*
X11750500Y-10892393D01*
X11779071Y-10892393D01*
X11798119Y-10901917D01*
X11807643Y-10920964D01*
X11807643Y-11025726D01*
X11807643Y-10920964D02*
X11817167Y-10901917D01*
X11836214Y-10892393D01*
X11864786Y-10892393D01*
X11883833Y-10901917D01*
X11893357Y-10920964D01*
X11893357Y-11025726D01*
X12283833Y-10816202D02*
X12112405Y-11073345D01*
X12540976Y-10825726D02*
X12560024Y-10825726D01*
X12579071Y-10835250D01*
X12588595Y-10844774D01*
X12598119Y-10863821D01*
X12607643Y-10901917D01*
X12607643Y-10949536D01*
X12598119Y-10987631D01*
X12588595Y-11006679D01*
X12579071Y-11016202D01*
X12560024Y-11025726D01*
X12540976Y-11025726D01*
X12521928Y-11016202D01*
X12512405Y-11006679D01*
X12502881Y-10987631D01*
X12493357Y-10949536D01*
X12493357Y-10901917D01*
X12502881Y-10863821D01*
X12512405Y-10844774D01*
X12521928Y-10835250D01*
X12540976Y-10825726D01*
X12693357Y-11006679D02*
X12702881Y-11016202D01*
X12693357Y-11025726D01*
X12683833Y-11016202D01*
X12693357Y-11006679D01*
X12693357Y-11025726D01*
X12826690Y-10825726D02*
X12845738Y-10825726D01*
X12864786Y-10835250D01*
X12874309Y-10844774D01*
X12883833Y-10863821D01*
X12893357Y-10901917D01*
X12893357Y-10949536D01*
X12883833Y-10987631D01*
X12874309Y-11006679D01*
X12864786Y-11016202D01*
X12845738Y-11025726D01*
X12826690Y-11025726D01*
X12807643Y-11016202D01*
X12798119Y-11006679D01*
X12788595Y-10987631D01*
X12779071Y-10949536D01*
X12779071Y-10901917D01*
X12788595Y-10863821D01*
X12798119Y-10844774D01*
X12807643Y-10835250D01*
X12826690Y-10825726D01*
X12960024Y-10825726D02*
X13083833Y-10825726D01*
X13017167Y-10901917D01*
X13045738Y-10901917D01*
X13064786Y-10911440D01*
X13074309Y-10920964D01*
X13083833Y-10940012D01*
X13083833Y-10987631D01*
X13074309Y-11006679D01*
X13064786Y-11016202D01*
X13045738Y-11025726D01*
X12988595Y-11025726D01*
X12969548Y-11016202D01*
X12960024Y-11006679D01*
X13179071Y-11025726D02*
X13217167Y-11025726D01*
X13236214Y-11016202D01*
X13245738Y-11006679D01*
X13264786Y-10978107D01*
X13274309Y-10940012D01*
X13274309Y-10863821D01*
X13264786Y-10844774D01*
X13255262Y-10835250D01*
X13236214Y-10825726D01*
X13198119Y-10825726D01*
X13179071Y-10835250D01*
X13169548Y-10844774D01*
X13160024Y-10863821D01*
X13160024Y-10911440D01*
X13169548Y-10930488D01*
X13179071Y-10940012D01*
X13198119Y-10949536D01*
X13236214Y-10949536D01*
X13255262Y-10940012D01*
X13264786Y-10930488D01*
X13274309Y-10911440D01*
X13445738Y-10892393D02*
X13445738Y-11025726D01*
X13398119Y-10816202D02*
X13350500Y-10959060D01*
X13474309Y-10959060D01*
X13540976Y-10825726D02*
X13540976Y-10863821D01*
X13617167Y-10825726D02*
X13617167Y-10863821D01*
X13912405Y-11101917D02*
X13902881Y-11092393D01*
X13883833Y-11063821D01*
X13874309Y-11044774D01*
X13864786Y-11016202D01*
X13855262Y-10968583D01*
X13855262Y-10930488D01*
X13864786Y-10882869D01*
X13874309Y-10854298D01*
X13883833Y-10835250D01*
X13902881Y-10806679D01*
X13912405Y-10797155D01*
X14074309Y-10892393D02*
X14074309Y-11025726D01*
X14026690Y-10816202D02*
X13979071Y-10959060D01*
X14102881Y-10959060D01*
X14160024Y-10825726D02*
X14283833Y-10825726D01*
X14217167Y-10901917D01*
X14245738Y-10901917D01*
X14264786Y-10911440D01*
X14274309Y-10920964D01*
X14283833Y-10940012D01*
X14283833Y-10987631D01*
X14274309Y-11006679D01*
X14264786Y-11016202D01*
X14245738Y-11025726D01*
X14188595Y-11025726D01*
X14169548Y-11016202D01*
X14160024Y-11006679D01*
X14521928Y-11025726D02*
X14521928Y-10825726D01*
X14607643Y-11025726D02*
X14607643Y-10920964D01*
X14598119Y-10901917D01*
X14579071Y-10892393D01*
X14550500Y-10892393D01*
X14531452Y-10901917D01*
X14521928Y-10911440D01*
X14731452Y-11025726D02*
X14712405Y-11016202D01*
X14702881Y-11006679D01*
X14693357Y-10987631D01*
X14693357Y-10930488D01*
X14702881Y-10911440D01*
X14712405Y-10901917D01*
X14731452Y-10892393D01*
X14760024Y-10892393D01*
X14779071Y-10901917D01*
X14788595Y-10911440D01*
X14798119Y-10930488D01*
X14798119Y-10987631D01*
X14788595Y-11006679D01*
X14779071Y-11016202D01*
X14760024Y-11025726D01*
X14731452Y-11025726D01*
X14912405Y-11025726D02*
X14893357Y-11016202D01*
X14883833Y-10997155D01*
X14883833Y-10825726D01*
X15064786Y-11016202D02*
X15045738Y-11025726D01*
X15007643Y-11025726D01*
X14988595Y-11016202D01*
X14979071Y-10997155D01*
X14979071Y-10920964D01*
X14988595Y-10901917D01*
X15007643Y-10892393D01*
X15045738Y-10892393D01*
X15064786Y-10901917D01*
X15074309Y-10920964D01*
X15074309Y-10940012D01*
X14979071Y-10959060D01*
X15150500Y-11016202D02*
X15169548Y-11025726D01*
X15207643Y-11025726D01*
X15226690Y-11016202D01*
X15236214Y-10997155D01*
X15236214Y-10987631D01*
X15226690Y-10968583D01*
X15207643Y-10959060D01*
X15179071Y-10959060D01*
X15160024Y-10949536D01*
X15150500Y-10930488D01*
X15150500Y-10920964D01*
X15160024Y-10901917D01*
X15179071Y-10892393D01*
X15207643Y-10892393D01*
X15226690Y-10901917D01*
X15302881Y-11101917D02*
X15312405Y-11092393D01*
X15331452Y-11063821D01*
X15340976Y-11044774D01*
X15350500Y-11016202D01*
X15360024Y-10968583D01*
X15360024Y-10930488D01*
X15350500Y-10882869D01*
X15340976Y-10854298D01*
X15331452Y-10835250D01*
X15312405Y-10806679D01*
X15302881Y-10797155D01*
D16*
X10289500Y-11250250D02*
X10340500Y-11199250D01*
X10289500Y-11148250D01*
X10238500Y-11199250D01*
X10289500Y-11250250D01*
D11*
X10702881Y-11289726D02*
X10588595Y-11289726D01*
X10645738Y-11289726D02*
X10645738Y-11089726D01*
X10626690Y-11118298D01*
X10607643Y-11137345D01*
X10588595Y-11146869D01*
X10788595Y-11270678D02*
X10798119Y-11280202D01*
X10788595Y-11289726D01*
X10779071Y-11280202D01*
X10788595Y-11270678D01*
X10788595Y-11289726D01*
X10921929Y-11089726D02*
X10940976Y-11089726D01*
X10960024Y-11099250D01*
X10969548Y-11108774D01*
X10979071Y-11127821D01*
X10988595Y-11165917D01*
X10988595Y-11213536D01*
X10979071Y-11251631D01*
X10969548Y-11270678D01*
X10960024Y-11280202D01*
X10940976Y-11289726D01*
X10921929Y-11289726D01*
X10902881Y-11280202D01*
X10893357Y-11270678D01*
X10883833Y-11251631D01*
X10874310Y-11213536D01*
X10874310Y-11165917D01*
X10883833Y-11127821D01*
X10893357Y-11108774D01*
X10902881Y-11099250D01*
X10921929Y-11089726D01*
X11064786Y-11108774D02*
X11074310Y-11099250D01*
X11093357Y-11089726D01*
X11140976Y-11089726D01*
X11160024Y-11099250D01*
X11169548Y-11108774D01*
X11179071Y-11127821D01*
X11179071Y-11146869D01*
X11169548Y-11175440D01*
X11055262Y-11289726D01*
X11179071Y-11289726D01*
X11302881Y-11089726D02*
X11321928Y-11089726D01*
X11340976Y-11099250D01*
X11350500Y-11108774D01*
X11360024Y-11127821D01*
X11369548Y-11165917D01*
X11369548Y-11213536D01*
X11360024Y-11251631D01*
X11350500Y-11270678D01*
X11340976Y-11280202D01*
X11321928Y-11289726D01*
X11302881Y-11289726D01*
X11283833Y-11280202D01*
X11274309Y-11270678D01*
X11264786Y-11251631D01*
X11255262Y-11213536D01*
X11255262Y-11165917D01*
X11264786Y-11127821D01*
X11274309Y-11108774D01*
X11283833Y-11099250D01*
X11302881Y-11089726D01*
X11455262Y-11289726D02*
X11455262Y-11156393D01*
X11455262Y-11175440D02*
X11464786Y-11165917D01*
X11483833Y-11156393D01*
X11512405Y-11156393D01*
X11531452Y-11165917D01*
X11540976Y-11184964D01*
X11540976Y-11289726D01*
X11540976Y-11184964D02*
X11550500Y-11165917D01*
X11569548Y-11156393D01*
X11598119Y-11156393D01*
X11617167Y-11165917D01*
X11626690Y-11184964D01*
X11626690Y-11289726D01*
X11721928Y-11289726D02*
X11721928Y-11156393D01*
X11721928Y-11175440D02*
X11731452Y-11165917D01*
X11750500Y-11156393D01*
X11779071Y-11156393D01*
X11798119Y-11165917D01*
X11807643Y-11184964D01*
X11807643Y-11289726D01*
X11807643Y-11184964D02*
X11817167Y-11165917D01*
X11836214Y-11156393D01*
X11864786Y-11156393D01*
X11883833Y-11165917D01*
X11893357Y-11184964D01*
X11893357Y-11289726D01*
X12283833Y-11080202D02*
X12112405Y-11337345D01*
X12540976Y-11089726D02*
X12560024Y-11089726D01*
X12579071Y-11099250D01*
X12588595Y-11108774D01*
X12598119Y-11127821D01*
X12607643Y-11165917D01*
X12607643Y-11213536D01*
X12598119Y-11251631D01*
X12588595Y-11270678D01*
X12579071Y-11280202D01*
X12560024Y-11289726D01*
X12540976Y-11289726D01*
X12521928Y-11280202D01*
X12512405Y-11270678D01*
X12502881Y-11251631D01*
X12493357Y-11213536D01*
X12493357Y-11165917D01*
X12502881Y-11127821D01*
X12512405Y-11108774D01*
X12521928Y-11099250D01*
X12540976Y-11089726D01*
X12693357Y-11270678D02*
X12702881Y-11280202D01*
X12693357Y-11289726D01*
X12683833Y-11280202D01*
X12693357Y-11270678D01*
X12693357Y-11289726D01*
X12826690Y-11089726D02*
X12845738Y-11089726D01*
X12864786Y-11099250D01*
X12874309Y-11108774D01*
X12883833Y-11127821D01*
X12893357Y-11165917D01*
X12893357Y-11213536D01*
X12883833Y-11251631D01*
X12874309Y-11270678D01*
X12864786Y-11280202D01*
X12845738Y-11289726D01*
X12826690Y-11289726D01*
X12807643Y-11280202D01*
X12798119Y-11270678D01*
X12788595Y-11251631D01*
X12779071Y-11213536D01*
X12779071Y-11165917D01*
X12788595Y-11127821D01*
X12798119Y-11108774D01*
X12807643Y-11099250D01*
X12826690Y-11089726D01*
X13064786Y-11156393D02*
X13064786Y-11289726D01*
X13017167Y-11080202D02*
X12969548Y-11223059D01*
X13093357Y-11223059D01*
X13207643Y-11089726D02*
X13226690Y-11089726D01*
X13245738Y-11099250D01*
X13255262Y-11108774D01*
X13264786Y-11127821D01*
X13274309Y-11165917D01*
X13274309Y-11213536D01*
X13264786Y-11251631D01*
X13255262Y-11270678D01*
X13245738Y-11280202D01*
X13226690Y-11289726D01*
X13207643Y-11289726D01*
X13188595Y-11280202D01*
X13179071Y-11270678D01*
X13169548Y-11251631D01*
X13160024Y-11213536D01*
X13160024Y-11165917D01*
X13169548Y-11127821D01*
X13179071Y-11108774D01*
X13188595Y-11099250D01*
X13207643Y-11089726D01*
X13350500Y-11108774D02*
X13360024Y-11099250D01*
X13379071Y-11089726D01*
X13426690Y-11089726D01*
X13445738Y-11099250D01*
X13455262Y-11108774D01*
X13464786Y-11127821D01*
X13464786Y-11146869D01*
X13455262Y-11175440D01*
X13340976Y-11289726D01*
X13464786Y-11289726D01*
X13540976Y-11089726D02*
X13540976Y-11127821D01*
X13617167Y-11089726D02*
X13617167Y-11127821D01*
X13912405Y-11365917D02*
X13902881Y-11356393D01*
X13883833Y-11327821D01*
X13874309Y-11308774D01*
X13864786Y-11280202D01*
X13855262Y-11232583D01*
X13855262Y-11194488D01*
X13864786Y-11146869D01*
X13874309Y-11118298D01*
X13883833Y-11099250D01*
X13902881Y-11070679D01*
X13912405Y-11061155D01*
X14074309Y-11156393D02*
X14074309Y-11289726D01*
X14026690Y-11080202D02*
X13979071Y-11223059D01*
X14102881Y-11223059D01*
X14160024Y-11089726D02*
X14283833Y-11089726D01*
X14217167Y-11165917D01*
X14245738Y-11165917D01*
X14264786Y-11175440D01*
X14274309Y-11184964D01*
X14283833Y-11204012D01*
X14283833Y-11251631D01*
X14274309Y-11270678D01*
X14264786Y-11280202D01*
X14245738Y-11289726D01*
X14188595Y-11289726D01*
X14169548Y-11280202D01*
X14160024Y-11270678D01*
X14521928Y-11289726D02*
X14521928Y-11089726D01*
X14607643Y-11289726D02*
X14607643Y-11184964D01*
X14598119Y-11165917D01*
X14579071Y-11156393D01*
X14550500Y-11156393D01*
X14531452Y-11165917D01*
X14521928Y-11175440D01*
X14731452Y-11289726D02*
X14712405Y-11280202D01*
X14702881Y-11270678D01*
X14693357Y-11251631D01*
X14693357Y-11194488D01*
X14702881Y-11175440D01*
X14712405Y-11165917D01*
X14731452Y-11156393D01*
X14760024Y-11156393D01*
X14779071Y-11165917D01*
X14788595Y-11175440D01*
X14798119Y-11194488D01*
X14798119Y-11251631D01*
X14788595Y-11270678D01*
X14779071Y-11280202D01*
X14760024Y-11289726D01*
X14731452Y-11289726D01*
X14912405Y-11289726D02*
X14893357Y-11280202D01*
X14883833Y-11261155D01*
X14883833Y-11089726D01*
X15064786Y-11280202D02*
X15045738Y-11289726D01*
X15007643Y-11289726D01*
X14988595Y-11280202D01*
X14979071Y-11261155D01*
X14979071Y-11184964D01*
X14988595Y-11165917D01*
X15007643Y-11156393D01*
X15045738Y-11156393D01*
X15064786Y-11165917D01*
X15074309Y-11184964D01*
X15074309Y-11204012D01*
X14979071Y-11223059D01*
X15150500Y-11280202D02*
X15169548Y-11289726D01*
X15207643Y-11289726D01*
X15226690Y-11280202D01*
X15236214Y-11261155D01*
X15236214Y-11251631D01*
X15226690Y-11232583D01*
X15207643Y-11223059D01*
X15179071Y-11223059D01*
X15160024Y-11213536D01*
X15150500Y-11194488D01*
X15150500Y-11184964D01*
X15160024Y-11165917D01*
X15179071Y-11156393D01*
X15207643Y-11156393D01*
X15226690Y-11165917D01*
X15302881Y-11365917D02*
X15312405Y-11356393D01*
X15331452Y-11327821D01*
X15340976Y-11308774D01*
X15350500Y-11280202D01*
X15360024Y-11232583D01*
X15360024Y-11194488D01*
X15350500Y-11146869D01*
X15340976Y-11118298D01*
X15331452Y-11099250D01*
X15312405Y-11070679D01*
X15302881Y-11061155D01*
D17*
X10200500Y-11393250D02*
X10340500Y-11533250D01*
X10340500Y-11393250D02*
X10200500Y-11533250D01*
X10340500Y-11463250D02*
G75*
G03*
X10340500Y-11463250I-70000J0D01*
G01*
D11*
X10702881Y-11553726D02*
X10588595Y-11553726D01*
X10645738Y-11553726D02*
X10645738Y-11353726D01*
X10626690Y-11382298D01*
X10607643Y-11401345D01*
X10588595Y-11410869D01*
X10788595Y-11534678D02*
X10798119Y-11544202D01*
X10788595Y-11553726D01*
X10779071Y-11544202D01*
X10788595Y-11534678D01*
X10788595Y-11553726D01*
X10969548Y-11420393D02*
X10969548Y-11553726D01*
X10921929Y-11344202D02*
X10874310Y-11487059D01*
X10998119Y-11487059D01*
X11112405Y-11353726D02*
X11131452Y-11353726D01*
X11150500Y-11363250D01*
X11160024Y-11372774D01*
X11169548Y-11391821D01*
X11179071Y-11429917D01*
X11179071Y-11477536D01*
X11169548Y-11515631D01*
X11160024Y-11534678D01*
X11150500Y-11544202D01*
X11131452Y-11553726D01*
X11112405Y-11553726D01*
X11093357Y-11544202D01*
X11083833Y-11534678D01*
X11074310Y-11515631D01*
X11064786Y-11477536D01*
X11064786Y-11429917D01*
X11074310Y-11391821D01*
X11083833Y-11372774D01*
X11093357Y-11363250D01*
X11112405Y-11353726D01*
X11302881Y-11353726D02*
X11321928Y-11353726D01*
X11340976Y-11363250D01*
X11350500Y-11372774D01*
X11360024Y-11391821D01*
X11369548Y-11429917D01*
X11369548Y-11477536D01*
X11360024Y-11515631D01*
X11350500Y-11534678D01*
X11340976Y-11544202D01*
X11321928Y-11553726D01*
X11302881Y-11553726D01*
X11283833Y-11544202D01*
X11274309Y-11534678D01*
X11264786Y-11515631D01*
X11255262Y-11477536D01*
X11255262Y-11429917D01*
X11264786Y-11391821D01*
X11274309Y-11372774D01*
X11283833Y-11363250D01*
X11302881Y-11353726D01*
X11455262Y-11553726D02*
X11455262Y-11420393D01*
X11455262Y-11439440D02*
X11464786Y-11429917D01*
X11483833Y-11420393D01*
X11512405Y-11420393D01*
X11531452Y-11429917D01*
X11540976Y-11448964D01*
X11540976Y-11553726D01*
X11540976Y-11448964D02*
X11550500Y-11429917D01*
X11569548Y-11420393D01*
X11598119Y-11420393D01*
X11617167Y-11429917D01*
X11626690Y-11448964D01*
X11626690Y-11553726D01*
X11721928Y-11553726D02*
X11721928Y-11420393D01*
X11721928Y-11439440D02*
X11731452Y-11429917D01*
X11750500Y-11420393D01*
X11779071Y-11420393D01*
X11798119Y-11429917D01*
X11807643Y-11448964D01*
X11807643Y-11553726D01*
X11807643Y-11448964D02*
X11817167Y-11429917D01*
X11836214Y-11420393D01*
X11864786Y-11420393D01*
X11883833Y-11429917D01*
X11893357Y-11448964D01*
X11893357Y-11553726D01*
X12283833Y-11344202D02*
X12112405Y-11601345D01*
X12540976Y-11353726D02*
X12560024Y-11353726D01*
X12579071Y-11363250D01*
X12588595Y-11372774D01*
X12598119Y-11391821D01*
X12607643Y-11429917D01*
X12607643Y-11477536D01*
X12598119Y-11515631D01*
X12588595Y-11534678D01*
X12579071Y-11544202D01*
X12560024Y-11553726D01*
X12540976Y-11553726D01*
X12521928Y-11544202D01*
X12512405Y-11534678D01*
X12502881Y-11515631D01*
X12493357Y-11477536D01*
X12493357Y-11429917D01*
X12502881Y-11391821D01*
X12512405Y-11372774D01*
X12521928Y-11363250D01*
X12540976Y-11353726D01*
X12693357Y-11534678D02*
X12702881Y-11544202D01*
X12693357Y-11553726D01*
X12683833Y-11544202D01*
X12693357Y-11534678D01*
X12693357Y-11553726D01*
X12826690Y-11353726D02*
X12845738Y-11353726D01*
X12864786Y-11363250D01*
X12874309Y-11372774D01*
X12883833Y-11391821D01*
X12893357Y-11429917D01*
X12893357Y-11477536D01*
X12883833Y-11515631D01*
X12874309Y-11534678D01*
X12864786Y-11544202D01*
X12845738Y-11553726D01*
X12826690Y-11553726D01*
X12807643Y-11544202D01*
X12798119Y-11534678D01*
X12788595Y-11515631D01*
X12779071Y-11477536D01*
X12779071Y-11429917D01*
X12788595Y-11391821D01*
X12798119Y-11372774D01*
X12807643Y-11363250D01*
X12826690Y-11353726D01*
X13074309Y-11353726D02*
X12979071Y-11353726D01*
X12969548Y-11448964D01*
X12979071Y-11439440D01*
X12998119Y-11429917D01*
X13045738Y-11429917D01*
X13064786Y-11439440D01*
X13074309Y-11448964D01*
X13083833Y-11468012D01*
X13083833Y-11515631D01*
X13074309Y-11534678D01*
X13064786Y-11544202D01*
X13045738Y-11553726D01*
X12998119Y-11553726D01*
X12979071Y-11544202D01*
X12969548Y-11534678D01*
X13264786Y-11353726D02*
X13169548Y-11353726D01*
X13160024Y-11448964D01*
X13169548Y-11439440D01*
X13188595Y-11429917D01*
X13236214Y-11429917D01*
X13255262Y-11439440D01*
X13264786Y-11448964D01*
X13274309Y-11468012D01*
X13274309Y-11515631D01*
X13264786Y-11534678D01*
X13255262Y-11544202D01*
X13236214Y-11553726D01*
X13188595Y-11553726D01*
X13169548Y-11544202D01*
X13160024Y-11534678D01*
X13464786Y-11553726D02*
X13350500Y-11553726D01*
X13407643Y-11553726D02*
X13407643Y-11353726D01*
X13388595Y-11382298D01*
X13369548Y-11401345D01*
X13350500Y-11410869D01*
X13540976Y-11353726D02*
X13540976Y-11391821D01*
X13617167Y-11353726D02*
X13617167Y-11391821D01*
X13912405Y-11629917D02*
X13902881Y-11620393D01*
X13883833Y-11591821D01*
X13874309Y-11572774D01*
X13864786Y-11544202D01*
X13855262Y-11496583D01*
X13855262Y-11458488D01*
X13864786Y-11410869D01*
X13874309Y-11382298D01*
X13883833Y-11363250D01*
X13902881Y-11334678D01*
X13912405Y-11325155D01*
X13979071Y-11372774D02*
X13988595Y-11363250D01*
X14007643Y-11353726D01*
X14055262Y-11353726D01*
X14074309Y-11363250D01*
X14083833Y-11372774D01*
X14093357Y-11391821D01*
X14093357Y-11410869D01*
X14083833Y-11439440D01*
X13969548Y-11553726D01*
X14093357Y-11553726D01*
X14331452Y-11553726D02*
X14331452Y-11353726D01*
X14417167Y-11553726D02*
X14417167Y-11448964D01*
X14407643Y-11429917D01*
X14388595Y-11420393D01*
X14360024Y-11420393D01*
X14340976Y-11429917D01*
X14331452Y-11439440D01*
X14540976Y-11553726D02*
X14521928Y-11544202D01*
X14512405Y-11534678D01*
X14502881Y-11515631D01*
X14502881Y-11458488D01*
X14512405Y-11439440D01*
X14521928Y-11429917D01*
X14540976Y-11420393D01*
X14569548Y-11420393D01*
X14588595Y-11429917D01*
X14598119Y-11439440D01*
X14607643Y-11458488D01*
X14607643Y-11515631D01*
X14598119Y-11534678D01*
X14588595Y-11544202D01*
X14569548Y-11553726D01*
X14540976Y-11553726D01*
X14721928Y-11553726D02*
X14702881Y-11544202D01*
X14693357Y-11525155D01*
X14693357Y-11353726D01*
X14874309Y-11544202D02*
X14855262Y-11553726D01*
X14817167Y-11553726D01*
X14798119Y-11544202D01*
X14788595Y-11525155D01*
X14788595Y-11448964D01*
X14798119Y-11429917D01*
X14817167Y-11420393D01*
X14855262Y-11420393D01*
X14874309Y-11429917D01*
X14883833Y-11448964D01*
X14883833Y-11468012D01*
X14788595Y-11487059D01*
X14960024Y-11544202D02*
X14979071Y-11553726D01*
X15017167Y-11553726D01*
X15036214Y-11544202D01*
X15045738Y-11525155D01*
X15045738Y-11515631D01*
X15036214Y-11496583D01*
X15017167Y-11487059D01*
X14988595Y-11487059D01*
X14969548Y-11477536D01*
X14960024Y-11458488D01*
X14960024Y-11448964D01*
X14969548Y-11429917D01*
X14988595Y-11420393D01*
X15017167Y-11420393D01*
X15036214Y-11429917D01*
X15112405Y-11629917D02*
X15121928Y-11620393D01*
X15140976Y-11591821D01*
X15150500Y-11572774D01*
X15160024Y-11544202D01*
X15169548Y-11496583D01*
X15169548Y-11458488D01*
X15160024Y-11410869D01*
X15150500Y-11382298D01*
X15140976Y-11363250D01*
X15121928Y-11334678D01*
X15112405Y-11325155D01*
M02*
